<svg width="123" height="50" viewBox="0 0 123 50" fill="none" xmlns="http://www.w3.org/2000/svg">
<path d="M0.410156 29.6203V0H16.6422C23.9481 0 27.9221 4.4947 27.9221 9.85483C27.9221 15.215 23.9481 19.5701 16.6422 19.5701H8.786V29.5924H0.410156V29.6203ZM15.5417 6.44891H8.786V13.1212H15.5417C17.7732 13.1212 19.4239 11.837 19.4239 9.82691C19.4239 7.81686 17.7732 6.44891 15.5417 6.44891Z" fill="#333E5A"/>
<path d="M47.3944 29.6203L41.9531 19.598H37.6735V29.6203H29.2977V0H45.5297C52.7133 0 56.8096 4.35511 56.8096 9.85483C56.8096 14.9916 53.3553 17.7554 50.329 18.7326L56.9318 29.6203H47.3638H47.3944ZM44.2764 6.44891H37.6735V13.1212H44.2764C46.4773 13.1212 48.3114 11.837 48.3114 9.799C48.3114 7.76103 46.4773 6.47683 44.2764 6.47683V6.44891Z" fill="#333E5A"/>
<path d="M68.6397 10.1061H60.2638V29.6203H68.6397V10.1061Z" fill="#333E5A"/>
<path d="M68.6397 0H60.2638V6.03015H68.6397V0Z" fill="#333E5A"/>
<path d="M84.0769 0L77.2601 13.0932L70.5044 0H67.5086V10.1061L75.4259 24.0089H79.1248L87.3478 9.63149V29.6203H95.693V0H84.0769Z" fill="#333E5A"/>
<path d="M98.6277 0H122.41V6.44891H107.003V11.3903H122.074V17.8671H107.003V23.1993H122.41V29.6482H98.6277V0Z" fill="#333E5A"/>
<path d="M1.11324 43.4673C1.11324 39.6147 4.29239 36.9626 8.32747 36.9626C11.4761 36.9626 13.2185 38.4701 14.1967 40.0335L11.69 41.1502C11.1092 40.1452 9.88648 39.3356 8.35804 39.3356C5.97367 39.3356 4.13955 41.0944 4.13955 43.4673C4.13955 45.8403 5.94311 47.5991 8.35804 47.5991C9.88648 47.5991 11.1092 46.8174 11.69 45.7845L14.1967 46.9012C13.2185 48.4645 11.4761 50 8.32747 50C4.29239 50 1.11324 47.3758 1.11324 43.4953V43.4673Z" fill="#4FBCCE"/>
<path d="M25.3543 49.7208V44.4444H18.8737V49.7208H15.9391V37.158H18.8737V42.0994H25.3543V37.158H28.2889V49.7208H25.3543Z" fill="#4FBCCE"/>
<path d="M40.6081 49.7208L39.7522 47.5433H33.6079L32.7519 49.7208H29.5422L34.8612 37.158H38.5294L43.8178 49.7208H40.6081ZM36.6647 39.4752L34.3721 45.2261H38.9268L36.6647 39.4752Z" fill="#4FBCCE"/>
<path d="M57.0541 49.7208V40.6756L53.1719 49.7208H51.888L48.0057 40.6756V49.7208H45.0711V37.158H49.1674L52.4994 45.0028L55.8314 37.158H59.9581V49.7208H57.0235H57.0541Z" fill="#4FBCCE"/>
<path d="M62.7093 49.7208V37.158H69.1288C72.1245 37.158 73.7447 39.0006 73.7447 41.206C73.7447 43.4115 72.0939 45.2261 69.1288 45.2261H65.6134V49.7208H62.6788H62.7093ZM68.762 39.4472H65.6439V42.909H68.762C69.9236 42.909 70.7795 42.239 70.7795 41.1781C70.7795 40.1173 69.9236 39.4472 68.762 39.4472Z" fill="#4FBCCE"/>
<path d="M75.5788 49.7208V37.158H78.5134V49.7208H75.5788Z" fill="#4FBCCE"/>
<path d="M87.7146 36.9626C91.8719 36.9626 94.8983 39.6706 94.8983 43.4673C94.8983 47.2641 91.8719 49.9721 87.7146 49.9721C83.5572 49.9721 80.5309 47.2641 80.5309 43.4673C80.5309 39.6706 83.5572 36.9626 87.7146 36.9626ZM87.7146 39.3356C85.1774 39.3356 83.5572 41.0944 83.5572 43.4673C83.5572 45.8403 85.1774 47.5991 87.7146 47.5991C90.2518 47.5991 91.9025 45.8124 91.9025 43.4673C91.9025 41.1223 90.2518 39.3356 87.7146 39.3356Z" fill="#4FBCCE"/>
<path d="M106.453 49.7208L99.9115 41.2898V49.7208H96.9769V37.158H99.9727L106.331 45.282V37.158H109.266V49.7208H106.453Z" fill="#4FBCCE"/>
<path d="M112.659 45.9241C113.637 46.8453 115.135 47.627 117.03 47.627C118.65 47.627 119.414 46.9291 119.414 46.2032C119.414 45.254 118.222 44.947 116.633 44.6119C114.371 44.1374 111.497 43.579 111.497 40.7594C111.497 38.6656 113.484 36.9626 116.724 36.9626C118.925 36.9626 120.729 37.5768 122.074 38.7214L120.454 40.6756C119.353 39.7264 117.855 39.3077 116.51 39.3077C115.165 39.3077 114.493 39.8381 114.493 40.5919C114.493 41.4294 115.654 41.7085 117.244 42.0436C119.506 42.5182 122.41 43.1323 122.41 45.9241C122.41 48.2133 120.607 49.9442 116.908 49.9442C114.279 49.9442 112.384 49.1346 111.069 47.962L112.689 45.9241H112.659Z" fill="#4FBCCE"/>
</svg>
