<svg width="211" height="72" viewBox="0 0 211 72" fill="none" xmlns="http://www.w3.org/2000/svg">
<path d="M184.566 25.4397L181.127 18.2004L177.688 25.4397H184.566ZM186.15 28.7651H176.103L174.182 32.8262H169.057L178.699 13.9333H183.655L193.331 32.8262H188.072L186.15 28.7651ZM152.436 20.2309C152.335 22.4675 152.133 24.3509 151.796 25.8812C151.458 27.4114 150.953 28.5297 150.278 29.236H159.954V17.4647H152.537L152.436 20.2309ZM167.911 29.236V36.7107H163.258V32.7968H147.986V36.7107H143.333V29.236H144.244C145.558 29.2066 146.469 28.3826 147.008 26.764C147.548 25.1455 147.885 22.8206 147.986 19.8189L148.222 13.9039H164.843V29.236H167.877H167.911ZM133.287 29.5597C134.568 29.5597 135.545 29.3537 136.22 28.9123C136.894 28.4708 137.231 27.8234 137.231 26.97C137.231 25.322 135.916 24.498 133.287 24.498H128.263V29.5597H133.287ZM123.307 13.9039H140.771V17.3764H128.297V21.2609H134.298C136.928 21.2609 138.917 21.7318 140.265 22.7029C141.648 23.6446 142.322 25.0277 142.322 26.8229C142.322 28.7063 141.546 30.1777 140.029 31.2077C138.512 32.2377 136.354 32.7674 133.556 32.7674H123.307V13.9039ZM97.9204 13.9039H102.91V26.2049L113.227 13.9039H117.913V32.7968H112.957V20.5252L102.64 32.7968H97.9204V13.9039Z" fill="#29292E"/>
<path d="M191.082 46.922C191.453 46.922 191.79 46.8337 192.059 46.6866C192.329 46.5394 192.531 46.3334 192.666 46.0686V45.3917H191.149C190.306 45.3917 189.902 45.6272 189.902 46.1274C189.902 46.3629 190.003 46.5689 190.239 46.6866C190.441 46.8337 190.745 46.8926 191.115 46.8926M191.351 42.6843C192.127 42.6843 192.7 42.8315 193.105 43.1846C193.509 43.5083 193.711 43.9792 193.711 44.6266V47.5106H192.767V46.8926C192.599 47.128 192.363 47.2751 192.059 47.3929C191.756 47.5106 191.385 47.5694 190.981 47.5694C190.374 47.5694 189.868 47.4517 189.497 47.1869C189.126 46.922 188.958 46.5983 188.958 46.1569C188.958 45.7154 189.126 45.3917 189.497 45.1269C189.834 44.862 190.407 44.7443 191.183 44.7443H192.767V44.5677C192.767 44.1852 192.633 43.9203 192.397 43.7143C192.161 43.5083 191.79 43.42 191.318 43.42C190.981 43.42 190.677 43.4789 190.374 43.5672C190.07 43.6555 189.801 43.7732 189.598 43.9498L189.194 43.3023C189.463 43.0963 189.801 42.9492 190.205 42.8609C190.61 42.7432 191.014 42.7138 191.453 42.7138M185.991 47.5989C185.418 47.5989 184.946 47.4811 184.507 47.2751C184.069 47.0691 183.732 46.7749 183.496 46.3923C183.26 46.0097 183.125 45.5977 183.125 45.1269C183.125 44.656 183.26 44.244 183.496 43.8615C183.732 43.4789 184.103 43.214 184.507 43.008C184.946 42.8021 185.451 42.6843 185.991 42.6843C186.497 42.6843 186.935 42.7726 187.306 42.9492C187.71 43.1258 187.98 43.3906 188.216 43.7143L187.474 44.1263C187.306 43.8909 187.103 43.7143 186.834 43.626C186.564 43.5083 186.294 43.4495 185.991 43.4495C185.62 43.4495 185.317 43.5083 185.013 43.6555C184.743 43.8026 184.507 43.9792 184.339 44.244C184.17 44.5089 184.103 44.8032 184.103 45.1269C184.103 45.4506 184.17 45.7743 184.339 46.0097C184.507 46.2746 184.71 46.4512 185.013 46.5983C185.283 46.7454 185.62 46.8043 185.991 46.8043C186.294 46.8043 186.598 46.7454 186.834 46.6277C187.103 46.51 187.306 46.3334 187.474 46.1274L188.216 46.5394C188.014 46.8631 187.71 47.128 187.306 47.3046C186.901 47.4811 186.463 47.5694 185.991 47.5694M179.349 43.42C178.877 43.42 178.473 43.5378 178.169 43.8026C177.832 44.0675 177.663 44.3912 177.596 44.8032H181.102C181.035 44.3912 180.866 44.0675 180.529 43.8026C180.226 43.5378 179.821 43.42 179.349 43.42ZM182.046 45.1563C182.046 45.1563 182.046 45.3035 182.046 45.4212H177.596C177.663 45.8332 177.866 46.1863 178.237 46.4217C178.607 46.6866 179.046 46.8043 179.585 46.8043C180.226 46.8043 180.765 46.5983 181.17 46.2157L181.709 46.7749C181.473 47.0397 181.17 47.2163 180.799 47.3634C180.428 47.4811 180.023 47.5694 179.551 47.5694C178.978 47.5694 178.473 47.4517 178.001 47.2457C177.562 47.0397 177.191 46.7454 176.955 46.3629C176.719 45.9803 176.585 45.5683 176.585 45.0975C176.585 44.6266 176.719 44.2146 176.955 43.832C177.191 43.4495 177.529 43.1552 177.933 42.9492C178.338 42.7432 178.81 42.6255 179.349 42.6255C179.889 42.6255 180.327 42.7432 180.765 42.9492C181.17 43.1552 181.507 43.4495 181.743 43.832C181.979 44.2146 182.08 44.6266 182.08 45.1269M170.078 42.7138H171.056V44.7443H174.191V42.7138H175.169V47.5106H174.191V45.5094H171.056V47.5106H170.078V42.7138ZM167.414 45.0092C167.785 45.0975 168.055 45.2152 168.257 45.4212C168.46 45.5977 168.561 45.8332 168.561 46.1274C168.561 46.4217 168.46 46.6572 168.224 46.8926C167.988 47.0986 167.684 47.2751 167.313 47.4223C166.909 47.54 166.504 47.5989 165.998 47.5989C165.594 47.5989 165.189 47.54 164.818 47.4517C164.414 47.3634 164.077 47.2163 163.773 47.0397L164.077 46.3923C164.346 46.5394 164.65 46.6572 164.987 46.716C165.324 46.8043 165.661 46.8337 165.998 46.8337C166.47 46.8337 166.841 46.7749 167.111 46.6277C167.381 46.4806 167.516 46.304 167.516 46.0686C167.516 45.8332 167.414 45.686 167.178 45.5683C166.942 45.4506 166.639 45.3917 166.234 45.3917H165.223V44.7737H166.167C166.538 44.7737 166.841 44.7149 167.044 44.5972C167.246 44.4795 167.381 44.3323 167.381 44.1263C167.381 43.9203 167.246 43.7438 167.01 43.626C166.774 43.5083 166.403 43.4495 165.998 43.4495C165.459 43.4495 164.886 43.5672 164.279 43.832L164.009 43.1552C164.684 42.8609 165.392 42.7138 166.1 42.7138C166.538 42.7138 166.942 42.7726 167.28 42.8903C167.617 43.0081 167.92 43.1552 168.122 43.3612C168.325 43.5672 168.426 43.7732 168.426 44.038C168.426 44.2735 168.325 44.4795 168.156 44.656C167.988 44.8326 167.752 44.9797 167.448 45.068M157.401 42.7726H158.379V46.2452L161.75 42.7726H162.661V47.5694H161.683V44.0969L158.345 47.5694H157.435V42.7726H157.401ZM153.187 46.8926C153.524 46.8926 153.861 46.8337 154.131 46.6866C154.401 46.5394 154.603 46.3629 154.772 46.1274C154.906 45.892 155.008 45.5977 155.008 45.3035C155.008 44.8326 154.839 44.45 154.502 44.1558C154.165 43.8615 153.726 43.7143 153.187 43.7143C152.648 43.7143 152.209 43.8615 151.872 44.1558C151.535 44.45 151.366 44.8326 151.366 45.3035C151.366 45.6272 151.434 45.892 151.602 46.1274C151.771 46.3629 151.973 46.5689 152.243 46.6866C152.513 46.8043 152.816 46.8926 153.187 46.8926ZM153.356 42.9198C153.861 42.9198 154.333 43.0081 154.704 43.214C155.109 43.42 155.412 43.6849 155.648 44.038C155.884 44.3912 155.985 44.8032 155.985 45.2446C155.985 45.686 155.85 46.1274 155.614 46.4806C155.378 46.8337 155.041 47.128 154.603 47.3046C154.165 47.5106 153.693 47.5989 153.12 47.5989C152.176 47.5989 151.468 47.334 150.962 46.7749C150.456 46.2157 150.186 45.4212 150.186 44.4206C150.186 43.42 150.422 42.6843 150.894 42.1252C151.366 41.5661 152.074 41.2129 153.018 41.0069L155.513 40.5067L155.648 41.3012L153.356 41.7426C152.648 41.8898 152.108 42.1252 151.737 42.4489C151.4 42.7726 151.198 43.2435 151.13 43.8615C151.366 43.5672 151.67 43.3023 152.041 43.1552C152.412 42.9786 152.816 42.8903 153.288 42.8903M146.714 43.4789H144.725V47.5106H143.747V43.4789H141.758V42.7138H146.748V43.4789H146.714ZM141.589 42.7138L138.926 47.9814C138.69 48.4817 138.42 48.8054 138.117 49.0114C137.813 49.2174 137.409 49.3057 136.971 49.3057C136.701 49.3057 136.431 49.2763 136.195 49.188C135.959 49.0997 135.723 49.0114 135.555 48.8643L135.993 48.2168C136.263 48.4523 136.6 48.57 136.971 48.57C137.207 48.57 137.409 48.5111 137.577 48.3934C137.746 48.2757 137.881 48.0991 138.016 47.8343L138.184 47.5106L135.757 42.7432H136.802L138.724 46.5689L140.612 42.7432H141.589V42.7138ZM135.656 43.4789H133.667V47.5106H132.689V43.4789H130.7V42.7138H135.689V43.4789H135.656ZM124.395 42.7138H125.373V46.1863L128.744 42.7138H129.655V47.5106H128.677V44.038L125.339 47.5106H124.429V42.7138H124.395ZM123.384 43.4789H121.395V47.5106H120.417V43.4789H118.428V42.7138H123.417V43.4789H123.384ZM115.865 47.5694C115.292 47.5694 114.82 47.4517 114.382 47.2457C113.944 47.0397 113.607 46.7454 113.337 46.3629C113.101 45.9803 112.966 45.5683 112.966 45.0975C112.966 44.6266 113.101 44.2146 113.337 43.832C113.573 43.4495 113.944 43.1846 114.382 42.9786C114.82 42.7726 115.326 42.6549 115.865 42.6549C116.371 42.6549 116.809 42.7432 117.18 42.9198C117.585 43.0963 117.888 43.3612 118.091 43.6849L117.349 44.0969C117.18 43.8615 116.978 43.6849 116.708 43.5966C116.439 43.4789 116.169 43.42 115.865 43.42C115.495 43.42 115.191 43.4789 114.888 43.626C114.618 43.7732 114.382 43.9498 114.213 44.2146C114.045 44.4795 113.977 44.7737 113.977 45.0975C113.977 45.4212 114.045 45.7449 114.213 45.9803C114.382 46.2452 114.584 46.4217 114.888 46.5689C115.157 46.716 115.495 46.7749 115.865 46.7749C116.169 46.7749 116.472 46.716 116.708 46.5983C116.978 46.4806 117.18 46.304 117.349 46.098L118.091 46.51C117.888 46.8337 117.585 47.0986 117.18 47.2751C116.776 47.4517 116.337 47.54 115.865 47.54M106.426 42.7138H107.403V44.7443H110.539V42.7138H111.516V47.5106H110.539V45.5094H107.403V47.5106H106.426V42.7138ZM98.0981 41.1835H99.1096V46.0686L103.391 41.1835H104.335V47.5106H103.324V42.6549L99.0421 47.5106H98.0981V41.1835Z" fill="#29292E"/>
<path d="M154.577 56.232C154.915 56.232 155.252 56.1732 155.521 56.026C155.791 55.8789 156.027 55.6729 156.162 55.4375C156.331 55.1726 156.398 54.8783 156.398 54.5546C156.398 54.2309 156.331 53.9366 156.162 53.6718C155.993 53.4069 155.791 53.2304 155.521 53.0832C155.252 52.9361 154.915 52.8772 154.577 52.8772C154.24 52.8772 153.903 52.9361 153.633 53.0832C153.364 53.2304 153.128 53.4069 152.959 53.6718C152.791 53.9366 152.723 54.2309 152.723 54.5546C152.723 54.8783 152.791 55.1726 152.959 55.4375C153.128 55.7023 153.33 55.8789 153.633 56.026C153.903 56.1732 154.24 56.232 154.577 56.232ZM154.577 56.9972C154.038 56.9972 153.532 56.8795 153.094 56.6735C152.656 56.4675 152.319 56.1732 152.083 55.7906C151.847 55.4081 151.712 54.9961 151.712 54.5252C151.712 54.0544 151.847 53.6424 152.083 53.2598C152.319 52.8772 152.656 52.6124 153.094 52.4064C153.532 52.2004 154.004 52.0827 154.577 52.0827C155.151 52.0827 155.623 52.2004 156.027 52.4064C156.465 52.6124 156.803 52.9067 157.039 53.2598C157.275 53.6424 157.409 54.0544 157.409 54.5252C157.409 54.9961 157.275 55.4081 157.039 55.7906C156.803 56.1732 156.465 56.438 156.027 56.6735C155.589 56.8795 155.117 56.9972 154.577 56.9972ZM151.442 52.9066H148.408V56.9383H147.43V52.1415H151.476V52.9066H151.442ZM143.115 56.232C143.452 56.232 143.789 56.1732 144.059 56.026C144.328 55.8789 144.564 55.6729 144.699 55.4375C144.868 55.1726 144.935 54.8783 144.935 54.5546C144.935 54.2309 144.868 53.9366 144.699 53.6718C144.531 53.4069 144.328 53.2304 144.059 53.0832C143.789 52.9361 143.452 52.8772 143.115 52.8772C142.778 52.8772 142.44 52.9361 142.171 53.0832C141.901 53.2304 141.665 53.4069 141.496 53.6718C141.328 53.9366 141.26 54.2309 141.26 54.5546C141.26 54.8783 141.328 55.1726 141.496 55.4375C141.665 55.7023 141.867 55.8789 142.171 56.026C142.44 56.1732 142.778 56.232 143.115 56.232ZM143.115 56.9972C142.575 56.9972 142.07 56.8795 141.631 56.6735C141.193 56.4675 140.856 56.1732 140.62 55.7906C140.384 55.4081 140.249 54.9961 140.249 54.5252C140.249 54.0544 140.384 53.6424 140.62 53.2598C140.856 52.8772 141.193 52.6124 141.631 52.4064C142.07 52.2004 142.542 52.0827 143.115 52.0827C143.688 52.0827 144.16 52.2004 144.564 52.4064C145.003 52.6124 145.34 52.9067 145.576 53.2598C145.812 53.6424 145.947 54.0544 145.947 54.5252C145.947 54.9961 145.812 55.4081 145.576 55.7906C145.34 56.1732 145.003 56.438 144.564 56.6735C144.126 56.8795 143.654 56.9972 143.115 56.9972ZM136.979 56.2615C137.383 56.2615 137.687 56.2026 137.923 56.0849C138.125 55.9672 138.226 55.7906 138.226 55.5552C138.226 55.3198 138.125 55.1138 137.956 54.9961C137.754 54.8783 137.484 54.8195 137.046 54.8195H135.394V56.2615H136.979ZM135.394 54.2015H136.878C137.248 54.2015 137.552 54.1426 137.754 54.0249C137.956 53.9072 138.058 53.7306 138.058 53.4952C138.058 53.0244 137.687 52.8184 136.911 52.8184H135.428V54.2015H135.394ZM138.159 54.4369C138.867 54.5841 139.238 54.9666 139.238 55.614C139.238 56.026 139.069 56.3498 138.698 56.5852C138.327 56.8206 137.788 56.9383 137.08 56.9383H134.45V52.1415H136.979C137.619 52.1415 138.125 52.2592 138.496 52.4652C138.867 52.6712 139.035 52.9949 139.035 53.3775C139.035 53.6424 138.968 53.8484 138.799 54.0249C138.631 54.2015 138.428 54.3486 138.159 54.4369ZM130.135 56.2026C130.472 56.2026 130.809 56.1438 131.079 55.9966C131.348 55.8495 131.584 55.6435 131.719 55.408C131.888 55.1432 131.955 54.8489 131.955 54.5252C131.955 54.2015 131.888 53.9072 131.719 53.6424C131.551 53.3775 131.348 53.2009 131.079 53.0538C130.809 52.9067 130.472 52.8478 130.135 52.8478C129.798 52.8478 129.46 52.9067 129.191 53.0538C128.921 53.2009 128.685 53.3775 128.516 53.6424C128.348 53.9072 128.28 54.2015 128.28 54.5252C128.28 54.8489 128.348 55.1432 128.516 55.408C128.685 55.6729 128.887 55.8495 129.191 55.9966C129.46 56.1438 129.798 56.2026 130.135 56.2026ZM130.135 56.9677C129.595 56.9677 129.09 56.85 128.651 56.644C128.213 56.438 127.876 56.1438 127.64 55.7612C127.404 55.3786 127.269 54.9666 127.269 54.4958C127.269 54.0249 127.404 53.6129 127.64 53.2304C127.876 52.8478 128.213 52.5829 128.651 52.3769C129.09 52.1709 129.562 52.0532 130.135 52.0532C130.708 52.0532 131.18 52.1709 131.584 52.3769C132.023 52.5829 132.36 52.8772 132.596 53.2304C132.832 53.6129 132.967 54.0249 132.967 54.4958C132.967 54.9666 132.832 55.3786 132.596 55.7612C132.36 56.1438 132.023 56.4086 131.584 56.644C131.146 56.85 130.674 56.9677 130.135 56.9677ZM125.853 52.1415V56.9383H124.875V52.9066H122.515L122.448 53.9661C122.414 54.6135 122.347 55.1432 122.246 55.5846C122.145 56.026 121.976 56.3498 121.774 56.6146C121.538 56.8795 121.234 56.9972 120.863 56.9972C120.695 56.9972 120.493 56.9972 120.257 56.9089L120.324 56.1732C120.324 56.1732 120.493 56.1732 120.56 56.1732C120.83 56.1732 121.032 56.0555 121.167 55.8495C121.302 55.6435 121.403 55.3786 121.437 55.1138C121.47 54.8195 121.504 54.4075 121.538 53.8778L121.639 52.1121H125.853V52.1415ZM116.986 52.8184C116.514 52.8184 116.11 52.9361 115.806 53.2009C115.469 53.4658 115.301 53.7895 115.233 54.2015H118.739C118.672 53.7895 118.503 53.4658 118.166 53.2009C117.863 52.9361 117.458 52.8184 116.986 52.8184ZM119.683 54.5546C119.683 54.5546 119.683 54.7018 119.683 54.8195H115.233C115.301 55.2315 115.503 55.5846 115.874 55.82C116.245 56.0849 116.683 56.2026 117.222 56.2026C117.863 56.2026 118.402 55.9966 118.807 55.614L119.346 56.1732C119.11 56.438 118.773 56.6146 118.436 56.7618C118.065 56.8795 117.661 56.9677 117.189 56.9677C116.615 56.9677 116.11 56.85 115.638 56.644C115.199 56.438 114.829 56.1438 114.593 55.7612C114.357 55.3786 114.222 54.9666 114.222 54.4958C114.222 54.0249 114.357 53.6129 114.593 53.2304C114.829 52.8478 115.166 52.5535 115.57 52.3475C115.975 52.1415 116.447 52.0238 116.986 52.0238C117.526 52.0238 117.964 52.1415 118.402 52.3475C118.807 52.5535 119.144 52.8478 119.38 53.2304C119.616 53.6129 119.717 54.0249 119.717 54.5252M109.198 53.7895C109.198 54.3781 109.097 54.8783 109.03 55.2903C108.929 55.6729 108.794 55.9672 108.558 56.1438H111.626V52.8772H109.232L109.165 53.7895H109.198ZM113.446 56.1438V57.9977H112.502V56.8795H107.917V57.9977H106.973V56.1438H107.277C107.614 56.1438 107.883 55.9083 107.985 55.4963C108.119 55.0843 108.221 54.4958 108.254 53.7306L108.322 52.1121H112.57V56.1438H113.413H113.446ZM97.9041 52.1121H98.8818V55.5846L102.253 52.1121H103.163V56.9089H102.186V53.4364L98.848 56.9089H97.9378V52.1121H97.9041Z" fill="#29292E"/>
<path d="M206.744 63.4306C206.744 63.7543 206.845 63.9898 207.081 64.1369C207.317 64.284 207.654 64.3723 208.126 64.3723H209.643V62.4889H208.16C207.216 62.4889 206.744 62.8126 206.744 63.4306ZM210.554 61.7238V66.5206H209.677V65.0198H207.958L206.744 66.5206H205.665L207.014 64.902C206.609 64.7843 206.272 64.6078 206.07 64.3723C205.834 64.1369 205.733 63.8132 205.733 63.4306C205.733 62.8715 205.935 62.4595 206.373 62.1946C206.811 61.9004 207.384 61.7532 208.126 61.7532H210.52L210.554 61.7238ZM198.99 61.7238H199.967V65.1963L203.339 61.7238H204.249V66.5206H203.271V63.0481L199.934 66.5206H199.023V61.7238H198.99ZM191.943 61.7238H192.921V63.7543H196.057V61.7238H197.034V66.5206H196.057V64.5195H192.921V66.5206H191.943V61.7238ZM187.594 65.9026C187.965 65.9026 188.302 65.8143 188.572 65.6966C188.842 65.5495 189.044 65.3435 189.179 65.0786V64.4018H187.662C186.819 64.4018 186.414 64.6372 186.414 65.1375C186.414 65.3729 186.515 65.5789 186.751 65.6966C186.954 65.8437 187.257 65.9026 187.628 65.9026M187.864 61.6944C188.606 61.6944 189.213 61.8709 189.617 62.1946C190.022 62.5184 190.224 62.9892 190.224 63.6366V66.5206H189.28V65.9026C189.111 66.138 188.875 66.2852 188.572 66.4029C188.269 66.5206 187.898 66.5795 187.493 66.5795C186.886 66.5795 186.381 66.4617 186.01 66.1969C185.639 65.932 185.47 65.6083 185.47 65.1669C185.47 64.7255 185.639 64.4018 186.01 64.1663C186.347 63.9015 186.92 63.7838 187.695 63.7838H189.28V63.6072C189.28 63.2246 189.145 62.9598 188.909 62.7538C188.673 62.5478 188.302 62.4595 187.797 62.4595C187.459 62.4595 187.156 62.5184 186.853 62.6066C186.549 62.6949 186.279 62.8126 186.077 62.9892L185.673 62.3418C185.942 62.1358 186.279 61.9886 186.684 61.9004C187.089 61.7826 187.493 61.7532 187.931 61.7532M182.2 65.9026C182.605 65.9026 182.908 65.8437 183.144 65.726C183.346 65.6083 183.447 65.4317 183.447 65.1963C183.447 64.9609 183.346 64.7549 183.178 64.6372C182.975 64.5195 182.706 64.4606 182.267 64.4606H180.615V65.9026H182.2ZM180.615 63.8426H182.099C182.47 63.8426 182.773 63.7838 182.975 63.6661C183.178 63.5483 183.279 63.3718 183.279 63.1363C183.279 62.6655 182.908 62.4595 182.133 62.4595H180.649V63.8426H180.615ZM183.38 64.0781C184.088 64.2252 184.459 64.6372 184.459 65.2552C184.459 65.6672 184.29 65.9909 183.919 66.2263C183.549 66.4617 183.009 66.5795 182.301 66.5795H179.671V61.7826H182.2C182.841 61.7826 183.346 61.9004 183.717 62.1064C184.088 62.3124 184.257 62.6361 184.257 63.0186C184.257 63.2835 184.189 63.4895 184.021 63.6661C183.852 63.8426 183.65 63.9898 183.38 64.0781ZM175.356 65.8437C175.693 65.8437 176.03 65.7849 176.3 65.6377C176.57 65.4906 176.806 65.2846 176.941 65.0492C177.109 64.7843 177.177 64.49 177.177 64.1663C177.177 63.8426 177.109 63.5483 176.941 63.2835C176.772 63.0186 176.57 62.8421 176.3 62.6949C176.03 62.5478 175.693 62.4889 175.356 62.4889C175.019 62.4889 174.682 62.5478 174.412 62.6949C174.142 62.8421 173.906 63.0186 173.738 63.2835C173.569 63.5483 173.502 63.8426 173.502 64.1663C173.502 64.49 173.569 64.7843 173.738 65.0492C173.906 65.314 174.109 65.4906 174.412 65.6377C174.682 65.7849 175.019 65.8437 175.356 65.8437ZM175.356 66.6089C174.817 66.6089 174.311 66.4912 173.873 66.2852C173.434 66.0792 173.097 65.7849 172.861 65.4023C172.625 65.0198 172.49 64.6078 172.49 64.1369C172.49 63.6661 172.625 63.2541 172.861 62.8715C173.097 62.4889 173.434 62.2241 173.873 62.0181C174.311 61.8121 174.783 61.6944 175.356 61.6944C175.929 61.6944 176.401 61.8121 176.806 62.0181C177.244 62.2241 177.581 62.5184 177.817 62.8715C178.053 63.2541 178.188 63.6661 178.188 64.1369C178.188 64.6078 178.053 65.0198 177.817 65.4023C177.581 65.7849 177.244 66.0497 176.806 66.2852C176.368 66.4912 175.896 66.6089 175.356 66.6089ZM168.714 65.8437C169.052 65.8437 169.389 65.7849 169.658 65.6377C169.928 65.4906 170.164 65.2846 170.333 65.0492C170.501 64.7843 170.569 64.49 170.569 64.1663C170.569 63.8426 170.501 63.5483 170.333 63.2835C170.164 63.0186 169.962 62.8421 169.658 62.6949C169.389 62.5478 169.052 62.4889 168.714 62.4889C168.377 62.4889 168.074 62.5478 167.77 62.6949C167.501 62.8421 167.265 63.0186 167.096 63.2835C166.928 63.5483 166.86 63.8132 166.86 64.1663C166.86 64.5195 166.928 64.7843 167.096 65.0492C167.265 65.314 167.467 65.4906 167.77 65.6377C168.04 65.7849 168.377 65.8437 168.714 65.8437ZM168.782 61.7238C169.321 61.7238 169.793 61.8121 170.198 62.0181C170.602 62.2241 170.94 62.5184 171.176 62.8715C171.412 63.2246 171.546 63.6661 171.546 64.1369C171.546 64.6078 171.412 65.0492 171.176 65.4023C170.94 65.7849 170.602 66.0497 170.198 66.2557C169.793 66.4617 169.288 66.55 168.782 66.55C168.377 66.55 168.04 66.4912 167.703 66.344C167.366 66.2263 167.096 66.0203 166.86 65.7555V68.2274H165.882V61.6944H166.826V62.4595C167.062 62.1946 167.332 61.9886 167.669 61.8709C168.006 61.7238 168.377 61.6649 168.782 61.6649M158.701 61.7238H159.679V65.1963L163.05 61.7238H163.961V66.5206H162.983V63.0481L159.645 66.5206H158.735V61.7238H158.701ZM154.42 65.8143C154.757 65.8143 155.094 65.7555 155.364 65.6083C155.633 65.4612 155.869 65.2552 156.038 65.0198C156.206 64.7549 156.274 64.4606 156.274 64.1369C156.274 63.8132 156.206 63.5189 156.038 63.2541C155.869 62.9892 155.667 62.8126 155.364 62.6655C155.094 62.5184 154.757 62.4595 154.42 62.4595C154.082 62.4595 153.779 62.5184 153.476 62.6655C153.206 62.8126 152.97 62.9892 152.801 63.2541C152.633 63.5189 152.565 63.7838 152.565 64.1369C152.565 64.49 152.633 64.7549 152.801 65.0198C152.97 65.2846 153.172 65.4612 153.476 65.6083C153.745 65.7555 154.082 65.8143 154.42 65.8143ZM154.487 61.6944C155.026 61.6944 155.498 61.7826 155.903 61.9886C156.308 62.1946 156.645 62.4889 156.881 62.8421C157.117 63.1952 157.252 63.6366 157.252 64.1075C157.252 64.5783 157.117 65.0198 156.881 65.3729C156.645 65.7555 156.308 66.0203 155.903 66.2263C155.498 66.4323 154.993 66.5206 154.487 66.5206C154.082 66.5206 153.745 66.4617 153.408 66.3146C153.071 66.1969 152.801 65.9909 152.565 65.726V68.198H151.588V61.6649H152.532V62.4301C152.768 62.1652 153.037 61.9592 153.374 61.8415C153.712 61.6944 154.082 61.6355 154.487 61.6355M150.576 62.4301H148.587V66.4617H147.609V62.4301H145.587V61.6649H150.576V62.4301ZM143.058 66.5206C142.485 66.5206 142.013 66.4029 141.575 66.1969C141.136 65.9909 140.799 65.6966 140.563 65.314C140.327 64.9315 140.192 64.5195 140.192 64.0486C140.192 63.5778 140.327 63.1658 140.563 62.7832C140.799 62.4006 141.17 62.1358 141.575 61.9298C142.013 61.7238 142.519 61.6061 143.058 61.6061C143.564 61.6061 144.002 61.6944 144.373 61.8709C144.777 62.0475 145.047 62.3124 145.283 62.6361L144.541 63.0481C144.373 62.8126 144.171 62.6361 143.901 62.5478C143.631 62.4301 143.361 62.3712 143.058 62.3712C142.687 62.3712 142.384 62.4301 142.08 62.5772C141.811 62.7244 141.575 62.9009 141.406 63.1658C141.237 63.4306 141.17 63.7249 141.17 64.0486C141.17 64.3723 141.237 64.696 141.406 64.9315C141.575 65.1963 141.777 65.3729 142.08 65.52C142.35 65.6672 142.687 65.726 143.058 65.726C143.361 65.726 143.665 65.6672 143.901 65.5495C144.171 65.4317 144.373 65.2552 144.541 65.0492L145.283 65.4612C145.081 65.7849 144.777 66.0497 144.373 66.2263C143.968 66.4029 143.53 66.4912 143.058 66.4912M133.483 61.6649H134.461V65.1375L137.832 61.6649H138.743V66.4617H137.765V62.9892L134.427 66.4617H133.517V61.6649H133.483ZM126.437 61.6649H127.415V63.6955H130.55V61.6649H131.528V66.4617H130.55V64.4606H127.415V66.4617H126.437V61.6649ZM119.256 61.6649H120.234V65.1375L123.605 61.6649H124.515V66.4617H123.537V62.9892L120.2 66.4617H119.29V61.6649H119.256ZM117.334 61.6649V66.4617H116.424V62.9598L114.367 65.9026H113.929L111.906 62.9303V66.4323H110.996V61.6355H112.007L114.165 64.8726L116.39 61.6355H117.334V61.6649ZM105.467 63.3423C105.467 63.9309 105.366 64.4312 105.298 64.8432C105.197 65.2258 105.062 65.52 104.826 65.6966H107.894V62.4301H105.5L105.433 63.3423H105.467ZM109.715 65.6966V67.5506H108.771V66.4323H104.186V67.5506H103.242V65.6966H103.545C103.882 65.6966 104.152 65.4612 104.253 65.0492C104.388 64.6372 104.489 64.0486 104.523 63.2835L104.59 61.6649H108.838V65.6966H109.681H109.715ZM99.769 65.8437C100.14 65.8437 100.477 65.7555 100.747 65.6377C101.016 65.4906 101.219 65.2846 101.354 65.0198V64.3429H99.8365C98.9936 64.3429 98.589 64.5783 98.589 65.0786C98.589 65.314 98.6902 65.52 98.8925 65.6377C99.0947 65.7849 99.3982 65.8437 99.769 65.8437ZM100.005 61.6355C100.747 61.6355 101.354 61.8121 101.758 62.1358C102.163 62.4595 102.365 62.9303 102.365 63.5778V66.4617H101.421V65.8437C101.252 66.0792 101.016 66.2263 100.713 66.344C100.41 66.4617 100.039 66.5206 99.6342 66.5206C99.0273 66.5206 98.5216 66.4029 98.1508 66.138C97.7799 65.8732 97.6113 65.5495 97.6113 65.108C97.6113 64.6666 97.7799 64.3429 98.1508 64.1075C98.4879 63.8426 99.061 63.7249 99.8365 63.7249H101.421V63.5483C101.421 63.1658 101.286 62.9009 101.05 62.6949C100.814 62.4889 100.443 62.4006 99.9376 62.4006C99.6005 62.4006 99.297 62.4595 98.9936 62.5478C98.6902 62.6361 98.4205 62.7538 98.2182 62.9303L97.8136 62.2829C98.0833 62.0769 98.4205 61.9298 98.825 61.8415C99.2296 61.7238 99.6342 61.6944 100.072 61.6944" fill="#29292E"/>
<path fill-rule="evenodd" clip-rule="evenodd" d="M80.0853 43.0593C78.3659 38.233 75.1631 34.6134 70.8814 31.906L70.7802 31.8471L70.6791 31.7883C66.566 29.2869 61.374 27.4623 55.8786 26.3146C51.4621 26.2263 46.9106 26.8443 43.6741 27.4329C38.6507 28.3157 30.5256 30.3463 25.0976 32.73C29.8176 38.3213 25.6033 49.8572 9.21826 63.9533C20.5799 59.4508 75.2305 38.0859 77.6579 60.9516C81.7373 55.0071 82.0408 48.6801 80.0516 43.0299" fill="#004298"/>
<path fill-rule="evenodd" clip-rule="evenodd" d="M70.3588 31.3987C64.7622 17.5674 28.9241 28.4853 21.2373 33.0172C28.2836 27.6613 30.6098 20.3042 27.4407 15.2426C31.183 13.624 37.2515 12.0643 40.5218 11.4464C42.3086 11.0932 45.1406 10.5929 47.9726 10.4752C51.1754 11.0932 54.176 11.9761 56.8394 13.1238C67.0211 17.538 70.0553 25.1011 70.7633 31.7224L70.3588 31.3987Z" fill="#004298"/>
<path fill-rule="evenodd" clip-rule="evenodd" d="M27.9884 0.466013C34.8661 2.58484 29.3033 10.2068 24.5159 14.9153C29.1684 12.1196 56.9489 3.55598 59.1403 14.003L59.2751 14.0913C59.9157 6.91079 51.7232 2.58484 47.3066 1.52543C44.6432 2.37885 36.0798 1.34886 27.9884 0.436584" fill="#004298"/>
<path fill-rule="evenodd" clip-rule="evenodd" d="M0.415039 69.5489C1.62875 69.1369 47.9857 51.1268 63.157 53.0691C65.989 53.4222 68.0793 53.9519 69.7313 54.717C70.7427 55.1879 72.4284 56.4239 73.5747 57.807C74.6198 59.1019 75.193 60.5438 75.3615 60.9558C75.7324 61.7798 76.0021 62.7215 76.137 63.6338C75.5638 66.3118 74.8558 67.7832 74.013 71.138C73.7095 67.1063 73.2038 64.4578 71.3496 61.3384C68.7873 57.1007 64.4044 56.571 61.7073 56.365C56.3805 55.953 51.8291 56.1885 38.8154 59.3373C35.4103 60.1613 25.7681 62.2801 15.519 65.3995C7.49501 67.842 0.415039 69.9609 0.415039 69.9609L0.482467 69.5489H0.415039Z" fill="#004298"/>
</svg>
