<svg width="301" height="50" viewBox="0 0 301 50" fill="none" xmlns="http://www.w3.org/2000/svg">
<path d="M141.427 47.9744C138.003 47.9744 134.83 47.362 131.907 46.1371C128.985 44.9122 126.438 43.2438 124.267 41.1319C122.137 39.02 120.467 36.5491 119.256 33.7191C118.045 30.8469 117.44 27.7847 117.44 24.5324C117.44 21.2801 118.045 18.2389 119.256 15.409C120.467 12.5368 122.137 10.0448 124.267 7.93287C126.438 5.82098 128.985 4.15258 131.907 2.92768C134.83 1.70278 138.003 1.09033 141.427 1.09033C144.851 1.09033 148.024 1.70278 150.947 2.92768C153.87 4.15258 156.396 5.82098 158.525 7.93287C160.696 10.0448 162.387 12.5368 163.598 15.409C164.809 18.2389 165.414 21.2801 165.414 24.5324C165.414 27.7847 164.809 30.8469 163.598 33.7191C162.387 36.5491 160.696 39.02 158.525 41.1319C156.396 43.2438 153.87 44.9122 150.947 46.1371C148.024 47.362 144.851 47.9744 141.427 47.9744ZM141.427 39.4846C143.515 39.4846 145.435 39.1256 147.189 38.4075C148.943 37.6472 150.467 36.6124 151.761 35.303C153.055 33.9937 154.057 32.4309 154.767 30.6146C155.477 28.7562 155.832 26.7287 155.832 24.5324C155.832 22.336 155.477 20.3297 154.767 18.5135C154.057 16.655 153.055 15.0711 151.761 13.7617C150.467 12.4523 148.943 11.4386 147.189 10.7206C145.435 9.96029 143.515 9.58015 141.427 9.58015C139.339 9.58015 137.419 9.96029 135.665 10.7206C133.912 11.4386 132.388 12.4523 131.093 13.7617C129.799 15.0711 128.776 16.655 128.024 18.5135C127.315 20.3297 126.96 22.336 126.96 24.5324C126.96 26.7287 127.315 28.7562 128.024 30.6146C128.776 32.4309 129.799 33.9937 131.093 35.303C132.388 36.6124 133.912 37.6472 135.665 38.4075C137.419 39.1256 139.339 39.4846 141.427 39.4846Z" fill="#05183A"/>
<path d="M60.7429 46.8841L60.7429 2.18066L74.4422 2.18066L85.4777 28.1087H87.1901L98.289 2.18066L111.988 2.18066V46.8841H102.919V17.3798L103.49 12.207H102.919L92.4542 36.6023L80.2771 36.6023L69.8123 12.207H69.2415L69.8123 17.3798V46.8841H60.7429Z" fill="#05183A"/>
<path d="M23.4634 36.484L23.4634 12.5807C21.4609 12.6646 19.6501 13.021 18.031 13.6501C16.4119 14.2791 15.0271 15.1388 13.8767 16.2291C12.7263 17.3194 11.8316 18.5775 11.1925 20.0033C10.5533 21.3872 10.2338 22.8969 10.2338 24.5324C10.2338 26.1259 10.5533 27.6356 11.1925 29.0614C11.8316 30.4872 12.7263 31.7453 13.8767 32.8356C15.0271 33.926 16.4119 34.7856 18.031 35.4147C19.6501 36.0437 21.4609 36.4002 23.4634 36.484ZM23.4634 49.0647V44.5986C20.0122 44.4308 16.8806 43.8018 14.0685 42.7115C11.299 41.6212 8.91295 40.1744 6.91039 38.3711C4.95044 36.5679 3.43787 34.4921 2.37269 32.1437C1.3075 29.7534 0.774902 27.2163 0.774902 24.5324C0.774902 21.8485 1.3075 19.3323 2.37269 16.9839C3.43787 14.5936 4.95044 12.4968 6.91039 10.6936C8.91295 8.89036 11.299 7.44358 14.0685 6.35325C16.8806 5.26293 20.0122 4.63389 23.4634 4.46615V0L32.6028 0V4.46615C36.054 4.63389 39.1643 5.26293 41.9338 6.35325C44.7459 7.44358 47.1319 8.89036 49.0919 10.6936C51.0944 12.4968 52.6283 14.5936 53.6935 16.9839C54.7587 19.3323 55.2913 21.8485 55.2913 24.5324C55.2913 27.2163 54.7587 29.7534 53.6935 32.1437C52.6283 34.4921 51.0944 36.5679 49.0919 38.3711C47.1319 40.1744 44.7459 41.6212 41.9338 42.7115C39.1643 43.8018 36.054 44.4308 32.6028 44.5986V49.0647H23.4634ZM32.6028 36.484C34.6053 36.4002 36.4161 36.0437 38.0352 35.4147C39.6969 34.7856 41.103 33.926 42.2534 32.8356C43.4038 31.7453 44.2985 30.4872 44.9376 29.0614C45.5768 27.6356 45.8963 26.1259 45.8963 24.5324C45.8963 22.8969 45.5768 21.3872 44.9376 20.0033C44.2985 18.5775 43.4038 17.3194 42.2534 16.2291C41.103 15.1388 39.6969 14.2791 38.0352 13.6501C36.4161 13.021 34.6053 12.6646 32.6028 12.5807L32.6028 36.484Z" fill="#05183A"/>
<path d="M258.046 44.5004V37.4135H259.505V42.1381L259.491 42.277H259.63L262.84 37.4135H264.438V44.5004H262.979V39.7758L262.993 39.6368H262.854L259.644 44.5004H258.046ZM259.088 34.6343H260.269C260.269 35.1206 260.547 35.3986 261.242 35.3986C261.937 35.3986 262.214 35.1206 262.214 34.6343H263.396C263.396 35.6765 262.701 36.4407 261.242 36.4407C259.783 36.4407 259.088 35.6765 259.088 34.6343Z" fill="#05183A"/>
<path d="M249.847 44.4983V37.4114H251.306V42.136L251.292 42.2749H251.431L254.641 37.4114H256.239V44.4983H254.78V39.7737L254.794 39.6347H254.655L251.445 44.4983H249.847Z" fill="#05183A"/>
<path d="M241.648 44.4983V37.4114H243.107V40.26H246.581V37.4114H248.04V44.4983H246.581V41.5801H243.107V44.4983H241.648Z" fill="#05183A"/>
<path d="M233.03 40.9573C233.03 38.8729 234.628 37.2749 236.643 37.2749C238.658 37.2749 240.256 38.8729 240.256 40.9573V41.4437H234.489C234.697 42.6248 235.601 43.3196 236.643 43.3196C238.102 43.3196 238.658 42.3469 238.658 42.3469H240.186C240.186 42.3469 239.422 44.6397 236.643 44.6397C234.628 44.6397 233.03 43.0417 233.03 40.9573ZM234.558 40.2625H238.727C238.588 39.4288 237.893 38.595 236.643 38.595C235.67 38.595 234.767 39.2203 234.558 40.2625Z" fill="#05183A"/>
<path d="M222.682 44.4983V37.4114H224.141V43.1782H226.434V37.4114H227.893V43.1782H230.186V37.4114H231.645V44.4983H222.682Z" fill="#05183A"/>
<path d="M213.932 40.9573C213.932 38.8729 215.53 37.2749 217.615 37.2749C219.699 37.2749 221.297 38.8729 221.297 40.9573C221.297 43.0417 219.699 44.6397 217.615 44.6397C215.53 44.6397 213.932 43.0417 213.932 40.9573ZM215.461 40.9573C215.461 42.4164 216.364 43.3196 217.615 43.3196C218.865 43.3196 219.768 42.4164 219.768 40.9573C219.768 39.4982 218.865 38.595 217.615 38.595C216.364 38.595 215.461 39.4982 215.461 40.9573Z" fill="#05183A"/>
<path d="M206.149 44.4983V37.4114H207.608V40.26H211.082V37.4114H212.541V44.4983H211.082V41.5801H207.608V44.4983H206.149Z" fill="#05183A"/>
<path d="M198.921 38.7315V37.4114H205.105V38.7315H202.742V44.4983H201.283V38.7315H198.921Z" fill="#05183A"/>
<path d="M187.734 39.6395C187.734 36.7214 189.958 34.498 192.945 34.498C195.933 34.498 198.156 36.7214 198.156 39.6395C198.156 42.5577 195.933 44.781 192.945 44.781C189.958 44.781 187.734 42.5577 187.734 39.6395ZM189.402 39.6395C189.402 41.7934 190.861 43.2525 192.945 43.2525C195.03 43.2525 196.489 41.7934 196.489 39.6395C196.489 37.4857 195.03 36.0266 192.945 36.0266C190.861 36.0266 189.402 37.4857 189.402 39.6395Z" fill="#05183A"/>
<path d="M293.758 28.927L295.912 25.3835L293.828 21.8401H295.495L297.093 24.6887H297.441L299.039 21.8401H300.706L298.622 25.3835L300.776 28.927H299.108L297.441 26.0089H297.093L295.426 28.927H293.758Z" fill="#05183A"/>
<path d="M291.262 28.927V21.8401H292.721V28.927H291.262ZM284.869 28.927V21.8401H286.328V24.2024H287.788C289.455 24.2024 290.497 25.2446 290.497 26.5647C290.497 27.8848 289.455 28.927 287.788 28.927H284.869ZM286.328 27.6069H287.788C288.552 27.6069 288.969 27.19 288.969 26.5647C288.969 25.9394 288.552 25.5225 287.788 25.5225H286.328V27.6069Z" fill="#05183A"/>
<path d="M276.671 28.927V21.8401H278.13V24.6887H281.604V21.8401H283.063V28.927H281.604V26.0089H278.13V28.927H276.671Z" fill="#05183A"/>
<path d="M267.912 30.4555V27.6069H268.607L270.205 21.8401H273.331L274.929 27.6069H275.624V30.4555H274.304V28.927H269.232V30.4555H267.912ZM270.135 27.6069H273.401L272.22 23.1602H271.316L270.135 27.6069Z" fill="#05183A"/>
<path d="M259.922 25.386C259.922 23.3016 261.52 21.7036 263.604 21.7036C265.689 21.7036 267.287 23.3016 267.287 25.386C267.287 27.4704 265.689 29.0684 263.604 29.0684C261.52 29.0684 259.922 27.4704 259.922 25.386ZM261.45 25.386C261.45 26.8451 262.354 27.7483 263.604 27.7483C264.855 27.7483 265.758 26.8451 265.758 25.386C265.758 23.927 264.855 23.0237 263.604 23.0237C262.354 23.0237 261.45 23.927 261.45 25.386Z" fill="#05183A"/>
<path d="M251.868 31.5697V21.8426H253.327V22.7458H253.396C253.396 22.7458 254.161 21.7036 255.62 21.7036C257.496 21.7036 258.955 23.1627 258.955 25.386C258.955 27.6094 257.496 29.0684 255.62 29.0684C254.161 29.0684 253.396 28.0262 253.396 28.0262H253.327V31.5697H251.868ZM253.327 25.386C253.327 26.9146 254.161 27.7483 255.342 27.7483C256.592 27.7483 257.426 26.9146 257.426 25.386C257.426 23.8575 256.592 23.0237 255.342 23.0237C254.161 23.0237 253.327 23.8575 253.327 25.386Z" fill="#05183A"/>
<path d="M242.981 25.386C242.981 23.1627 244.44 21.7036 246.316 21.7036C247.775 21.7036 248.54 22.7458 248.54 22.7458H248.609V21.8426H250.068V28.9295H248.609V27.9568H248.54C248.54 27.9568 247.775 29.0684 246.316 29.0684C244.44 29.0684 242.981 27.6094 242.981 25.386ZM244.51 25.386C244.51 26.9146 245.344 27.7483 246.594 27.7483C247.775 27.7483 248.609 26.9146 248.609 25.386C248.609 23.8575 247.775 23.0237 246.594 23.0237C245.344 23.0237 244.51 23.8575 244.51 25.386Z" fill="#05183A"/>
<path d="M235.198 28.927V21.8401H236.657V24.6887H240.131V21.8401H241.59V28.927H240.131V26.0089H236.657V28.927H235.198Z" fill="#05183A"/>
<path d="M227.28 21.8401H228.809L230.337 27.5374H231.101L232.769 21.8401H234.298L231.379 31.5672H229.851L230.685 28.927H229.226L227.28 21.8401Z" fill="#05183A"/>
<path d="M219.42 30.4555V27.6069H220.115L221.713 21.8401H224.839L226.437 27.6069H227.132V30.4555H225.812V28.927H220.74V30.4555H219.42ZM221.643 27.6069H224.909L223.728 23.1602H222.824L221.643 27.6069Z" fill="#05183A"/>
<path d="M208.097 28.927L210.737 25.1056L208.306 21.8401H209.973L211.988 24.6193H212.891V21.8401H214.35V24.6193H215.254L217.268 21.8401H218.936L216.504 25.1056L219.144 28.927H217.407L215.323 25.9394H214.35V28.927H212.891V25.9394H211.919L209.834 28.927H208.097Z" fill="#05183A"/>
<path d="M200.516 25.386C200.516 23.3016 202.114 21.7036 204.129 21.7036C206.144 21.7036 207.742 23.3016 207.742 25.386V25.8724H201.975C202.183 27.0535 203.087 27.7483 204.129 27.7483C205.588 27.7483 206.144 26.7756 206.144 26.7756H207.672C207.672 26.7756 206.908 29.0684 204.129 29.0684C202.114 29.0684 200.516 27.4704 200.516 25.386ZM202.045 24.6912H206.213C206.074 23.8575 205.38 23.0237 204.129 23.0237C203.156 23.0237 202.253 23.649 202.045 24.6912Z" fill="#05183A"/>
<path d="M188.152 28.9266V19.1995H190.792L193.432 25.2442H193.78L196.42 19.1995H198.991V28.9266H197.393V22.1176L197.532 20.7975H197.393L194.822 26.7032H192.321L189.75 20.7975H189.611L189.75 22.1176V28.9266H188.152Z" fill="#05183A"/>
<path d="M251.651 7.58036V6.26025L257.834 6.26025V7.58036H255.472V13.3472H254.013V7.58036H251.651Z" fill="#05183A"/>
<path d="M243.799 9.80643C243.799 7.72205 245.397 6.12402 247.412 6.12402C249.427 6.12402 251.025 7.72205 251.025 9.80643V10.2928H245.258C245.466 11.4739 246.37 12.1687 247.412 12.1687C248.871 12.1687 249.427 11.196 249.427 11.196H250.955C250.955 11.196 250.191 13.4888 247.412 13.4888C245.397 13.4888 243.799 11.8908 243.799 9.80643ZM245.328 9.11164H249.496C249.357 8.27789 248.663 7.44413 247.412 7.44413C246.439 7.44413 245.536 8.06945 245.328 9.11164Z" fill="#05183A"/>
<path d="M236.989 7.58036V6.26025L243.172 6.26025V7.58036H240.81V13.3472H239.351V7.58036H236.989Z" fill="#05183A"/>
<path d="M230.871 13.3472V6.26025H232.33V8.62256H234.067C235.734 8.62256 236.776 9.66475 236.776 10.9849C236.776 12.305 235.734 13.3472 234.067 13.3472H230.871ZM232.33 12.027H234.067C234.831 12.027 235.248 11.6102 235.248 10.9849C235.248 10.3595 234.831 9.94266 234.067 9.94266H232.33V12.027Z" fill="#05183A"/>
<path d="M222.814 13.3472L224.76 6.26025L227.886 6.26025L229.832 13.3472H228.303L226.775 7.58036L225.872 7.58036L224.343 13.3472H222.814Z" fill="#05183A"/>
<path d="M215.866 6.26025H217.394L218.923 11.9576H219.687L221.355 6.26025H222.883L219.965 15.9874H218.436L219.27 13.3472H217.811L215.866 6.26025Z" fill="#05183A"/>
<path d="M209.051 13.3472V6.26025H210.51V9.03943H211.552L213.706 6.26025H215.374L212.803 9.52579L215.582 13.3472H213.776L211.622 10.3595H210.51V13.3472H209.051Z" fill="#05183A"/>
<path d="M200.165 9.80643C200.165 7.58309 201.624 6.12402 203.5 6.12402C204.959 6.12402 205.723 7.16622 205.723 7.16622H205.792V6.26298H207.251V13.3499H205.792V12.3772H205.723C205.723 12.3772 204.959 13.4888 203.5 13.4888C201.624 13.4888 200.165 12.0298 200.165 9.80643ZM201.693 9.80643C201.693 11.335 202.527 12.1687 203.778 12.1687C204.959 12.1687 205.792 11.335 205.792 9.80643C205.792 8.27789 204.959 7.44413 203.778 7.44413C202.527 7.44413 201.693 8.27789 201.693 9.80643Z" fill="#05183A"/>
<path d="M187.664 8.4172C187.664 6.0549 189.679 4.10947 192.597 4.03999V2.9978H194.195V4.03999C197.113 4.10947 199.128 6.0549 199.128 8.4172C199.128 10.7795 197.113 12.7249 194.195 12.7944V13.8366L192.597 13.8366V12.7944C189.679 12.7249 187.664 10.7795 187.664 8.4172ZM194.195 11.3353C196.21 11.2659 197.461 10.0847 197.461 8.4172C197.461 6.74969 196.21 5.56854 194.195 5.49906V11.3353ZM189.332 8.4172C189.332 10.0847 190.582 11.2659 192.597 11.3353V5.49906C190.582 5.56854 189.332 6.74969 189.332 8.4172Z" fill="#05183A"/>
</svg>
