<svg width="187" height="60" viewBox="0 0 187 60" fill="none" xmlns="http://www.w3.org/2000/svg">
<g clip-path="url(#clip0_1_1740)">
<mask id="mask0_1_1740" style="mask-type:luminance" maskUnits="userSpaceOnUse" x="0" y="0" width="187" height="60">
<path d="M186.791 0.0953979H0.291504V59.5341H186.791V0.0953979Z" fill="white"/>
</mask>
<g mask="url(#mask0_1_1740)">
<path d="M172.005 12.7094V25.2862L184.582 37.8631V12.7094H172.005Z" fill="#39B39D"/>
<path d="M146.832 0.142151L159.409 12.719H171.986V0.142151H146.789H146.832Z" fill="#A3CA00"/>
<path d="M184.582 0.142151H172.005V12.719H184.582V0.142151Z" fill="#005C50"/>
<path d="M18.9222 30.7237H19.0084L24.0047 44.8942H13.8829L18.8792 30.7237H18.9222ZM15.132 21.5064L1.47827 57.8157H9.31729L11.5139 51.5703H26.4598L28.6564 57.8157H36.6677L23.014 21.5064H15.132Z" fill="#005C50"/>
<path d="M52.4701 30.7237H52.5562L57.5525 44.8943H47.4307L52.427 30.7237H52.4701ZM48.6798 21.5064L35.0261 57.7726H42.8651L45.0618 51.5273H60.0076L62.2043 57.7726H70.2156L56.5619 21.5064H48.6798Z" fill="#005C50"/>
<mask id="mask1_1_1740" style="mask-type:luminance" maskUnits="userSpaceOnUse" x="1" y="0" width="184" height="59">
<path d="M184.639 0.147766H1.49854V58.5097H184.639V0.147766Z" fill="white"/>
</mask>
<g mask="url(#mask1_1_1740)">
<path d="M124.616 47.7098C124.616 40.5599 105.19 46.1592 105.19 31.9887C105.19 25.8725 110.057 20.7901 118.413 20.7901C126.769 20.7901 131.722 26.3463 131.895 32.8932H124.572C124.4 29.7059 122.16 27.4231 118.284 27.4231C114.752 27.4231 112.512 29.146 112.512 31.5149C112.512 38.7509 132.153 33.0655 132.153 47.4514C132.153 53.9552 126.425 58.5638 117.81 58.5638C107.732 58.5638 104.027 52.3185 103.812 46.3315H111.177C111.393 49.3035 113.546 51.8877 118.241 51.8877C122.247 51.8877 124.616 50.3372 124.616 47.7098Z" fill="#005C50"/>
<path d="M134.948 57.8175V21.5082H150.282C158.595 21.5082 162.342 25.9446 162.342 31.4578C162.471 34.9035 160.447 38.0908 157.303 39.4691C160.705 40.6751 162.945 43.9054 162.859 47.4804C162.859 53.7257 158.81 57.7745 150.928 57.7745H134.948V57.8175ZM142.184 28.3135V36.1956H150.196C153.039 36.1956 154.804 34.8604 154.804 32.2761C154.804 30.1225 153.469 28.3566 150.196 28.3566H142.184V28.3135ZM142.184 42.8286V51.0984H150.713C153.9 51.0984 155.321 49.5047 155.321 46.9635C155.321 44.4223 153.9 42.8286 150.713 42.8286H142.184Z" fill="#005C50"/>
<path d="M94.5511 46.3419C92.9574 49.6154 89.7271 51.3813 85.6783 51.3813C79.0453 51.3813 75.2981 46.7726 75.2981 39.6228C75.2981 32.4729 79.0453 27.8642 85.6783 27.8642C90.5454 27.8642 94.2065 30.4055 95.2833 34.971H103.252C101.873 26.1414 94.7234 20.7574 85.6783 20.7574C75.255 20.7574 67.416 28.2519 67.416 39.6228C67.416 50.9937 75.255 58.4881 85.6783 58.4881C93.9912 58.4881 100.71 53.9225 102.821 46.3419H94.5511Z" fill="#005C50"/>
</g>
</g>
</g>
<defs>
<clipPath id="clip0_1_1740">
<rect width="186.5" height="59.4387" fill="white" transform="translate(0.320801 0.189758)"/>
</clipPath>
</defs>
</svg>
