<svg xmlns="http://www.w3.org/2000/svg" fill="none" viewBox="0 0 218 83"><path fill="#AB0D30" d="M212 41.3c-4.2 0-6.43 1.83-6.43 5.3 0 .73.05 1.45.15 2.16.06.48.25.95.54 1.36.28.4.64.77 1.06 1.06.42.29.9.51 1.4.66l-3.32 7.06-.15.33h3.8v-.14l3.08-6.9h1.62v7.04h3.66V41.31h-5.4Zm1.84 2.23v6.43h-1.75a4.8 4.8 0 0 1-1.6-.22c-.35-.11-.66-.3-.88-.56-.2-.27-.34-.58-.4-.9 0-.6-.1-1.2-.1-1.82-.06-.76.15-1.52.58-2.18.4-.51 1.26-.75 2.59-.75h1.56ZM111.57 41.38h-3.72v.15l-3.56 7.45h-1.9V41.3h-3.65v17.92h3.64V51.2h1.9l3.48 7.87v.16h3.73l-4.06-9.1 4.14-8.75ZM195.56 41.3v.2l-4.02 13.4-.25 1.23h-.14V41.31h-3.7v17.92h5.59l3.87-12.75.25-1.2h.13v13.95h3.63V41.31h-5.36ZM148.75 41.3v17.93h10.9v-2.22h-7.28V51.2h6.3v-2.22h-6.3V43.5h7.27v-2.2h-10.89ZM143.03 57.17V41.31h-10.52v1.93a62.51 62.51 0 0 1-1.63 13.95h-2.1v2.04h16.29v-2.06h-2.1.06Zm-3.62-13.86v13.86h-5.28c1.28-4.53 1.9-9.19 1.86-13.86h3.42ZM175.69 41.3l-2.57 10.77-.14 1.46h-.13l-.15-1.44-2.58-10.78h-6.08v17.92h3.64V44.44h.14l.3 1.6 3.05 11.11v.19h3.34v-.19l3.07-11.05.38-2.02h.15v15.15h3.61V41.31h-6.03ZM122.82 41.56v-.18h-4.65v.18l-4.77 17.36v.31h3.4v-.2l1.16-4.17h5.16l1.13 4.19v.18h3.4v-.3l-4.83-17.37Zm-2.54 3.94v-.75h.16l.13.75 1.8 7.28h-3.88l1.79-7.28ZM90.84 41.56v-.18h-4.59v.18l-4.77 17.36v.31h3.26v-.2l1.15-4.17h5.16l1.13 4.19v.18h3.5v-.3l-4.84-17.37ZM88.3 45.5l.13-.75h.15l.14.75 1.81 7.28h-4.06l1.83-7.28ZM90.12 27.5v7.98h-2.1V29h-4.2v6.48H81.7V27.5h8.41ZM99.56 27.85c.57.22 1.05.58 1.38 1.03.34.45.52.97.52 1.51s-.18 1.06-.52 1.51c-.33.45-.81.81-1.38 1.03a5.9 5.9 0 0 1-2.1.35h-1.85v2.2h-2.1V27.5h3.97a5.9 5.9 0 0 1 2.08.35Zm-.78 3.64c.31-.27.48-.63.48-1 0-.39-.17-.75-.48-1.02-.41-.27-.93-.4-1.45-.36h-1.72v2.76h1.72c.53 0 1.05-.15 1.45-.45v.07ZM111.02 34v1.5h-7.1v-8h6.91V29h-4.81v1.82h4.2v1.44h-4.2v1.82l5-.07ZM120.28 32.07c.31.37.47.82.45 1.27-.02.46-.23.9-.58 1.23-.41.38-.93.66-1.5.82a8.06 8.06 0 0 1-5.74-.55l.66-1.33a5.72 5.72 0 0 0 2.73.66c.55.01 1.09-.09 1.58-.3.18-.07.34-.19.44-.34.11-.14.17-.32.17-.49a.7.7 0 0 0-.11-.38.84.84 0 0 0-.31-.3 2.52 2.52 0 0 0-1.16-.21h-2.16v-1.4h2.1c.35.02.7-.06 1-.22a.8.8 0 0 0 .27-.32.7.7 0 0 0 .05-.38c0-.15-.05-.3-.14-.42a.94.94 0 0 0-.38-.3c-.41-.19-.87-.28-1.33-.26-.85.01-1.69.2-2.44.57l-.65-1.44a7.59 7.59 0 0 1 3.13-.7c.68 0 1.35.1 1.98.3a3.3 3.3 0 0 1 1.43.78 1.64 1.64 0 0 1 .19 2.24c-.25.3-.58.53-.97.7.52.12.97.4 1.29.77ZM123.5 27.5h2.1v5.25l4.35-5.2h1.98v7.93h-2.1v-5.2l-4.32 5.2h-2.1l.08-7.98ZM144.67 33.97v1.51H134.3v-1.51h.38c.55 0 .93-.37 1.16-1.04.27-.96.41-1.94.42-2.93l.13-2.5h7.02v6.47h1.26Zm-6.81-1.42c-.07.51-.3 1-.63 1.42h4.08V29h-3.14v1.16c-.03.8-.13 1.6-.31 2.39ZM154.28 34v1.5h-7.06v-8h6.9V29h-4.8v1.82h4.2v1.44h-4.2v1.82l4.96-.07ZM165.49 27.5v7.98h-2.1V32.2h-4.21v3.28h-2.1V27.5h2.1v3.15h4.2V27.5h2.1ZM175.86 29h-3.01v6.48h-2.1V29h-2.82v-1.5h7.93V29ZM179.96 35.08a3.9 3.9 0 0 1-2.41-3.59 3.9 3.9 0 0 1 2.4-3.59 6.1 6.1 0 0 1 4.66-.16c.62.23 1.17.59 1.61 1.04l-1.36 1.09a2.9 2.9 0 0 0-1.03-.69 3.57 3.57 0 0 0-2.78.09 2.45 2.45 0 0 0-1.03 3.55c.24.38.6.7 1.03.91a3.57 3.57 0 0 0 2.79.08c.4-.16.74-.4 1.02-.7l1.36 1.1c-.43.45-.99.81-1.62 1.05-.66.25-1.38.38-2.1.37a5.54 5.54 0 0 1-2.54-.55ZM192.28 32.26h-1.45v3.22h-2.1V27.5h2.1v3.23h1.51l2.4-3.23h2.23l-3.1 3.85 3.16 4.13h-2.35l-2.4-3.22ZM205.17 33.77h-4.2l-.78 1.71h-2.1l4.07-7.98h2.1l4.1 7.98H206l-.82-1.71Zm-.65-1.4-1.45-3.06-1.45 3.06h2.9ZM217.35 27.5v7.98h-2.1v-2.11h-1.94l-1.62 2.11h-2.19l1.92-2.4a2.94 2.94 0 0 1-1.43-1 2.77 2.77 0 0 1-.5-1.6c0-.56.16-1.11.48-1.6a3.1 3.1 0 0 1 1.38-1.03 5.37 5.37 0 0 1 2.1-.37l3.9.02Zm-5.26 1.82c-.16.14-.3.31-.38.5-.08.18-.12.38-.1.58-.01.2.02.4.1.58.08.18.2.35.36.5.37.26.86.4 1.34.36h1.88V29h-1.81c-.5-.02-1 .11-1.39.38v-.06ZM24.11 54.46c.27-.12.49-.31.63-.55.31.18.57.41.76.7.19.29.97 1.82-1.39 3.64v-3.8ZM35.15 58.9c-.1 0-.2-.03-.27-.1a.3.3 0 0 1-.1-.22c0-.22-.1-.42-.28-.57a1 1 0 0 0-.65-.24h-.1l-5.9.66c.28-.34.5-.7.68-1.1 1.42-.53 2.95-.84 4.5-.9.65-.03 1.3.1 1.89.37.58.28 1.06.68 1.39 1.17h.1c.35-.51.86-.93 1.47-1.2.6-.28 1.3-.4 1.98-.34 1.56.08 3.08.4 4.5.96.17.4.39.77.65 1.11l-5.89-.65h-.1a1 1 0 0 0-.65.23.75.75 0 0 0-.28.57.3.3 0 0 1-.1.23.41.41 0 0 1-.27.1l-2.57-.08ZM26.47 51.73a5.85 5.85 0 0 0-1.8-.64.3.3 0 0 0 0-.3.35.35 0 0 0-.1-.13.43.43 0 0 0-.19-.08h-.35v-.82c.17-.18.27-.4.29-.64a2.9 2.9 0 0 0 1.33-1.8c.4-.32.68-.73.82-1.18v5.6-.01ZM46.42 46.24c.16.4.44.77.8 1.06a2.9 2.9 0 0 0 1.24 1.82c0 .25.1.5.3.68v.78h-.34a.39.39 0 0 0-.18.07.3.3 0 0 0-.11.15.34.34 0 0 0 0 .3c-.64.1-1.24.31-1.77.63l.06-5.49ZM48.78 58.25c-2.36-1.82-1.58-3.3-1.4-3.65.2-.28.46-.52.79-.69.11.23.31.42.57.53l.04 3.8ZM61.18 25.92c-1.1-.5-2.3-.81-3.55-.9a7.92 7.92 0 0 1-1.2-.74 2.3 2.3 0 0 0-.5-.93c.63.02 1.25-.1 1.8-.36l.13-.11c.93.9 2.04 1.66 3.28 2.24.07.23.07.5.04.8ZM63.9 23.64a7.44 7.44 0 0 0-1.53-3.72A9.02 9.02 0 0 0 59 17.27v-.17c0-.25 0-.49.14-.74l.15-.48c.13-.25.22-.51.25-.78v-.13A6.68 6.68 0 0 0 62 17.03a5.63 5.63 0 0 1 2.86 2.53c.58 1.1.69 2.35.32 3.52h-.21c-.22.01-.43.07-.61.17-.2.1-.35.23-.46.4Z"/><path fill="#AB0D30" d="M61.18 24.75a11.87 11.87 0 0 1-3.34-2.38 2 2 0 0 0-.42-.57c-.08-.1-.15-.21-.21-.33.63-.09 1.23-.32 1.72-.67v-.13a.3.3 0 0 0 0-.29v-.09l-.18-.2-.32-.27a4.08 4.08 0 0 0-.7-.4l.38-.11h.1l.45-.19h.1c.3-.14.56-.35.72-.61.03-.05.05-.1.05-.15 0-.05-.02-.1-.05-.15-.13-.2-.32-.37-.55-.49a8.66 8.66 0 0 1 3.34 2.8 7.14 7.14 0 0 1 1.31 3.85c-.49-.35-1-.66-1.55-.93l-.17-.09h-.17l-.95-.42v.11l.13.35v.56c.13.26.23.53.31.8ZM63.6 33.88a8.35 8.35 0 0 0-2.2-1.26 7.15 7.15 0 0 1-2.7-4.32c.25-.01.49-.1.69-.23.2-.13.34-.3.43-.51.12-.3.1-.62-.05-.9-.16-.29-.43-.5-.77-.61a1.67 1.67 0 0 0-.42 0c-.2 0-.4.03-.57.1-.1-.26-.23-.53-.38-.78h.57c.9.1 1.77.32 2.58.66l.28.12h.15v.24a6.49 6.49 0 0 0 .44 3.55 7.46 7.46 0 0 0 2.31 2.95c0 .28-.15.57-.25.9l-.1.09ZM67.05 33.35l-.15-.2c.45-1.31.53-2.7.22-4.03a7.96 7.96 0 0 0-1.98-3.66c.2 0 .38-.06.55-.14.17-.09.32-.2.43-.34.1-.15.18-.3.2-.47a.97.97 0 0 0-.05-.5c.35.6.78 1.17 1.29 1.69.95.8 1.57 1.84 1.76 2.97a4.56 4.56 0 0 1-.71 3.28c-.56.43-1.08.9-1.56 1.4Z"/><path fill="#AB0D30" d="M58.37 28.01h-.17c-.13-.03-.24-.1-.34-.17a.88.88 0 0 1-.24-.27.77.77 0 0 1-.03-.67.9.9 0 0 1 .3-.38c.15-.07.32-.11.5-.11.1-.02.22-.02.33 0 .25.08.46.24.57.45.12.2.13.44.04.66a.93.93 0 0 1-.35.42c-.17.1-.37.17-.57.18l-.04-.1ZM66.63 32.86c-.34-.4-.72-.77-1.13-1.11l-.24-.2a15 15 0 0 0-1.07-.8l-.19-.13v.54c.07.49.07.98 0 1.46a7.04 7.04 0 0 1-2.17-2.77 6.13 6.13 0 0 1-.44-3.33v-1.59c0-.36 0-.74-.12-1.1v-.32a2.94 2.94 0 0 0-.1-.34l.81.4h.17c.52.27 1.02.57 1.5.9v.2l.12.16c.08.08.17.16.27.23h.32a7.79 7.79 0 0 1 2.35 3.63c.4 1.37.37 2.81-.08 4.17ZM65 25.15h-.47a1.43 1.43 0 0 1-.23-.25v-.38a.44.44 0 0 1 0-.24c.07-.2.23-.36.43-.47.2-.1.45-.15.68-.11h.27a.88.88 0 0 1 .53.7c.01.12 0 .24-.05.35-.04.1-.11.2-.2.3a1 1 0 0 1-.32.2c-.14.05-.29.08-.44.09l-.2-.19ZM64.2 42.24l-.26-.15a8.53 8.53 0 0 0-2.31-2.2 7.37 7.37 0 0 1-1.1-4.48c.02-.95-.08-1.9-.31-2.83l.92.31.32.13c.58.24 1.13.53 1.64.88l.3.23-.11.26c-.61 1.82-1.2 3.4 1.24 7.16l-.34.69ZM68.97 41.56c-.25-.2-.57-.3-.9-.3a1 1 0 0 0-.35 0 7.18 7.18 0 0 0-.2-7.3l-.11-.16-.19-.27c.38-.42.8-.81 1.24-1.18l.23-.2.32-.24c.02 1 .33 2 .9 2.88a4.66 4.66 0 0 1 1 3.54 5 5 0 0 1-1.94 3.23Z"/><path fill="#AB0D30" d="M67.1 41.62c-.21-.44-.45-.88-.72-1.3l-.2-.29c-.12-.2-.26-.38-.41-.6v-.09l-.13.38-.12.4v.28a4.8 4.8 0 0 1-.47.9c-2.23-3.5-1.72-5.02-1.09-6.77l.15-.43.3-.95v-.22c.08-.45.12-.9.12-1.37v-.32l.86.69.23.2c.4.35.76.73 1.1 1.13l.29.36.13.18.19.3v.09a7 7 0 0 1 1.04 3.64 7 7 0 0 1-1.05 3.64l-.23.15ZM62.05 43.68c-.2-.21-.41-.4-.66-.55.38-.4 0-1.82 0-1.99.1-.33.17-.67.2-1.02l.23.15.29.2c.53.4 1 .84 1.43 1.33l.19.26h-.23c-.36 0-.7.11-.97.32-.1.09-.19.19-.25.3-.07.1-.12.22-.15.34-.1.2-.12.44-.08.66ZM67.2 50.62c-.5-.2-.97-.44-1.43-.7a7.58 7.58 0 0 0 2.1-4.28c.22-.03.43-.1.62-.22.18-.1.34-.25.45-.41v-.15a.28.28 0 0 0 0-.3.3.3 0 0 0-.1-.12.37.37 0 0 0-.17-.05c-.33-.04-.65-.1-.97-.19.02-.2.02-.4 0-.6h.34c.31.02.62-.07.86-.25.18-.12.32-.28.4-.47a1 1 0 0 0 .09-.57l.48-.2c-.29.98-.3 2-.06 2.99.29 1.04.19 2.13-.28 3.12a5.37 5.37 0 0 1-2.33 2.4Z"/><path fill="#AB0D30" d="M67.47 44.06a8 8 0 0 1-.92-.38l-.34-.15-.31-.16-.45-.28-.27-.16-.61-.4c.17-.2.34-.41.5-.66l.11-.16c.19-.3.36-.61.5-.93l.11-.25c0-.13.1-.28.17-.4l.17.27v.1l.19.3c.23.39.44.79.6 1.2-.09.18-.13.37-.12.57v.14a.22.22 0 0 0 0 .13v.18l.17.22.17.14h.1c.13.3.19.46.23.68ZM65.6 49.63a.14.14 0 0 0 0-.1l-.21-.24c-.26-.27-.54-.52-.84-.75l-.19-.15s-.23-.23-.5-.45a2.28 2.28 0 0 0-1.33-.48v-.29l.32-.47a.55.55 0 0 0 0-.51v-.1h.14c.06 0 .12-.02.17-.05.05-.02.1-.06.13-.1.15.02.3.02.46 0 .16.02.32.02.48 0l.26.16h.1c.12.07.26.14.4.18h.1l.45.13c.14.02.28.02.42 0 .17 0 .33-.02.49-.07.15-.06.3-.14.41-.24.22-.01.43-.07.61-.18a7.46 7.46 0 0 1-1.87 3.71ZM68.06 43.31c-.15 0-.29-.03-.42-.09h-.1l-.15-.13a.87.87 0 0 1-.21-.43v-.17a.47.47 0 0 1 0-.18v-.2a.76.76 0 0 1 .2-.22l.16-.09c.2-.1.42-.15.65-.12.23.03.44.13.59.28l.12.24v.17a.83.83 0 0 1-.23.63c-.17.18-.4.3-.67.33l.06-.02ZM61 59.56c-.13-.2-.33-.37-.57-.47.02-.22.02-.44 0-.66a8.67 8.67 0 0 0 3.07-2.53c.3 0 .6-.07.86-.2.29.03.58.03.86 0 .18.02.37.02.55 0-.23 1-.8 1.9-1.67 2.6a5.98 5.98 0 0 1-3.1 1.26Z"/><path fill="#AB0D30" d="M60.47 58.1c-.05-.39-.14-.77-.3-1.15.1 0 .2-.03.27-.1a.3.3 0 0 0 .11-.22.2.2 0 0 0 0-.11c-.1-.18-.23-.34-.4-.48l-.44-.27h-.92a4.24 4.24 0 0 1-.7-.44c0-.12.1-.27.17-.4.16.17.35.3.57.4.22.1.47.15.71.15h.1c.18.12.36.22.56.3h.16c.3.14.62.2.95.2.21.01.42-.03.61-.12.39.1.8.17 1.2.18a8.82 8.82 0 0 1-2.65 2.06ZM59.82 61.02h-.2v-.13l.13-.18c.15-.23.27-.48.36-.73v-.18c.05-.13.08-.26.1-.39.13.09.24.2.32.31a.8.8 0 0 1 .02.57.92.92 0 0 1-.37.47h-.28l-.08.26ZM11.68 25.92v-.84A12.57 12.57 0 0 0 15 22.86v.1c.16.08.33.14.5.19h-.45a.38.38 0 0 0-.13.08.32.32 0 0 0-.08.12c-.11.26-.11.54 0 .8.06.14.15.26.27.36.12.1.26.19.42.24h-.15l-.25.3c-1.2.08-2.38.38-3.45.87ZM8.97 23.64a1.3 1.3 0 0 0-.48-.36c-.19-.08-.4-.13-.61-.13H7.7a4.57 4.57 0 0 1 .32-3.56 5.66 5.66 0 0 1 2.9-2.54 6.83 6.83 0 0 0 2.43-2.02v.1l.21.75V16.45c0 .14.11.5.15.74h-.17a8.9 8.9 0 0 0-3.2 2.74 7.39 7.39 0 0 0-1.38 3.71Z"/><path fill="#AB0D30" d="M11.68 24.75c.02-.37.08-.74.17-1.1v-.34c.04-.19.1-.38.19-.56v-.11h-.13l-.96.4h-.32c-.54.27-1.06.58-1.56.91.1-1.3.6-2.57 1.4-3.67a8.66 8.66 0 0 1 3.27-2.65h.2-.26c-.14.12-.26.24-.36.38a.3.3 0 0 0 0 .28c.17.25.4.47.7.62l.2.1.28.13h.63-.27l-.38.24c-.12.08-.24.17-.34.27l-.25.26a.35.35 0 0 0 0 .25l.1.17a4 4 0 0 0 1.73.69l-.21.33a10.91 10.91 0 0 1-3.83 3.4ZM9.24 33.88c-.11-.3-.2-.6-.27-.91a7.35 7.35 0 0 0 2.32-2.94c.48-1.14.63-2.35.43-3.55v-.23h.13a9.21 9.21 0 0 1 2.92-.78h.57c-.17.23-.3.49-.4.76a1.38 1.38 0 0 0-.55-.11c-.14-.03-.3-.03-.44 0-.16.05-.32.12-.45.23-.13.1-.24.22-.31.36a1.03 1.03 0 0 0-.06.88c.08.21.23.4.42.54.2.14.44.23.7.25a7.05 7.05 0 0 1-2.7 4.37c-.83.31-1.61.74-2.3 1.26v-.13ZM5.81 33.35a12.64 12.64 0 0 0-1.6-1.48c-.64-.99-.88-2.14-.69-3.27.2-1.13.82-2.17 1.77-2.96.5-.5.93-1.07 1.28-1.67-.07.23-.07.47 0 .7.08.2.23.4.43.53.2.14.45.23.7.24a7.88 7.88 0 0 0-2 3.67 7.24 7.24 0 0 0 .24 4.06l-.13.18Z"/><path fill="#AB0D30" d="M14.4 28.03c-.21 0-.41-.07-.58-.18a.96.96 0 0 1-.37-.42.75.75 0 0 1 .03-.67c.06-.1.14-.2.24-.27.1-.08.21-.13.34-.17.1-.02.2-.02.31 0 .18 0 .35.04.5.1.14.11.25.25.32.4a.77.77 0 0 1-.05.66.9.9 0 0 1-.24.27c-.1.08-.21.13-.34.17h-.17v.11ZM6.24 32.86a6.84 6.84 0 0 1-.14-3.92 7.54 7.54 0 0 1 2.07-3.48h.15l.17-.1h.1c.11-.07.21-.15.3-.24a.54.54 0 0 0 .1-.19.68.68 0 0 0 0-.21c.47-.33.96-.63 1.47-.9l.46-.18v-.13l.68-.3-.09.43v.3c-.07.37-.11.74-.12 1.12v1.57c.16 1.1 0 2.22-.44 3.27a6.98 6.98 0 0 1-2.13 2.72 6.58 6.58 0 0 1 0-1.44.84.84 0 0 1 0-.25v-.3h-.17c-.35.28-.73.53-1.07.83l-.23.18c-.4.38-.78.79-1.11 1.22ZM7.88 25.15c-.21 0-.41-.05-.58-.16a.9.9 0 0 1-.37-.42.78.78 0 0 1 0-.6c.07-.18.22-.35.42-.46h.34c.2 0 .4.06.58.16.17.1.3.26.36.43v.62a.93.93 0 0 1-.23.25h-.25l-.27.18ZM8.67 42.26l-.48-.66c2.44-3.75 1.85-5.46 1.24-7.16v-.25l.3-.22c.5-.35 1.05-.65 1.64-.9l.31-.12.93-.31a10.7 10.7 0 0 0-.32 2.82 7.36 7.36 0 0 1-1.11 4.52 8.85 8.85 0 0 0-2.36 2.11l-.15.17ZM3.88 41.56a5.03 5.03 0 0 1-1.89-3.2 4.69 4.69 0 0 1 .94-3.5c.57-.88.9-1.85.95-2.86l.27.22.23.2c.46.37.87.77 1.25 1.2 0 0 0 .17-.17.26v.16a7.2 7.2 0 0 0-.25 7.29h-.4c-.34-.02-.66.06-.93.23Z"/><path fill="#AB0D30" d="m5.77 41.62-.12-.11a7 7 0 0 1-1.04-3.64 7 7 0 0 1 1.04-3.65v-.09l.2-.29.11-.14.17-.22.15-.19c.32-.4.69-.77 1.1-1.1l.22-.22.84-.68v.31c0 .46.05.92.15 1.37v.22c.07.3.16.6.27.9l.17.48c.61 1.82 1.14 3.26-1.11 6.8-.17-.32-.32-.6-.47-.92V40.16c0-.24-.14-.44-.2-.65v-.11.09c-.2.17-.37.35-.53.54l-.19.3c-.28.41-.54.84-.76 1.29ZM10.92 43.68a1.04 1.04 0 0 0-.25-1.37c-.26-.21-.6-.33-.96-.33h-.38l.19-.12c.4-.5.88-.97 1.4-1.39l.3-.2.25-.24c.03.37.1.72.2 1.08 0 .14-.43 1.55 0 1.97-.3.15-.55.36-.75.6ZM5.69 50.62a5.36 5.36 0 0 1-2.26-2.4 4.48 4.48 0 0 1-.27-3.07c.22-.99.15-2-.18-2.97l.46.19c-.03.2 0 .4.08.58.09.18.22.35.4.47.26.18.58.27.9.26h.36c-.06.2-.1.4-.12.6-.31.09-.63.15-.95.18a.42.42 0 0 0-.17.06.34.34 0 0 0-.12.12.25.25 0 0 0-.05.15c0 .05.02.1.05.14v.17c.12.17.28.32.47.43.2.12.41.2.64.24a7.78 7.78 0 0 0 2.1 4.3c-.43.2-.88.38-1.34.55Z"/><path fill="#AB0D30" d="M5.4 44.06c.02-.22.06-.44.12-.66l.1-.1a.91.91 0 0 0 .17-.22c.03-.1.03-.2 0-.3v-.16c.18-.23.24-.5.2-.76.18-.4.37-.8.6-1.19l.13-.24.31-.4.15.39v.25c.14.32.31.63.5.93l.11.15.5.65-.18.15-.4.27-.23.15h-.13c-.15.08-.29.17-.42.27l-.21.3-.38.14c-.3.14-.62.27-.95.38ZM7.24 49.61a7.13 7.13 0 0 1-1.82-3.73c.18.11.4.18.63.2.23.19.54.29.86.3h.42c.16-.03.31-.08.46-.14l.42-.18.61-.34h.49c.15.02.3.02.46 0 .03.04.08.08.13.1.06.03.12.04.18.04h.21v.15a.4.4 0 0 0-.08.23c0 .09.03.17.08.24l.32.5v.34c-.32.02-.64.09-.93.22a2.5 2.5 0 0 0-.37.23l-.5.46v.1l-.22.14c-.3.22-.56.46-.8.73l-.25.23a.33.33 0 0 0-.18.05.26.26 0 0 0-.12.13ZM4.8 43.31c-.26 0-.52-.09-.7-.25a.82.82 0 0 1-.3-.62v-.48a1.17 1.17 0 0 1 .76-.31c.17.01.34.05.5.13h.12c.1.07.18.15.24.24v.35c.02.06.02.13 0 .2a.71.71 0 0 1-.22.45.93.93 0 0 1-.4.3ZM11.87 59.56a5.91 5.91 0 0 1-3.14-1.23 4.63 4.63 0 0 1-1.67-2.6c.17.02.35.02.52 0 .3.03.6.03.88 0 .27.13.56.2.87.2a8.9 8.9 0 0 0 3.07 2.55v.66c-.22.1-.4.24-.53.42ZM12.4 58.1a8.48 8.48 0 0 1-2.7-2.2 6.3 6.3 0 0 0 1.22-.17c.2.1.4.13.61.13.34-.02.67-.1.97-.22h.17c.2-.09.37-.2.55-.3l.12-.1c.26-.02.5-.09.72-.2.23-.1.42-.26.57-.44l.14.37c-.21.16-.44.31-.7.44h-.62a.21.21 0 0 0-.15 0c-.16.07-.32.16-.46.25-.17.13-.3.28-.4.46a.31.31 0 0 0 0 .32c.08.07.18.11.3.11-.22.5-.34 1.02-.34 1.55ZM20.16 58.25c-.13-.23-.3-.43-.52-.59a2.41 2.41 0 0 0-2.4-.21h-.26a1.4 1.4 0 0 1-.71.74l-.55.17h-.27v.34c.04.2.12.4.23.59v.23c.2.2.44.37.71.5h.2c.39.12.8.2 1.23.2.93.15 1.9.1 2.8-.15l.52-.18-.98-1.64ZM52.75 58.25c.13-.22.31-.4.53-.56.21-.16.46-.27.73-.34a2.41 2.41 0 0 1 1.62.15h.26c.12.32.37.59.71.75l.55.16h.25v.35c-.04.2-.11.4-.23.58v.1a2.26 2.26 0 0 1-.8.62h-.17c-.4.15-.82.21-1.24.2-.9.12-1.81.05-2.67-.2l-.5-.17.96-1.64ZM13.03 61.02H12.46a.95.95 0 0 1-.32-.32.8.8 0 0 1-.12-.41.63.63 0 0 1 0-.28.97.97 0 0 1 .31-.3 2.3 2.3 0 0 0 0 .36v.18c.09.26.2.5.36.73l.13.18v.13l.2-.27ZM10.78 46.26v-.14c.1-.11.21-.22.33-.31l.21-.17.24-.16.27-.16.3-.17.3-.14.39-.19.33-.14h1.75l.19.3h.04l-.71.15-.3.11-.3.1-.33.14-.46-.42-.36.18-.32.18-.33.2-.32.22-.4.35-.12.15v.09l-.4-.17ZM10.78 45.73v-.32c-.03-.2-.03-.4 0-.6a.2.2 0 0 1 0-.11v-.15c.19-.44.55-.8 1.03-1.04h1.91c.25.08.49.19.7.33v.1h-.76l-.27.08-.3.11h.15l-.21.17-.23.1-.32.17-.27.16-.3.19-.17.12-.23.17c-.59.29-.59.42-.73.52ZM15.34 56.2a.28.28 0 0 1-.16-.09.21.21 0 0 1-.05-.16.46.46 0 0 1 0-.16c.02.06.02.13 0 .2 0 .1-.05.19-.13.25l.34-.03ZM26.2 59.3h-2.68l.32-.2.19-.12c3.07-2.14 2.1-4.03 1.85-4.4-.31-.46-.8-.81-1.37-1-.06.22-.2.41-.4.55h-.46c-.12.02-.24.02-.36 0a5.8 5.8 0 0 1-1.7.75c-.15 0-.21-.13-.23-.24l2.1-.93a.62.62 0 0 0-.23-.2.73.73 0 0 0-.32-.07.8.8 0 0 0-.36 0 .73.73 0 0 0-.24.19.62.62 0 0 0-.13.26 2.9 2.9 0 0 0-.8.28h-.13a.54.54 0 0 0 .17-.42.14.14 0 0 0-.06-.1.18.18 0 0 0-.11-.03h-.17a.86.86 0 0 0-.19.6.85.85 0 0 1-.4-.22v-.09c0-.1.38-.2.6-.23a.1.1 0 0 0 0-.1l.16-.16.23-.09a.12.12 0 0 0 .03-.07c0-.03-.01-.05-.03-.08a.57.57 0 0 1 0-.41.58.58 0 0 1 .3-.33c.19-.1.4-.17.6-.22.3-.08.6-.19.87-.33.12-.07.24-.16.33-.25.08-.09.18-.16.28-.22h.73l-.2.16v.13h.14c.89.07 1.73.37 2.42.85.41.32.76.7 1.03 1.12a3.76 3.76 0 0 1 .34 3.64l-.1.22c-.2.39-.46.75-.77 1.09l-.31.35-.15.14c-.11.13-.24.24-.38.35l-.42-.17Zm-3.02-7.28a3.43 3.43 0 0 0-1.43.33v.1c0 .11.15.44.78.46l.78-.67a.1.1 0 0 0 .02-.07.1.1 0 0 0-.02-.06.17.17 0 0 0-.1 0l-.03-.1Z"/><path fill="#AB0D30" d="M22.45 52.78a.3.3 0 0 1-.36-.15v-.08h.23c.09.04.15.1.2.18h-.11l.04.05ZM13.95 44.95h.15l.27-.09h.1c.22-.1.44-.17.66-.24h.42s-.15.53-1.13 1.13l-.47-.8ZM11.45 46.94a.5.5 0 0 1-.3 0v-.39l.15-.12v-.1l.38-.27.2-.1.54.85a4.6 4.6 0 0 1-.97.13ZM15.34 52.56h-.2v-.85.76h.2v.1ZM18.73 50.96h-.15l-.25-.09-.34-.2h.1v-.38a.14.14 0 0 0 0-.1l.6.32h.1v.42l-.06.03ZM9.5 53.48h-.45l.61-.51.84-.77h.8l-.7.87-.16.11c-.16.08-.33.13-.5.15l-.45.15ZM8.65 52.98h-.6l.12-.2 1.45-1.22h.8V51.85l-.15.11-.7.82h-.92v.2ZM6.55 51.42h-.82.15l.06-.46h.1c.5-.2.97-.45 1.41-.73l.15-.1.2-.13h1.02v.49l-.86.53-.3.14h-.94l-.17.26ZM7.81 52.31h-.84l1.85-1.53h.86v.27c.02.03.02.06 0 .1l-.86.87h-1v.29ZM10.63 53.9h-.34l.45-.53.77-.99v.17h.66l-.47.74a.58.58 0 0 1-.14.17l-.13.1c-.22.2-.5.3-.8.33ZM12.08 54.24v-.13a.35.35 0 0 1 0-.14v-.17a.92.92 0 0 1 0-.34l.65-1.06v.38h.42l-.12.91a.08.08 0 0 1 0 .1v.12l-.17.11-.19.1h-.36l-.23.12ZM16.2 53.71a1.1 1.1 0 0 1-.54-.56V51.5l.37.64.15.89c.36.38.1.62.02.67ZM13.47 54.22V53.88l.1-1.1v.1a.1.1 0 0 0 0 .09v1.12l-.12.1a.75.75 0 0 1-.21 0l.23.03ZM14.88 54.19l-.17-.2v-1.1l.13-.12v-.15.09h.12v.38a1 1 0 0 1-.08 1.1ZM14.48 51.5l-.1-.08v-.46V51.17a.7.7 0 0 1-.2.14l-.19.09V50.69l-.96-.18h-.55a.65.65 0 0 1 0-.2v-.28.02a.9.9 0 0 1-.25.15h-.82v-.22a.2.2 0 0 1 0-.11v-.22l.12-.1a.11.11 0 0 0 .04-.05.1.1 0 0 0 0-.09.11.11 0 0 0-.04-.03h-.8a.13.13 0 0 1 0-.11V48.98a.1.1 0 0 0 .04-.08.1.1 0 0 0-.03-.07.12.12 0 0 0-.11 0h.3l-.64.31h-.86l-.12-.09.2-.18.2-.15c.13-.12.28-.23.44-.33.24-.1.5-.15.77-.18.41 0 .82.1 1.16.3.11.05.21.12.3.21v.11c.23.07.45.18.65.31.03.14.09.28.17.4a1.6 1.6 0 0 0 .97.66H15.23h-.1l.41.76v.38-.1l-.42-.28h-.27V51.25c-.04.08-.1.15-.15.22v.1l-.23-.06ZM9.98 51.38h-.23c-.01-.05-.01-.1 0-.14v-.13l.2-.18.8-.53v.09h.55l-.84.82h.46a.5.5 0 0 1-.16.1.48.48 0 0 1-.17 0h-.49l-.12-.03Z"/><path fill="#AB0D30" d="M9.14 50.58h-.32v-.33l.15-.1.78-.4.35-.2h.72a.22.22 0 0 0 0 .14v.12l-1.05.7h-.21.08-.5v.07ZM8.28 49.85h-.36a8.31 8.31 0 0 1 .78-.71l.2-.16.26-.17h1.26l.19-.09v.11a.4.4 0 0 0 0 .13v.18l-1.03.53h-.76a.27.27 0 0 1-.17 0h-.37v.18ZM11.9 52.42h-.13a.9.9 0 0 1 0-.22v-.53l1.03-.7v.41l-.34.6c-.13.2-.33.35-.57.44ZM10.76 51.93h-.13v-.1c0-.08.03-.16.09-.24a.56.56 0 0 1 .2-.17l.89-.84a.92.92 0 0 0 0 .33h.38l-.26.27-.44.46h-.73v.29ZM13.03 52.55v-.44l.33-.62h.13a1 1 0 0 0 .23-.16l-.23.83-.13.17h-.33v.22ZM14.16 52.78v-.6l.17-.64h.15c.08-.05.15-.12.2-.2v.57c.03.06.03.13 0 .2a.4.4 0 0 1 0 .13l-.12.1-.25.44h-.15ZM3.94 54.48c-.28-.03-.55-.1-.8-.23-.24-.13-.45-.3-.6-.5h1.78l.3-.42h.25l.33-.11.6-.22.48-.22h.14l.6-.27H8l-.42.35a.13.13 0 0 0 0 .09l.21.12h.4-.13a12 12 0 0 1-1.76.7h-.46c-.6.16-1.2.29-1.81.38l-.09.33ZM5.67 55.04c-.48 0-.94-.16-1.29-.44h.87l.54-.12.5-.15.56-.18.25-.1.27-.1.34-.13.19-.09.33-.16h.17l.42-.37h.21l-.2.22a.14.14 0 0 0 0 .1h1.04l-.42.2-.78.36h-.16c-.6.23-1.2.44-1.83.6l-.4.09c-.19.12-.4.21-.61.27ZM7.62 55.35a2 2 0 0 1-.73-.13h-.13l.34-.09h.27l.36-.1h.42l.31-.43.36-.18.76-.34.42-.22a.1.1 0 0 0 0 .09h.92l-.27.18-.34.2-.4.22c-.25.13-.52.24-.8.33h-.1l-.4.1c-.3.17-.64.3-.99.37ZM2.2 53.57c-.78 0-1.47-.7-1.79-1.06h.32c1.34 0 2.66-.24 3.89-.71h.23l.71-.31H6.97l-.44.27v.1c.05.05.1.09.17.12l-.86.8h-.15l-.34.11c-.97.37-2 .6-3.07.7l-.08-.02ZM9.56 55.48h-.42a.68.68 0 0 1-.28 0h.28l.82-.37.44-.21.31-.19.3-.2.25-.18.25-.2v.49h.17v.1l-.23.16-.34.2-.19.2c-.44.12-.9.19-1.36.2ZM11.51 55.42c-.1.02-.2.02-.3 0l.32-.14.4-.26.3-.25.15-.17.2-.21h.13l.32-.31v.25a.79.79 0 0 1-.13.22v.1l-.19.14c-.14.1-.3.2-.46.27h-.17c-.16.15-.35.28-.57.36ZM13.43 54.73v-.16h.1v-.1.23l-.1.03ZM20.6 47.61l.15-.13.14-.16.13-.16a.32.32 0 0 0 0-.15l2.1-.42c-.09.26-.26.5-.5.67-.23.18-.52.3-.82.33l-1.2.02ZM21 46.75h-.38l.15-.12.14-.17v-.27l2.1-.47c.02.06.02.12 0 .18a1.4 1.4 0 0 1-.2.38l-.13.13-.13.1h-.2l-1.2.26-.15-.02ZM20.54 44.73h-.57v-.09l.12-.14a.92.92 0 0 1 .1-.2v-.39c.84-.24 1.63-.6 2.32-1.07v.27c.02.06.02.12 0 .18a1.55 1.55 0 0 1-.33.6l-.17.17-.23.14-.32.15-.95.36.03.02ZM20.91 45.79h-.73l.17-.3v-.1a.4.4 0 0 0 0-.13v-.13l2.22-.83v.8l-.16.16h-.15l-1.35.53ZM21.44 49.69h-.19l-.84-.3.1-.1a.11.11 0 0 0 0-.13l-.16-.11h-.1l1.32.1a1.16 1.16 0 0 1 .8.4l-.32.2h-.46l-.15-.06ZM20.6 48.56v-.22a.1.1 0 0 0 .02-.06.1.1 0 0 0-.02-.07h-.1l2.1-.09v.11c-.18.32-.49.56-.87.7h-.4l-.73-.37ZM19.46 52.04c-.28-.02-.55-.11-.75-.28l-.85-.58-.37-.6.2.13.45.23c.09.06.19.1.3.13h.48l.31.26c.18.2.28.45.27.7h-.04ZM20.96 50.5a1.4 1.4 0 0 1-.49-.08l-.44-.22v-.17l-.15-.16v-.1h.28l1.05.35a.48.48 0 0 1 .17 0l.14.15c.05.04.09.1.1.15h-.52l-.14.09ZM20.39 51.36c-.29 0-.57-.1-.8-.23l-.25-.17v-.34h.65l.55.27.12.1v.14c.05.07.08.15.1.23a2.1 2.1 0 0 1-.37 0ZM17.8 50.34h-.42a.49.49 0 0 1-.15-.2l-.42-.64h.13l.17-.12c.15-.16.27-.34.35-.53.08-.23.08-.47 0-.7a.99.99 0 0 0-.12-.46c-.08-.14-.2-.27-.34-.37-.19-.14-.35-.3-.48-.5a1.42 1.42 0 0 1-.23-.74c-.04-.33.03-.67.2-.97.16-.3.42-.56.74-.74a4.7 4.7 0 0 1 1.1-.3v.75l-.15.11-.63.3a.24.24 0 0 0-.16-.06.24.24 0 0 0-.16.05.18.18 0 0 0-.06.14c0 .05.02.1.06.14h.8v.09l-.1.1a.1.1 0 0 0-.03.07c0 .02.01.05.03.07a.12.12 0 0 0 .1 0h.74a.6.6 0 0 1 .2.1v.26c-.12.11-.27.2-.43.25v.1h.5c.11.04.21.1.3.18v.14a.6.6 0 0 1-.17.15h-1.03v.13h.27l.21.2v.2H18v.13l.17.12.13.15v.31h-.64v.13c.11.08.2.18.25.3.06.1.1.23.1.35l-.2 1.31Z"/><path fill="#AB0D30" d="M18.58 46.88v-.1c.07-.1.12-.2.15-.32a.13.13 0 0 0 0-.1l1.03-.33H20c.18-.04.37-.04.55 0h.19v.09a.73.73 0 0 1-.11.16l-.15.11-.19.11h-.25l-1.47.38ZM18.39 46.15h-.36v-.58l.32-.15.86-.36h.84v.13c-.14.19-.33.35-.57.45l-1.09.51ZM18.12 45.3h-.3.21l.2-.13v-1.13a4.74 4.74 0 0 1 1.74-.36h.23v.52a.63.63 0 0 1-.1.15l-.11.11-.2.1h-.1l-1.13.52-.44.22ZM19.02 48.56v-.11a.63.63 0 0 1-.1-.15l-.15-.14h.31l1.08-.11h.38c.14.03.29.09.42.16-.13.21-.34.38-.6.48h-.29l-1.05-.13ZM18.85 47.74l.15-.2a.1.1 0 0 0 0-.1 1.4 1.4 0 0 0-.38-.3l1.3-.2h.74v.09a.4.4 0 0 1-.12.14 1 1 0 0 1-.43.24h-.2l-1.08.11.02.22ZM19.34 50.2h-.47l-.54-.28h.25s.13-.09.13-.12v-.13a.2.2 0 0 0 0-.11l.73.22.21.16c.05.02.08.05.1.1h-.41v.16ZM19.55 49.41l-1.05-.27v-.13h.16a.6.6 0 0 0 .2 0h1.02l.2.1h.22l-.08.03-.17.11h-.5v.16ZM23.29 45.86v-.53l-.59.13.17-.18.1-.18a.84.84 0 0 0 0-.22v-.13l.57-.29.25-.15.3-.16.3-.2.2-.13.34-.23.15-.11.23-.19.23-.16.42-.36.27-.26.13-.1c.07-.1.15-.18.23-.26.16.41.16.86 0 1.27v.11l-.34.33-.14.14-.38.33-.32.26-.25.18c-.42.31-.86.6-1.32.86l-.21.1-.34.13ZM23 47.32l.14-.18V46.7h-.4l.13-.15.36-.14.5-.26.2-.12.29-.17h.12l.34-.2.14-.1.3-.2.44-.32.4-.33.38-.34.23-.24c.06.25.06.5 0 .75v.34c-.12.16-.25.3-.4.44-.65.53-1.35 1-2.1 1.42l-.68.35-.42.2.03-.31Z"/><path fill="#AB0D30" d="m22.8 48.32.13-.13v-.22a.3.3 0 0 0 0-.12v-.11l.61-.42.74-.38h.15l.16-.11.42-.24.17-.1.17-.14.3-.3.14-.13.32-.26c0 .28-.09.56-.24.8-.15.26-.36.47-.62.64l-.36.3c-.26.16-.52.31-.8.45l-.42.2-.86.27ZM23.16 44.19a.93.93 0 0 0 0-.24l-.5.18.17-.22c.08-.14.15-.3.2-.45v-.4a9.7 9.7 0 0 0 3.77-3.26c.17.43.53 1.38 0 1.95a11.47 11.47 0 0 1-3.64 2.7v-.26ZM22.07 50.25h-.19v-.1a1.28 1.28 0 0 0-.13-.17h.43c.16.02.33.02.5 0h1.05v.16l-.15.17-.14.12c-.34.24-.72.42-1.14.53l-.23-.7ZM22.62 49.34a.13.13 0 0 0 .02-.07c0-.03 0-.05-.02-.07v-.11l-.32-.2h.21l.38-.11h.1l.8-.3.5-.21c.32-.15.61-.32.9-.51l.18-.15a3 3 0 0 1-1.15 1.44l-.2.1h-.48l-.25.08-.38.1h-.25l-.04.01ZM21.1 50.96h-.17.74c.08.02.17.02.25 0-.26.08-.55.08-.82 0ZM10.23 45.5a.27.27 0 0 1 0-.22v-.1a.1.1 0 0 0 .03-.06.1.1 0 0 0-.03-.08.79.79 0 0 1-.3.1.33.33 0 0 1 0-.23.11.11 0 0 0 .04-.03.1.1 0 0 0 0-.1.11.11 0 0 0-.03-.03.46.46 0 0 1-.26 0h-.2c.02-.11.1-.22.2-.29a.46.46 0 0 1-.16 0 .14.14 0 0 1-.13 0h-.1v-.36a.12.12 0 0 0-.04-.09.15.15 0 0 0-.1-.04h-.12l-.2-.11H8.7a.34.34 0 0 1 .12-.18v-.1h-.46l.31-.21.15-.6.2-.11a1.05 1.05 0 0 1 1.06.1l.15.2c.02.08.02.15 0 .22a.94.94 0 0 1-.17.66.5.5 0 0 0-.08.27c0 .1.03.2.08.28a.2.2 0 0 0 0 .1c.09.08.2.11.32.12-.01.04-.01.1 0 .14-.02.1-.02.2 0 .31v.27l-.15.17ZM7.9 44.46h-.28l-.14-.1.63-.28.3-.15a.15.15 0 0 0 0 .13c.07.02.16.02.24 0l-.52.29h-.09l-.14.11ZM8.82 45.1h-.3l.3-.19.42-.25v.15a.08.08 0 0 0 0 .09H9.1a.7.7 0 0 1-.28.2ZM9.39 45.35h-.27.19l.35-.22v.19a.98.98 0 0 1-.27.03ZM7.41 44.02a.36.36 0 0 1-.19 0h-.1c.34-.17.67-.37.99-.58h.19l-.74.35h-.15.02l-.02.23ZM5.18 45.2c-.3-.05-.58-.2-.75-.43.25-.03.5-.07.75-.13h.2c.46-.17.9-.37 1.34-.6.04.05.1.1.17.13h.1l-.19.09-.08.5-.34.14-.3.1-.27.1h-.63v.1ZM6.15 45.66c-.24.01-.47-.05-.67-.16h.63l.31-.11.34-.13.72-.33.12.11h.13l-.25.13-.21.1H7.1l-.25.12-.13.1h-.53l-.04.17ZM8.32 44.8h-.3l.8-.41a.08.08 0 0 0 0 .09l-.3.16h-.2v.17ZM6.9 45.93a.92.92 0 0 1-.43-.1l.31-.11.23-.1.4-.12.21-.1.28-.14.25-.13h.34l-.3.19v.18h-.31l-.5.14a.84.84 0 0 1-.47.3ZM14.54 43.35a4.73 4.73 0 0 0-.54-.24h-.15a.3.3 0 0 0 0-.13v-.32a.67.67 0 0 0-.26-.2.78.78 0 0 0-.33-.08h-.23c-.27 0-.53-.07-.74-.22-.05-.05-.09-.1-.12-.16a.52.52 0 0 1 0-.22v-.29a.92.92 0 0 1 0-.25c.02-.06.06-.1.1-.15a.82.82 0 0 1 .25-.18l.63-.24.42-.13v.3h-.12v.1h.54a.49.49 0 0 1-.2.24h-.13a.12.12 0 0 0-.03.07c0 .03.01.06.03.08H14.33v.2l-.15.09h.38v.09h-.12a.1.1 0 0 0-.04.07c0 .03.02.05.04.08h.16a.36.36 0 0 1 .2 0 .64.64 0 0 1-.24.16v.09c0 .1 0 .13.13.13h.2a.39.39 0 0 1 .2 0h-.15l-.4 1.1Z"/><path fill="#AB0D30" d="M14.23 41.4a.27.27 0 0 0 0-.18.14.14 0 0 0 0-.11l.25-.13.65-.36v.36l-.15.1-.75.32ZM14.52 41.86v-.15a.08.08 0 0 0 0-.1l.48-.2.13-.2a.3.3 0 0 1 0 .14v.1h-.15l-.46.4ZM14.71 42.24a.11.11 0 0 0 0-.11l.57-.27a.65.65 0 0 1-.13.24.76.76 0 0 1-.23.2l-.21.08v-.14ZM14.82 42.82a.2.2 0 0 0 0-.1l.6-.26c-.15.17-.36.3-.6.36ZM13.83 40.96v-.2a.13.13 0 0 0 0-.09l1.09-.64v.33l-.76.37-.33.23ZM15.36 40.58a.46.46 0 0 0 0-.16h-.23a.54.54 0 0 0 0-.19V39.93a7.9 7.9 0 0 0 2.1-1.43.9.9 0 0 1 0 .86l-.1.13v.09l-.2.14-.22.15-.44.16-.3.19-.33.18-.28.18ZM15.47 41.27v-.29l.33-.18.3-.17.3-.18.27-.16.18-.26a.73.73 0 0 1-.12.66l-.2.16-.47.33-.34.18h-.13l-.2.11h-.18l.26-.2ZM15.47 41.95a.46.46 0 0 0 0-.17v-.25l.67-.31.36-.2.52-.33c0 .23-.12.46-.31.62-.4.3-.84.55-1.33.73l.09-.1ZM12.5 45.63l.17-.13.36-.18h.19l.25-.11.19-.1.6.99 1.52 2.42-1.13.55-2.15-3.44ZM14.88 49.14l1.03-.5.36.61 1.17 1.82-2.56-1.93ZM17.74 53.64l1-.51 2.51 4.02 1.4 2.24-.43.2-.5.22-3.98-6.17ZM15.7 50.52l-.57-.92.88.65 1.9 1.39.54.85-2.75-1.97ZM16.08 51.09l2.54 1.82-.44.2-.57.27-1.53-2.3ZM61.88 46.57l-.13-.14-.36-.31-.25-.2-.25-.19-.27-.23-.32-.17-.34-.16-.2-.1-.47-.2-.2-.08-.28-.11-.28-.1h-.12a4.76 4.76 0 0 0-.7-.14h-.4l.24-.3h.9l.32.08h.25l.3.11h.18l.4.18.32.17.3.16.24.17.63.49.2.16.3.3v.18c.03.04.03.1 0 .14l-.01.3Z"/><path fill="#AB0D30" d="M62.11 45.75c-.09-.09-.19-.18-.3-.25l-.2-.17-.22-.23-.29-.17-.27-.16-.32-.16-.25-.11h-.15l-.3-.13-.52-.3-.59-.17h-.46l.1-.1c.21-.14.45-.25.7-.32h1.74c.48.22.85.6 1.04 1.03.02.05.02.1 0 .15v.1c.02.2.02.41 0 .61.11.12.21.25.29.38ZM46.5 59.36c-.14-.11-.25-.24-.37-.35l-.15-.14-.34-.35c-.29-.34-.54-.7-.73-1.1l-.1-.23a3.71 3.71 0 0 1 .33-3.64 4.75 4.75 0 0 1 3.64-2.1h.14a.12.12 0 0 0 .11 0l-.1-.14-.15-.35h.71c.1.06.2.13.28.2.1.1.2.2.33.28.28.12.57.23.86.32.22.06.43.13.64.22.14.07.24.2.29.33a.5.5 0 0 1 0 .42v.13a.7.7 0 0 1 .21.09c.15 0 .17.12.17.14a.18.18 0 0 0 0 .15c.22.01.43.1.59.24v.09c-.1.1-.25.18-.4.21 0-.12 0-.47-.2-.6a.46.46 0 0 0-.16 0s-.13 0-.17.15c0 .15.06.3.17.42a4.91 4.91 0 0 0-.82-.3.62.62 0 0 0-.13-.25.74.74 0 0 0-.25-.18 1.13 1.13 0 0 0-.36-.1c-.1.02-.21.05-.3.1a.7.7 0 0 0-.24.18l2.1.93c0 .11 0 .22-.19.24a4.74 4.74 0 0 1-1.7-.73c-.12.02-.24.02-.36 0h-.46a.9.9 0 0 1-.27-.24.77.77 0 0 1-.13-.3h-.1c-.59.18-1.08.54-1.37 1.01-.24.37-1.22 2.26 1.82 4.4l.22.12.31.2h-2.02l-.42.11-.92.42Zm3.16-7.29a.12.12 0 0 0-.1 0 .1.1 0 0 0-.03.07l.03.06.77.67c.63 0 .78-.25.78-.47a.13.13 0 0 0 0-.09l-.19-.1h-.19c-.34-.09-.7-.13-1.05-.14h-.02ZM58.39 45.8c-.95-.58-1.24-1-1.18-1.12h.44c.22.03.44.08.65.14l.3.11h.15l-.36.88ZM61.4 46.94c-.5-.04-.98-.15-1.41-.35l.16-.22.4-.62.13.1.17.12.2.17.18.16.1.13v.18s.23.33.06.33ZM57.42 52.58v-.09a.4.4 0 0 1 0-.13v-.49h.32v.84l-.32-.13ZM54.06 50.96v-.42l.69-.34v.49c0 .02.01.05.03.07l.07.04-.31.2-.21.09h-.25l-.02-.13ZM63.5 53.48h-.28a1.57 1.57 0 0 1-.52-.15l-.17-.1-1.14-1.14h.89l.86.78.59.51-.23.1ZM63.62 52.98l-.12-.2-.86-.78v-.35h.86l.14.15 1.43 1.18h-1.45ZM66.25 51.42h-.9l-.28-.15-.86-.53v-.1a.3.3 0 0 0 0-.13v-.25h1.08l.18.14h.13c.45.29.93.55 1.43.76h.5-1l-.28.26ZM65.01 52.31h-.63l-.88-.93a.24.24 0 0 0 0-.13v-.23h.92l.34.18 1.66 1.04h-.15c-.1.05-.21.09-.33.1h-.32l-.6-.03ZM62.24 53.9a1.7 1.7 0 0 1-.8-.19h-.13l-.1-.1a.58.58 0 0 1-.15-.17l-.46-.75h.73a.11.11 0 0 0 0-.09v-.16l1.2 1.53h-.3v-.08ZM60.7 54.22h-.3l-.16-.09-.15-.09-.1-.1v-.1l-.2-.78h.39a.3.3 0 0 0 0-.13v-.37l.63 1.04c.02.12.02.23 0 .35v.31a.3.3 0 0 1 0 .14l-.1-.18ZM56.68 53.71c-.1 0-.35-.27-.27-.85l.13-.93.38-.59v.97a.22.22 0 0 0 0 .13l.27.34v.39c-.1.22-.27.41-.5.54ZM59.3 54.28a.4.4 0 0 1 0-.13V53.58h.24l.13-.32v.09l-.38-.57.21.86v.35l-.2.29Z"/><path fill="#AB0D30" d="M58 54.17c-.17-.11-.32-.26-.41-.43a.93.93 0 0 1-.1-.56v-.38l.14-.09.13-.1.1.16c.04.05.09.09.15.12h.1V54l-.1.18ZM58.37 51.53v-.11a.75.75 0 0 1-.15-.2v-.25c-.06.2-.2.39-.42.5v-.33a.57.57 0 0 1 0-.18l.4-.64h1.1a1.72 1.72 0 0 0 .98-.65l.15-.42c.05-.2.12-.4.2-.58v-.1c.1-.09.2-.17.32-.23.34-.19.74-.3 1.14-.3h.2c.27.03.53.1.77.2.15.1.3.2.42.32l.2.2-.2.1h-.1c-.11.02-.22.02-.32 0-.1.02-.22.02-.32 0l-.57-.28h-.14a.16.16 0 0 0-.1.03.12.12 0 0 0-.05.08l-.02.04c0 .02 0 .03.02.05v.36h-.61.12a.22.22 0 0 1-.12 0 .12.12 0 0 0-.1 0 .1.1 0 0 0-.04.07c0 .03.01.06.03.08l.13.1v.33c.02.08.02.15 0 .22a.41.41 0 0 1-.21 0h-.36c-.09-.04-.17-.08-.25-.14h-.15l.13.18v.5h-.63v-.1a.08.08 0 0 0 0 .09v.6h-.2a.81.81 0 0 1-.2-.14.49.49 0 0 1 0-.19.14.14 0 0 0 0 .1v.32l-.1.13-.95.24ZM62.82 51.38h-.54l-.13-.09-.94-.9h.54v-.34l.86.58.21.2V51.07h-.29l.3.31Z"/><path fill="#AB0D30" d="M63.5 50.56h-.57l-1.05-.78a.1.1 0 0 0 0-.1c-.01-.04-.01-.09 0-.14h.71l.57.27.59.33h.13v.48l-.38-.06ZM64.38 49.87h-.55l-.2-.1-.3-.14-.9-.49v-.25l.18.09h1.12c.1.03.18.08.25.14l.21.15c.21.18.42.38.61.58l.15.15h-.53l-.04-.13ZM61 52.42c-.13.02-.26.02-.38 0h-.15l-.1-.1-.17-.12-.34-.58v-.6c.23.25.53.6.74.8v.33c.02.14.02.29 0 .43l.4-.16ZM61.98 51.95h-.46a.24.24 0 0 1-.1-.1l-.1-.1-.91-.79h.35a.65.65 0 0 0 0-.34l.15.14.74.68.1.1v.51l.23-.1ZM59.75 52.67h-.14l-.32-.25v-.18l-.23-.82v-.1l.23.17.23.1.32.56v.63l-.09-.1ZM58.7 52.78h-.12l-.13-.09v-.98l.21.2h.15l.1-.1.17.66v.35l-.38-.04ZM68.92 54.48h-.17c-.62-.08-1.24-.2-1.85-.37l-.29-.09h-.17c-.6-.2-1.2-.44-1.76-.7h-.13.38l.2-.12a.2.2 0 0 0 0-.1l-.41-.35h.71l.36-.1.57.26.23.11h.36l.59.22.25.09h.25l.27.1h1.81c-.1.23-.26.45-.47.63-.2.18-.45.32-.73.42Z"/><path fill="#AB0D30" d="M67.2 55.04a3 3 0 0 1-.57 0l-.4-.09c-.61-.16-1.2-.35-1.79-.58h-.16c-.29-.1-.56-.23-.82-.37l-.43-.22h1.12v-.09a.13.13 0 0 0 0-.09l-.23-.22h.2l.3.15.55.25.53.22.52.2h.25l.28.1.52.14.53.13h.86c-.35.27-.8.44-1.26.47ZM65.26 55.35c-.3 0-.6-.04-.9-.1l-.4-.12-.82-.34-.53-.19-.33-.2h-.1l-.28-.18h.9a.15.15 0 0 0 0-.13l.4.2.78.35.36.15.44.16h.19l.25.1.34.1h.25l.34.1c-.28.1-.59.13-.89.1ZM70.69 53.57h-.15c-1.05-.13-2.07-.4-3.03-.79h-.48l-.97-.43.15-.11v-.1l-.44-.27h.99l.27-.09h.15l.71.33h.23c1.22.47 2.54.71 3.87.73h.34c-.19.03-.86.73-1.64.73ZM63.3 55.48a5.73 5.73 0 0 1-1.34-.2l-.36-.17-.33-.2-.21-.16-.23-.15-.13-.1h.27v-.2a.3.3 0 0 0 0-.15.13.13 0 0 0 0-.13v-.09l.1.1.2.14.5.33.26.14h.1l.38.22.84.35h.34-.28.09l-.2.27ZM61.4 55.42c-.26-.01-.5-.07-.74-.16h-.17a2.3 2.3 0 0 1-.46-.27l-.2-.15-.12-.24-.14-.21v-.33c.05.05.11.1.18.13l.2.1.2.22.36.31c.11.1.23.17.36.24a1 1 0 0 0 .27.15c.11.04.2.12.25.21ZM59.44 54.73c-.2-.02-.4-.09-.56-.2-.17-.1-.31-.23-.4-.38V53.9v.11l.96.71ZM51.05 47.56c-.3-.04-.6-.15-.83-.33-.23-.18-.4-.42-.48-.68l.85.19 1.17.23v.11l.1.17c.05.06.1.13.18.18 0 0 0 .09.14.1l-1.13.03ZM50.67 46.52h-.23l-.13-.1-.12-.14c-.1-.12-.17-.25-.24-.38v-.17l2.1.51v.28l.13.18h.1-.3l-1.31-.18ZM51.34 44.4c-.1-.03-.19-.08-.27-.14l-.19-.18-.17-.17-.15-.18a1.44 1.44 0 0 1-.18-.4.78.78 0 0 1 0-.22.27.27 0 0 1 0-.18v-.11c.69.47 1.46.84 2.29 1.1v.38c.02.06.06.12.1.18l.15.2h-.61l-.97-.27ZM50.88 45.5h-.21l-.19-.13-.15-.16v-.82l2.23.83.15.3v.14l.19.18h-.74l-1.28-.34ZM51.53 49.69h-.4l-.2-.1-.32-.21c.2-.22.48-.36.8-.4h1.34-.27v.22l.12.12-.88.26-.19.1ZM51.3 48.6h-.42c-.2-.07-.4-.18-.56-.31-.16-.14-.28-.3-.37-.48h.11l2.1.1v.22h-.27l-.59.46ZM53.4 52.04a.53.53 0 0 1-.23 0c0-.26.1-.51.28-.71l.31-.24h.63l.28-.13.44-.23.23-.13-.44.62-.8.58c-.2.14-.44.22-.7.24ZM51.85 50.49h-.38a.4.4 0 0 1 0-.13l.13-.13c.05-.05.12-.09.2-.1l1.06-.35h.12l-.1.09-.15.16a.1.1 0 0 0-.03.08c0 .02.01.05.03.07l-.44.2h-.53l.09.1ZM52.48 51.34c-.14.03-.28.03-.42 0v-.28a.4.4 0 0 0 0-.13l.12-.11a.19.19 0 0 1 .06-.06.22.22 0 0 1 .07-.03l.55-.3h.65v.3l-.34.27c-.19.17-.43.29-.7.34ZM55.09 50.34c0-.11.03-.23.08-.34.05-.1.13-.2.23-.28h-.94V49.27l.16-.13v-.09h-.73v-.24a.93.93 0 0 1 .2-.18h.28-.31a.46.46 0 0 1-.15-.13v-.12l.3-.2h.52a.74.74 0 0 1-.42-.26v-.1a.48.48 0 0 1 0-.17l.19-.1h.78c.01.02.04.02.06.02l.06-.01a.1.1 0 0 0 .03-.04.08.08 0 0 0 0-.08.1.1 0 0 0-.03-.03h-.12v-.2l-.2-1.71h.55a.19.19 0 0 0 .15 0 .1.1 0 0 0 .03-.08.1.1 0 0 0-.03-.07l-.61-.29V44c.36.07.72.16 1.05.3.31.17.57.41.75.7.17.28.26.6.26.92 0 .26-.08.51-.23.74-.12.2-.28.36-.46.51-.13.1-.24.2-.32.33-.07.12-.12.25-.15.38-.07.23-.07.47 0 .7.08.2.2.37.36.52l.17.15h.15l-.42.64a.46.46 0 0 1-.15.12h-1.1v.33Z"/><path fill="#AB0D30" d="M52.98 46.65h-.27l-.17-.1a.46.46 0 0 1-.15-.12l-.12-.13v-.24h.94l1.03.33a.13.13 0 0 0 0 .11c.02.11.07.22.15.3l.1.14-1.5-.3ZM53.26 45.75l-.21-.12-.26-.26v-.22h.7l.82.38.4.19v.34h-.32l-1.13-.3ZM53.45 44.75l-.2-.1-.12-.14v-.38a.14.14 0 0 0 0-.09v-.36h-.15c.5.05.97.16 1.43.32v.51a.14.14 0 0 0 0 .1v.18l.1.1.2.13.19.1h-.28l-1.17-.37ZM53.1 48.61h-.3a1.1 1.1 0 0 1-.57-.49c.13-.07.27-.12.42-.15h.33l1.12.11h.3-.11l-.15.13v.24l-1.03.16ZM52.98 47.63h-.25c-.16-.05-.3-.13-.42-.24l-.15-.07v-.22h.82l1.29.24a.88.88 0 0 0-.34.25.1.1 0 0 0 0 .11.6.6 0 0 0 .13.22l-1.08-.3ZM53.57 50.2H53v-.1l.1-.09.22-.16h.1l.72-.2.01.05a.1.1 0 0 1-.01.04.11.11 0 0 0-.02.07c0 .02 0 .04.02.06.1.02.21.02.32 0l-.55.27h-.44l.1.06ZM53.2 49.41h-.34a.38.38 0 0 1-.15-.09h-.1 1.76l-.1.13h-.2l-.75.22h-.13v-.26ZM49.07 45.6l-.92-.54-.23-.16a.81.81 0 0 1-.22-.15l-.42-.3-.42-.34-.19-.23-.23-.2-.31-.3v-.09a.14.14 0 0 1 0-.1 1.6 1.6 0 0 1 0-1.28l.25.27.19.17.2.2.18.16.27.22.44.35.21.14.28.2.2.13.32.18.25.17.3.16.57.27v.11a.67.67 0 0 0 0 .22l.12.2.15.16-.57-.14v.76l-.42-.23ZM49.95 47.32l-.42-.22-.75-.35c-.75-.41-1.46-.89-2.1-1.42a2.36 2.36 0 0 1-.38-.4l-.1-.14v-.24c-.08-.24-.08-.5 0-.75l.22.24.38.33.4.33.44.32.2.13.24.17.21.12.26.17.29.16.19.11.5.26.38.18.1.1h-.33a.59.59 0 0 0 0 .2v.15l.1.15.17.2v.2ZM50.1 48.32l-.73-.27-.45-.2a6.43 6.43 0 0 1-1.15-.75 1.93 1.93 0 0 1-.62-.62 1.63 1.63 0 0 1-.24-.8l.27.22.19.14.33.22.15.13.2.11.41.27.28.15.73.38.44.2h-.1a.1.1 0 0 0 0 .11v.24a.4.4 0 0 0 0 .12V48.18a.2.2 0 0 0 .07.1l.1.05h.12ZM49.7 44.28l-.5-.26-.3-.18-.12-.16-.5-.33-.24-.15-.25-.18-.13-.1-.33-.25-.2-.18-.22-.18-.36-.35c-.13-.1-.25-.25-.36-.36a2 2 0 0 1 0-1.97 9.25 9.25 0 0 0 3.76 3.26v.15a.78.78 0 0 0 0 .22 2.17 2.17 0 0 0 .4.7l-.48-.2a.47.47 0 0 0 0 .24l-.17.28ZM50.88 50.25h-.3a3.49 3.49 0 0 1-1.28-.65l-.14-.17v-.16h2.04l-.15.14v.13h-.17v.71Z"/><path fill="#AB0D30" d="M50.27 49.36h-.57l-.2-.1h-.11a3 3 0 0 1-1.16-1.43l.17.13c.27.18.56.34.86.49l.5.24c.28 0 .55.2.85.27l.35.09.32.1h-.13l-.14.1a.13.13 0 0 0-.03.07c0 .03.01.05.03.08l-.74-.04ZM51.76 50.96c-.2 0-.4-.04-.57-.12a1.3 1.3 0 0 1-.46-.32h1.29v.11l-.26.33ZM62.64 45.5h-.21V44.75c.05 0 .11 0 .17-.02.05-.02.1-.05.14-.09l.1-.09a.55.55 0 0 0 0-.56c-.12-.21-.18-.44-.16-.68a.74.74 0 0 1 .27-.4c.14-.12.31-.2.5-.21a1 1 0 0 1 .55.08l.17.11.65.44h-.54v.15h-.15a.63.63 0 0 1-.36-.11.12.12 0 0 0-.1 0v.38h-.42.04v.09c.11.08.19.19.2.31h-.2a.14.14 0 0 0-.1.03.1.1 0 0 0-.03.08.13.13 0 0 0 0 .09.21.21 0 0 1 0 .22c-.1.02-.2.02-.3 0h-.18v.1a.5.5 0 0 1 .33.14c.08.08.13.19.12.3 0 .1-.06.2-.15.28a.52.52 0 0 1-.34.1ZM64.82 44.42h-.1l-.5-.29c.08.03.18.03.27 0l.84.42h-.28a.14.14 0 0 1-.12 0l-.1-.13ZM64.49 44.79h-.32l-.3-.17H64a.11.11 0 0 0 0-.1l.44.25.32.16h-.36l.09-.14Z"/><path fill="#AB0D30" d="M64.04 45.1a.7.7 0 0 1-.33 0l-.21-.19a.11.11 0 0 0 0-.1v-.13l.67.38a.63.63 0 0 1-.13.04ZM63.5 45.35c-.16 0-.3-.03-.44-.09h.1v-.2l.36.24h.19l-.21.05ZM65.41 44.02h-.12a.21.21 0 0 1-.15 0l-.78-.36h.21v-.1c.31.23.64.43.99.6h-.44l.3-.14ZM67.7 45.2h-.92l-.3-.12-.33-.13-.36-.14-.19-.28v-.13h.13l.16-.1H66c.44.2.9.37 1.37.5h.2l.76.15c-.18.22-.45.37-.75.42h.12v-.16ZM66.7 45.66h-.57l-.28-.16-.25-.2-.31-.13-.4-.22h.23l.31.15.38.16.32.13.31.1h.74a.91.91 0 0 1-.3.2c-.12.04-.25.06-.38.06l.2-.09ZM65.98 45.95h-.38l-.48-.16h-.1l-.22-.11-.3-.18a1.63 1.63 0 0 1-.3-.18h.41l.17.09.23.1.25.12.2.09.2.09.3.1.02.04ZM58.3 43.33h-.12.38c.03 0 .06-.01.08-.03a.15.15 0 0 0 .06-.06.11.11 0 0 0 .02-.06c0-.03 0-.05-.02-.07a.7.7 0 0 1-.23-.18h.36v-.18h.34a.14.14 0 0 0 .12 0v-.11h-.1v-.1a.13.13 0 0 1 0-.08h.38a.17.17 0 0 0 .12 0 .1.1 0 0 0 .03-.08.1.1 0 0 0-.03-.07h-.12a.41.41 0 0 1-.22-.24H60l-.7-1.2v-.09l.36.13.67.23c.15.09.27.2.36.33V42a.66.66 0 0 1-.21.37c-.21.14-.47.22-.74.23a.74.74 0 0 0-.32.06c-.1.04-.18.1-.24.18a.22.22 0 0 0 0 .13.17.17 0 0 0 0 .14.3.3 0 0 0 0 .15h-.15c-.2.05-.4.13-.57.23l-.15-.16ZM58.1 41.16l-.15-.09v-.38l.37.2.53.25a.13.13 0 0 0 0 .1.43.43 0 0 0 0 .21l-.76-.29ZM58.07 41.7h-.15v-.2l.8.32-.01.04.01.05v-.05l-.65-.15ZM57.97 42.22a.75.75 0 0 1-.36-.36l.31.14.43.16a.13.13 0 0 0 0 .1v.09l-.38-.13ZM58.07 42.82c-.2-.12-.36-.3-.44-.5l.61.26a.18.18 0 0 0-.12-.01.16.16 0 0 0-.1.06.12.12 0 0 0-.02.1c.01.04.04.07.07.09ZM58.24 40.6h-.13a.7.7 0 0 0 0-.1v-.47c.36.17.72.31 1.1.44v.24l-.97-.11ZM57.19 40.47l-.34-.2-.2-.24-.28-.18-.23-.14-.17-.15-.15-.15a.92.92 0 0 1 0-.87 6.6 6.6 0 0 0 2.1 1.44v.35a.17.17 0 0 0-.1 0v.18l-.63-.04ZM57.19 41.22h-.1l-.22-.11h-.1l-.36-.18-.48-.33h-.1v-.11a.71.71 0 0 1-.13-.66v.1l.25.18h.1l.28.16.31.18.3.17.33.18a.12.12 0 0 0-.1 0c-.01.05-.01.1 0 .14v.19l.02.09ZM57.44 42.02a4.6 4.6 0 0 1-1.3-.73.84.84 0 0 1-.23-.27.73.73 0 0 1-.09-.33l.5.33.36.2.36.16.32.15v.5l.08-.01ZM57 48.43l1.53-2.4.61-.99.3.13.31.15.34.16.23.13-.97 1.45-1.24 1.83-1.11-.46ZM56.9 48.61l.56.3.55.25-.78.55-1.9 1.38 1.56-2.48ZM50.25 59.43h-.1l3.93-6.26.52.27.53.25-3.98 6.1-.9-.36ZM55.09 51.62l2.75-2-.13.16-.48.74-2.77 1.97.63-.87ZM54.22 52.95l.68-.48 1.93-1.42-.65.97-.93 1.42-1.03-.5ZM46.67 64.13l1.7-2.7c-.35.01-.7.1-1 .26-.3.15-.56.37-.74.64a1.63 1.63 0 0 0 .04 1.8ZM26.32 62.33a1.98 1.98 0 0 0-.72-.63c-.3-.16-.64-.25-.99-.27l1.67 2.7c.18-.27.29-.58.3-.9 0-.31-.09-.62-.26-.9Z"/><path fill="#AB0D30" d="m68.42 82.65-4.5-3.82L68.27 75a.17.17 0 0 0 .06-.06.15.15 0 0 0 0-.15.17.17 0 0 0-.06-.06.24.24 0 0 0-.15 0h-13.3l3-4.53a.17.17 0 0 0 .06-.13c0-.05-.02-.1-.06-.13a33.27 33.27 0 0 0-4.37-2.8l-.47-.35-.33-.16-.23-.17h.18c.35.02.7.02 1.06 0 1.13.01 2.24-.27 3.2-.8a5.3 5.3 0 0 0 2.16-2.2 6.53 6.53 0 0 1 2.3-2.2l-.75-.19c-.2.1-.43.16-.67.16-.12.02-.25.02-.38 0a5.06 5.06 0 0 1-2.1 1.53c-.72.3-1.51.45-2.31.4-.51 0-1.02-.04-1.52-.12h-.1c-.04.68-.2 1.35-.49 1.98-.04.09-.09.16-.14.24-.21.33-.47.64-.78.91h-.19l-.21-.1c.3-.27.56-.56.78-.88l.1-.2c.27-.5.42-1.05.44-1.6v-.22a2 2 0 0 0 0-.37l-.37-.1h-.26l-.38-.14h-.31l-.72-.27-.42-.18.15.2v.13c.22.41.29.87.21 1.33v-.06.15c-.05.12-.1.23-.17.34l-.1.13-.23.2-.15.11a1.8 1.8 0 0 1-.42.22l-.4-.15-.65.19c.15-.04.29-.1.42-.17.12-.05.23-.12.33-.2.33-.2.58-.49.72-.82.1-.32.1-.65 0-.96-.06-.15-.13-.3-.21-.44l-1.7 2.51-.42-.14 1.9-2.99-.52-.22-.4-.16L47 64.37h-.36l-.33-.11H46a1.94 1.94 0 0 1-.03-1.68c.13-.27.3-.51.54-.72.23-.2.51-.37.82-.48.49-.2 1.05-.24 1.57-.13l.34.13.4.16.4.19.52.21.32-.05c.38.16.78.3 1.2.44h.2l.68.18.61.1h.3c.37.04.74.04 1.11 0 .8.01 1.6-.14 2.34-.45l.23-.1h.19c.5-.3.93-.67 1.28-1.1l.19-.25.12-.2c.1-.17.2-.34.28-.51v-.19c.08-.18.15-.38.19-.58v-.18c.02-.15.02-.3 0-.44v-.18c-.01-.42-.1-.84-.26-1.24v-.1s0-.14-.1-.19c-.1-.06-.15-.31-.17-.33a.1.1 0 0 1 0-.1.14.14 0 0 1 .13 0h.31v-.12l-.42-.29h-.36a1.59 1.59 0 0 1-.42-.13 3.2 3.2 0 0 1-.69-.41l-.17-.11c-.14-.11-.3-.2-.46-.28a.7.7 0 0 0-.34 0h-.25c-.1.06-.2.13-.25.22a.22.22 0 0 1-.13 0l-.2-.1a.39.39 0 0 0-.2 0 .17.17 0 0 1-.12 0 2.26 2.26 0 0 0-.24-.2h-.25v.08a.57.57 0 0 0 0 .18h.49c.06.04.11.09.14.15a.18.18 0 0 1 0 .2.58.58 0 0 1-.38.1h-.37.1c.22.1.41.21.59.36h.23c.14 0 .28.03.4.09a.6.6 0 0 1 .32.32.5.5 0 0 1-.02.42h-.11l-1.51-.78-.42-.22s-.21.17-.15.28c.24.25.55.45.9.58l.23.09.49.2.01.05-.01.04c.03.13.1.25.18.35.1.1.21.2.34.25h.44c.14.02.27.02.4 0 .02.04.02.08 0 .11V58.24c0 .3-.06.58-.18.85V59.32c-.37.54-.94.95-1.62 1.15h-1.33a8 8 0 0 1-2.52-.47h-.2c-.27-.1-.56-.22-.85-.35h-.21l-.66-.3h-.46l-.57-.14h-.12a5.61 5.61 0 0 0-.78 0h-.5c-.34.03-.66.1-.97.2h-.32c-.87.32-1.6.87-2.1 1.57v.32c-.27.59-.37 1.2-.32 1.83v.16h-.5c-.04-.45.02-.9.17-1.35-.54.3-.99.7-1.3 1.17h-.6c-3.4-.5-6.89-.5-10.3 0h-.59a3.68 3.68 0 0 0-1.28-1.17c.14.46.2.92.15 1.39h-.43a3.57 3.57 0 0 0-.31-1.82V61a4.3 4.3 0 0 0-2.1-1.57h-.17c-.35-.12-.72-.2-1.1-.24h-.48c-.3-.02-.62-.02-.92 0-.2.04-.39.09-.57.15h-.4l-.32.13-.6.27-.87.35h-.19c-.82.28-1.7.44-2.58.45h-1.62c-.7-.2-1.28-.63-1.64-1.18a1.9 1.9 0 0 1-.2-.84v-.44h.1c.1.02.23.02.35 0h.44c.26-.14.45-.36.53-.62a.11.11 0 0 1 0-.09l.46-.18h.25a2.2 2.2 0 0 0 1.03-.76c0-.1 0-.19-.13-.26l-1.97.98a.5.5 0 0 1-.03-.42.6.6 0 0 1 .32-.32.97.97 0 0 1 .4-.1.48.48 0 0 1 .23 0c.19-.15.4-.29.63-.4h.1-.16a.55.55 0 0 1-.22-.1.45.45 0 0 1-.14-.2.15.15 0 0 1-.03-.1l.03-.09.05-.09a.22.22 0 0 1 .1-.05h.46a.49.49 0 0 0 0-.18v-.19h-.12l-.23.19h-.26a.39.39 0 0 0-.19 0l-.2.1a.6.6 0 0 0-.28-.21H16a.56.56 0 0 0-.3 0c-.16.07-.32.16-.45.27l-.1.18c-.22.17-.45.3-.7.42-.14.07-.29.1-.45.13h-.4l-.42.25-.14.19h.4a.13.13 0 0 1 0 .12l-.17.35v.16c-.15.4-.23.82-.25 1.24v.79c.04.2.1.4.19.6v.18c.07.17.17.34.27.5l.13.2.18.25c.35.43.79.8 1.29 1.09h.19l.23.1c.73.31 1.52.47 2.33.46.37.03.75.03 1.12 0h.4l.6-.1.66-.19h.23c.4-.12.8-.26 1.2-.42h.2l.51-.22.4-.18.47-.2.35-.1a2.86 2.86 0 0 1 1.9.25c.27.15.52.34.7.58a2.03 2.03 0 0 1 .28 2.17h-.52l-.46.14-2.1-3.02-.32.13-.53.22 1.94 2.96h-.1l-.26.1h-.1l-1.65-2.54a1.89 1.89 0 0 0-.21 1.42c.05.13.11.25.2.37.1.16.24.31.41.44l.34.21.42.15-.25.1-.1.43c-.16-.07-.31-.15-.45-.24l-.17-.1-.23-.2-.1-.14v-.09c-.07-.1-.12-.22-.15-.34v-.3c-.08-.44 0-.9.2-1.3v-.13l.14-.2-.43.18-.58.22h-.45l-.37.13h-.61c-.02.13-.02.26 0 .4v.21c0 .55.14 1.1.42 1.59l.12.2c.2.33.47.63.78.9l-.23.1c-.3-.27-.56-.58-.78-.91l-.15-.24a6 6 0 0 1-.48-1.98c-.5.08-1 .13-1.51.14-.79-.05-1.56-.18-2.32-.38a5.26 5.26 0 0 1-2.1-1.55 1.4 1.4 0 0 1-.4 0c-.23 0-.46-.05-.65-.16l-.78.16a6.96 6.96 0 0 1 2.3 2.23 5.2 5.2 0 0 0 1.88 2.14c.84.56 1.84.9 2.89 1h1.07v.1l-.42.22-.5.29c-1.54.8-3 1.7-4.36 2.71a.18.18 0 0 0-.05.13c0 .05.02.09.05.13l2.94 4.55H4.83c-.05 0-.1 0-.13.03a.19.19 0 0 0-.08.1.18.18 0 0 0-.04.1c0 .05.01.08.04.12l4.35 3.82-4.35 3.84a.17.17 0 0 0-.05.11c0 .04.02.08.05.11.01.04.04.07.08.1.03.02.08.03.13.03h10c4.43 0 8.77-1 12.62-2.88l4-1.95c.17-.08.31-.19.43-.32.11-.13.2-.28.25-.44a1.06 1.06 0 0 0-.18-.95l-1.43-2.2c1.89-.46 3.83-.7 5.79-.7 1.95 0 3.89.24 5.76.72l-1.18 2.18c-.17.28-.22.6-.12.9.1.3.33.57.65.72l4 2.02A29.1 29.1 0 0 0 58.02 83h10.14c.04 0 .09-.01.13-.03a.19.19 0 0 0 .08-.1.2.2 0 0 0 .06-.1c0-.04 0-.08-.02-.12Z"/><path fill="#AB0D30" d="M57.19 56.3a.6.6 0 0 1-.15-.3c-.02-.1 0-.22.04-.32.04-.07.1-.12.17-.16h.13l.33.16h.21a3.12 3.12 0 0 1 .55.63c0 .02 0 .04-.02.06a.17.17 0 0 1-.13 0l-1.13-.07ZM14.44 56.43a.15.15 0 0 1 0-.13c.16-.25.38-.48.63-.68l.06-.03c.11-.07.23-.13.36-.18.07.04.12.1.17.16a.57.57 0 0 1 0 .62l-1.1.24h-.12Z"/><path fill="#fff" d="m7.48 81.82 3-2.55v-.84l-2.94-2.59h10.05L20.41 80v.1c.16.2.37.39.62.53.24.14.52.24.8.29-2.29.6-4.68.9-7.08.9H7.48ZM16.75 70.21a33.18 33.18 0 0 1 4.2-2.47l1.14-.57 1.14-.49 1.26-.51 1.34-.47 1.1-.33c.71-.22 1.55-.42 2.48-.62h.38l1.43-.24h.5a35.64 35.64 0 0 1 9.63 0h.53l1.43.26h.36c.82.16 1.66.38 2.5.62l1.16.36h.12l1.24.44.84.34.38.15h.15c.26.1.51.22.76.35l.35.16.9.46 3.82 2.38-4.67 6.92a29.32 29.32 0 0 0-7.2-3.51l-1.11-.31a25.67 25.67 0 0 0-6.41-.86h-1.1a25.96 25.96 0 0 0-6.45 1.1A29 29 0 0 0 21.46 77l-4.71-6.8ZM58.11 81.82a27.6 27.6 0 0 1-7.15-.93c.3-.05.6-.14.85-.29.26-.14.48-.33.65-.55l2.84-4.19h10.07l-2.94 2.59v.83l3 2.57-7.32-.03Z"/><path fill="#AB0D30" d="M53.26 33.48a.23.23 0 0 1-.15-.06.17.17 0 0 1-.06-.13c0-.04.02-.09.06-.12.04-.04.1-.06.15-.06.05 0 .1.02.15.06.03.03.06.08.06.12 0 .05-.03.1-.06.13a.23.23 0 0 1-.15.06ZM53.95 33.48a.23.23 0 0 1-.15-.06.17.17 0 0 1-.06-.13c0-.04.02-.09.06-.12.04-.04.1-.06.15-.06l.08.01a.2.2 0 0 1 .08.04l.04.06.01.07c0 .05-.02.1-.06.13a.23.23 0 0 1-.15.06ZM54.6 33.48c-.02 0-.05 0-.08-.02a.19.19 0 0 1-.06-.04.16.16 0 0 1-.04-.06.14.14 0 0 1 0-.07c0-.04 0-.08.04-.11a.22.22 0 0 1 .12-.07h.13v.13h-.1v.24ZM52.98 34.88v-.11l.1.1h-.1ZM23.42 71.74c.14-.2.22-.42.23-.65 0-.2-.04-.38-.1-.57v-.12l-.11-.22-.15-.22-.13-.18a4.8 4.8 0 0 0-.42-.48c-.18-.15-.4-.27-.63-.34a1.2 1.2 0 0 0-.5 0h-1.05l-1.35.67 3.53 5.47.8-.46-1.36-2.11.44-.24c.32-.11.6-.3.8-.55Zm-.87-.43c-.1.11-.23.2-.37.27l-.4.22-1.2-1.82.46-.24c.13-.07.27-.11.42-.13.12 0 .24.03.34.1.11.06.2.16.27.27l.25.36.23.38a1 1 0 0 1 .1.33c.04.1.04.2 0 .3l-.1-.04ZM25.65 66.92l-.82.27 1.05 6.34.96-.33-.27-1.35 1.28-.42.84 1.17.95-.33-4-5.35Zm.31 1.82 1.39 1.97-.97.3-.42-2.27ZM32.56 65.33l-1 .17.54 2.62-1.26.2-.53-2.64-1 .16L30.54 72l1-.17-.54-2.65 1.24-.2.57 2.75 1-.17-1.26-6.23ZM37.82 71.43h1.1l-1.41-3.3 1.43-2.94h-1.1L37.02 67l-.73-1.82H35.2l1.27 3-1.52 3.24h1.2l.93-2.1.73 2.1ZM40.98 71.73l1.83-2.55-.74 2.75.95.18 1.15-4.34-1.03-.2-1.83 2.53.74-2.75-.95-.18-1.16 4.34 1.04.22ZM47.6 67.88l1.72.59.34-.79-2.67-.9-2.59 5.82.97.33 2.23-5.05ZM48.04 73.36c-.05.19-.05.38 0 .57.07.17.18.32.32.45l.48.31c.19.11.4.17.63.19.2.03.42.03.63 0 .2-.06.4-.15.57-.26.17-.11.32-.25.42-.42l.21-.34-.88-.44-.17.27c-.07.09-.14.17-.23.24a.5.5 0 0 1-.25.09h-.15a.7.7 0 0 1-.21 0 .56.56 0 0 1-.22-.16.46.46 0 0 1-.1-.22c0-.16.05-.32.15-.46l1.8-2.77c.1-.16.23-.3.4-.4a.56.56 0 0 1 .58 0 .6.6 0 0 1 .29.37.64.64 0 0 1-.13.47l-.16.27.9.44.19-.3a1.57 1.57 0 0 0 .23-1.16 1.35 1.35 0 0 0-.3-.5 1.6 1.6 0 0 0-.5-.35c-.2-.11-.42-.18-.65-.2h-.63a1.62 1.62 0 0 0-.82.49l-.17.2-1.9 2.9c-.18.2-.3.46-.33.72ZM37.99 28.32c-.1.13-.2.26-.27.4a1.38 1.38 0 0 0-.47 0 1.67 1.67 0 0 0-.52 0 .83.83 0 0 0-.72 0 1.94 1.94 0 0 0-.4-.18h-.17l.72-.22h.3c.38-.1.77-.18 1.17-.22h.78l-.17.13-.17.17s-.06-.08-.08-.08ZM32.25 27.38a.96.96 0 0 0 0-.24.52.52 0 0 0 0-.27s.15.25.15.6c0 .04.01.08.04.12.02.04.06.07.1.1h.26c.31.06.64.06.96 0 .07.18.2.34.36.47-.27.03-.53.03-.8 0-.9 0-1.16-.5-1.16-.71l.09-.07ZM34.96 21.82l-.38-.8a4.02 4.02 0 0 0-.67 0h-.19a.42.42 0 0 1-.13-.13.36.36 0 0 1-.06-.16v-.48h-.48l-.17.11-.19.13-.42.36h.13l.54.33-.25.3.61.34.15-.18.52.3.53-.52a.65.65 0 0 1 .42 0l.04.4ZM35.32 20h-.42a1.9 1.9 0 0 0-.46 0v.18h.75c.1.02.2.06.28.11l-.15-.3ZM32.14 24.9v.7s1.12-.57 1.12-1.32v-.35c0-.45 0-.56.2-.56h.16a.9.9 0 0 1 .2-.28.8.8 0 0 0-.3-.28.96.96 0 0 0-.79-.06.93.93 0 0 0-.3.17.79.79 0 0 0-.2.27c-.05.1-.07.2-.07.3v.15c.02.3.02.6 0 .91v.2a.4.4 0 0 1 0 .2l-.02-.05ZM35.57 25.8c.32-.17.56-.43.67-.74h-.3a1.7 1.7 0 0 1-.66-.14.69.69 0 0 1-.2.36c.02.05.02.1 0 .15a4 4 0 0 1 0 .49c.45.26.86.57 1.2.93h.28v.1c.18.06.37.1.57.1h.1a1.5 1.5 0 0 0-.25-.28c-.3-.2-1.4-.6-1.4-.98ZM39.6 24.04c-.03.19-.12.37-.26.51l.75-.22c.04 0 .08.02.11.04.04.02.06.06.06.1v.43h-.13v.16h-.4l-.2.57h.35a.7.7 0 0 0 .36-.14c.1-.07.18-.17.21-.28l.19-.68v-.16l.1-.31a.23.23 0 0 0-.04-.18.3.3 0 0 0-.17-.11h-.16l-.76.09v.18Z"/><path fill="#AB0D30" d="m36.81 22.44.25.64a.21.21 0 0 1 0 .22v.1c.03.19.03.37 0 .55-.02.26-.02.52 0 .78h.49c.31 0 .59.31.73.53.13.25.23.5.32.77.16.27.31.55.44.84.05.11.08.24.1.36h.43a4.14 4.14 0 0 1-.21-.44c0-.23-.1-.7-.17-.94s-.21-.31-.3-.53a1.01 1.01 0 0 1 0-.37v-.14c.15-.09.27-.2.36-.32.1-.12.16-.26.19-.41v-.18a.52.52 0 0 0 0-.26 2.61 2.61 0 0 0-.32-.75 9.3 9.3 0 0 1-1.36-.49l-.17-.09-.21-.1c-.19-.1-.36-.2-.5-.34-.03.22-.03.43 0 .64l-.07-.07ZM37.13 21.38c.5.28 1.06.48 1.64.6a1.58 1.58 0 0 1 0-.76s0 .7.67.7c0 0 .19.52.42.52.23 0 .48-.26.4-.53-.04-.21-.1-.43-.17-.64v-.38c-.08-.2-.21-.37-.38-.53a.67.67 0 0 0-.46 0h-.48a2 2 0 0 0-.74.13l-.17.1h-.12c-.31.22-.54.51-.68.85a.7.7 0 0 1 0 .09h.1l-.03-.15Z"/><path fill="#AB0D30" d="m37.13 21.71.38.26c.5.25 1.02.46 1.57.62h.13l-.1-.44h-.43l-.42-.1a5.1 5.1 0 0 1-1.05-.4h-.13v.13h.11l-.06-.07ZM35.1 24.77v-.16a1.22 1.22 0 0 0 .86.31h.39l-.48-.97a.4.4 0 0 1-.23-.06.31.31 0 0 1-.13-.18l-.3-.78h-.38c-.21.09-.42.2-.6.33a.47.47 0 0 0-.15.2.13.13 0 0 0 0 .09v.22c0 .58.19.65.19.96 0 .31-.5.22-.47.5a4.64 4.64 0 0 1-.42 1.82h.21c-.04.16-.08.32-.1.49h.65a1.44 1.44 0 0 1-.2-.88c.18-1.14.98-1.18 1.42-1.49a.64.64 0 0 0 .13-.38l-.38-.02ZM39.9 20.58h.15-.53c.08.06.15.14.2.22l.18-.22ZM36.73 25.46l-.2-.4v.22c0 .02 0 .05.02.07 0 .02.02.04.04.06a.2.2 0 0 0 .06.04l.08.01Z"/><path fill="#AB0D30" d="m34.48 20.27.14.33h.32v.24c.02.23.02.47 0 .7l.13.28v.1l.6 1.3.13.31.5 1.06v.09l.26.53h.78c.17 0 .12 0 0-.11-.33-.13-.64-.3-.9-.51-.07-.35-.07-.7 0-1.04v-.38s-.39-.55-.6-.8c.04-.24.1-.47.17-.7 0-.25.15-.41.21-.63a.52.52 0 0 0 0-.26.53.53 0 0 0-.1-.22l-.13-.16h-.23a.27.27 0 0 1 0-.13.13.13 0 0 0 0 .1l.1.02c.03 0 .06 0 .09-.03v-.1c.05-.05.1-.1.13-.16a.42.42 0 0 0 0-.38.48.48 0 0 0-.13-.16h-.5c-.3.06-.57.18-.78.37l.14.12c.08.05.15.1.21.17V21h-.33v-.22a.8.8 0 0 0 0-.3.22.22 0 0 0-.1-.1.26.26 0 0 0-.13-.02h-.63l.65-.09Z"/><path fill="#AB0D30" d="M33.62 20.27v.46h.77v-.37h-.33v-.87h.1s.13-.17.1-.2a.98.98 0 0 0-.18-.31h-.17a.28.28 0 0 0-.13.1.23.23 0 0 0-.04.14v.83l-.12.22ZM35.1 22.57v.1c.07.07.16.12.26.13l-.19-.42v-.09a.47.47 0 0 0 0 .19v.18l-.06-.1ZM40.37 8.65a4.97 4.97 0 0 1-2.9-1.73h1.32c.23.58 1.74 1.39 2.59 1.73h-1.01ZM31.55 8.65c.82-.34 2.34-1.13 2.57-1.73h1.35a5.04 5.04 0 0 1-2.93 1.73h-.99ZM36.43 42.35a2.16 2.16 0 0 1-1.07-1.02 2.54 2.54 0 0 0 .68-.8.1.1 0 0 0-.03-.08.22.22 0 0 0-.12 0h-.63c.08-1.23.31-2.45.69-3.64.19-.67.34-1.35.46-2.04h.23c.12.69.27 1.37.47 2.04.37 1.19.6 2.41.69 3.64h-.63a.22.22 0 0 0-.13 0 .1.1 0 0 0-.03.08 2.54 2.54 0 0 0 .68.8c-.12.23-.3.44-.5.62-.23.17-.48.3-.76.4Z"/><path fill="#AB0D30" d="M34.18 41.44c-.38.04-.77-.03-1.1-.2a1.47 1.47 0 0 1-.68-.77.34.34 0 0 1 .1-.06.38.38 0 0 1 .27 0c.04.01.08.03.1.06a.17.17 0 0 0 .14 0 .22.22 0 0 0 .14 0 .76.76 0 0 0 .1-.63.87.87 0 0 0-.41-.52.8.8 0 0 0-.3-.1h-.31c-.01-.1-.01-.19 0-.28.28-.03.54-.16.73-.34.19-.2.3-.43.3-.68a.13.13 0 0 0-.03-.08.17.17 0 0 0-.08-.05h-.1a.7.7 0 0 1-.28.11c.5-.78 1.09-1.52 1.75-2.2.5-.5.93-1.06 1.3-1.64-.24 1.2-.62 2.37-1.13 3.5a9.4 9.4 0 0 0-.63 1.82c-.04.19-.04.38.02.57a1.1 1.1 0 0 0 .78.78h.63c-.11.13-.23.25-.36.36-.25.22-.6.34-.95.35Z"/><path fill="#AB0D30" d="M30.82 40.8c-.42 0-.81-.14-1.11-.4-.3-.25-.46-.59-.47-.95a.1.1 0 0 0 .02-.05.1.1 0 0 0-.02-.06h-.17a.13.13 0 0 0 0 .13c0 .17-.04.34-.14.5-.05.1-.13.2-.24.26a1.4 1.4 0 0 0-.42-.8 1 1 0 0 1-.35-.28.82.82 0 0 1-.17-.4c0-.17.04-.35.15-.5.1-.2.28-.36.5-.47a.13.13 0 0 0 .03-.05.11.11 0 0 0 0-.1.13.13 0 0 0-.03-.04.91.91 0 0 1-.27-.3.85.85 0 0 1 .06-.87c.1-.15.25-.27.42-.36v.11c0 .1.02.22.06.31.05.1.12.2.2.27.09.08.2.14.3.18.12.04.24.06.37.06.52-.06 1-.3 1.34-.65.35-.3.74-.56 1.18-.75l.55-.24c.73-.3 1.43-.63 2.1-1.02.34-.21.6-.51.73-.85l.11.22c-.1.27-.26.53-.46.76-.35.28-.72.53-1.12.75-1 .62-2.25 1.38-2.25 2.2 0 .16.06.32.16.45.1.14.26.24.43.3h.34c.09.02.18.02.27 0a.78.78 0 0 1-.25.34.96.96 0 0 1-.42.19h-.09a1 1 0 0 1-.43-.13.84.84 0 0 1-.3-.3.17.17 0 0 0-.1 0h-.13a.72.72 0 0 0-.32.34.6.6 0 0 0-.02.43.7.7 0 0 0 .27.36c.13.1.3.15.47.15h.94c.14.04.26.1.34.2.09.1.14.2.15.33v.15a1 1 0 0 0-.4 0 .75.75 0 0 0-.38.14c-.18.17-.4.29-.66.37-.25.07-.51.1-.77.07ZM38.7 41.44c-.3 0-.58-.1-.82-.26-.14-.1-.27-.23-.37-.36h.6c.2-.05.38-.15.51-.3a1.24 1.24 0 0 0 .34-1.07 10.4 10.4 0 0 0-.66-1.82 16.77 16.77 0 0 1-1.13-3.52c.36.59.79 1.14 1.28 1.64.66.7 1.24 1.43 1.75 2.2a.7.7 0 0 1-.28-.1h-.16a.17.17 0 0 0-.08.05.13.13 0 0 0-.03.08c0 .24.1.48.3.67.19.19.45.31.73.35v.27h-.31a.97.97 0 0 0-.54.3.75.75 0 0 0-.2.52c0 .15.05.3.15.44a.2.2 0 0 0 .14 0 .54.54 0 0 1 .34-.13h.19c-.1.32-.34.6-.66.79-.32.19-.7.28-1.09.25Z"/><path fill="#AB0D30" d="M32.98 34.57c.15-.32.43-.57.78-.71.25-.08.46-.23.62-.42.15-.18.24-.4.24-.64.02-.47-.18-.94-.55-1.29-.38-.35-.9-.56-1.44-.58h-.15c-.28-.02-.55.02-.8.12-.26.09-.48.24-.65.42-.17.26-.22.57-.14.85.08.3.29.54.58.7.2.1.42.14.65.15h.23c-.1.13-.23.23-.39.3a1.2 1.2 0 0 1-.51.12h-.53l-.14-.11h-.1a.2.2 0 0 0-.09.04.16.16 0 0 0-.04.07.56.56 0 0 1-.2.3 3.94 3.94 0 0 0-.23-.4l-.27-.56h-.13a.13.13 0 0 0-.02.08c0 .03 0 .06.02.08v.39a.76.76 0 0 1-.18.16h-.24v-.56a.16.16 0 0 0-.04-.08.2.2 0 0 0-.08-.05.19.19 0 0 0-.15 0 2.2 2.2 0 0 1-.3.3v-.16a.15.15 0 0 0-.04-.07.2.2 0 0 0-.08-.05.17.17 0 0 0-.13 0c-.15.17-.34.3-.56.4 0-.22-.06-.43-.17-.62.03-.16.03-.32 0-.48a.17.17 0 0 0-.06-.07.2.2 0 0 0-.09-.03h-.15c-.09.14-.22.26-.39.34a1.2 1.2 0 0 1-.53.13c-.17 0-.34-.04-.49-.11a.97.97 0 0 0 .57-.28.74.74 0 0 0 .21-.52.75.75 0 0 0-.1-.37c-.13-.22-.2-.46-.21-.7 0-.43.19-.83.53-1.13.35-.3.81-.46 1.3-.46a.2.2 0 0 0 .14 0 .1.1 0 0 0 .04-.07.1.1 0 0 0-.04-.08c.42.08.85.03 1.23-.13s.69-.43.88-.76a.12.12 0 0 0 .03-.08.12.12 0 0 0-.03-.08h-.36c.22-.4.33-.82.34-1.26 0-.48-.15-.96-.42-1.38h.23l.35.12c0 .03.03.06.05.08.03.02.07.03.1.03a.19.19 0 0 0 .1-.07.15.15 0 0 0 .03-.1.46.46 0 0 1 .17-.23v2.22c-.05.33-.02.66.1.97.1.32.28.6.53.86.17.14.38.25.6.33a2 2 0 0 0 .72.08h1.98c1.15 0 1.45 1.3 1.47 1.3 0 .03.02.06.04.09.03.02.07.04.1.04.05 0 .09-.02.12-.04a.14.14 0 0 0 .06-.1s.31-1.29 1.47-1.29h1.95a2 2 0 0 0 .73-.08c.23-.07.44-.19.62-.33.24-.25.42-.55.53-.86.11-.31.14-.64.1-.97v-2.25c.07.06.12.13.17.21a.15.15 0 0 0-.04.05.13.13 0 0 0 0 .12c0 .02.02.04.04.05.03 0 .07 0 .1-.03a.12.12 0 0 0 .05-.08l.33-.12h.25c-.29.41-.43.9-.42 1.38 0 .44.11.87.34 1.26a.68.68 0 0 1-.31-.02c-.03 0-.05 0-.07.02a.12.12 0 0 0-.03.08c0 .03.01.06.03.08.19.33.5.6.87.76.39.16.82.21 1.23.13V29.22H45a1.88 1.88 0 0 1 1.3.45c.17.14.31.31.4.5.1.2.15.4.15.61 0 .25-.08.5-.23.71a.85.85 0 0 0 0 .38c0 .2.08.38.23.53.15.14.35.23.57.26-.23.1-.49.13-.74.09a1.2 1.2 0 0 1-.53-.13 1 1 0 0 1-.4-.35.19.19 0 0 0-.14 0 .16.16 0 0 0-.1.04.12.12 0 0 0-.05.07c-.03.15-.03.3 0 .46 0 .26.07.52.21.75a1.49 1.49 0 0 1-.56-.39.17.17 0 0 0-.13 0 .13.13 0 0 0-.07.04.1.1 0 0 0-.03.07c.02.06.02.13 0 .18-.11-.09-.2-.19-.28-.3a.19.19 0 0 0-.14 0h-.17v.65c0 .15-.6-.27-.57-.58v-.1a.11.11 0 0 0-.01-.1.14.14 0 0 0-.04-.03.16.16 0 0 0-.06-.03.24.24 0 0 0-.16 0c-.05.1-.1.2-.17.3l-.25.43a1.03 1.03 0 0 1-.55-.44s0-.09-.1-.1h-.11a1.24 1.24 0 0 1-1.27.13 1.1 1.1 0 0 1-.4-.3h.24a1.31 1.31 0 0 0 .91-.33c.12-.1.22-.23.28-.37a.97.97 0 0 0-.1-1.01c-.2-.17-.45-.29-.72-.35a2.06 2.06 0 0 0-.83-.03c-.56 0-1.1.19-1.5.53-.39.34-.6.8-.6 1.29 0 .23.1.45.25.63.15.19.36.34.6.42.36.14.65.39.8.7a2 2 0 0 0-.92-.28 2.4 2.4 0 0 1-.5-.09c-.2-.11-.39-.25-.55-.4v-.31a.2.2 0 0 0 0-.1v-.57h-.1v.23l-.11.22v.22c0 .1 0 .18-.15.26-.15.07-.15.22-.21.33l-.13.16-.1-.16-.21-.33c0-.11-.1-.17-.15-.26h-.13l-.1-.22v-.22l-.99-.23a.15.15 0 0 0-.06-.07.19.19 0 0 0-.09-.02.18.18 0 0 0-.1.05.13.13 0 0 0-.04.1v.63a2 2 0 0 1-.66.55h-.5a1.7 1.7 0 0 0-.64.18c-.2.1-.37.24-.5.4Z"/><path fill="#AB0D30" d="M42.07 40.82a2 2 0 0 1-1.22-.46h-.1a.54.54 0 0 0-.15-.2.65.65 0 0 0-.23-.13.97.97 0 0 0-.38.1.27.27 0 0 1 0-.13.5.5 0 0 1 .13-.34c.1-.1.21-.16.35-.2h.95c.2 0 .4-.07.55-.2.14-.13.23-.3.23-.48a.62.62 0 0 0-.1-.34.75.75 0 0 0-.28-.25h-.13a.81.81 0 0 1-.3.3.97.97 0 0 1-.41.12h-.4a.96.96 0 0 1-.42-.18.78.78 0 0 1-.26-.35c.1.02.19.02.28 0h.33a.91.91 0 0 0 .43-.29c.1-.13.16-.3.16-.45 0-.82-1.24-1.59-2.25-2.2-.4-.22-.77-.47-1.11-.75-.2-.23-.36-.5-.47-.77v-.18c.26.75 1.18 1.15 2.86 1.82l.53.24c.43.2.83.45 1.18.75.34.36.83.6 1.36.65a1 1 0 0 0 .66-.23.75.75 0 0 0 .27-.57v-.13c.17.09.3.21.4.36.1.14.16.31.17.48 0 .13-.04.27-.1.39a.99.99 0 0 1-.28.32v.1a.13.13 0 0 0 0 .14c.2.1.36.23.48.4.11.17.17.37.17.56 0 .25-.11.48-.31.66-.25.22-.41.51-.47.82a1.67 1.67 0 0 1-.23-.3 1.04 1.04 0 0 1-.15-.49.11.11 0 0 0 0-.12h-.16a.13.13 0 0 0 0 .12c0 .19-.03.37-.11.54-.08.17-.2.32-.34.45a1.6 1.6 0 0 1-.52.3c-.2.08-.4.12-.61.12ZM27.4 13.57a.74.74 0 0 1-.24-.32.65.65 0 0 1-.02-.37c.19-.51 1.43-.7 1.43-.71v-.11a2.54 2.54 0 0 0-1.58.49 2.3 2.3 0 0 1-1.39.44 1.3 1.3 0 0 1-.85-.22 1 1 0 0 1-.43-.68c.13.13.3.24.49.3.18.07.38.1.58.09.38-.04.75-.13 1.1-.28a5.7 5.7 0 0 1 1.85-.36h.31v-.13h-.12l-.3-.16a2.6 2.6 0 0 0-2.58.25 1.26 1.26 0 0 1-.34-.82c0-.17.03-.35.1-.5.08-.17.2-.32.33-.44.14-.13.31-.23.5-.3.18-.07.38-.1.58-.1v.09c.4.52.86 1 1.4 1.42.52.42 1.08.82 1.67 1.2l.53.34a2.5 2.5 0 0 1-.57-.1c-.3-.12-.6-.18-.92-.2-.38 0-.75.11-1.03.33-.29.22-.47.52-.5.85ZM45.48 13.57a1.24 1.24 0 0 0-.49-.83 1.63 1.63 0 0 0-1-.34c-.33.02-.65.08-.95.19-.18.07-.37.12-.57.12l.55-.36a20.5 20.5 0 0 0 1.68-1.19c.52-.41.99-.89 1.39-1.4.4 0 .78.15 1.07.4.28.25.44.58.44.93 0 .3-.12.6-.34.84a2.52 2.52 0 0 0-2.7-.31l-.28.15h-.13v.12h.42a5.7 5.7 0 0 1 1.85.37c.35.14.72.24 1.1.27.2.01.4-.02.58-.08.19-.07.35-.17.49-.3-.04.26-.2.5-.44.67-.24.16-.54.24-.84.22-.5 0-1-.17-1.37-.45a2.91 2.91 0 0 0-1.6-.5v.13s1.24.2 1.43.71c.01.12 0 .24-.06.35a.76.76 0 0 1-.23.29ZM27.85 22.7a1.42 1.42 0 0 0-.27-.2c-.23-.15-.34-.24-.32-.39a.13.13 0 0 0 .03-.08.13.13 0 0 0-.03-.08h-.1c0 .13-.17.18-.42.18h-.61a1.06 1.06 0 0 0-.15-.26 1.55 1.55 0 0 1-.19-.41v-.13a.14.14 0 0 0 .05-.1.14.14 0 0 0-.05-.1h-.12c-.05.05-.1.1-.17.12a.5.5 0 0 1-.21.04c-.2-.02-.38-.07-.55-.16-.1-.05-.2-.1-.31-.11.02-.1.02-.2 0-.3 0-.28 0-.58.25-.68a.16.16 0 0 0 .1-.08.13.13 0 0 0 0-.1.21.21 0 0 0-.17 0h-.67l-.4-.6-.19-.17v-.1c.2-.25.42-.6.87-.6.04 0 .08 0 .1-.03a.14.14 0 0 0 .06-.1.13.13 0 0 0-.03-.08.17.17 0 0 0-.1-.06h-.37a.98.98 0 0 1-.34-.67v-.32c.12-.11.27-.2.42-.25.19-.05.38-.08.57-.09h.63a.17.17 0 0 0 .15 0 .1.1 0 0 0 0-.1l-.42-.33c-.3-.23-.55-.5-.74-.79a2.68 2.68 0 0 1-.38-1.25c-.03-.2-.03-.4 0-.6v-.22l3.3 2.86a1.2 1.2 0 0 1 .21 1.64v.09c-.06.1-.14.18-.23.27-.12.19-.2.39-.25.6v.27c0 .3.1.58.27.83.18.25.42.45.72.6a2.13 2.13 0 0 0 1.91-.06c.13-.07.24-.16.34-.26.29.11.6.17.9.17v1.6h-.1a.2.2 0 0 0-.15 0v.11c-.02.1-.06.2-.1.3h-.13l-.27.27-.36-.15a1.4 1.4 0 0 1-.36-.13.17.17 0 0 0-.06-.07.2.2 0 0 0-.1-.04.18.18 0 0 0-.11.05.13.13 0 0 0-.04.1c0 .1-.13.18-.4.29-.27-.14-.6-.2-.9-.15ZM26.44 27.94l-.19-.16c-.2-.19-.46-.4-.42-.59l.72-2.1h.1c.24-.02.46-.1.66-.21.14.16.33.3.54.38l-.1 2.02c0 .24-.57.39-.95.48l-.36.18ZM23.73 27.78l-.19-.15c-.19-.18-.42-.44-.3-.64l1.71-2.51h.38c.08.2.2.37.36.53.08.07.15.17.19.27l-.95 2.39c0 .2-.63.23-.95.25l-.25-.14ZM21.63 27.03h-.46l-.13-.27c-.17-.35-.38-.75 0-1.12l2.5-2 .3-.1v1.1l-1.35 1.82c-.08.15-.2.27-.36.37-.14.1-.32.17-.5.2ZM19.46 26.06c-.16.03-.34.03-.5 0h-.21v-.23a.8.8 0 0 1 0-.22.24.24 0 0 0 0-.13v-.13c0-.1.02-.2.08-.3.05-.09.13-.17.23-.22l1-.57a.13.13 0 0 0 .02-.04.11.11 0 0 0 0-.1.13.13 0 0 0-.03-.04.14.14 0 0 0-.08-.03.14.14 0 0 0-.09.03l-.27.14h-.27c-.34.17-.7.28-1.08.35h-.14c-.1.03-.2.03-.3 0 .2-.09.36-.22.47-.38.1-.17.16-.36.14-.55a.8.8 0 0 0 0-.38v-.38c-.12-.2-.3-.37-.54-.48h-.15l-.15.37a.9.9 0 0 0-.36-.04v-.1a.43.43 0 0 0-.16-.13.5.5 0 0 0-.21-.04.35.35 0 0 0-.12-.1.4.4 0 0 0-.16-.03h-.36a.15.15 0 0 0 0 .15c-.05.04-.1.1-.12.15a.32.32 0 0 0-.02.2l-.44-.15c.04-.1.1-.18.16-.26v-.13l.15-.14c.26-.22.55-.4.86-.55h.53a.2.2 0 0 0 .1-.07.16.16 0 0 0 .02-.11.19.19 0 0 0 .1-.12c0-.04 0-.1-.03-.14a.22.22 0 0 0-.14-.08.24.24 0 0 0-.16.03h-.67a4.3 4.3 0 0 1-1.43-.24h-.25l-.38-.2c.6-.59 1.42-.96 2.31-1.05.04 0 .08-.03.1-.05a.13.13 0 0 0 0-.2.18.18 0 0 0-.1-.05c-2.1-.14-2.71-.76-2.88-.96a3.93 3.93 0 0 1 2.74-.8c.02 0 .04-.01.05-.03a.15.15 0 0 0 .04-.04l.01-.06a.13.13 0 0 0-.04-.1.18.18 0 0 0-.1-.05 3.38 3.38 0 0 1-1.96-.92h-.13a3.13 3.13 0 0 1-.57-.71c.45-.17.93-.25 1.41-.24.21-.02.42-.02.63 0h.4c.04 0 .07-.01.1-.03a.15.15 0 0 0 .05-.06.11.11 0 0 0 0-.13c-1.79-.76-2.1-1.64-2.1-1.91.21-.1.44-.16.67-.2a8.87 8.87 0 0 1 2.03.29l.07-.02c0-.04 0-.08-.03-.1a4.3 4.3 0 0 1-1.4-1.2 3.66 3.66 0 0 1-.67-1.5c-.05-.4.04-.8.27-1.13l2.99 2.3h.17a.15.15 0 0 0 .03-.1.15.15 0 0 0-.03-.1A5.37 5.37 0 0 1 17 9.75a4.65 4.65 0 0 1-.55-2.18c.04-.55.32-1.06.77-1.44 1.07 2 2.42 3.88 4.02 5.6v.36a.9.9 0 0 0 0 .23.27.27 0 0 0 0 .18v.2c.02.22.08.44.17.64v.33c.05.08.12.16.19.24h-1.79a.22.22 0 0 0-.13 0v.73c.11.26.25.5.42.74v.13h-.25l-.52.86v.14a.35.35 0 0 0 0 .2c.23.3.52.57.86.79h-.25a1.97 1.97 0 0 0-.62.81c0 .03.01.06.03.08v.1h.33a1.52 1.52 0 0 0-.52.7c.15.1.32.18.5.24h.6V19.63c-.04.24-.04.48 0 .71h1.21c-.15.4-.15.83 0 1.23h.36l-1.56 3.9a1 1 0 0 1-.32.38c-.14.1-.31.18-.5.21ZM17.86 25.77a.3.3 0 0 1-.12-.09h.31c.02.05.02.1 0 .15l-.19-.06Z"/><path fill="#AB0D30" d="M17.63 25.46a.37.37 0 0 1-.17-.12.18.18 0 0 1 0-.15.13.13 0 0 0 0-.13l-.23-.14h-.25a.32.32 0 0 0 0-.31.14.14 0 0 0 0-.11.37.37 0 0 0-.19-.15h-.48a.68.68 0 0 1-.32 0 .95.95 0 0 1-.43-.27.76.76 0 0 1-.2-.44l.44.17c.04 0 .08-.02.12-.04a.14.14 0 0 0 .05-.1.11.11 0 0 0 .02-.06c0-.02 0-.04-.02-.06a.46.46 0 0 1 0-.24.23.23 0 0 0 0-.25h.2c0 .1.14.1.24.13h.13v.1a.15.15 0 0 0 0 .13h.82l.13-.36h.12v.55a.64.64 0 0 1-.17.22.76.76 0 0 1-.27.14.43.43 0 0 0-.14.08.36.36 0 0 0-.1.12c-.02.1-.01.2.04.3.06.09.15.16.26.2a.14.14 0 0 0-.04.1c0 .03.01.06.04.1.06.01.1.05.13.1.02.06.02.12 0 .18a.2.2 0 0 1-.06.07.25.25 0 0 1-.09.04v.11l.42.1ZM20.98 31.76a.27.27 0 0 1-.13-.09L18 26.07h.13l2.92 5.57a.13.13 0 0 1 0 .12h-.06ZM21.78 33.79h-.17a.33.33 0 0 1-.2-.13.33.33 0 0 1 0-.2.11.11 0 0 0 0-.13.5.5 0 0 1 0-.34.88.88 0 0 0-.08-.46 1.02 1.02 0 0 0-.31-.36h.25c.09-.01.18-.04.25-.1a.43.43 0 0 0 .15-.18c0 .16.04.3.11.45.08.14.2.26.33.35.07.05.13.1.18.16.05.06.08.13.1.2a.13.13 0 0 0 0 .12c.03 0 .07.02.1.04a.2.2 0 0 1 .06.08c.03.07.03.14 0 .2l-.14.17h-.23l-.4.13ZM24.66 38.9a.12.12 0 0 0-.04-.08.15.15 0 0 0-.09-.04.24.24 0 0 1-.15 0 .17.17 0 0 0 0-.11v-.06a.13.13 0 0 0-.05-.04.15.15 0 0 0-.05-.03h-.06a.5.5 0 0 1-.22-.04.43.43 0 0 1-.16-.12h.25c.12.02.24.02.36 0h.12a.27.27 0 0 0 .15-.11l.1-.11c.03.06.03.12.02.19a.3.3 0 0 1-.12.15v.11a.08.08 0 0 0 0 .1v.16a.1.1 0 0 0-.03.07c0 .03 0 .05.03.07l-.06-.1ZM23.9 36.63h-.13a.49.49 0 0 0 0-.48c0-.16-.38-.12-.38-.12a.39.39 0 0 0 .13-.29c0-.1-.04-.2-.13-.28l.11-.25c.23.39.42.8.57 1.22l-.17.2ZM22.36 35.5c-.12-.2-.23-.42-.31-.64 0-.25-.19-.53-.27-.78h.2c.07.02.15.02.22 0h.14l.23.3-.37.35a.5.5 0 0 0-.13.33c0 .12.04.23.13.33.08.1.2.19.33.24h-.31l.14-.13ZM24 37.96a.36.36 0 0 1-.23-.1l-.12-.16c.08 0 .16-.01.24-.04a.65.65 0 0 0 .2-.12c.06-.05.1-.1.14-.17a.48.48 0 0 0 .05-.21c0 .18 0 .34.15.49.14.14 0 .25-.26.3a.48.48 0 0 1-.23 0H24ZM27.75 8.1c-.23-.33-.37-.7-.4-1.09 0-.43.67-.65.97-.73.29-.07.23 1.26.27 1.37l-.38-.13a.14.14 0 0 0-.13 0 .12.12 0 0 0-.03.08l.03.09.21.29h-.37a.2.2 0 0 0-.11.04.16.16 0 0 0-.06.09ZM29.62 7.45a1.98 1.98 0 0 0-.1-.33.15.15 0 0 0-.07-.08.19.19 0 0 0-.1-.03.19.19 0 0 0-.15 0c-.06.1-.1.22-.13.33l-.19-.1-.23-1.05c.1-.02.2-.02.3 0 .11.1.26.14.42.15.09 0 .18-.02.26-.05a.68.68 0 0 0 .22-.13c.1-.02.2-.02.3 0l-.3 1.09-.23.2ZM30.97 8.1h-.49a1.56 1.56 0 0 0 .25-.37.12.12 0 0 0-.04-.08h-.12l-.38.1c0-.1.25-1.34.25-1.34.32 0 .99.27.99.73-.08.35-.23.67-.46.97ZM43.81 7.45a1 1 0 0 0-.12-.35.12.12 0 0 0-.04-.09.16.16 0 0 0-.1-.03.16.16 0 0 0-.11.03.12.12 0 0 0-.05.1s0 .18-.1.27l-.21-.13-.27-1.06c.1-.02.2-.02.29 0 .12.1.28.15.44.15.16 0 .3-.06.42-.15h.32L44 7.25a.72.72 0 0 0-.19.2ZM29.5 5.25h-.32c.15-.2 0-.24 0-.26a.92.92 0 0 0-.36.18v-.5c.1.08.22.14.36.17L29 4.48h.53c-.28.3-.2.35-.17.36.13-.03.25-.1.35-.18v.48a.92.92 0 0 0-.35-.19s0 .1.12.3ZM29.35 6.08a.45.45 0 0 1-.18-.04.39.39 0 0 1-.14-.1.27.27 0 0 1 0-.18.3.3 0 0 1 .05-.13.34.34 0 0 1 .1-.1.43.43 0 0 1 .28-.07c.08.02.15.05.22.1.06.05.1.12.1.2.03.05.03.12 0 .18a.37.37 0 0 1-.18.14.43.43 0 0 1-.25 0ZM43.54 6.08a.43.43 0 0 1-.18-.04.37.37 0 0 1-.13-.1.27.27 0 0 1 0-.18.3.3 0 0 1 .04-.13.34.34 0 0 1 .1-.1.43.43 0 0 1 .28-.07c.08.02.16.05.22.1s.1.12.11.2c.02.05.02.12 0 .18a.4.4 0 0 1-.2.13.46.46 0 0 1-.24.01ZM43.37 5.25c.15-.2 0-.24 0-.26a.7.7 0 0 0-.35.18v-.5c.09.08.21.15.35.17 0 0 .1 0-.17-.36h.55c-.27.3-.2.35-.19.36.14-.03.26-.1.36-.18v.48a.92.92 0 0 0-.36-.19v.26h-.33l.14.04ZM51.49 30.6c.27-.27.36-.44.27-.51-.2.06-.4.16-.56.29v-.8c.16.12.35.22.56.27 0 0 0-.27-.3-.56h.93c-.29.29-.37.49-.29.56.2-.05.4-.14.55-.27v.8a1.37 1.37 0 0 0-.55-.3s0 .25.25.52h-.86ZM34.06 5.81a3.95 3.95 0 0 1-.74-1.95c0-.75 1.16-1.07 1.6-1.18 0 0 .4 2.18.46 2.38a4.63 4.63 0 0 0-.78-.25c-.02 0-.04 0-.06.02.13.17.27.34.42.5a4.47 4.47 0 0 0-.7 0s-.12 0-.12.12a.24.24 0 0 0-.16.02.19.19 0 0 0-.1.12c0 .05 0 .1.04.14.03.04.08.07.14.08ZM35.93 4.66l-.3-.27-.42-1.82.49-.1.23 2.2ZM36.16 2.62a1.03 1.03 0 0 0 .74 0l-.2 1.59a.19.19 0 0 0-.14 0h-.1v.09l-.3-1.68ZM37.13 2.48l.48.1-.44 1.83-.27.27.23-2.2ZM38.8 5.77s0-.1-.12-.1a4.47 4.47 0 0 0-.7 0c.18-.17.33-.34.45-.53a.12.12 0 0 0 .04-.09.12.12 0 0 0-.04-.08h-.13c-.24.06-.48.13-.71.22 0-.2.44-2.37.44-2.37.44.11 1.6.44 1.6 1.19a4.42 4.42 0 0 1-.82 1.76Z"/><path fill="#AB0D30" d="M34.25 6.63V6.3h.92c.04 0 .08-.01.11-.03a.14.14 0 0 0 .06-.1c0-.03 0-.07-.03-.1a.19.19 0 0 0-.1-.06l-.46-.15H35.44a.16.16 0 0 0 .03-.09.16.16 0 0 0-.03-.09l-.18-.25a1.32 1.32 0 0 1-.24-.24c.2.07.38.17.55.27h.21a.13.13 0 0 0 .02-.07c0-.02 0-.05-.02-.07-.06-.1-.1-.22-.13-.33v-.18c.07.05.12.1.17.16l.13.17v.09h.21a1.85 1.85 0 0 1 0-.48c.02.17.02.33 0 .5l.03.09.1.05h.1l.32-.38v.22l.3.2a.13.13 0 0 0 0 .14h.1c.17-.1.35-.18.54-.25l.02.1-.27.24h.67l-.5.17a.19.19 0 0 0-.1.06.15.15 0 0 0-.03.1c.01.03.03.06.06.08.04.02.07.03.11.03h.93v.35l-4.3.18ZM36.83 1.33a.9.9 0 0 0-.86 0c.25-.26.34-.42.25-.5-.21.06-.4.16-.56.3V.25c.13.15.3.25.5.31 0 0 0-.27-.32-.56h.97c-.3.3-.4.5-.31.56.27-.02.52-.13.71-.3v.83a1.34 1.34 0 0 0-.57-.29s-.06.27.2.53ZM36.41 2.4a.5.5 0 0 1-.21-.04.43.43 0 0 1-.17-.12.42.42 0 0 1-.09-.16.38.38 0 0 1 .07-.35c.04-.05.09-.1.15-.13.1-.06.24-.09.37-.06.13.02.25.08.32.17.03.09.03.17 0 .26a.4.4 0 0 1 0 .25.52.52 0 0 1-.2.14.6.6 0 0 1-.24.04ZM45 22.66h-.26c-.27-.11-.4-.17-.4-.28a.14.14 0 0 0-.04-.1.18.18 0 0 0-.1-.04h-.13c-.1.06-.22.1-.34.13-.13.03-.26.08-.38.14l-.31-.3a.34.34 0 0 1-.13-.12v-.27a.21.21 0 0 0-.17 0 .4.4 0 0 1-.12.1.46.46 0 0 1-.15.06V20.4c.31 0 .62-.06.9-.18l.36.25a2.06 2.06 0 0 0 2.1 0c.27-.14.49-.34.64-.57.15-.24.23-.5.23-.78v-.29c-.05-.2-.14-.4-.28-.58-.07-.1-.14-.2-.23-.3v-.08c-.15-.21-.23-.45-.23-.7a1.1 1.1 0 0 1-.13-.81L49 13.5v.23c.04.2.04.4 0 .6-.01.44-.14.86-.38 1.24-.17.3-.41.58-.72.79l-.29.2a.13.13 0 0 0-.03.04.11.11 0 0 0 0 .1l.03.04c.01.02.03.05.06.06.02.02.05.03.09.03h.56a1.91 1.91 0 0 1 1.06.33v.1l-.13.3c-.04.08-.1.16-.17.23h-.36l-.05.02a.12.12 0 0 0-.04.04.1.1 0 0 0-.01.1c0 .02.01.06.04.08.03.02.07.04.1.04.45 0 .68.34.87.6l-.2.18-.22.22h-.61a.19.19 0 0 0-.1.03.15.15 0 0 0-.05.06.13.13 0 0 0-.03.04.11.11 0 0 0 0 .1c0 .02.02.03.03.04.07.05.13.11.16.18.03.07.03.15 0 .22v.55l-.29.13c-.17.08-.35.13-.54.16a.77.77 0 0 1-.4-.16.12.12 0 0 0-.1 0 .15.15 0 0 0-.05.1c0 .05.01.09.04.12a.84.84 0 0 1-.19.41 2.5 2.5 0 0 0-.12.26h-.63a.48.48 0 0 1-.28 0l-.12-.13a.15.15 0 0 0-.06-.06.19.19 0 0 0-.09-.03.15.15 0 0 0-.03.08l.03.09c0 .12 0 .2-.3.36l-.27.22-.2.82Z"/><path fill="#AB0D30" d="m44.57 25.17-.31-.22a1.72 1.72 0 0 1-.4-.23l-.1-.1c-.05 0-.08.01-.11.03a.15.15 0 0 0-.07.08c0 .2-.38.3-.65.37l-.31.1a1.62 1.62 0 0 0-.3-.32.33.33 0 0 0-.1-.13v-2.42c.1.02.2.02.3 0l.14.13c.1.07.2.16.27.25v.27c.04.02.07.02.1 0a.2.2 0 0 0 .15 0c.1-.1.25-.17.4-.2l.42-.14h.13c.19.1.38.15.38.24 0 .03.01.06.04.09.03.02.07.03.1.03h.13v-.09c.15-.08.28-.18.38-.3.14.07.3.1.46.1h.74a.17.17 0 0 0 .07-.05.13.13 0 0 0 .03-.07v-.13a.6.6 0 0 1 .13-.26c.13-.18.2-.39.21-.6h.17c.25-.02.5-.09.71-.2h.42a.22.22 0 0 0 .15 0v-.34c.02-.13.02-.25 0-.37V19.9h.25l.4-.35.23-.18c.05 0 .09-.01.12-.03a.14.14 0 0 0 .05-.1.11.11 0 0 0 0-.1l-.1-.13a1.7 1.7 0 0 0-.68-.62c.12-.07.22-.15.3-.24a1.86 1.86 0 0 0 .46-.93l-.02-.05-.13-.1a1.45 1.45 0 0 0-.29-.16h-.9l.54-.54.3-.26.25-.36c.05-.08.1-.17.13-.26 0-.1 0-.2.12-.27.13-.07 0-.18 0-.27v-.79a.77.77 0 0 0 0-.22v-.18a8.13 8.13 0 0 0 1.77-2.1l.1.19c.06.12.1.25.13.38v1.06c-.07.21-.17.42-.3.62l-.2.25-.17.38a.13.13 0 0 0-.04.1c0 .03.01.06.04.09a.2.2 0 0 0 .12 0h.57c.25-.03.5-.03.76 0h.75V15.15l-.2.31-.11.1h-.3a.16.16 0 0 0-.05.02.13.13 0 0 0-.04.04.11.11 0 0 0-.01.1c0 .03.02.06.05.08.03.02.06.03.1.03h.94l-.2.53.18.09.25.16c-.2.28-.45.53-.73.75l-.25.09a.18.18 0 0 0-.1.05.14.14 0 0 0-.05.1h.36v.29h-.84s-.13 0-.13.1a.13.13 0 0 0-.04.1c0 .03.02.06.04.09.19.06.36.16.5.29.13.13.22.29.28.45v.1H51.3c-.03 0-.07 0-.1.02a.15.15 0 0 0-.07.07v.18h.15l.1.1c.13.18.22.37.26.57v1.86c-.3.1-.6.16-.9.16a.96.96 0 0 1-.55-.12H49.98a.13.13 0 0 0-.04.04.11.11 0 0 0 0 .1l.04.04v.09a1.58 1.58 0 0 1 .15 1.15 3 3 0 0 1-.57 0H48.99a.18.18 0 0 0 0 .16c.05.27.01.55-.1.8a.83.83 0 0 0 0 .28h-.39a1.14 1.14 0 0 1-.35-.11.15.15 0 0 0-.09.05.11.11 0 0 0-.02.1c0 .23-.12.46-.31.63a.94.94 0 0 0-.2.24 2.98 2.98 0 0 0-.37-.11l-.36-.1h-.15a.12.12 0 0 0-.05-.07.16.16 0 0 0-.1-.03.18.18 0 0 0-.1.03.14.14 0 0 0-.06.1c0 .18-.3.3-.5.41l-1.27-.49ZM28.38 25.17c-.1-.08-.21-.14-.34-.18-.23-.13-.48-.26-.5-.46 0 0 0-.1-.15-.1a.18.18 0 0 0-.11.03.14.14 0 0 0-.06.1c-.15.07-.31.12-.48.14l-.38.1-.19-.23a.87.87 0 0 1-.31-.64.15.15 0 0 0-.03-.08.18.18 0 0 0-.08-.06h-.1c-.11.06-.24.1-.36.12h-.4c0-.1 0-.2-.1-.29a1.25 1.25 0 0 1-.13-.78.13.13 0 0 0 .03-.08.13.13 0 0 0-.03-.08h-.13l-.13.09h-.98a.8.8 0 0 1 0-.31v.09c.02-.11.06-.22.12-.31v-.1a.15.15 0 0 0 .03-.08.15.15 0 0 0-.03-.1.17.17 0 0 0-.12 0c-.17.1-.37.15-.57.13a2.42 2.42 0 0 1-1.68-.27v-.3c.02-.2.1-.39.23-.56v-.1h.14a.18.18 0 0 0 .1-.08.14.14 0 0 0 .01-.1.17.17 0 0 0-.07-.08.2.2 0 0 0-.1-.04h-1.07v-.09c.05-.16.15-.32.28-.45.13-.13.3-.23.48-.3 0 0 .14-.1 0-.18a.12.12 0 0 0-.05-.08.16.16 0 0 0-.1-.03h-.7l-.16-.1h-.13l-.1-.1v-.09l.1-.1v-.1h.25c.05 0 .09-.01.12-.04a.14.14 0 0 0 .05-.1.14.14 0 0 0-.05-.1.18.18 0 0 0-.12-.05h-.23a3 3 0 0 1-.73-.76l.23-.15.42-1.38h1.2a.24.24 0 0 0 .3-.03.17.17 0 0 0 .05-.14c0-.05-.04-.1-.08-.13a.13.13 0 0 0-.01-.1.16.16 0 0 0-.1-.08.31.31 0 0 1-.16 0l-.15-.09v-.16h-.1l-.22-.31a.4.4 0 0 1 0-.13v-.66h-.1.3c.29-.02.58-.02.88 0h.39a.2.2 0 0 0 .1-.06.15.15 0 0 0 .02-.18l-.28-.27-.2-.23a2.3 2.3 0 0 1-.37-.55.46.46 0 0 1 0-.16v-.73a.27.27 0 0 1 0-.13c.04-.14.08-.27.15-.4l.12-.2a7.76 7.76 0 0 0 1.83 2.04c.02.05.02.11 0 .16a.76.76 0 0 0 0 .22v.28c-.02.15-.02.31 0 .47v.25s0 .19.1.28l.15.27.26.35.33.42h-.75c-.2.07-.4.17-.55.3v.88c.09.1.2.17.32.24-.3.15-.52.37-.68.63v.11a.2.2 0 0 0-.08.04.16.16 0 0 0-.04.07c0 .04.02.07.05.1.03.02.07.03.11.03.08.06.16.13.21.2l.4.33h.15V20.22a.14.14 0 0 0 .13 0h.4c.2.11.44.18.7.2h.18c0 .21.08.42.21.6.06.07.1.16.13.25a.13.13 0 0 0 0 .13.17.17 0 0 0 .14 0h.63a1 1 0 0 0 .4 0c.1.12.22.22.36.3a.08.08 0 0 0 0 .08c.05 0 .09-.01.12-.04a.14.14 0 0 0 .05-.1s.19-.15.36-.22l.27-.11c.13.07.27.13.42.16.2 0 .34.1.4.19.01.03.03.06.06.08.03.02.07.03.1.03a.1.1 0 0 0 0-.11s0-.19.26-.31l.17-.13v-.13h.15v2.24l-.13.13-.3.35-.29-.11c-.3 0-.6-.17-.65-.37a.12.12 0 0 0-.05-.08.16.16 0 0 0-.1-.03.14.14 0 0 0-.12.02.11.11 0 0 0-.03.04.1.1 0 0 0-.02.05c-.12.1-.25.18-.4.26.08.33.23.64.46.91.22.28.51.5.85.67Z"/><path fill="#AB0D30" d="m46.44 27.94-.44-.11c-.38-.1-.94-.25-.94-.5l-.13-2.07c.21-.09.4-.22.55-.38.17.08.35.14.54.18h.13l.88 2.22c0 .19-.2.4-.44.59l-.15.07ZM49.16 27.78h-.38c-.32 0-.84 0-.95-.26l-.95-2.39c.04-.1.1-.2.2-.27.16-.15.28-.33.35-.53h.38l1.7 2.52c.15.2-.1.45-.3.63l-.05.3ZM51.24 27.03c-.24.02-.48-.02-.69-.12a1.2 1.2 0 0 1-.51-.4l-1.35-1.83v-.33s0-.18.1-.29v-.35l.28.11 2.44 2.06c.42.38.23.77 0 1.13a.6.6 0 0 0-.13.26h-.42l.28-.24ZM53.4 26.06a1.12 1.12 0 0 1-.82-.33l-2.46-2.09h.28a.2.2 0 0 0 .14 0 2.1 2.1 0 0 0 0-1.02.65.65 0 0 0 0-.22h.7c.25-.04.5-.12.73-.22v-.49a.22.22 0 0 0 0-.13.27.27 0 0 1 0-.12v-.37h.6c.17-.05.34-.13.5-.22v-.16c-.05-.12-.1-.23-.17-.35-.1-.13-.22-.26-.36-.36v-.13h.1l.15-.1h.1v-.12a2.3 2.3 0 0 0-.58-.74l-.13-.1h-.12.1l.82-1.36v-.1h.1l.22-.25.2-.27a.15.15 0 0 0 0-.13l-.2-.32-.36-.2h-.1l-.24-.1h-.12l.1-.12.17-.26.23-.73c0-.09 0-.12.1-.18v-.24a.17.17 0 0 0-.1 0h-1.83a.66.66 0 0 0 .15-.18v-.49c.02-.1.02-.2 0-.3v-.97a.9.9 0 0 0 0-.26.78.78 0 0 0 0-.22.46.46 0 0 0 0-.18c1.7-1.76 3.14-3.7 4.27-5.77.44.36.72.84.78 1.36 0 .76-.19 1.5-.55 2.2-.36.68-.9 1.3-1.56 1.8a.12.12 0 0 0-.03.07l.03.09h.11l3.15-2.25c.23.34.33.73.28 1.12a3.66 3.66 0 0 1-.69 1.45 4.3 4.3 0 0 1-1.29 1.11.13.13 0 0 0-.03.09c0 .03.01.05.03.08a.2.2 0 0 0 .06.06l.09.03a8.67 8.67 0 0 1 1.93-.27c.28 0 .56.03.82.1 0 .26-.38 1.17-2.1 1.83h-.1a.11.11 0 0 0 0 .1c0 .03.03.05.05.07.03.02.06.03.1.03h1.04c.49 0 .97.07 1.41.23-.16.26-.36.49-.59.7l-.27.2a3.43 3.43 0 0 1-1.93.84.12.12 0 0 0-.05.04.1.1 0 0 0-.02.05.1.1 0 0 0 0 .05c0 .04.02.07.04.1l.11.05c1.85 0 2.52.58 2.7.78a4.58 4.58 0 0 1-2.96.98.14.14 0 0 0-.06.04.12.12 0 0 0-.02.05v.06s0 .1.13.1c.9.1 1.72.48 2.31 1.06-.1.1-.23.17-.38.22h-.23c-.48.18-1 .28-1.53.27h-.63a.18.18 0 0 0-.12.05.14.14 0 0 0-.05.1c0 .04.02.08.05.1.03.03.07.05.12.05h.54c.32.12.6.3.84.52l.15.15.13.15c.06.08.1.16.15.25-.2.08-.42.14-.64.18h-.18c-.2.02-.4.02-.6 0-.4 0-.82-.05-1.21-.16a.19.19 0 0 0-.1.03.15.15 0 0 0-.05.06.13.13 0 0 0-.04.1l.04.08.21.11h.15c.41.3.71.7.86 1.15a5.06 5.06 0 0 1-2.52-.42l-.21-.1h-.13a.15.15 0 0 0-.04.1c0 .03.01.06.04.1l.92.52c.1.05.2.13.25.22.06.09.09.19.1.29v1a.97.97 0 0 0 0 .24h-.22c-.24.08-.5.13-.76.14ZM45.16 8.1h-.48l.2-.27a.22.22 0 0 0 0-.16h-.12l-.38.13.2-1.52c.3 0 .96.3.96.73-.02.39-.15.76-.38 1.1ZM41.92 8.1c-.24-.32-.37-.7-.4-1.09 0-.43.68-.65.97-.73l.25 1.37-.27-.13a.2.2 0 0 0-.12.05.16.16 0 0 0-.05.1l.21.29h-.36l-.23.15ZM23.06 36.88h-.13l-.2-.12c-.22-.2-.5-.31-.8-.33-.15 0-.34-.11-.34-.28v-.09c.16.04.31.1.44.2.2.15.45.24.71.26h.15c.1-.02.18-.06.25-.11.02.03.02.06 0 .09v.1l-.08.28ZM22.79 36.2c-.2-.02-.4-.1-.55-.21-.2-.13-.43-.22-.67-.25a.34.34 0 0 1-.22-.08.26.26 0 0 1-.1-.18.29.29 0 0 1 0-.18l.4-.35c0 .11.13.28.21.44h.1a.33.33 0 0 1 .13-.08c.04-.02.1-.03.15-.03a.3.3 0 0 1 .16.03c.05.03.09.07.11.12v.18l.28.6ZM24.34 36.23v-.2l-.1-.22c0-.11 0-.22-.15-.35 0-.13-.15-.25-.21-.4v-.09a.14.14 0 0 0-.06-.1.18.18 0 0 0-.11-.03c-.04 0-.08.01-.1.03a.15.15 0 0 0-.07.08v.11h-.23a.33.33 0 0 1-.16-.04.26.26 0 0 1-.11-.12.22.22 0 0 1 0-.17c.29-.23.54-.5.75-.8a.36.36 0 0 1 .14-.1.43.43 0 0 1 .18-.04h.1a.4.4 0 0 1 .22.12c.05.06.08.13.08.2 0 .13.04.24.11.35.07.1.17.2.29.26.35.2.77.32 1.2.32.14.02.3.02.44 0 .93-.22 1.81-.55 2.65-.96l.3-.11h.29l.12-.11a.3.3 0 0 0 .04-.2.31.31 0 0 0-.1-.18c.11.13.19.28.23.43a.16.16 0 0 0 0 .17h.23v-.33l.32.15c.06.26.2.5.38.72.17.17 0 .26 0 .3 0 .03-.23.14-.55.14-.2.02-.42.02-.63 0a7.7 7.7 0 0 0-.97 0c-.49 0-.98.05-1.45.17-.85.24-1.66.6-2.37 1.07-.3.2-.63.38-.97.51 0 0 .3-.53.27-.58ZM52.77 32.53v-1.5c.4.12.76.32 1.06.58.3.26.51.57.65.92h-1.7ZM49.37 32.53c.13-.35.36-.66.66-.92.3-.26.66-.45 1.06-.57v1.49h-1.72ZM52.25 35.59c.03-.1.03-.2 0-.3 0-.1-.03-.2-.1-.29a.63.63 0 0 0-.24-.21.5.5 0 0 0-.2-.34.67.67 0 0 0-.4-.14s-.11 0-.14.1a.1.1 0 0 0-.03.07c0 .03.01.05.03.07.03.07.03.14 0 .2a.67.67 0 0 0-.29.27c0 .11 0 .2-.15.31-.43-.15-.8-.41-1.07-.74l.02-.02c-.1-.16-.2-.32-.27-.5h5.1c-.15.4-.41.74-.77 1.01a.65.65 0 0 0-.19-.13.53.53 0 0 0-.2-.32.69.69 0 0 0-.4-.13h-.11a.16.16 0 0 0-.08.03.13.13 0 0 0-.05.06.16.16 0 0 0 0 .16.2.2 0 0 1 0 .18.65.65 0 0 0-.22.23.55.55 0 0 0-.07.28v.11h-.11l-.06.04Z"/><path fill="#AB0D30" d="M49.26 33.73a.14.14 0 0 1-.1 0V33a.14.14 0 0 1 0-.1h2.1c.04 0 .09-.02.12-.05a.14.14 0 0 0 .05-.1v-1.66a.14.14 0 0 1 .12 0h.68a.14.14 0 0 1 .12 0v1.66c0 .04.02.07.05.1.03.03.08.04.12.04h2.1c.02.04.02.08 0 .11v.64a.11.11 0 0 1 0 .11h-5.36v-.02ZM50.2 36.66c-.4-.1-.77-.24-1.13-.43a6.85 6.85 0 0 0-1.64-.62l-.76-.11c-1.45-.2-4.2-.57-4.54-.66-.33-.09-.15 0-.15 0 .01-.13.05-.26.11-.38v-.18c.07-.16.12-.31.17-.48h.1a.12.12 0 0 0 .03-.07c0-.02-.01-.05-.03-.07.05-.16.12-.3.23-.44.21.28.54.47.9.55.97.63 2.11 1.04 3.31 1.16.28.02.56.02.84 0 .23.03.45 0 .66-.07.21-.07.4-.2.54-.34v.1l.1.1a3.33 3.33 0 0 0 1.15.61.2.2 0 0 0 .08-.01l.2-.39a.25.25 0 0 1 .08-.11.3.3 0 0 1 .14-.07h.1a.4.4 0 0 1 .27.09c.03.02.06.06.08.1l.03.12c0 .06-.03.13-.07.18-.04.05-.1.1-.16.13l-.2.15.24.87c-.4.22-.59.27-.67.27ZM51.45 36.28l.27-.22.2-.16h.98v-.11a.13.13 0 0 1 0-.1.3.3 0 0 1 .1-.22.4.4 0 0 1 .26-.1c.06 0 .11.01.17.04.05.03.1.06.12.1 0 .09-.04.17-.1.23a.39.39 0 0 1-.26.09c-.27.07-.52.17-.75.3-.11.08-.23.15-.36.19-.16.02-.32.02-.48 0l-.15-.04ZM51.74 34.75a.3.3 0 0 0-.09-.11.36.36 0 0 0-.14-.07c.02.06.02.12 0 .18h.23ZM53.26 34.88a.33.33 0 0 0-.1-.11.4.4 0 0 0-.13-.07v.2h.18l.05-.02ZM31.62 18.18c.16-.11.3-.24.42-.39l.12-.12H31.57c-.32 0-.64-.08-.92-.23-.28-.15-.5-.36-.65-.61a2.17 2.17 0 0 0 1.53.04c.23-.09.44-.2.62-.36.18-.16.32-.34.42-.54.1-.2.14-.42.14-.63a3.1 3.1 0 0 0-.55-1.6c-.33-.5-.8-.9-1.36-1.2l-.28-.2-.86-.57-.6-.42-.6-.46c-.13-.1-.25-.2-.35-.3-.26-.21-.48-.44-.68-.68l-.31-.37v-.27a.3.3 0 0 1 .23 0c.05 0 .1 0 .15.03.04.02.08.06.1.1h.13a.28.28 0 0 1 .02-.33h6.48c-.57.48-1.32.77-2.1.82v.13h1.93c-.29.2-.63.33-1 .38.35.31.77.55 1.23.7.46.14.96.19 1.45.14a1.6 1.6 0 0 1-.97.27h-.5l.12.13a7.29 7.29 0 0 1 2.1 3.75h.15a7.48 7.48 0 0 1 2.1-3.75l.13-.13h-.6c-.35.01-.69-.09-.95-.27.48.05.98 0 1.44-.15a3.2 3.2 0 0 0 1.2-.69 2.27 2.27 0 0 1-.96-.38h1.85v-.28a3.55 3.55 0 0 1-2.1-.82h6.45c.03.05.05.1.05.16 0 .05-.02.1-.05.15h.13a.23.23 0 0 1 .1-.1c.05-.02.1-.03.15-.02a.33.33 0 0 1 .23 0 .28.28 0 0 1 0 .25 7.08 7.08 0 0 1-.99 1.06l-.37.47-.3.24-.9.64-.45.29-.71.49c-.56.29-1.02.7-1.36 1.18a3.1 3.1 0 0 0-.55 1.59c0 .22.04.43.14.63s.23.4.41.55a2.15 2.15 0 0 0 1.36.48c.27 0 .55-.06.8-.15-.15.25-.37.46-.65.61-.28.15-.6.23-.93.23h-.59l.13.12c.11.15.25.28.42.39h-9.65Zm-3.1-8.7c-.14-.02-.29-.02-.44 0 .08.31.27.61.55.83l.21-.11.17-.11h.21c.47-.18.98-.28 1.5-.27v-.08c-.3-.02-.59-.07-.87-.14a2.9 2.9 0 0 0-.55-.11h-.16l.1.13v.22l-.13.16h-.31v.09a.46.46 0 0 0-.07-.25.55.55 0 0 0-.2-.19v-.18Zm15.5.85.2.12c.27-.22.45-.51.52-.83h-.61l.13.12a.57.57 0 0 0-.2.2.49.49 0 0 0-.06.26v.1h-.25v-.56a.31.31 0 0 1 0-.14v-.13h-.17l-.54.11c-.33.08-.66.13-1 .15v.12c.53 0 1.04.1 1.52.28h.21l.25.2ZM30.82 20.13c-.27 0-.53-.06-.78-.15-.37-.19-.65-.5-.78-.85a1.3 1.3 0 0 1 .1-1.08 2.05 2.05 0 0 0 1.66.44v1.73l-.2-.1ZM42 20.13V18.4c.3.05.61.03.9-.05.3-.08.55-.21.77-.4.1.2.16.42.17.64 0 .26-.08.52-.24.75-.15.23-.36.42-.63.56-.24.1-.52.16-.8.16l-.16.06ZM30.17 8.41a.67.67 0 0 0-.24-.5.89.89 0 0 0-1.16 0 .69.69 0 0 0-.24.5h-.78v.24h3.15v-.24h-.73ZM44.36 8.41c0-.18-.1-.36-.24-.5a.89.89 0 0 0-1.15 0 .67.67 0 0 0-.25.5h-.78v.24h3.18v-.24h-.76ZM25.37 8.41c-.24-.1-.44-.25-.59-.44-.15-.18-.24-.4-.27-.63.02-.35.11-.69.27-1a1.21 1.21 0 0 0 .13-1.13v-.13h.15c.18-.1.38-.16.59-.2h.16c.1.04.17.1.21.18.15.31 0 .7-.31 1.13-.26.37-.42.78-.46 1.2 0 .3.12.59.35.8l-.23.22ZM22.79 10.25a1.21 1.21 0 0 1-.45-.33 1 1 0 0 1-.23-.47c.03-.33.17-.66.4-.93l.13-.18v-.1c-.16.24-.43.42-.74.5h-.5a1.11 1.11 0 0 0-.49 0 .56.56 0 0 0-.3 0h-.22v-.22c0-.1.12-.5.46-.58H21c.15 0 .3.05.42.13h.3c.08.02.18.02.27 0 .05-.03.1-.07.13-.12l.06-.15c0-.28 0-.39-.3-.59l-.19-.18a1.1 1.1 0 0 1-.32-.34.95.95 0 0 1-.14-.42c0-.44.76-.5 1.47-.55h.46v.2c-.03.22-.03.44 0 .66.05.21.15.42.3.6.25.27.4.6.44.96-.06.41-.25.8-.55 1.13-.12.12-.21.27-.27.42.02.16.06.3.13.46l.14.38-.56-.28ZM22.87 5.12l.21-.24c.36-.44.82-.96 1.35-.96.44.05.85.2 1.22.41l.42.22h-.5c-.44.03-.85.16-1.2.37-.37.23-.8.36-1.25.38h-.36l.1-.18ZM47.28 8.21c.12-.1.21-.22.28-.36.06-.13.09-.27.08-.42a2.4 2.4 0 0 0-.46-1.22c-.23-.44-.44-.8-.3-1.13a.29.29 0 0 1 .09-.11.35.35 0 0 1 .12-.07h.15c.21.02.42.07.61.15H48v.12a1.2 1.2 0 0 0 .15 1.13c.15.32.24.66.27 1-.03.23-.12.45-.27.64-.15.19-.36.34-.6.44l-.27-.17ZM49.83 10.09c.06-.14.1-.29.1-.44a1.05 1.05 0 0 0-.27-.45c-.3-.32-.5-.7-.55-1.11.04-.35.19-.69.42-.97.17-.18.28-.4.32-.62 0-.22-.04-.43-.13-.64v-.2h.47c.69 0 1.43.13 1.47.55a.98.98 0 0 1-.14.43c-.08.14-.19.26-.32.35l-.32.26c-.21.18-.36.29-.3.56 0 .05.02.1.05.15.02.04.06.08.1.11.04.04.1.06.15.07.05.02.11.02.17.02.1 0 .2-.03.27-.1.14-.06.3-.1.46-.1h.15c.34 0 .44.47.44.56v.19h-.5c-.17.01-.33.05-.49.1a.8.8 0 0 1-.29 0h-.21a1.08 1.08 0 0 1-.74-.5.1.1 0 0 0-.01.07l.01.05v.17c.34.2.6.5.74.83a.99.99 0 0 1-.23.48 1.2 1.2 0 0 1-.46.33l-.38.23.02-.38Z"/><path fill="#AB0D30" d="M49.79 5.43h-.5c-.26-.08-.5-.18-.72-.31a2.78 2.78 0 0 0-1.22-.38h-.53l.44-.24c.34-.2.73-.35 1.14-.4.52 0 .99.53 1.34.96l.21.24.24.26-.4-.13ZM45.7 44.68v-.18a1.95 1.95 0 0 1 0-.79 8.3 8.3 0 0 1-4.93.28 11.1 11.1 0 0 0-1.75-.2c-.84 0-1.66.2-2.38.56a5.44 5.44 0 0 0-2.58-.56c-.6.02-1.18.08-1.75.2a8.04 8.04 0 0 1-5.05-.31c.06.26.06.53 0 .8v.2c-.09.2-.2.38-.35.54v6.7a4.76 4.76 0 0 1 1.81 2.3c.33.9.33 1.87.02 2.77 1.39-.52 2.88-.82 4.4-.9.64-.02 1.29.08 1.88.3.6.23 1.12.57 1.54 1 .42-.43.94-.77 1.54-1 .6-.22 1.24-.32 1.89-.3 1.5.07 2.97.38 4.35.9a3.99 3.99 0 0 1 .5-3.64 4.6 4.6 0 0 1 1.37-1.39V45.3a2.6 2.6 0 0 1-.5-.62Z"/><path fill="#fff" d="M36 56.28a5.71 5.71 0 0 0-2.85-.75h-.12c-1.2.04-2.4.24-3.54.59a4.68 4.68 0 0 0-.44-2.44 5.42 5.42 0 0 0-1.66-2V45.5c.13-.18.23-.37.32-.57v-.23a.3.3 0 0 0 0-.13c.72.2 1.48.3 2.25.29.78 0 1.55-.09 2.3-.25a9.83 9.83 0 0 1 1.63-.2c.67 0 1.34.15 1.93.43v11.51l.17-.07ZM36.9 44.75c.6-.27 1.27-.42 1.95-.42.54.02 1.08.1 1.6.2.76.16 1.53.25 2.31.26.76 0 1.51-.1 2.23-.31v.38c.09.21.2.41.34.6v6.2a5.55 5.55 0 0 0-1.65 2c-.36.78-.52 1.6-.45 2.44-1.13-.35-2.3-.55-3.5-.58h-.12c-1.02 0-2.02.26-2.86.76V44.75h.15Z"/><path fill="#AB0D30" d="M57.55 56.2c.05-.02.1-.05.12-.1a.2.2 0 0 0 .02-.15.24.24 0 0 0 0-.16.24.24 0 0 0 0 .2.26.26 0 0 0 0 .25l-.14-.03ZM50.44 52.78a.4.4 0 0 0 .2 0 .35.35 0 0 0 .16-.14v-.1h-.26a.43.43 0 0 0-.19.19h.11l-.02.05Z"/></svg>