<svg xmlns="http://www.w3.org/2000/svg" fill="none" viewBox="0 0 211 72"><path fill="#29292E" d="m184.57 25.44-3.44-7.24-3.44 7.24h6.88Zm1.58 3.33H176.1l-1.92 4.06h-5.12l9.64-18.9h4.96l9.67 18.9h-5.26l-1.92-4.06Zm-33.71-8.54c-.1 2.24-.3 4.12-.64 5.65a7 7 0 0 1-1.52 3.36h9.67V17.46h-7.41l-.1 2.77Zm15.47 9v7.48h-4.65V32.8h-15.27v3.91h-4.66v-7.47h.91c1.32-.03 2.23-.86 2.77-2.48.54-1.61.88-3.94.98-6.94l.23-5.92h16.62v15.34h3.07Zm-34.62.33c1.28 0 2.25-.2 2.93-.65a2.18 2.18 0 0 0 1.01-1.94c0-1.65-1.31-2.47-3.94-2.47h-5.03v5.06h5.03ZM123.3 13.9h17.46v3.48H128.3v3.88h6c2.63 0 4.62.47 5.96 1.44a4.67 4.67 0 0 1 2.06 4.12c0 1.89-.77 3.36-2.3 4.39-1.5 1.03-3.67 1.56-6.46 1.56H123.3V13.9Zm-25.39 0h4.99v12.3l10.32-12.3h4.68v18.9h-4.95V20.53L102.64 32.8h-4.72V13.9ZM191.08 46.92c.37 0 .71-.09.98-.23.27-.15.47-.36.6-.62v-.68h-1.51c-.84 0-1.25.24-1.25.74 0 .23.1.44.34.56.2.14.5.2.88.2m.23-4.2c.78 0 1.35.14 1.75.5.4.32.61.79.61 1.44v2.88h-.94v-.62c-.17.24-.4.39-.71.5-.3.12-.68.18-1.08.18-.6 0-1.11-.12-1.48-.38a1.17 1.17 0 0 1-.54-1.03c0-.44.17-.77.54-1.03.33-.27.9-.39 1.68-.39h1.59v-.17c0-.38-.14-.65-.37-.86-.24-.2-.61-.29-1.08-.29-.34 0-.64.06-.95.15-.3.09-.57.2-.77.38l-.4-.65c.26-.2.6-.35 1-.44.41-.12.81-.15 1.25-.15M186 47.6c-.57 0-1.04-.12-1.48-.32a2.35 2.35 0 0 1-1.01-3.41c.23-.4.6-.66 1-.86a3.5 3.5 0 0 1 2.8-.06c.41.18.68.44.92.76l-.75.42a1.27 1.27 0 0 0-.64-.5 2.05 2.05 0 0 0-.84-.18c-.37 0-.67.06-.98.2-.27.15-.5.33-.67.6a1.6 1.6 0 0 0-.24.88 1.53 1.53 0 0 0 .91 1.47c.27.15.61.2.98.2.3 0 .6-.05.84-.17.27-.12.48-.3.64-.5l.75.4c-.2.33-.51.6-.91.77-.4.18-.85.27-1.32.27m-6.64-4.15c-.47 0-.88.12-1.18.38-.34.27-.5.6-.57 1h3.5a1.5 1.5 0 0 0-.57-1c-.3-.26-.7-.38-1.18-.38Zm2.7 1.74v.26h-4.45c.06.41.27.77.64 1 .37.27.8.38 1.34.38.65 0 1.18-.2 1.59-.58l.54.55a2.3 2.3 0 0 1-.91.6 3.8 3.8 0 0 1-2.8-.12 2.35 2.35 0 0 1-1.05-3.41c.24-.39.58-.68.98-.9.4-.2.88-.31 1.42-.31.54 0 .98.11 1.41.32.41.2.75.5.98.88.24.38.34.8.34 1.3m-12-2.42h.98v2.03h3.13v-2.03h.98v4.8h-.98v-2h-3.13v2h-.98v-4.8Zm-2.67 2.3c.38.09.65.2.85.41.2.18.3.41.3.7 0 .3-.1.54-.34.77-.23.2-.54.39-.9.53a5.16 5.16 0 0 1-2.5.03c-.4-.09-.74-.23-1.05-.41l.3-.65c.28.15.58.27.92.33.33.08.67.11 1 .11.48 0 .85-.06 1.12-.2.27-.15.4-.33.4-.56 0-.24-.1-.38-.33-.5a2.1 2.1 0 0 0-.95-.18h-1v-.62h.94c.37 0 .67-.06.87-.17.2-.12.34-.27.34-.47 0-.21-.13-.39-.37-.5-.24-.12-.6-.18-1.01-.18-.54 0-1.11.12-1.72.38l-.27-.67c.67-.3 1.38-.45 2.09-.45.44 0 .84.06 1.18.18.34.12.64.27.84.47.2.2.3.41.3.68 0 .23-.1.44-.26.62-.17.17-.4.32-.71.4m-10.05-2.29h.98v3.48l3.37-3.48h.91v4.8h-.98V44.1l-3.34 3.47h-.9v-4.8h-.04Zm-4.21 4.12a2 2 0 0 0 .94-.2c.27-.15.47-.33.64-.56.14-.24.24-.53.24-.83 0-.47-.17-.85-.5-1.14-.34-.3-.78-.45-1.32-.45s-.98.15-1.32.45c-.34.29-.5.67-.5 1.14 0 .33.06.6.23.83.17.23.37.44.64.56.27.11.58.2.95.2Zm.17-3.97c.5 0 .97.09 1.34.3.4.2.71.46.95.82a2.26 2.26 0 0 1-.03 2.44 2.2 2.2 0 0 1-1.02.82c-.44.21-.9.3-1.48.3-.94 0-1.65-.27-2.16-.83a3.4 3.4 0 0 1-.77-2.35c0-1 .23-1.74.7-2.3a3.69 3.69 0 0 1 2.13-1.11l2.5-.5.13.8-2.3.43c-.7.15-1.24.39-1.61.7-.34.33-.54.8-.61 1.42.24-.3.54-.56.91-.7.37-.18.78-.27 1.25-.27m-6.58.59h-1.99v4.03h-.97v-4.03h-2v-.77h5v.77h-.04Zm-5.12-.77-2.66 5.27c-.24.5-.51.83-.81 1.03-.3.2-.71.3-1.15.3-.27 0-.54-.03-.78-.12-.23-.09-.47-.18-.63-.33l.43-.64c.27.23.61.35.98.35.24 0 .44-.06.6-.18.18-.11.31-.3.45-.56l.16-.32-2.42-4.77h1.04l1.92 3.83 1.9-3.83h.97v-.03Zm-5.93.77h-2v4.03h-.97v-4.03h-1.99v-.77h4.99v.77h-.03Zm-11.27-.77h.98v3.48l3.37-3.48h.91v4.8h-.97v-3.47l-3.34 3.47h-.91v-4.8h-.04Zm-1 .77h-2v4.03h-.97v-4.03h-2v-.77h5v.77h-.04Zm-7.53 4.09c-.57 0-1.04-.12-1.48-.32a2.35 2.35 0 0 1-1.05-3.41c.24-.39.61-.66 1.05-.86a3.49 3.49 0 0 1 2.8-.06c.4.18.7.44.91.76l-.74.42a1.27 1.27 0 0 0-.64-.5 2.04 2.04 0 0 0-.84-.18c-.38 0-.68.06-.98.2-.27.15-.5.33-.68.6a1.6 1.6 0 0 0-.23.88 1.54 1.54 0 0 0 .9 1.47c.28.15.62.2.98.2.3 0 .61-.05.85-.17.27-.12.47-.3.64-.5l.74.41c-.2.32-.5.59-.91.77-.4.17-.84.26-1.32.26m-9.43-4.83h.97v2.03h3.14v-2.03h.98v4.8h-.98v-2h-3.14v2h-.97v-4.8Zm-8.33-1.53h1.01v4.89l4.28-4.89h.94v6.33h-1v-4.86l-4.29 4.86h-.94v-6.33ZM154.58 56.23a2 2 0 0 0 .94-.2c.27-.15.5-.36.64-.6.17-.26.24-.55.24-.88a1.6 1.6 0 0 0-.88-1.47 2 2 0 0 0-.94-.2 2 2 0 0 0-.95.2c-.27.15-.5.33-.67.6a1.6 1.6 0 0 0-.24.87 1.54 1.54 0 0 0 .91 1.47c.27.15.61.21.95.21Zm0 .77c-.54 0-1.05-.12-1.49-.33a2.35 2.35 0 0 1-1.01-3.41c.24-.38.58-.65 1.01-.85.44-.21.91-.33 1.49-.33.57 0 1.04.12 1.45.33.44.2.77.5 1 .85a2.35 2.35 0 0 1-1 3.41c-.44.2-.91.33-1.45.33Zm-3.14-4.1h-3.03v4.04h-.98v-4.8h4.05v.77h-.04Zm-8.32 3.33a2 2 0 0 0 .94-.2c.27-.15.5-.36.64-.6.17-.26.24-.55.24-.88a1.6 1.6 0 0 0-.88-1.47 2 2 0 0 0-.94-.2 2 2 0 0 0-.95.2c-.27.15-.5.33-.67.6a1.6 1.6 0 0 0-.24.87c0 .33.07.62.24.89.16.26.37.44.67.59.27.14.6.2.95.2Zm0 .77a3.5 3.5 0 0 1-1.49-.33 2.35 2.35 0 0 1-1.01-3.41c.24-.38.57-.65 1.01-.85.44-.21.91-.33 1.49-.33.57 0 1.04.12 1.44.33.44.2.78.5 1.02.85a2.35 2.35 0 0 1-1.02 3.41c-.43.2-.9.33-1.44.33Zm-6.14-.74c.4 0 .7-.06.94-.18.2-.11.3-.29.3-.52 0-.24-.1-.45-.26-.56-.2-.12-.48-.18-.91-.18h-1.66v1.44h1.59Zm-1.59-2.06h1.49c.37 0 .67-.06.87-.18.2-.11.3-.29.3-.52 0-.48-.36-.68-1.14-.68h-1.48v1.38h-.04Zm2.77.24c.7.14 1.08.53 1.08 1.17 0 .42-.17.74-.54.98-.37.23-.91.35-1.62.35h-2.63v-4.8h2.53c.64 0 1.15.12 1.52.33a1 1 0 0 1 .53.9c0 .27-.06.48-.23.65-.17.18-.37.33-.64.42Zm-8.03 1.76a2 2 0 0 0 .95-.2c.27-.15.5-.36.64-.6.17-.26.24-.55.24-.87a1.6 1.6 0 0 0-.88-1.48 2 2 0 0 0-.95-.2 2 2 0 0 0-.94.2c-.27.15-.5.33-.67.6a1.6 1.6 0 0 0-.24.88 1.54 1.54 0 0 0 .91 1.47c.27.14.6.2.94.2Zm0 .77a3.5 3.5 0 0 1-1.48-.33 2.35 2.35 0 0 1-1.01-3.41c.24-.38.57-.65 1.01-.85.44-.2.91-.33 1.48-.33.58 0 1.05.12 1.45.33.44.2.78.5 1.02.85a2.35 2.35 0 0 1-1.02 3.41c-.43.21-.9.33-1.45.33Zm-4.28-4.83v4.8h-.97V52.9h-2.36l-.07 1.06c-.04.64-.1 1.17-.2 1.61-.1.45-.27.77-.48 1.03-.23.27-.54.39-.9.39-.18 0-.38 0-.61-.1l.06-.73h.24c.27 0 .47-.11.6-.32.14-.2.24-.47.28-.74l.1-1.23.1-1.77h4.21v.03Zm-8.86.68c-.48 0-.88.12-1.18.38-.34.27-.5.59-.58 1h3.5a1.5 1.5 0 0 0-.56-1c-.3-.26-.71-.38-1.18-.38Zm2.7 1.73v.27h-4.46c.07.41.27.76.64 1 .38.26.81.38 1.35.38.64 0 1.18-.2 1.59-.59l.54.56c-.24.27-.58.44-.91.6a3.8 3.8 0 0 1-2.8-.12 2.35 2.35 0 0 1-1.05-3.41c.24-.4.58-.69.98-.9.4-.2.88-.32 1.42-.32.54 0 .97.12 1.41.33.4.2.74.5.98.88s.34.8.34 1.3m-10.52-.74c0 .59-.1 1.09-.17 1.5-.1.38-.24.68-.47.85h3.07v-3.26h-2.4l-.06.9h.03Zm4.25 2.35V58h-.95v-1.12h-4.58V58h-.95v-1.86h.3c.34 0 .61-.23.72-.64.13-.42.23-1 .26-1.77l.07-1.62h4.25v4.03h.88ZM97.9 52.11h.98v3.47l3.37-3.47h.91v4.8h-.97v-3.47l-3.34 3.47h-.91v-4.8h-.04ZM206.74 63.43c0 .32.1.56.34.7.24.15.57.24 1.05.24h1.51V62.5h-1.48c-.94 0-1.42.32-1.42.94Zm3.81-1.7v4.8h-.87v-1.51h-1.72l-1.22 1.5h-1.08l1.35-1.62c-.4-.12-.74-.3-.94-.53a1.28 1.28 0 0 1-.34-.94c0-.56.2-.97.64-1.24.44-.29 1.01-.44 1.76-.44h2.39l.03-.03Zm-11.56 0h.98v3.47l3.37-3.48h.9v4.8h-.97v-3.47l-3.34 3.47h-.9v-4.8h-.04Zm-7.05 0h.98v2.02h3.14v-2.03h.97v4.8h-.97v-2h-3.14v2h-.98v-4.8Zm-4.35 4.17c.38 0 .71-.09.98-.2.27-.15.47-.36.6-.62v-.68h-1.5c-.85 0-1.26.24-1.26.74 0 .23.1.44.34.56.2.14.5.2.88.2m.23-4.2c.75 0 1.35.17 1.76.5.4.32.6.79.6 1.44v2.88h-.94v-.62c-.17.24-.4.39-.7.5-.31.12-.68.18-1.09.18-.6 0-1.1-.12-1.48-.38a1.18 1.18 0 0 1-.54-1.03c0-.44.17-.77.54-1 .34-.27.91-.39 1.69-.39h1.58v-.17c0-.39-.13-.65-.37-.86-.24-.2-.6-.3-1.11-.3-.34 0-.64.07-.95.16-.3.08-.57.2-.77.38l-.4-.65c.26-.2.6-.35 1-.44.4-.12.81-.15 1.25-.15m-5.73 4.15c.4 0 .7-.06.94-.17.2-.12.3-.3.3-.53 0-.24-.1-.45-.26-.56-.2-.12-.47-.18-.91-.18h-1.66v1.44h1.59Zm-1.58-2.06h1.48c.37 0 .67-.06.88-.17.2-.12.3-.3.3-.53 0-.47-.37-.68-1.15-.68h-1.48v1.38h-.03Zm2.76.24c.7.15 1.08.56 1.08 1.18 0 .4-.17.73-.54.97-.37.23-.91.35-1.62.35h-2.63v-4.8h2.53c.64 0 1.15.12 1.52.33a1 1 0 0 1 .54.9c0 .27-.07.48-.24.66-.17.17-.37.32-.64.4Zm-8.02 1.76a2 2 0 0 0 .94-.2c.27-.15.5-.36.64-.6.17-.26.24-.55.24-.87a1.6 1.6 0 0 0-.88-1.48 2 2 0 0 0-.94-.2 2 2 0 0 0-.95.2c-.27.15-.5.33-.67.6a1.6 1.6 0 0 0-.24.88c0 .32.07.61.24.88.17.26.37.44.67.59.27.14.6.2.95.2Zm0 .77c-.54 0-1.05-.12-1.49-.32a2.35 2.35 0 0 1-1.01-3.41c.24-.4.57-.66 1.01-.86.44-.2.91-.33 1.49-.33.57 0 1.04.12 1.45.33.43.2.77.5 1 .85a2.35 2.35 0 0 1-1 3.42c-.44.2-.91.32-1.45.32Zm-6.65-.77a2 2 0 0 0 .95-.2c.27-.15.5-.36.67-.6.17-.26.24-.55.24-.87 0-.33-.07-.62-.24-.89a1.54 1.54 0 0 0-.67-.59 2 2 0 0 0-.95-.2c-.33 0-.64.06-.94.2-.27.15-.5.33-.67.6-.17.26-.24.52-.24.88a1.54 1.54 0 0 0 .91 1.47c.27.14.6.2.94.2Zm.07-4.12c.54 0 1.01.1 1.42.3.4.2.74.5.98.85.23.35.37.8.37 1.27s-.14.9-.37 1.26c-.24.38-.58.65-.98.86-.4.2-.91.29-1.42.29a2.58 2.58 0 0 1-1.92-.8v2.48h-.98v-6.54h.95v.77a2 2 0 0 1 .84-.59c.34-.15.7-.2 1.11-.2m-10.08.05h.98v3.48l3.37-3.48h.91v4.8h-.98v-3.47l-3.33 3.47h-.91v-4.8h-.04Zm-4.28 4.1a2 2 0 0 0 .94-.21c.27-.15.5-.35.68-.59.17-.27.23-.56.23-.88a1.54 1.54 0 0 0-.91-1.47 2 2 0 0 0-.94-.21c-.34 0-.64.06-.94.2-.27.15-.51.33-.68.6-.17.26-.24.52-.24.88a1.54 1.54 0 0 0 .92 1.47c.27.15.6.2.94.2Zm.07-4.13c.54 0 1 .1 1.41.3.4.2.75.5.98.85.24.36.37.8.37 1.27s-.13.91-.37 1.26c-.23.39-.57.65-.98.86-.4.2-.9.3-1.41.3a2.59 2.59 0 0 1-1.93-.8v2.47h-.97v-6.54h.94v.77a2 2 0 0 1 .84-.59c.34-.15.71-.2 1.12-.2m-3.91.79h-2v4.03h-.97v-4.03h-2.02v-.77h4.99v.77Zm-7.52 4.1c-.57 0-1.05-.13-1.49-.33a2.35 2.35 0 0 1-1.01-3.41c.24-.39.61-.65 1.01-.86a3.49 3.49 0 0 1 2.8-.06c.4.18.68.44.91.77l-.74.4a1.26 1.26 0 0 0-.64-.5 2.05 2.05 0 0 0-.84-.17c-.37 0-.68.06-.98.2-.27.15-.5.33-.67.6a1.6 1.6 0 0 0-.24.88 1.53 1.53 0 0 0 .91 1.47c.27.15.6.2.98.2.3 0 .6-.05.84-.17.27-.12.47-.3.64-.5l.74.41c-.2.32-.5.59-.9.77-.41.17-.85.26-1.32.26m-9.58-4.83h.98v3.48l3.37-3.48h.91v4.8h-.98V63l-3.33 3.47h-.91v-4.8h-.04Zm-7.04 0h.98v2.04h3.13v-2.04h.98v4.8h-.98v-2h-3.14v2h-.97v-4.8Zm-7.18 0h.97v3.48l3.38-3.48h.9v4.8h-.97V63l-3.34 3.47h-.91v-4.8h-.03Zm-1.93 0v4.8h-.9v-3.5l-2.06 2.94h-.44l-2.02-2.97v3.5H111v-4.8h1l2.17 3.24 2.22-3.23h.94v.02Zm-11.86 1.68c0 .6-.1 1.1-.17 1.5-.1.39-.24.68-.47.86h3.06v-3.27h-2.39l-.07.91h.04Zm4.25 2.36v1.85h-.95v-1.12h-4.58v1.12h-.95V65.7h.3c.34 0 .61-.24.71-.65.14-.41.24-1 .27-1.77l.07-1.62h4.25v4.04h.87Zm-9.95.14c.37 0 .7-.08.98-.2.27-.15.47-.36.6-.62v-.68h-1.51c-.85 0-1.25.24-1.25.74 0 .23.1.44.3.56.2.14.5.2.88.2Zm.23-4.2c.75 0 1.35.17 1.76.5.4.32.6.79.6 1.44v2.88h-.94v-.62c-.17.24-.4.39-.7.5-.31.12-.68.18-1.09.18-.6 0-1.1-.12-1.48-.38a1.17 1.17 0 0 1-.54-1.03c0-.44.17-.77.54-1 .34-.27.91-.39 1.69-.39h1.58v-.17c0-.38-.13-.65-.37-.86-.24-.2-.6-.29-1.11-.29-.34 0-.64.06-.95.15-.3.09-.57.2-.77.38l-.4-.65c.26-.2.6-.35 1-.44.41-.12.81-.15 1.25-.15"/><path fill="#004298" fill-rule="evenodd" d="M80.09 43.06c-1.72-4.83-4.93-8.45-9.2-11.15l-.11-.06-.1-.06c-4.11-2.5-9.3-4.33-14.8-5.48a63.9 63.9 0 0 0-12.2 1.12c-5.03.89-13.15 2.92-18.58 5.3 4.72 5.6.5 17.13-15.88 31.22 11.36-4.5 66.01-25.86 68.44-3a19.32 19.32 0 0 0 2.4-17.92" clip-rule="evenodd"/><path fill="#004298" fill-rule="evenodd" d="M70.36 31.4c-5.6-13.83-41.44-2.91-49.12 1.62 7.04-5.36 9.37-12.72 6.2-17.78 3.74-1.62 9.81-3.18 13.08-3.8a50.6 50.6 0 0 1 7.45-.96c3.2.61 6.2 1.5 8.87 2.64 10.18 4.42 13.22 11.98 13.92 18.6l-.4-.32Z" clip-rule="evenodd"/><path fill="#004298" fill-rule="evenodd" d="M27.99.47c6.88 2.11 1.31 9.74-3.47 14.45 4.65-2.8 32.43-11.36 34.62-.92l.14.1C59.92 6.9 51.72 2.57 47.3 1.52c-2.67.85-11.23-.18-19.32-1.1M.42 69.55c1.2-.41 47.57-18.42 62.74-16.48 2.83.35 4.92.88 6.57 1.65 1.01.47 2.7 1.7 3.84 3.09 1.05 1.3 1.62 2.73 1.8 3.15.36.82.63 1.76.77 2.67-.58 2.68-1.28 4.15-2.13 7.5-.3-4.02-.8-6.67-2.66-9.8-2.56-4.23-6.95-4.76-9.64-4.96-5.33-.42-9.88-.18-22.9 2.97-3.4.82-13.04 2.94-23.3 6.06C7.5 67.84.42 69.96.42 69.96l.07-.41H.42Z" clip-rule="evenodd"/></svg>