<svg xmlns="http://www.w3.org/2000/svg" fill="none" viewBox="0 0 123 50"><path fill="#333E5A" d="M.41 29.62V0h16.23c7.3 0 11.28 4.5 11.28 9.85 0 5.37-3.97 9.72-11.28 9.72H8.8v10.02H.4v.03ZM15.54 6.45H8.8v6.67h6.75c2.23 0 3.88-1.28 3.88-3.3 0-2-1.65-3.37-3.88-3.37ZM47.4 29.62 41.94 19.6h-4.28v10.02H29.3V0h16.23c7.18 0 11.28 4.36 11.28 9.85 0 5.14-3.45 7.9-6.48 8.88l6.6 10.89h-9.57.03ZM44.27 6.45h-6.6v6.67h6.6c2.2 0 4.03-1.28 4.03-3.32s-1.83-3.32-4.03-3.32v-.03ZM68.64 10.1h-8.38v19.52h8.38V10.11ZM68.64 0h-8.38v6.03h8.38V0Z"/><path fill="#333E5A" d="m84.08 0-6.82 13.1L70.5 0h-3v10.1L75.44 24h3.7l8.22-14.37v19.99h8.34V0H84.08ZM98.63 0h23.78v6.45h-15.4v4.94h15.06v6.48H107v5.33h15.41v6.45H98.63V0Z"/><path fill="#4FBCCE" d="M1.11 43.47c0-3.86 3.18-6.5 7.22-6.5 3.15 0 4.89 1.5 5.87 3.06l-2.51 1.12c-.58-1-1.8-1.81-3.33-1.81a4.09 4.09 0 0 0-4.22 4.13c0 2.37 1.8 4.13 4.22 4.13 1.53 0 2.75-.78 3.33-1.82l2.5 1.12A6.48 6.48 0 0 1 8.34 50c-4.04 0-7.22-2.62-7.22-6.5v-.03ZM25.35 49.72v-5.28h-6.48v5.28h-2.93V37.16h2.93v4.94h6.48v-4.94h2.94v12.56h-2.94ZM40.6 49.72l-.85-2.18h-6.14l-.86 2.18h-3.2l5.31-12.56h3.67l5.29 12.56H40.6Zm-3.94-10.24-2.29 5.75h4.56l-2.27-5.75ZM57.05 49.72v-9.04l-3.88 9.04H51.9L48 40.68v9.04h-2.94V37.16h4.1L52.5 45l3.33-7.84h4.13v12.56h-2.94.03ZM62.7 49.72V37.16h6.43c3 0 4.61 1.84 4.61 4.05 0 2.2-1.65 4.02-4.61 4.02H65.6v4.5h-2.93.03Zm6.06-10.27h-3.12v3.46h3.12c1.16 0 2.02-.67 2.02-1.73s-.86-1.73-2.02-1.73ZM75.58 49.72V37.16h2.93v12.56h-2.93ZM87.71 36.96c4.16 0 7.19 2.71 7.19 6.5 0 3.8-3.03 6.51-7.19 6.51-4.15 0-7.18-2.7-7.18-6.5s3.03-6.5 7.18-6.5Zm0 2.38a3.95 3.95 0 0 0-4.15 4.13 3.95 3.95 0 0 0 4.15 4.13 3.99 3.99 0 0 0 4.2-4.13 3.99 3.99 0 0 0-4.2-4.13ZM106.45 49.72l-6.54-8.43v8.43h-2.93V37.16h3l6.35 8.12v-8.12h2.94v12.56h-2.82ZM112.66 45.92c.98.93 2.48 1.7 4.37 1.7 1.62 0 2.38-.7 2.38-1.42 0-.95-1.19-1.25-2.78-1.59-2.26-.47-5.13-1.03-5.13-3.85 0-2.1 1.98-3.8 5.22-3.8 2.2 0 4 .62 5.35 1.76l-1.62 1.96a6.13 6.13 0 0 0-3.94-1.37c-1.34 0-2.02.53-2.02 1.28 0 .84 1.16 1.12 2.75 1.45 2.27.48 5.17 1.1 5.17 3.88 0 2.3-1.8 4.02-5.5 4.02-2.63 0-4.53-.8-5.84-1.98l1.62-2.04h-.03Z"/></svg>