<svg xmlns="http://www.w3.org/2000/svg" fill="none" viewBox="0 0 288 303"><path fill="#69191B" d="m21.7 102.74 63.02-7.69 64.76 19.06-62.99 7.68-64.78-19.05Z"/><mask id="a" width="67" height="9" x="94" y="70" maskUnits="userSpaceOnUse" style="mask-type:luminance"><path fill="#fff" d="M157.46 70.99a6.3 6.3 0 0 0 2.65.23l-63 7.68c-.9.1-1.8.03-2.66-.23 18.9-2.3 44.05-9.24 63-7.68Z"/></mask><g mask="url(#a)"><path fill="#6A191B" d="m94.45 78.68 63-7.69a6.3 6.3 0 0 0 2.66.24l-63 7.67c-.89.11-1.8.04-2.66-.22Z"/></g><mask id="b" width="71" height="29" x="87" y="50" maskUnits="userSpaceOnUse" style="mask-type:luminance"><path fill="#fff" d="M150.71 58.36c-.7 5.66 2.26 11.3 6.75 12.62l-63 7.69c-4.48-1.33-7.5-6.97-6.74-12.63.55-4.52 3.48-7.65 6.83-8.06l63-7.67c-3.4.38-6.22 3.54-6.84 8.05Z"/></mask><g mask="url(#b)"><path fill="#6A191B" d="m94.55 58 63-7.68c-1.29.16-2.5.7-3.49 1.54l-63 7.67c1-.83 2.2-1.37 3.49-1.54Z"/><path fill="#6E1A1C" d="m91.07 59.48 63-7.67a8.47 8.47 0 0 0-1.67 1.87l-63 7.68a8.71 8.71 0 0 1 1.67-1.88Z"/><path fill="#721B1D" d="m89.4 61.35 63-7.67c-.52.8-.93 1.66-1.21 2.57l-63 7.67c.28-.9.7-1.77 1.2-2.57Z"/><path fill="#761C1E" d="m88.18 63.93 63-7.67a12.88 12.88 0 0 0 .5 9.12l-63 7.68a13.4 13.4 0 0 1-.5-9.13Z"/><path fill="#721B1D" d="m88.69 73.05 62.99-7.67c.4.91.9 1.77 1.51 2.56l-63 7.67a11.22 11.22 0 0 1-1.5-2.56Z"/><path fill="#6E1A1C" d="m90.2 75.61 63-7.67c.53.7 1.16 1.3 1.87 1.83l-63 7.67a9.6 9.6 0 0 1-1.88-1.83Z"/><path fill="#6A191B" d="m92.06 77.44 63-7.68c.73.54 1.54.95 2.4 1.2l-63 7.69a7.67 7.67 0 0 1-2.4-1.2Z"/></g><mask id="c" width="67" height="9" x="94" y="50" maskUnits="userSpaceOnUse" style="mask-type:luminance"><path fill="#fff" d="m94.55 58 63-7.68c.9-.11 1.8-.04 2.66.22l-63 7.69a6.48 6.48 0 0 0-2.66-.24Z"/></mask><g mask="url(#c)"><path fill="#030C1E" d="m94.55 58 63-7.68c.9-.11 1.8-.04 2.66.22l-63 7.69a6.48 6.48 0 0 0-2.66-.24Z"/></g><path fill="#7E1E20" d="m86.49 121.77 63-7.68 23.96 42.57-63 7.67-23.96-42.56Z"/><mask id="d" width="71" height="29" x="97" y="50" maskUnits="userSpaceOnUse" style="mask-type:luminance"><path fill="#fff" d="m160.11 71.19-63 7.67c3.4-.4 6.24-3.55 6.84-8.05.7-5.66-2.26-11.3-6.74-12.62l63-7.69c4.49 1.33 7.5 6.98 6.75 12.63-.62 4.49-3.45 7.65-6.85 8.06Z"/></mask><g mask="url(#d)"><path fill="#030C1E" d="m97.2 58.18 63.01-7.68c.86.25 1.67.66 2.4 1.2l-63 7.68a7.72 7.72 0 0 0-2.4-1.2"/><path fill="#030D1F" d="m99.61 59.38 63-7.68c.7.52 1.33 1.14 1.87 1.83l-63 7.68a9.9 9.9 0 0 0-1.87-1.83Z"/><path fill="#030D20" d="m101.48 61.22 63-7.68c.6.79 1.12 1.65 1.51 2.56l-63 7.7c-.4-.92-.9-1.79-1.5-2.58Z"/><path fill="#030E22" d="m102.99 63.77 63-7.69a13.4 13.4 0 0 1 .5 9.12l-63 7.68a13.3 13.3 0 0 0-.5-9.1Z"/><path fill="#030D20" d="m103.48 72.89 63-7.68c-.28.9-.7 1.77-1.21 2.57l-63 7.68c.53-.8.94-1.66 1.21-2.57Z"/><path fill="#030D1F" d="m102.28 75.47 62.99-7.68a8.7 8.7 0 0 1-1.67 1.88l-63 7.68a8.17 8.17 0 0 0 1.68-1.88Z"/><path fill="#030C1E" d="m100.6 77.35 63-7.68a6.68 6.68 0 0 1-3.5 1.54L97.13 78.9c1.28-.16 2.5-.7 3.48-1.54Z"/></g><mask id="e" width="79" height="35" x="100" y="102" maskUnits="userSpaceOnUse" style="mask-type:luminance"><path fill="#fff" d="M178.03 128.7c-11.1 1.3-49.71 6.01-62.99 7.67a19.22 19.22 0 0 1-11.12-9.76 27.67 27.67 0 0 1-2.93-16.55l63-7.67c-1.58 11.77 4.71 23.56 14.04 26.3Z"/></mask><g mask="url(#e)"><path fill="#761C1E" d="m101 110.06 62.99-7.68a27.9 27.9 0 0 0 2 14.64l-62.98 7.68a27.74 27.74 0 0 1-2.02-14.64Z"/><path fill="#721B1D" d="m103 124.7 63-7.67c.82 1.9 1.88 3.7 3.16 5.34l-63 7.68a24.44 24.44 0 0 1-3.15-5.34Z"/><path fill="#6E1A1C" d="m106.15 130.06 63-7.68a20.85 20.85 0 0 0 3.9 3.82l-63.01 7.68a19.96 19.96 0 0 1-3.9-3.82Z"/><path fill="#6A191B" d="m110.04 133.86 63-7.67c1.51 1.11 3.2 1.96 5 2.5l-63 7.68c-1.8-.54-3.5-1.38-5-2.5Z"/></g><mask id="f" width="69" height="10" x="115" y="128" maskUnits="userSpaceOnUse" style="mask-type:luminance"><path fill="#fff" d="M178.02 128.75c1.8.53 3.68.7 5.53.47l-62.99 7.7c-1.86.21-3.74.05-5.53-.5 18.9-2.3 44.03-9.24 63-7.67Z"/></mask><g mask="url(#f)"><path fill="#6A191B" d="m115.03 136.43 63-7.68c1.78.54 3.67.7 5.52.47l-62.99 7.7c-1.86.21-3.74.05-5.53-.5Z"/></g><path fill="#030C1E" d="m100.99 110.08 62.99-7.68 33.84 9.95-63 7.69-33.83-9.96Z"/><mask id="g" width="78" height="25" x="120" y="112" maskUnits="userSpaceOnUse" style="mask-type:luminance"><path fill="#fff" d="m183.56 129.16-63 7.7c7.09-.88 13-7.44 14.26-16.85l63-7.68c-1.27 9.41-7.17 15.98-14.26 16.83Z"/></mask><g mask="url(#g)"><path fill="#030E22" d="m134.83 120 63-7.67c-.19 1.48-.5 2.93-.96 4.35l-63 7.68c.45-1.42.77-2.88.96-4.36Z"/><path fill="#030D20" d="m133.86 124.34 63-7.67c-.6 1.89-1.45 3.7-2.54 5.35l-62.99 7.68a22.17 22.17 0 0 0 2.53-5.36Z"/><path fill="#030D1F" d="m131.33 129.72 63-7.68a17.46 17.46 0 0 1-3.49 3.91l-63 7.7a18.18 18.18 0 0 0 3.49-3.94Z"/><path fill="#030C1E" d="m127.84 133.63 63-7.69a14.03 14.03 0 0 1-7.28 3.21l-62.99 7.7c2.68-.36 5.2-1.48 7.27-3.22Z"/></g><mask id="h" width="97" height="12" x="95" y="17" maskUnits="userSpaceOnUse" style="mask-type:luminance"><path fill="#fff" d="m95.53 26.2 63-7.69a81.89 81.89 0 0 1 33.14 2.8l-63 7.68a81.83 81.83 0 0 0-33.14-2.8Z"/></mask><g mask="url(#h)"><path fill="#6A191B" d="m95.53 26.2 63-7.68a81.89 81.89 0 0 1 33.14 2.8l-63 7.67a81.83 81.83 0 0 0-33.14-2.8Z"/></g><mask id="i" width="67" height="10" x="147" y="84" maskUnits="userSpaceOnUse" style="mask-type:luminance"><path fill="#fff" d="M210.01 84.02c.88.8 1.92 1.4 3.05 1.74l-63 7.69A8.12 8.12 0 0 1 147 91.7l63-7.69Z"/></mask><g mask="url(#i)"><path fill="#6E1A1C" d="m145.8 90.42 63-7.67a9.6 9.6 0 0 0 1.87 1.83l-63 7.67a9.94 9.94 0 0 1-1.88-1.83Z"/><path fill="#6A191B" d="m147.66 92.26 63-7.67c.73.53 1.54.94 2.4 1.2l-63 7.68a7.66 7.66 0 0 1-2.4-1.2Z"/></g><mask id="j" width="66" height="9" x="150" y="85" maskUnits="userSpaceOnUse" style="mask-type:luminance"><path fill="#fff" d="M213.07 85.75a6.7 6.7 0 0 0 2.65.23l-63 7.68c-.9.11-1.8.03-2.66-.22 18.91-2.3 44.03-9.25 63-7.7Z"/></mask><g mask="url(#j)"><path fill="#6A191B" d="m150.06 93.44 63-7.69a6.7 6.7 0 0 0 2.66.24l-63 7.67c-.9.11-1.8.04-2.66-.22Z"/></g><mask id="k" width="71" height="27" x="143" y="65" maskUnits="userSpaceOnUse" style="mask-type:luminance"><path fill="#fff" d="M206.32 73.12a12.6 12.6 0 0 0 3.74 10.9l-63 7.7a12.6 12.6 0 0 1-3.68-10.92c.55-4.52 3.48-7.66 6.83-8.05l63-7.68c-3.45.38-6.28 3.52-6.89 8.05Z"/></mask><g mask="url(#k)"><path fill="#6A191B" d="m150.16 72.73 63-7.67c-1.28.16-2.5.7-3.48 1.54l-63 7.67c.98-.83 2.2-1.36 3.48-1.54Z"/><path fill="#6E1A1C" d="m146.67 74.27 63-7.67a8.5 8.5 0 0 0-1.67 1.87l-63 7.68a8.7 8.7 0 0 1 1.67-1.88Z"/><path fill="#721B1D" d="m145 76.14 63-7.68c-.53.8-.93 1.67-1.2 2.58l-63.01 7.67c.29-.9.7-1.77 1.22-2.57Z"/><path fill="#761C1E" d="m143.79 78.72 63-7.67a13.41 13.41 0 0 0 .5 9.12l-63 7.69a13.33 13.33 0 0 1-.5-9.14Z"/><path fill="#721B1D" d="m144.3 87.87 62.98-7.7c.4.92.9 1.79 1.52 2.58l-63 7.68a12 12 0 0 1-1.5-2.56Z"/><path fill="#6E1A1C" d="m145.8 90.42 63-7.67a9.6 9.6 0 0 0 1.87 1.83l-63 7.67a9.94 9.94 0 0 1-1.88-1.83Z"/></g><mask id="l" width="66" height="9" x="150" y="64" maskUnits="userSpaceOnUse" style="mask-type:luminance"><path fill="#fff" d="m150.16 72.72 63-7.68c.9-.1 1.8-.03 2.66.23l-63 7.68a6.48 6.48 0 0 0-2.66-.23Z"/></mask><g mask="url(#l)"><path fill="#030C1E" d="m150.16 72.72 63-7.68c.9-.11 1.8-.03 2.66.22l-63 7.7a6.48 6.48 0 0 0-2.66-.24Z"/></g><mask id="m" width="71" height="29" x="152" y="65" maskUnits="userSpaceOnUse" style="mask-type:luminance"><path fill="#fff" d="m215.72 86-63 7.68c3.4-.4 6.24-3.56 6.84-8.05.7-5.66-2.26-11.3-6.75-12.62l63-7.69c4.48 1.33 7.5 6.97 6.74 12.63-.6 4.48-3.45 7.63-6.84 8.06Z"/></mask><g mask="url(#m)"><path fill="#030C1E" d="m152.82 72.96 63-7.7c.86.27 1.67.67 2.4 1.21l-63 7.68a7.71 7.71 0 0 0-2.4-1.2"/><path fill="#030D1F" d="m155.22 74.15 63-7.68a9.6 9.6 0 0 1 1.87 1.83l-63 7.68a9.52 9.52 0 0 0-1.87-1.83Z"/><path fill="#030D20" d="m157.08 75.99 63-7.68c.62.79 1.13 1.65 1.52 2.56l-63 7.7c-.4-.91-.9-1.78-1.52-2.57"/><path fill="#030E22" d="m158.6 78.56 63-7.69a13.26 13.26 0 0 1 .5 9.12l-62.97 7.67a12.88 12.88 0 0 0-.5-9.1"/><path fill="#030D20" d="m159.13 87.66 63-7.67c-.28.9-.7 1.77-1.21 2.56l-63 7.68c.52-.8.93-1.66 1.2-2.57Z"/><path fill="#030D1F" d="m157.89 90.24 62.99-7.68a8.45 8.45 0 0 1-1.68 1.9l-63 7.67a8.58 8.58 0 0 0 1.69-1.89Z"/><path fill="#030C1E" d="m156.2 92.14 63-7.68c-1 .83-2.2 1.37-3.48 1.54l-63 7.68c1.28-.16 2.5-.7 3.48-1.54Z"/></g><path fill="#DE2B2F" d="M128.66 29.02c29.92 8.76 56.18 33.94 72.02 68.93l-55.75 41.02-34.47 25.37-24-42.57-40.33-71.62c23.49-22.02 53.43-29.65 82.53-21.13Zm-13.62 107.36c9.34 2.75 18.2-4.57 19.8-16.36L101 110.08c-1.59 11.78 4.73 23.56 14.05 26.3m35.02-42.94c4.5 1.3 8.75-2.2 9.5-7.87.77-5.66-2.25-11.3-6.74-12.62-4.49-1.31-8.73 2.2-9.49 7.84-.75 5.65 2.26 11.32 6.73 12.65Zm-55.6-14.78c4.48 1.3 8.74-2.2 9.5-7.86.75-5.66-2.26-11.3-6.75-12.62-4.49-1.31-8.73 2.2-9.49 7.85-.76 5.65 2.26 11.3 6.73 12.63Z"/><path fill="#051739" d="M97.2 58.19c4.5 1.31 7.5 6.97 6.75 12.62-.76 5.65-5.01 9.17-9.5 7.85-4.49-1.31-7.5-6.97-6.73-12.63.76-5.66 5.01-9.16 9.48-7.84ZM134.83 120.04c-1.59 11.78-10.44 19.1-19.8 16.36-9.35-2.75-15.63-14.52-14.05-26.3l33.85 9.94Z"/><path fill="#6E1B1C" d="m144.93 138.97 63-7.68-34.48 25.37-63 7.68 34.48-25.37Z"/><path fill="#051739" d="M152.82 72.95c4.49 1.31 7.5 6.97 6.75 12.62-.76 5.65-5.02 9.18-9.5 7.87-4.5-1.32-7.51-7-6.74-12.65.77-5.64 5.06-9.16 9.49-7.84Z"/><path fill="#68191B" d="m198.87 240.42 63-7.68-103.18 42.61-63 7.68 103.18-42.61Z"/><path fill="#6E1B1C" d="m200.67 97.96 63-7.7-55.75 41.05-63 7.68 55.75-41.03Z"/><mask id="n" width="136" height="77" x="128" y="21" maskUnits="userSpaceOnUse" style="mask-type:luminance"><path fill="#fff" d="m128.66 29.02 63-7.67c29.93 8.75 56.17 33.91 72.01 68.9l-62.99 7.7c-15.84-35-42.1-60.12-72.02-68.93Z"/></mask><g mask="url(#n)"><path fill="#6A191B" d="m128.66 29.02 63-7.67a96.56 96.56 0 0 1 29.9 15.1l-63 7.68a96.46 96.46 0 0 0-29.9-15.1Z"/><path fill="#6E1A1C" d="m158.61 44.13 63-7.68a122.59 122.59 0 0 1 23.74 23.25l-63 7.69a121.96 121.96 0 0 0-23.74-23.25"/><path fill="#721B1D" d="m182.35 67.42 63-7.7a149.76 149.76 0 0 1 18.33 30.54l-63 7.69a150.3 150.3 0 0 0-18.33-30.53Z"/></g><path fill="#832022" d="m209.95 158.1 63-7.68-11.07 82.31-63 7.68 11.07-82.31Z"/><path fill="#DE2B2F" d="m209.95 158.11-11.08 82.31-103.18 42.62-85.05-98 11.07-82.3 64.78 19.05 23.96 42.56L144.93 139l65.02 19.12Z"/><path fill="#69191B" d="m144.93 138.97 63-7.68 65.02 19.13-63 7.68-65.02-19.13Z"/></svg>