<svg xmlns="http://www.w3.org/2000/svg" fill="none" viewBox="0 0 177 188"><path fill="#69191B" d="m1.5 70.57 42.35-10.52 45.79 7.58L47.3 78.14 1.5 70.57Z"/><mask id="a" width="45" height="12" x="49" y="37" maskUnits="userSpaceOnUse" style="mask-type:luminance"><path fill="#fff" d="M91.47 37.53c.6.1 1.23.09 1.83-.06L50.95 47.98c-.6.15-1.22.18-1.83.07 12.71-3.15 29.28-10 42.35-10.52Z"/></mask><g mask="url(#a)"><path fill="#6A191B" d="m49.12 48.05 42.35-10.52c.6.1 1.23.09 1.83-.06L50.96 47.98c-.6.15-1.23.18-1.84.07Z"/></g><mask id="b" width="49" height="26" x="43" y="23" maskUnits="userSpaceOnUse" style="mask-type:luminance"><path fill="#fff" d="M85.8 29.48c0 3.92 2.5 7.53 5.67 8.05L49.12 48.05c-3.16-.53-5.7-4.13-5.65-8.05 0-3.13 1.73-5.52 3.99-6.07L89.8 23.4c-2.28.55-3.95 2.94-4 6.07Z"/></mask><g mask="url(#b)"><path fill="#6A191B" d="M47.46 33.95 89.8 23.43a4.6 4.6 0 0 0-2.25 1.34L45.2 35.3a4.7 4.7 0 0 1 2.26-1.34Z"/><path fill="#6E1A1C" d="m45.2 35.26 42.35-10.52c-.4.42-.73.9-.98 1.42L44.22 36.68c.26-.52.59-1 .98-1.42Z"/><path fill="#721B1D" d="m44.22 36.68 42.35-10.52c-.29.59-.5 1.21-.62 1.86L43.61 38.53a7.4 7.4 0 0 1 .61-1.85Z"/><path fill="#761C1E" d="m43.6 38.53 42.35-10.51a8.84 8.84 0 0 0 1.1 6.18L44.73 44.7a9.21 9.21 0 0 1-1.11-6.18Z"/><path fill="#721B1D" d="M44.72 44.71 87.06 34.2c.34.59.76 1.13 1.24 1.62L45.96 46.33a7.72 7.72 0 0 1-1.24-1.62Z"/><path fill="#6E1A1C" d="M45.96 46.33 88.3 35.82c.43.43.9.8 1.43 1.1L47.4 47.41c-.53-.29-1-.66-1.43-1.09Z"/><path fill="#6A191B" d="M47.39 47.43 89.73 36.9c.54.3 1.13.52 1.74.62L49.12 48.05c-.6-.1-1.2-.31-1.73-.62Z"/></g><mask id="c" width="45" height="11" x="47" y="23" maskUnits="userSpaceOnUse" style="mask-type:luminance"><path fill="#fff" d="M47.46 33.95 89.8 23.43c.6-.15 1.22-.17 1.83-.07L49.3 33.9c-.61-.11-1.23-.09-1.83.06Z"/></mask><g mask="url(#c)"><path fill="#030C1E" d="M47.46 33.95 89.8 23.43c.6-.15 1.22-.17 1.83-.07L49.3 33.9c-.61-.11-1.23-.09-1.83.06Z"/></g><path fill="#7E1E20" d="m47.3 78.14 42.34-10.51 19.92 27.03-42.35 10.52-19.9-27.04Z"/><mask id="d" width="49" height="25" x="49" y="23" maskUnits="userSpaceOnUse" style="mask-type:luminance"><path fill="#fff" d="M93.3 37.47 50.96 47.98c2.28-.56 3.95-2.95 3.99-6.07 0-3.91-2.5-7.52-5.66-8.04l42.34-10.53c3.18.53 5.7 4.14 5.66 8.06-.04 3.11-1.7 5.5-4 6.07Z"/></mask><g mask="url(#d)"><path fill="#030C1E" d="m49.29 33.85 42.34-10.52c.61.1 1.2.31 1.74.62L51.03 34.47a5.3 5.3 0 0 0-1.74-.62"/><path fill="#030D1F" d="m51.03 34.47 42.34-10.52c.52.3 1 .66 1.43 1.1l-42.34 10.5c-.43-.42-.9-.78-1.43-1.08Z"/><path fill="#030D20" d="M52.46 35.56 94.8 25.04c.48.49.9 1.03 1.25 1.63L53.7 37.19a8.33 8.33 0 0 0-1.24-1.63Z"/><path fill="#030E22" d="m53.7 37.19 42.34-10.52a9.21 9.21 0 0 1 1.1 6.18L54.8 43.36a9.15 9.15 0 0 0-1.1-6.17Z"/><path fill="#030D20" d="m54.8 43.36 42.35-10.51a7.4 7.4 0 0 1-.62 1.85L54.2 45.22c.3-.59.5-1.21.61-1.86Z"/><path fill="#030D1F" d="M54.2 45.22 96.52 34.7c-.26.52-.59 1-.98 1.42L53.2 46.64c.4-.42.74-.9 1-1.42Z"/><path fill="#030C1E" d="m53.2 46.64 42.35-10.52a4.6 4.6 0 0 1-2.25 1.35L50.96 47.98a4.57 4.57 0 0 0 2.24-1.34Z"/></g><mask id="e" width="55" height="28" x="56" y="58" maskUnits="userSpaceOnUse" style="mask-type:luminance"><path fill="#fff" d="M110.34 75.2c-7.46 1.82-33.42 8.27-42.34 10.52a13.2 13.2 0 0 1-8.4-5.73 19.02 19.02 0 0 1-3.39-11.05l42.34-10.51c-.09 8.16 5.2 15.68 11.79 16.77Z"/></mask><g mask="url(#e)"><path fill="#761C1E" d="m56.21 68.94 42.34-10.51c-.03 3.45.87 6.84 2.6 9.82L58.81 78.77a19.07 19.07 0 0 1-2.6-9.83Z"/><path fill="#721B1D" d="m58.81 78.77 42.34-10.52c.72 1.23 1.6 2.37 2.6 3.38L61.41 82.15a16.8 16.8 0 0 1-2.6-3.38Z"/><path fill="#6E1A1C" d="m61.4 82.15 42.34-10.52c.9.89 1.9 1.65 2.98 2.28L64.38 84.43c-1.1-.62-2.1-1.4-2.97-2.28Z"/><path fill="#6A191B" d="m64.38 84.43 42.34-10.52c1.13.63 2.35 1.07 3.62 1.3L68 85.7c-1.27-.2-2.5-.65-3.62-1.28Z"/></g><mask id="f" width="47" height="11" x="68" y="75" maskUnits="userSpaceOnUse" style="mask-type:luminance"><path fill="#fff" d="M110.34 75.2c1.27.22 2.57.17 3.81-.14L71.82 85.6c-1.25.3-2.55.35-3.82.13 12.7-3.16 29.27-10 42.34-10.52Z"/></mask><g mask="url(#f)"><path fill="#6A191B" d="m68 85.72 42.34-10.52c1.27.22 2.57.17 3.81-.14L71.82 85.6c-1.25.3-2.55.35-3.82.13Z"/></g><path fill="#030C1E" d="m56.21 68.94 42.34-10.51 23.93 3.95L80.13 72.9 56.2 68.94Z"/><mask id="g" width="52" height="24" x="71" y="62" maskUnits="userSpaceOnUse" style="mask-type:luminance"><path fill="#fff" d="M114.15 75.06 71.82 85.6c4.76-1.19 8.24-6.17 8.3-12.7l42.36-10.5c-.08 6.52-3.56 11.5-8.33 12.67Z"/></mask><g mask="url(#g)"><path fill="#030E22" d="m80.14 72.9 42.34-10.52c0 1.02-.1 2.05-.29 3.05L79.84 75.95c.2-1 .3-2.03.3-3.05Z"/><path fill="#030D20" d="m79.83 75.95 42.35-10.52a14.94 14.94 0 0 1-1.28 3.87L78.56 79.8c.6-1.22 1.02-2.52 1.27-3.86Z"/><path fill="#030D1F" d="M78.56 79.81 120.9 69.3a12 12 0 0 1-2.05 2.96L76.51 82.8a12.5 12.5 0 0 0 2.05-2.98Z"/><path fill="#030C1E" d="m76.5 82.79 42.35-10.53a9.64 9.64 0 0 1-4.7 2.8L71.82 85.6a9.72 9.72 0 0 0 4.69-2.8Z"/></g><mask id="h" width="66" height="13" x="45" y="0" maskUnits="userSpaceOnUse" style="mask-type:luminance"><path fill="#fff" d="M45.46 12.16 87.8 1.65a56.3 56.3 0 0 1 22.85-.87L68.31 11.3a56.25 56.25 0 0 0-22.85.86Z"/></mask><g mask="url(#h)"><path fill="#6A191B" d="M45.46 12.16 87.8 1.65a56.3 56.3 0 0 1 22.85-.87L68.31 11.3a56.25 56.25 0 0 0-22.85.86Z"/></g><mask id="i" width="45" height="12" x="86" y="42" maskUnits="userSpaceOnUse" style="mask-type:luminance"><path fill="#fff" d="M128.42 42.03a5.4 5.4 0 0 0 2.23.92L88.3 53.48a5.58 5.58 0 0 1-2.22-.93l42.34-10.52Z"/></mask><g mask="url(#i)"><path fill="#6E1A1C" d="m85.14 51.76 42.35-10.51c.42.42.9.8 1.43 1.09L86.57 52.85c-.52-.3-1-.66-1.43-1.09Z"/><path fill="#6A191B" d="m86.57 52.85 42.35-10.51c.53.3 1.12.51 1.73.61L88.3 53.48c-.6-.1-1.2-.32-1.73-.63Z"/></g><mask id="j" width="45" height="12" x="88" y="42" maskUnits="userSpaceOnUse" style="mask-type:luminance"><path fill="#fff" d="M130.65 42.95c.6.1 1.23.09 1.83-.06L90.13 53.41c-.6.15-1.22.17-1.83.07 12.71-3.16 29.27-10 42.35-10.53Z"/></mask><g mask="url(#j)"><path fill="#6A191B" d="m88.3 53.48 42.35-10.53c.6.1 1.23.09 1.83-.06L90.13 53.41c-.6.15-1.22.17-1.83.07Z"/></g><mask id="k" width="48" height="25" x="82" y="28" maskUnits="userSpaceOnUse" style="mask-type:luminance"><path fill="#fff" d="M124.99 34.9a8.67 8.67 0 0 0 3.47 7.13L86.1 52.55a8.67 8.67 0 0 1-3.42-7.13c0-3.13 1.73-5.53 3.98-6.07l42.35-10.52c-2.32.55-4 2.93-4.03 6.07Z"/></mask><g mask="url(#k)"><path fill="#6A191B" d="m86.64 39.33 42.35-10.52a4.6 4.6 0 0 0-2.26 1.35L84.4 40.67a4.7 4.7 0 0 1 2.25-1.34Z"/><path fill="#6E1A1C" d="m84.39 40.67 42.34-10.51c-.4.42-.73.9-.98 1.42L83.4 42.1c.25-.52.58-1 .98-1.43Z"/><path fill="#721B1D" d="m83.4 42.1 42.34-10.52c-.28.59-.49 1.21-.6 1.86L82.79 43.95a7.4 7.4 0 0 1 .62-1.85Z"/><path fill="#761C1E" d="m82.8 43.95 42.34-10.51a9.22 9.22 0 0 0 1.1 6.18L83.9 50.14a9.16 9.16 0 0 1-1.1-6.19Z"/><path fill="#721B1D" d="m83.9 50.14 42.34-10.52c.35.59.77 1.14 1.25 1.63L85.14 51.76a8.27 8.27 0 0 1-1.24-1.62Z"/><path fill="#6E1A1C" d="m85.14 51.76 42.35-10.51c.42.42.9.8 1.43 1.09L86.57 52.85c-.52-.3-1-.66-1.43-1.09Z"/></g><mask id="l" width="45" height="12" x="86" y="28" maskUnits="userSpaceOnUse" style="mask-type:luminance"><path fill="#fff" d="m86.64 39.33 42.35-10.52c.6-.14 1.22-.17 1.82-.06L88.47 39.27c-.6-.1-1.23-.09-1.83.06Z"/></mask><g mask="url(#l)"><path fill="#030C1E" d="m86.64 39.33 42.35-10.52c.6-.14 1.22-.17 1.82-.06L88.47 39.27c-.6-.1-1.23-.09-1.83.06Z"/></g><mask id="m" width="49" height="26" x="88" y="28" maskUnits="userSpaceOnUse" style="mask-type:luminance"><path fill="#fff" d="M132.48 42.9 90.13 53.4c2.3-.56 3.96-2.95 4-6.06 0-3.92-2.49-7.52-5.66-8.04l42.34-10.53c3.17.53 5.7 4.13 5.66 8.05-.04 3.1-1.72 5.5-3.99 6.07Z"/></mask><g mask="url(#m)"><path fill="#030C1E" d="m88.47 39.27 42.34-10.52c.62.1 1.2.31 1.74.62L90.2 39.89a5.3 5.3 0 0 0-1.73-.62"/><path fill="#030D1F" d="m90.21 39.88 42.34-10.51c.52.3 1 .66 1.43 1.1l-42.35 10.5c-.42-.42-.9-.79-1.42-1.09Z"/><path fill="#030D20" d="m91.63 40.98 42.35-10.52c.48.49.9 1.03 1.25 1.62L92.88 42.62a8.04 8.04 0 0 0-1.25-1.63"/><path fill="#030E22" d="m92.88 42.62 42.35-10.53a9.12 9.12 0 0 1 1.1 6.18L94 48.77a8.83 8.83 0 0 0-1.1-6.16"/><path fill="#030D20" d="m94 48.78 42.35-10.52a7.19 7.19 0 0 1-.61 1.86L93.4 50.63c.29-.58.5-1.2.6-1.85Z"/><path fill="#030D1F" d="m93.38 50.63 42.33-10.51c-.25.52-.59 1-.99 1.43L92.4 52.06c.4-.42.73-.9.99-1.43Z"/><path fill="#030C1E" d="m92.39 52.06 42.33-10.51a4.7 4.7 0 0 1-2.24 1.34L90.13 53.41a4.6 4.6 0 0 0 2.26-1.35Z"/></g><path fill="#C63033" d="M68.3 11.32c21.16 3.47 41.18 18.45 54.92 41l-34.6 32.66-21.4 20.2-19.94-27.04-33.52-45.5c14.18-16.98 33.97-24.7 54.55-21.32Zm-.3 74.4c6.6 1.09 12.03-4.65 12.14-12.82l-23.92-3.96c-.1 8.18 5.2 15.69 11.79 16.78m20.3-32.24c3.18.52 5.78-2.24 5.83-6.17.04-3.92-2.49-7.52-5.66-8.04-3.18-.52-5.78 2.23-5.82 6.15-.04 3.91 2.49 7.53 5.65 8.06Zm-39.18-5.43c3.17.52 5.78-2.23 5.83-6.15.04-3.93-2.5-7.53-5.67-8.05-3.17-.52-5.77 2.23-5.81 6.15-.05 3.92 2.49 7.52 5.65 8.05Z"/><path fill="#051739" d="M49.29 33.85c3.17.52 5.7 4.13 5.66 8.05-.05 3.91-2.66 6.67-5.83 6.15-3.17-.52-5.7-4.13-5.65-8.05.04-3.93 2.65-6.68 5.82-6.15ZM80.14 72.9c-.1 8.17-5.52 13.91-12.14 12.82-6.61-1.1-11.88-8.6-11.79-16.78l23.93 3.96Z"/><path fill="#6E1B1C" d="m88.62 84.98 42.33-10.51-21.39 20.2-42.35 10.5 21.4-20.19Z"/><path fill="#051739" d="M88.47 39.27c3.17.52 5.7 4.13 5.66 8.04-.04 3.92-2.65 6.69-5.83 6.17-3.17-.52-5.7-4.15-5.65-8.06.05-3.92 2.69-6.68 5.82-6.15Z"/><path fill="#68191B" d="m133.92 149.68 42.35-10.52-66.84 37.72-42.35 10.52 66.84-37.72Z"/><path fill="#6E1B1C" d="m123.21 52.32 42.35-10.53-34.6 32.68-42.34 10.51 34.6-32.66Z"/><mask id="n" width="98" height="53" x="68" y="0" maskUnits="userSpaceOnUse" style="mask-type:luminance"><path fill="#fff" d="M68.3 11.32 110.66.81c21.15 3.46 41.17 18.43 54.91 40.98l-42.34 10.53c-13.74-22.55-33.76-37.5-54.91-41Z"/></mask><g mask="url(#n)"><path fill="#6A191B" d="M68.3 11.32 110.66.81a66.38 66.38 0 0 1 21.67 7.8L89.98 19.12a66.3 66.3 0 0 0-21.67-7.8Z"/><path fill="#6E1A1C" d="M90.01 19.11 132.36 8.6a84.24 84.24 0 0 1 18.14 13.87l-42.34 10.52A83.84 83.84 0 0 0 90 19.12"/><path fill="#721B1D" d="M108.16 33.02 150.5 22.5a102.94 102.94 0 0 1 15.06 19.3l-42.34 10.52c-4.24-7.01-9.3-13.49-15.06-19.3Z"/></g><path fill="#832022" d="m134.59 92.58 42.33-10.51-.66 57.1-42.34 10.5.67-57.09Z"/><path fill="#C63033" d="m134.59 92.58-.67 57.1-66.84 37.72L.85 127.66l.65-57.09 45.8 7.57 19.91 27.04 21.4-20.2 45.98 7.6Z"/><path fill="#69191B" d="m88.62 84.98 42.33-10.51 45.97 7.6-42.33 10.51-45.97-7.6Z"/></svg>