<svg xmlns="http://www.w3.org/2000/svg" fill="none" viewBox="0 0 210 218"><mask id="a" width="41" height="23" x="117" y="130" maskUnits="userSpaceOnUse" style="mask-type:luminance"><path fill="#fff" d="M118.75 132.7a2.7 2.7 0 0 0 2.19-2.65l36.47 19.84a2.7 2.7 0 0 1-2.19 2.65c-.4.06-.8-.01-1.16-.2L117.6 132.5c.36.2.77.26 1.16.2Z"/></mask><g mask="url(#a)"><path fill="#347777" d="m154.1 152.36-36.47-19.84c.3.16.65.23 1 .2l36.47 19.84c-.35.03-.7-.04-1-.2Z"/><path fill="#357C7C" d="m155.06 152.56-36.48-19.84h.17c.2-.02.37-.07.55-.15l36.46 19.84c-.17.07-.35.12-.53.15h-.17Z"/><path fill="#347777" d="m155.76 152.39-36.42-19.84c.34-.14.64-.36.9-.63l36.47 19.84c-.26.27-.56.49-.9.63"/><path fill="#327373" d="m156.66 151.76-36.47-19.84c.19-.2.34-.43.45-.67l36.48 19.84c-.12.24-.27.47-.46.67Z"/><path fill="#306F6F" d="m157.12 151.09-36.48-19.88c.2-.37.3-.78.3-1.2l36.47 19.84c0 .42-.1.83-.3 1.2"/></g><mask id="b" width="39" height="23" x="116" y="130" maskUnits="userSpaceOnUse" style="mask-type:luminance"><path fill="#fff" d="M154.06 152.34 117.6 132.5a2 2 0 0 1-1-1.84l36.47 19.84a2 2 0 0 0 1 1.84Z"/></mask><g mask="url(#b)"><path fill="#030C1E" d="M154.06 152.34 117.6 132.5a2 2 0 0 1-1-1.84l36.47 19.84a2 2 0 0 0 1 1.84Z"/></g><path fill="#306F6F" d="m157.4 149.89-36.47-19.83.02-13.6 36.48 19.84-.03 13.59Z"/><path fill="#030C1E" d="m153.06 150.5-36.48-19.83.03-6.58 36.45 19.84v6.57ZM153.06 143.93l-36.45-19.84v-2.33l36.46 19.84v2.33Z"/><mask id="c" width="92" height="37" x="62" y="124" maskUnits="userSpaceOnUse" style="mask-type:luminance"><path fill="#fff" d="M87.04 139.88c10.51-1.48 21-6.85 29.56-15.8l36.47 19.84c-8.53 8.95-19.04 14.32-29.55 15.8-8.41 1.27-17-.2-24.5-4.22l-36.47-19.84a39.37 39.37 0 0 0 24.5 4.22Z"/></mask><g mask="url(#c)"><path fill="#327373" d="m99.02 155.51-36.47-19.84.71.37 36.47 19.84-.7-.37Z"/><path fill="#347777" d="m99.73 155.88-36.47-19.84a38.93 38.93 0 0 0 20.25 4.19l36.47 19.84c-7 .45-14-1-20.25-4.19Z"/><path fill="#357C7C" d="m119.98 160.07-36.47-19.86a46.54 46.54 0 0 0 14.99-3.52l36.47 19.84a46.32 46.32 0 0 1-14.98 3.52"/><path fill="#347777" d="M134.97 156.55 98.5 136.71c6.85-2.91 13.01-7.21 18.1-12.63l36.47 19.84a53.83 53.83 0 0 1-18.1 12.63Z"/></g><path fill="#030E23" d="m148.84 142.19-36.48-19.83 4.25-.6 36.46 19.84-4.23.59Z"/><mask id="d" width="45" height="35" x="126" y="83" maskUnits="userSpaceOnUse" style="mask-type:luminance"><path fill="#fff" d="M133.72 88.44a7.24 7.24 0 0 0-2.18-5.38l36.47 19.84a7.24 7.24 0 0 1 2.18 5.37c0 4.44-3.35 8.5-7.45 9.08l-36.48-19.84c4.08-.57 7.45-4.64 7.45-9.07Z"/></mask><g mask="url(#d)"><path fill="#357C7C" d="m162.74 117.35-36.48-19.84a7.36 7.36 0 0 0 1.86-.51l36.47 19.84c-.6.25-1.22.42-1.85.51Z"/><path fill="#347777" d="M164.59 116.84 128.12 97a8.9 8.9 0 0 0 3.06-2.18l36.47 19.84a8.91 8.91 0 0 1-3.06 2.18Z"/><path fill="#327373" d="m167.66 114.66-36.47-19.84a10 10 0 0 0 1.56-2.28l36.47 19.84c-.42.83-.94 1.6-1.56 2.28Z"/><path fill="#306F6F" d="m169.21 112.38-36.47-19.84a9.28 9.28 0 0 0 1-4.1 7 7 0 0 0-3.45-6.31l36.47 19.84a7 7 0 0 1 3.45 6.3 9.44 9.44 0 0 1-1 4.11Z"/></g><mask id="e" width="40" height="21" x="123" y="97" maskUnits="userSpaceOnUse" style="mask-type:luminance"><path fill="#fff" d="M123.33 97.29c.94.3 1.93.37 2.9.22l36.48 19.84c-.98.15-1.97.07-2.9-.22l-36.48-19.84Z"/></mask><g mask="url(#e)"><path fill="#347777" d="M158.88 116.73 122.4 96.89c1.01.52 2.15.75 3.28.68l36.47 19.84a6.3 6.3 0 0 1-3.28-.68Z"/><path fill="#357C7C" d="m162.16 117.41-36.47-19.84.58-.06 36.47 19.84-.59.06Z"/></g><mask id="f" width="85" height="34" x="64" y="122" maskUnits="userSpaceOnUse" style="mask-type:luminance"><path fill="#fff" d="m101.33 151.21-36.47-19.84a35.66 35.66 0 0 0 22.15 3.81 45.86 45.86 0 0 0 25.32-12.83l36.5 19.86a45.77 45.77 0 0 1-25.3 12.84 35.57 35.57 0 0 1-22.2-3.84Z"/></mask><g mask="url(#f)"><path fill="#030D1F" d="m101.33 151.21-36.47-19.84.64.34 36.47 19.84-.64-.34Z"/><path fill="#030D20" d="m102.02 151.57-36.48-19.84a35.15 35.15 0 0 0 18.3 3.78l36.5 19.84c-6.33.41-12.66-.9-18.3-3.78"/><path fill="#030E22" d="m120.33 155.35-36.47-19.84c1.07-.06 2.14-.16 3.21-.31a42.28 42.28 0 0 0 10.4-2.89l36.47 19.84a41.85 41.85 0 0 1-13.6 3.2Z"/><path fill="#030D20" d="m133.91 152.15-36.47-19.84a48.09 48.09 0 0 0 14.92-10l36.48 19.9a48.21 48.21 0 0 1-14.93 10"/></g><path fill="#378080" d="m144.82 142.76-36.46-19.84 4-.56 36.48 19.83-4.02.57Z"/><mask id="g" width="38" height="22" x="122" y="96" maskUnits="userSpaceOnUse" style="mask-type:luminance"><path fill="#fff" d="M122.33 96.83c.35.19.71.34 1.09.46l36.46 19.84a6.5 6.5 0 0 1-1.07-.46l-36.48-19.84Z"/></mask><g mask="url(#g)"><path fill="#327373" d="m158.75 116.67-36.42-19.84.13.06 36.47 19.84-.13-.06"/><path fill="#347777" d="M158.88 116.73 122.4 96.89c1.01.52 2.15.75 3.28.68l36.47 19.84a6.3 6.3 0 0 1-3.28-.68Z"/></g><mask id="h" width="39" height="21" x="130" y="82" maskUnits="userSpaceOnUse" style="mask-type:luminance"><path fill="#fff" d="M131.54 83.06a6.28 6.28 0 0 0-1.28-.93l36.48 19.84c.46.25.89.57 1.27.93l-36.47-19.84Z"/></mask><g mask="url(#h)"><path fill="#306F6F" d="m169.21 112.38-36.47-19.84a9.28 9.28 0 0 0 1-4.1 7 7 0 0 0-3.45-6.31l36.47 19.84a7 7 0 0 1 3.45 6.3 9.44 9.44 0 0 1-1 4.11Z"/></g><mask id="i" width="38" height="21" x="107" y="122" maskUnits="userSpaceOnUse" style="mask-type:luminance"><path fill="#fff" d="M107.2 122.72c.35.19.76.26 1.16.2l36.46 19.84c-.4.06-.8-.01-1.16-.2l-36.47-19.84Z"/></mask><g mask="url(#i)"><path fill="#347777" d="m143.7 142.58-36.46-19.84c.3.16.65.22 1 .19l36.45 19.84a1.9 1.9 0 0 1-.94-.19"/><path fill="#357C7C" d="m144.66 142.77-36.47-19.84h.14l36.48 19.84h-.18"/></g><path fill="#030E23" d="m144.84 138.07-36.48-19.84 12.6-1.77 36.47 19.84-12.6 1.77Z"/><mask id="j" width="39" height="25" x="106" y="118" maskUnits="userSpaceOnUse" style="mask-type:luminance"><path fill="#fff" d="m143.66 142.56-36.47-19.84a1.99 1.99 0 0 1-1-1.84 2.72 2.72 0 0 1 2.14-2.67l36.48 19.84a2.72 2.72 0 0 0-2.19 2.65 2.05 2.05 0 0 0 1.04 1.86Z"/></mask><g mask="url(#j)"><path fill="#030C1E" d="m143.66 142.56-36.47-19.84a1.99 1.99 0 0 1-1-1.84c.01-.41.11-.82.3-1.19l36.47 19.84c-.2.37-.3.78-.3 1.19a2.05 2.05 0 0 0 1 1.84Z"/><path fill="#030D1F" d="m142.94 139.53-36.47-19.84c.13-.24.28-.47.47-.67l36.47 19.84c-.2.2-.35.42-.47.67Z"/><path fill="#030D20" d="m143.4 138.86-36.47-19.84c.25-.28.55-.5.9-.64l36.5 19.83c-.34.15-.64.36-.89.64"/><path fill="#030E22" d="m144.34 138.21-36.48-19.84c.18-.07.36-.12.55-.15l36.47 19.84a2.4 2.4 0 0 0-.54.15Z"/></g><mask id="k" width="41" height="21" x="126" y="81" maskUnits="userSpaceOnUse" style="mask-type:luminance"><path fill="#fff" d="m130.26 82.13 36.48 19.84a6.37 6.37 0 0 0-4-.68l-36.4-19.84c1.34-.2 2.72.04 3.92.68Z"/></mask><g mask="url(#k)"><path fill="#030E22" d="m162.76 101.29-36.42-19.84.56-.06 36.44 19.82-.58.06"/><path fill="#030D20" d="m163.34 101.21-36.48-19.84a6.31 6.31 0 0 1 3.29.68l36.47 19.84a6.31 6.31 0 0 0-3.28-.68Z"/><path fill="#030D1F" d="m166.62 101.91-36.47-19.84.11.06 36.48 19.84-.13-.06Z"/></g><mask id="l" width="45" height="36" x="118" y="81" maskUnits="userSpaceOnUse" style="mask-type:luminance"><path fill="#fff" d="m158.75 116.67-36.42-19.84a7 7 0 0 1-3.44-6.3c0-4.44 3.34-8.5 7.45-9.08l36.47 19.84c-4.1.58-7.44 4.64-7.46 9.08a7 7 0 0 0 3.4 6.3Z"/></mask><g mask="url(#l)"><path fill="#030C1E" d="m158.75 116.67-36.42-19.84a7 7 0 0 1-3.44-6.3 9.32 9.32 0 0 1 1-4.11l36.45 19.84a9.32 9.32 0 0 0-1 4.11 7 7 0 0 0 3.44 6.3"/><path fill="#030D1F" d="m156.34 106.26-36.48-19.84a9.9 9.9 0 0 1 1.56-2.28l36.48 19.84a9.9 9.9 0 0 0-1.56 2.28Z"/><path fill="#030D20" d="m157.84 103.98-36.5-19.84a8.77 8.77 0 0 1 3.05-2.18l36.48 19.84a8.77 8.77 0 0 0-3.06 2.18"/><path fill="#030E22" d="m160.9 101.8-36.47-19.84c.6-.25 1.23-.42 1.86-.51l36.47 19.84c-.63.09-1.26.26-1.85.51Z"/></g><path fill="#051738" d="M162.76 101.29c4.1-.58 7.44 2.55 7.43 7-.01 4.45-3.34 8.5-7.45 9.08-4.12.58-7.45-2.55-7.44-7 .01-4.45 3.35-8.5 7.46-9.08Z"/><path fill="#378080" d="M165.06 74.5 128.6 54.66l44.88-6.31 36.47 19.84-44.88 6.31Z"/><mask id="m" width="45" height="26" x="57" y="126" maskUnits="userSpaceOnUse" style="mask-type:luminance"><path fill="#fff" d="M57.84 126.3c-.1-.1-.23-.19-.36-.26l36.47 19.84c.13.07.26.16.36.26a34.6 34.6 0 0 0 7.02 5.07l-36.47-19.84a34.6 34.6 0 0 1-7.02-5.07Z"/></mask><g mask="url(#m)"><path fill="#306F6F" d="m101.33 151.21-36.47-19.84a34.61 34.61 0 0 1-7.06-5.09c-.1-.1-.23-.19-.36-.26l36.47 19.84c.13.07.26.16.36.26a34.6 34.6 0 0 0 7.06 5.09Z"/></g><mask id="n" width="38" height="21" x="56" y="125" maskUnits="userSpaceOnUse" style="mask-type:luminance"><path fill="#fff" d="m57.48 126.04 36.48 19.84c-.36-.2-.77-.26-1.16-.2l-36.46-19.84c.39-.06.8.01 1.14.2Z"/></mask><g mask="url(#n)"><path fill="#030E22" d="m92.8 145.68-36.46-19.84h.15l36.48 19.84h-.16"/><path fill="#030D20" d="m92.95 145.66-36.47-19.84c.35-.02.7.04 1 .2l36.47 19.84c-.3-.16-.65-.23-1-.2Z"/></g><mask id="o" width="46" height="31" x="54" y="125" maskUnits="userSpaceOnUse" style="mask-type:luminance"><path fill="#fff" d="m99.03 155.51-36.47-19.84a38.46 38.46 0 0 1-7.77-5.61 2.61 2.61 0 0 1 1.54-4.22l36.47 19.84a2.6 2.6 0 0 0-1.54 4.22 38.46 38.46 0 0 0 7.77 5.61Z"/></mask><g mask="url(#o)"><path fill="#030C1E" d="m99.03 155.51-36.48-19.84a38.46 38.46 0 0 1-7.77-5.61 2.37 2.37 0 0 1-.36-2.77l36.47 19.84a2.37 2.37 0 0 0 .36 2.77 38.46 38.46 0 0 0 7.78 5.61Z"/><path fill="#030D1F" d="m90.9 147.13-36.48-19.84c.1-.2.23-.37.36-.54l.1-.13 36.45 19.84-.1.13c-.14.16-.26.35-.36.54"/><path fill="#030D20" d="m91.34 146.46-36.47-19.84c.25-.27.55-.48.89-.63l36.47 19.84a2.5 2.5 0 0 0-.9.63Z"/><path fill="#030E22" d="m92.24 145.83-36.47-19.84c.18-.07.37-.13.55-.15l36.47 19.84c-.19.02-.37.07-.55.15Z"/></g><mask id="p" width="45" height="35" x="47" y="95" maskUnits="userSpaceOnUse" style="mask-type:luminance"><path fill="#fff" d="m53.85 95.89 12.74 6.93 12.8 7 9.5 5.16c.42.24.94.79 1.43.79a7.44 7.44 0 0 1 1.58 4.75c0 4.43-3.35 8.5-7.45 9.08l-36.47-19.84c4.11-.58 7.44-4.65 7.45-9.08a7.44 7.44 0 0 0-1.58-4.79Z"/></mask><g mask="url(#p)"><path fill="#357C7C" d="m84.45 129.56-36.47-19.84a7.4 7.4 0 0 0 1.85-.52l36.5 19.84a7.4 7.4 0 0 1-1.85.52"/><path fill="#347777" d="m86.33 129.04-36.5-19.83a8.78 8.78 0 0 0 3.08-2.18l36.42 19.83a8.78 8.78 0 0 1-3.06 2.18"/><path fill="#327373" d="m89.33 126.86-36.47-19.84a9.78 9.78 0 0 0 1.56-2.28l36.47 19.84a9.8 9.8 0 0 1-1.56 2.28Z"/><path fill="#306F6F" d="m90.93 124.58-36.47-19.84a9.3 9.3 0 0 0 1-4.1 7 7 0 0 0-3.45-6.31l36.44 19.88a6.94 6.94 0 0 1 3.45 6.31 9.44 9.44 0 0 1-1 4.1"/></g><mask id="q" width="41" height="21" x="44" y="109" maskUnits="userSpaceOnUse" style="mask-type:luminance"><path fill="#fff" d="M44.51 109.28c1.1.46 2.3.62 3.47.44l36.47 19.84a6.54 6.54 0 0 1-3.47-.44l-36.47-19.84Z"/></mask><g mask="url(#q)"><path fill="#347777" d="m80.58 128.93-36.47-19.84c1.02.52 2.16.76 3.3.68l36.46 19.84a6.23 6.23 0 0 1-3.29-.68Z"/><path fill="#357C7C" d="M83.87 129.61 47.4 109.77h.58l36.47 19.84-.58.05"/></g><mask id="r" width="38" height="21" x="43" y="109" maskUnits="userSpaceOnUse" style="mask-type:luminance"><path fill="#fff" d="m44.52 109.28.45.25 1.47.8 1 .55 1 .57 4 2.17 28.5 15.5-.51-.25-36.47-19.84c.18.1.36.18.56.25Z"/></mask><g mask="url(#r)"><path fill="#327373" d="M80.47 128.87 44 109.03l.12.06 36.47 19.84-.12-.06Z"/><path fill="#347777" d="m80.59 128.93-36.47-19.84c1 .52 2.15.76 3.29.68l36.47 19.84a6.23 6.23 0 0 1-3.3-.68Z"/></g><mask id="s" width="40" height="22" x="51" y="94" maskUnits="userSpaceOnUse" style="mask-type:luminance"><path fill="#fff" d="M53.85 95.89a6.24 6.24 0 0 0-1.87-1.56l36.47 19.88c.72.4 1.36.92 1.87 1.56l-25.18-13.7L59.5 99l-2.93-1.59-1.4-.76c-.46-.22-.9-.47-1.32-.76Z"/></mask><g mask="url(#s)"><path fill="#306F6F" d="m90.93 124.58-36.47-19.84a9.3 9.3 0 0 0 1-4.1 7 7 0 0 0-3.45-6.31l36.44 19.88a6.94 6.94 0 0 1 3.45 6.31 9.44 9.44 0 0 1-1 4.1"/></g><mask id="t" width="42" height="22" x="47" y="93" maskUnits="userSpaceOnUse" style="mask-type:luminance"><path fill="#fff" d="m51.98 94.33 36.47 19.88a6.37 6.37 0 0 0-4-.69L47.98 93.68c1.37-.22 2.78 0 4 .65Z"/></mask><g mask="url(#t)"><path fill="#030E22" d="M84.48 113.48 48.01 93.64h.57l36.47 19.84-.57.05"/><path fill="#030D20" d="M85.05 113.43 48.58 93.59a6.31 6.31 0 0 1 3.28.67l36.47 19.84a6.3 6.3 0 0 0-3.28-.67Z"/><path fill="#030D1F" d="M88.33 114.1 51.86 94.26l.12.07 36.47 19.88-.12-.07"/></g><mask id="u" width="45" height="36" x="40" y="93" maskUnits="userSpaceOnUse" style="mask-type:luminance"><path fill="#fff" d="m80.47 128.87-36.48-19.84a7 7 0 0 1-3.45-6.3c0-4.44 3.36-8.51 7.48-9.09l36.46 19.84c-4.12.58-7.45 4.65-7.47 9.09a7 7 0 0 0 3.45 6.3Z"/></mask><g mask="url(#u)"><path fill="#030C1E" d="m80.47 128.87-36.48-19.84a7 7 0 0 1-3.45-6.3 9.35 9.35 0 0 1 1-4.11l36.48 19.84a9.32 9.32 0 0 0-1 4.11 7 7 0 0 0 3.45 6.3Z"/><path fill="#030D1F" d="M78 118.46 41.51 98.62c.41-.83.94-1.6 1.56-2.28l36.47 19.87a9.5 9.5 0 0 0-1.56 2.28"/><path fill="#030D20" d="M79.56 116.21 43.08 96.37a8.68 8.68 0 0 1 3.08-2.18l36.47 19.84a8.67 8.67 0 0 0-3.07 2.18Z"/><path fill="#030E22" d="M82.63 114 46.16 94.21c.59-.25 1.22-.43 1.86-.52l36.47 19.84c-.64.1-1.27.27-1.86.52"/></g><path fill="#051738" d="M84.48 113.48c4.1-.57 7.43 2.55 7.42 7 0 4.45-3.35 8.5-7.45 9.08-4.1.58-7.45-2.55-7.44-7 .01-4.45 3.32-8.5 7.47-9.08Z"/><path fill="#58CCCC" d="m165.06 74.5 44.88-6.31-.16 82.41-86 67.15-86.5-42.9.14-82.41 44.88-6.31 41.52-66.29 41.25 54.66Zm-7.66 75.39V136.3l-12.59 1.77a2.72 2.72 0 0 0-2.18 2.65 1.93 1.93 0 0 0 1.34 1.93c.27.08.56.1.84.07l4-.57a45.83 45.83 0 0 1-25.31 12.84 35 35 0 0 1-29.22-8.89 1.82 1.82 0 0 0-1.52-.46 2.6 2.6 0 0 0-1.54 4.22 38.67 38.67 0 0 0 32.27 9.82c10.5-1.48 21-6.85 29.55-15.8v6.58a1.93 1.93 0 0 0 1.34 1.93c.27.08.56.1.84.07a2.7 2.7 0 0 0 2.18-2.65m-72.96-20.33c4.1-.58 7.44-4.65 7.45-9.08.01-4.43-3.32-7.57-7.42-7-4.1.57-7.46 4.65-7.47 9.09 0 4.44 3.32 7.56 7.44 7m78.28-12.21c4.1-.58 7.44-4.64 7.46-9.08 0-4.44-3.33-7.56-7.43-7-4.1.56-7.44 4.64-7.46 9.08 0 4.44 3.33 7.56 7.44 7Z"/><path fill="#051738" d="M157.43 136.3v13.59a2.7 2.7 0 0 1-2.19 2.65 1.92 1.92 0 0 1-2.17-2v-8.9l-4.23.59-4 .57a1.92 1.92 0 0 1-2.18-2 2.72 2.72 0 0 1 2.19-2.65l12.58-1.85Z"/><path fill="#051738" d="M92.8 145.68a1.83 1.83 0 0 1 1.51.46 35 35 0 0 0 29.22 8.89 45.78 45.78 0 0 0 25.3-12.82l4.24-.59v2.32c-8.53 8.95-19.04 14.32-29.55 15.8a38.69 38.69 0 0 1-32.27-9.82 2.61 2.61 0 0 1 1.54-4.22v-.02Z"/><path fill="#357B7B" d="M82.27 86.14 45.8 66.3 87.31 0l36.47 19.84-41.5 66.3Z"/><path fill="#378080" d="M37.4 92.44.91 72.6l44.88-6.3 36.47 19.84-44.88 6.3Z"/><path fill="#306F6F" d="M37.24 174.85.77 155.02.92 72.6 37.4 92.44l-.15 82.41Z"/></svg>