<svg xmlns="http://www.w3.org/2000/svg" fill="none" viewBox="0 0 328 350"><mask id="a" width="60" height="61" x="88" y="80" maskUnits="userSpaceOnUse" style="mask-type:luminance"><path fill="#fff" d="m130.9 140.24-1.86-1.84-1.98-1.95-2.05-2.04-2.09-2.06-2.08-2.07-2.06-2.03-1.97-1.97-1.87-1.84-2.95-2.94-3.1-3.09-3.25-3.23-3.32-3.28-3.31-3.3-3.27-3.22-6.1-6.05a11.02 11.02 0 0 1-1.41-6.18 14.19 14.19 0 0 1 12.87-13c1.57-.1 3.15.11 4.64.65l41.3 40.92a11.62 11.62 0 0 0-4.64-.63 14.18 14.18 0 0 0-12.87 13c-.15 2.13.32 4.27 1.36 6.15Z"/></mask><g mask="url(#a)"><path fill="#402485" d="M109.45 83.08 150.74 124a10.67 10.67 0 0 0-8.4-3 14.17 14.17 0 0 0-12.87 13 10.81 10.81 0 0 0 3.1 8.36l-41.3-40.93a10.69 10.69 0 0 1-3.1-8.37 14.19 14.19 0 0 1 12.88-13 10.83 10.83 0 0 1 8.4 3Z"/></g><mask id="b" width="44" height="44" x="89" y="99" maskUnits="userSpaceOnUse" style="mask-type:luminance"><path fill="#fff" d="M130.9 140.24c.44.78 1 1.5 1.63 2.13l-41.29-40.93a9.94 9.94 0 0 1-1.64-2.12l41.3 40.92Z"/></mask><g mask="url(#b)"><path fill="#402485" d="M109.45 83.08 150.74 124a10.67 10.67 0 0 0-8.4-3 14.17 14.17 0 0 0-12.87 13 10.81 10.81 0 0 0 3.1 8.36l-41.3-40.93a10.69 10.69 0 0 1-3.1-8.37 14.19 14.19 0 0 1 12.88-13 10.83 10.83 0 0 1 8.4 3Z"/></g><mask id="c" width="46" height="45" x="105" y="80" maskUnits="userSpaceOnUse" style="mask-type:luminance"><path fill="#fff" d="M150.75 124.01a10.42 10.42 0 0 0-3.72-2.37c-1.46-1.42-3.38-3.34-4.83-4.78l-5.12-5.06-5.3-5.25-5.4-5.37c-1.55-1.55-3.8-3.75-5.4-5.36l-5.31-5.26-5.12-5.06-4.83-4.78c1.4.5 2.68 1.3 3.73 2.36l41.3 40.93Z"/></mask><g mask="url(#c)"><path fill="#402485" d="M109.45 83.08 150.74 124a10.67 10.67 0 0 0-8.4-3 14.17 14.17 0 0 0-12.87 13 10.81 10.81 0 0 0 3.1 8.36l-41.3-40.93a10.69 10.69 0 0 1-3.1-8.37 14.19 14.19 0 0 1 12.88-13 10.83 10.83 0 0 1 8.4 3Z"/></g><mask id="d" width="63" height="63" x="91" y="83" maskUnits="userSpaceOnUse" style="mask-type:luminance"><path fill="#fff" d="M109.45 83.08 150.74 124a10.68 10.68 0 0 1 3.1 8.36 14.2 14.2 0 0 1-12.88 13 10.84 10.84 0 0 1-8.41-3l-41.3-40.93a10.84 10.84 0 0 0 8.4 3 14.18 14.18 0 0 0 12.88-13 10.72 10.72 0 0 0-3.08-8.36Z"/></mask><g mask="url(#d)"><path fill="#030C1E" d="M109.45 83.08 150.74 124a10.68 10.68 0 0 1 3.1 8.36 14.2 14.2 0 0 1-12.88 13 10.84 10.84 0 0 1-8.41-3l-41.3-40.93a10.83 10.83 0 0 0 8.4 3 14.19 14.19 0 0 0 12.88-13 10.71 10.71 0 0 0-3.1-8.36"/></g><path fill="#05183A" d="M101.05 80.12a10.5 10.5 0 0 1 11.46 11.37 14.19 14.19 0 0 1-12.87 13 10.5 10.5 0 0 1-11.46-11.37 14.19 14.19 0 0 1 12.87-13Z"/><path fill="#412587" d="m59.64 153.91 41.29 40.94-.05.79-41.29-40.94.05-.78Z"/><mask id="e" width="46" height="47" x="117" y="132" maskUnits="userSpaceOnUse" style="mask-type:luminance"><path fill="#fff" d="M160.02 174.2a3.8 3.8 0 0 0-.99 3.9l-4.82-4.79-5.1-5.05-5.32-5.28-5.4-5.35-5.4-5.36-5.32-5.26-5.1-5.05-4.83-4.78a3.84 3.84 0 0 1 .98-3.92 4.2 4.2 0 0 1 2.12-1.16l41.29 40.94c-.8.16-1.54.57-2.1 1.16Z"/></mask><g mask="url(#e)"><path fill="#402485" d="m123.75 132.9 41.28 40.94a3.08 3.08 0 0 0-2.44-.87c-.98.08-1.9.51-2.57 1.23a3.56 3.56 0 0 0-.26 5.02l-41.29-40.93a3.57 3.57 0 0 1 .25-5.03c.68-.7 1.6-1.14 2.58-1.22a3.09 3.09 0 0 1 2.45.87Z"/></g><mask id="f" width="46" height="43" x="120" y="131" maskUnits="userSpaceOnUse" style="mask-type:luminance"><path fill="#fff" d="M162.59 172.94h-.46l-41.3-40.93h.47a3.1 3.1 0 0 1 2.45.87l41.28 40.93a3.1 3.1 0 0 0-2.44-.87Z"/></mask><g mask="url(#f)"><path fill="#402485" d="m123.75 132.9 41.28 40.94a3.09 3.09 0 0 0-2.44-.87c-.98.08-1.9.51-2.57 1.23a3.55 3.55 0 0 0-.26 5.02l-41.29-40.93a3.57 3.57 0 0 1 .25-5.03c.68-.7 1.6-1.14 2.58-1.22a3.1 3.1 0 0 1 2.45.87Z"/></g><mask id="g" width="43" height="43" x="117" y="137" maskUnits="userSpaceOnUse" style="mask-type:luminance"><path fill="#fff" d="M159.03 178.1c.16.42.4.8.73 1.12l-41.29-40.93c-.32-.31-.57-.7-.73-1.11l20.64 20.45 5.41 5.35 7.9 7.83 4.97 4.93c.87.71 1.66 1.5 2.37 2.35Z"/></mask><g mask="url(#g)"><path fill="#402485" d="m123.75 132.9 41.28 40.94a3.09 3.09 0 0 0-2.44-.87c-.98.08-1.9.51-2.57 1.23a3.56 3.56 0 0 0-.26 5.02l-41.29-40.93a3.58 3.58 0 0 1 .25-5.03c.68-.7 1.6-1.14 2.58-1.22a3.1 3.1 0 0 1 2.45.87Z"/></g><mask id="h" width="45" height="43" x="192" y="73" maskUnits="userSpaceOnUse" style="mask-type:luminance"><path fill="#fff" d="M236.32 115c-.9-.14-1.8-.19-2.7-.12L192.3 73.95c.9-.06 1.82-.02 2.72.12l41.29 40.94Z"/></mask><g mask="url(#h)"><path fill="#402485" d="m200.72 76.93 41.3 40.94a10.7 10.7 0 0 0-8.4-2.99 14.16 14.16 0 0 0-12.88 13 10.7 10.7 0 0 0 3.1 8.37L182.53 95.3a10.83 10.83 0 0 1-3.1-8.37 14.19 14.19 0 0 1 12.88-13 10.83 10.83 0 0 1 8.41 3Z"/></g><mask id="i" width="44" height="42" x="195" y="74" maskUnits="userSpaceOnUse" style="mask-type:luminance"><path fill="#fff" d="M236.32 115c-.8-.6-1.5-1.3-2.12-2.1l-1.11-1.11-2.3-2.28-1.18-1.17-2.39-2.35-2.38-2.37-2.33-2.3-2.25-2.25-2.13-2.1-23.1-22.9c.67.1 1.33.28 1.97.51l41.28 40.94c-.63-.24-1.29-.4-1.96-.51Z"/></mask><g mask="url(#i)"><path fill="#402485" d="m200.72 76.93 41.3 40.94a10.7 10.7 0 0 0-8.4-2.99 14.15 14.15 0 0 0-12.88 13 10.7 10.7 0 0 0 3.1 8.37L182.53 95.3a10.83 10.83 0 0 1-3.1-8.37 14.18 14.18 0 0 1 12.88-13 10.83 10.83 0 0 1 8.41 3Z"/></g><mask id="j" width="45" height="43" x="196" y="74" maskUnits="userSpaceOnUse" style="mask-type:luminance"><path fill="#fff" d="M240.88 116.91a9.77 9.77 0 0 0-2.6-1.4L197 74.59c.92.34 1.8.81 2.6 1.4l41.28 40.93Z"/></mask><g mask="url(#j)"><path fill="#402485" d="m200.72 76.93 41.3 40.94a10.7 10.7 0 0 0-8.4-2.99 14.15 14.15 0 0 0-12.88 13 10.7 10.7 0 0 0 3.1 8.37L182.53 95.3a10.83 10.83 0 0 1-3.1-8.37 14.18 14.18 0 0 1 12.88-13 10.83 10.83 0 0 1 8.41 3Z"/></g><mask id="k" width="43" height="43" x="199" y="76" maskUnits="userSpaceOnUse" style="mask-type:luminance"><path fill="#fff" d="M240.88 116.91a13.83 13.83 0 0 1-1.54-1.63l-1.74-1.7-.88-.88-1.8-1.8-.92-.9-1.83-1.82-1.88-1.76-1.72-1.72-1.64-1.54-3.19-3.1-3.39-3.35-3.5-3.49-3.6-3.54-3.57-3.56-3.53-3.48-3.38-3.35-3.2-3.1c.4.3.78.61 1.12.96l41.3 40.93a9.52 9.52 0 0 0-1.1-1.17Z"/></mask><g mask="url(#k)"><path fill="#402485" d="m200.72 76.93 41.3 40.94a10.7 10.7 0 0 0-8.4-2.99 14.15 14.15 0 0 0-12.88 13 10.71 10.71 0 0 0 3.1 8.37L182.53 95.3a10.83 10.83 0 0 1-3.1-8.37 14.19 14.19 0 0 1 12.88-13 10.83 10.83 0 0 1 8.41 3Z"/></g><mask id="l" width="55" height="64" x="179" y="73" maskUnits="userSpaceOnUse" style="mask-type:luminance"><path fill="#fff" d="M220.74 127.88a10.71 10.71 0 0 0 3.1 8.37L182.53 95.3a10.83 10.83 0 0 1-3.1-8.37 14.19 14.19 0 0 1 12.88-13l41.3 40.94a14.15 14.15 0 0 0-12.87 13Z"/></mask><g mask="url(#l)"><path fill="#402485" d="m200.72 76.93 41.3 40.94a10.69 10.69 0 0 0-8.4-2.99 14.15 14.15 0 0 0-12.88 13 10.71 10.71 0 0 0 3.1 8.37L182.53 95.3a10.83 10.83 0 0 1-3.1-8.37 14.18 14.18 0 0 1 12.88-13 10.83 10.83 0 0 1 8.41 3Z"/></g><mask id="m" width="64" height="64" x="182" y="76" maskUnits="userSpaceOnUse" style="mask-type:luminance"><path fill="#fff" d="m200.72 76.93 41.3 40.94a10.72 10.72 0 0 1 3.09 8.37 14.16 14.16 0 0 1-12.87 13 10.7 10.7 0 0 1-8.4-3l-41.31-40.93a10.83 10.83 0 0 0 8.42 2.99 14.18 14.18 0 0 0 12.87-13 10.83 10.83 0 0 0-3.1-8.37Z"/></mask><g mask="url(#m)"><path fill="#030C1E" d="m200.72 76.93 41.3 40.94a10.72 10.72 0 0 1 3.09 8.37 14.16 14.16 0 0 1-12.87 13 10.71 10.71 0 0 1-8.4-3l-41.31-40.93a10.83 10.83 0 0 0 8.42 2.99 14.18 14.18 0 0 0 12.87-13 10.83 10.83 0 0 0-3.1-8.37Z"/></g><path fill="#05183A" d="M199.8 93.96c5.02-5.07 5.47-12.78 1-17.22-4.49-4.44-12.2-3.93-17.22 1.15-5.03 5.07-5.48 12.78-1 17.22 4.48 4.44 12.19 3.93 17.21-1.15Z"/><mask id="n" width="89" height="59" x="123" y="132" maskUnits="userSpaceOnUse" style="mask-type:luminance"><path fill="#fff" d="M211.72 190.33c-17.28 1.16-34.17-4.24-46.69-16.49l-41.28-40.93c12.5 12.26 29.39 17.65 46.68 16.49l41.3 40.93Z"/></mask><g mask="url(#n)"><path fill="#402485" d="m170.43 149.4 41.3 40.93c-17.29 1.16-34.18-4.24-46.7-16.49l-41.28-40.93c12.5 12.26 29.39 17.65 46.68 16.49Z"/></g><path fill="#412487" d="m170.63 149.4 41.3 40.92-.2.01-41.31-40.93h.21Z"/><mask id="o" width="45" height="43" x="170" y="149" maskUnits="userSpaceOnUse" style="mask-type:luminance"><path fill="#fff" d="M214.4 191.2a3.1 3.1 0 0 0-2.45-.88l-41.28-40.94a3.1 3.1 0 0 1 2.42.88l41.3 40.94Z"/></mask><g mask="url(#o)"><path fill="#402485" d="m173.05 150.26 41.3 40.94a3.18 3.18 0 0 0-2.46-.88l-41.3-40.94a3.1 3.1 0 0 1 2.46.88Z"/></g><mask id="p" width="94" height="60" x="118" y="138" maskUnits="userSpaceOnUse" style="mask-type:luminance"><path fill="#fff" d="m169.96 156.51 41.3 40.92c-19.12 1.29-37.78-4.64-51.56-18.2l-41.3-40.94c13.84 13.52 32.51 19.5 51.56 18.22Z"/></mask><g mask="url(#p)"><path fill="#030C1E" d="m169.96 156.51 41.3 40.92c-19.12 1.29-37.78-4.64-51.56-18.2l-41.3-40.94c13.78 13.52 32.5 19.5 51.56 18.22Z"/></g><path fill="#030D1F" d="m170.26 156.5 41.3 40.92-.25.01-41.3-40.92.25-.01Z"/><mask id="q" width="46" height="48" x="170" y="150" maskUnits="userSpaceOnUse" style="mask-type:luminance"><path fill="#fff" d="m173.05 150.26 41.3 40.94a3.08 3.08 0 0 1 .9 2.41 4.11 4.11 0 0 1-3.73 3.8l-41.3-40.93a4.13 4.13 0 0 0 3.74-3.8 3.2 3.2 0 0 0-.91-2.42Z"/></mask><g mask="url(#q)"><path fill="#030C1E" d="m173.05 150.26 41.3 40.94a3.08 3.08 0 0 1 .9 2.41 4.11 4.11 0 0 1-3.73 3.8l-41.3-40.93a4.13 4.13 0 0 0 3.74-3.8 3.2 3.2 0 0 0-.91-2.42Z"/></g><path fill="#05183A" d="M121.3 132.04a3.1 3.1 0 0 1 2.45.87c12.5 12.26 29.39 17.65 46.68 16.49h.19a3.1 3.1 0 0 1 3.39 3.3 4.14 4.14 0 0 1-3.75 3.8h-.24c-19.11 1.28-37.78-4.64-51.55-18.23a3.57 3.57 0 0 1 .25-5.02c.69-.7 1.6-1.13 2.58-1.21Z"/><path fill="#3E2381" d="m142.66 198.56 41.3 40.94-83.08-43.86-41.29-40.94 83.07 43.86Z"/><path fill="#412587" d="m237.1 43.89 41.31 40.93-5.64 98.49-41.3-40.94 5.64-98.48Z"/><path fill="#7B45FF" d="m154.05.03 83.08 43.86-5.65 98.48v.8l-88.77 55.4-83.07-43.87v-.78l5.64-98.49L154.05.03Zm16.21 156.45a4.13 4.13 0 0 0 3.75-3.8 3.1 3.1 0 0 0-3.38-3.3h-.2c-17.3 1.16-34.19-4.22-46.68-16.49a3.1 3.1 0 0 0-2.45-.87c-.98.09-1.9.52-2.58 1.23a3.54 3.54 0 0 0-.25 5.02c13.77 13.53 32.49 19.51 51.5 18.23h.3m20.65-58.19a14.19 14.19 0 0 0 12.87-13 10.5 10.5 0 0 0-11.48-11.35 14.19 14.19 0 0 0-12.87 13 10.49 10.49 0 0 0 11.48 11.35Zm-91.28 6.2a14.19 14.19 0 0 0 12.87-13 10.5 10.5 0 0 0-11.46-11.37 14.19 14.19 0 0 0-12.87 13 10.5 10.5 0 0 0 11.46 11.36Z"/><path fill="#44268C" d="m231.43 143.16 41.3 40.94-88.78 55.4-41.29-40.94 88.77-55.4Z"/><path fill="#412587" d="m231.48 142.37 41.29 40.94-.05.79-41.29-40.94.05-.79Z"/><path fill="#3E2381" d="m136.91 308.77 41.29 40.94-136.91-73.98L0 234.79l136.91 73.98Z"/><path fill="#7B45FF" d="m286.66 138.66-4.43 77.17-145.32 92.94L0 234.8l4.42-77.16 55.22-3.72-.05.8 83.07 43.85 88.77-55.4.05-.79 55.18-3.7Z"/><path fill="#44268C" d="m282.24 215.83 41.3 40.93-145.34 92.95-41.29-40.94 145.33-92.94Z"/><path fill="#412587" d="m286.66 138.66 41.3 40.94-4.42 77.16-41.3-40.93 4.42-77.17Z"/></svg>