<svg xmlns="http://www.w3.org/2000/svg" fill="none" viewBox="0 0 181 192"><path fill="#003D82" d="M125.83 121.33 94.3 104.17l54.98-7.73 31.55 17.17-54.98 7.72Z"/><mask id="a" width="41" height="30" x="94" y="92" maskUnits="userSpaceOnUse" style="mask-type:luminance"><path fill="#fff" d="M102.83 93.04a2 2 0 0 0-.32-.23l31.54 17.16c.12.07.22.14.31.23a2.12 2.12 0 0 1 0 2.86 49.48 49.48 0 0 1-8.53 8.27l-31.55-17.15a50.2 50.2 0 0 0 8.55-8.27 2.14 2.14 0 0 0 0-2.87Z"/></mask><g mask="url(#a)"><path fill="#003E85" d="M125.83 121.33 94.3 104.18a50.2 50.2 0 0 0 8.55-8.27 2.14 2.14 0 0 0 0-2.87 2 2 0 0 0-.32-.23l31.54 17.16c.11.07.22.14.31.23a2.12 2.12 0 0 1 0 2.86 49.48 49.48 0 0 1-8.54 8.27Z"/></g><mask id="b" width="34" height="18" x="101" y="92" maskUnits="userSpaceOnUse" style="mask-type:luminance"><path fill="#fff" d="m102.5 92.81 31.55 17.16c-.3-.16-.66-.22-1-.17L101.5 92.65c.35-.06.7 0 1 .16Z"/></mask><g mask="url(#b)"><path fill="#030C1E" d="M133.05 109.8 101.5 92.65c.35-.06.7 0 1 .16l31.55 17.16c-.3-.16-.66-.22-1-.17Z"/></g><mask id="c" width="71" height="27" x="55" y="104" maskUnits="userSpaceOnUse" style="mask-type:luminance"><path fill="#fff" d="M86.56 126.85 55 109.7a34.25 34.25 0 0 0 19.63 2.86 42.65 42.65 0 0 0 19.65-8.38l31.54 17.16a42.6 42.6 0 0 1-19.65 8.38c-6.68 1-13.5 0-19.62-2.86Z"/></mask><g mask="url(#c)"><path fill="#003E85" d="M86.56 126.85 55 109.7a34.25 34.25 0 0 0 19.63 2.86 42.66 42.66 0 0 0 19.65-8.38l31.54 17.16a42.6 42.6 0 0 1-19.65 8.38c-6.68 1-13.5 0-19.62-2.86Z"/></g><mask id="d" width="50" height="31" x="84" y="92" maskUnits="userSpaceOnUse" style="mask-type:luminance"><path fill="#fff" d="m116.3 122.67-31.55-17.16a43.1 43.1 0 0 0 15.43-12.08c.32-.43.8-.7 1.32-.78l31.55 17.15c-.53.09-1 .36-1.34.78a43.04 43.04 0 0 1-15.41 12.1Z"/></mask><g mask="url(#d)"><path fill="#030C1E" d="m116.3 122.67-31.55-17.16a43.1 43.1 0 0 0 15.43-12.08c.32-.43.8-.7 1.32-.78l31.55 17.15c-.53.09-1 .36-1.34.78a43.04 43.04 0 0 1-15.41 12.1Z"/></g><mask id="e" width="34" height="18" x="94" y="77" maskUnits="userSpaceOnUse" style="mask-type:luminance"><path fill="#fff" d="M94.25 77.74c.48.06.96.06 1.44 0l31.54 17.17c-.47.06-.95.06-1.43 0L94.25 77.74Z"/></mask><g mask="url(#e)"><path fill="#003E85" d="M123.79 94.28 92.25 77.12c1.06.58 2.28.78 3.47.59l31.55 17.16a5.59 5.59 0 0 1-3.47-.59"/></g><mask id="f" width="33" height="18" x="93" y="77" maskUnits="userSpaceOnUse" style="mask-type:luminance"><path fill="#fff" d="M93.18 77.52c.35.1.71.18 1.07.22l31.55 17.2a4.94 4.94 0 0 1-1.08-.23L93.19 77.5Z"/></mask><g mask="url(#f)"><path fill="#003E85" d="M123.79 94.28 92.25 77.12c1.06.58 2.28.78 3.47.59l31.55 17.16a5.58 5.58 0 0 1-3.47-.59"/></g><mask id="g" width="33" height="18" x="92" y="77" maskUnits="userSpaceOnUse" style="mask-type:luminance"><path fill="#fff" d="M92.25 77.12c.3.16.6.3.93.4l31.55 17.15c-.33-.1-.64-.23-.94-.39L92.25 77.12Z"/></mask><g mask="url(#g)"><path fill="#003E85" d="M123.79 94.28 92.25 77.12c1.06.58 2.28.78 3.47.59l31.55 17.16a5.58 5.58 0 0 1-3.47-.59"/></g><mask id="h" width="39" height="31" x="95" y="64" maskUnits="userSpaceOnUse" style="mask-type:luminance"><path fill="#fff" d="M102.14 69.86a6.01 6.01 0 0 0-2.99-5.45l31.55 17.16a6.07 6.07 0 0 1 2.98 5.45c0 3.84-2.9 7.35-6.45 7.85L95.7 77.71c3.56-.5 6.45-4.01 6.45-7.85Z"/></mask><g mask="url(#h)"><path fill="#003E85" d="M127.23 94.87 95.7 77.71c3.56-.5 6.45-4.01 6.45-7.85a6.01 6.01 0 0 0-2.99-5.45l31.55 17.16a6.06 6.06 0 0 1 2.98 5.45c0 3.84-2.9 7.35-6.45 7.85Z"/></g><mask id="i" width="36" height="19" x="95" y="63" maskUnits="userSpaceOnUse" style="mask-type:luminance"><path fill="#fff" d="m99.15 64.41 31.55 17.16a5.52 5.52 0 0 0-3.47-.6L95.7 63.82c1.19-.18 2.4.03 3.46.6Z"/></mask><g mask="url(#i)"><path fill="#030C1E" d="M127.26 80.98 95.7 63.8c1.2-.18 2.4.03 3.47.6l31.54 17.16a5.52 5.52 0 0 0-3.46-.6Z"/></g><mask id="j" width="39" height="32" x="89" y="63" maskUnits="userSpaceOnUse" style="mask-type:luminance"><path fill="#fff" d="M123.79 94.28 92.25 77.12a6.07 6.07 0 0 1-2.99-5.45c0-3.83 2.9-7.35 6.45-7.86l31.55 17.17c-3.56.5-6.44 4.01-6.45 7.85a6.06 6.06 0 0 0 2.98 5.45Z"/></mask><g mask="url(#j)"><path fill="#030C1E" d="M123.79 94.28 92.25 77.12a6.07 6.07 0 0 1-2.99-5.45c0-3.83 2.9-7.35 6.45-7.86l31.55 17.17c-3.56.5-6.44 4.01-6.45 7.85a6.07 6.07 0 0 0 2.98 5.45Z"/></g><mask id="k" width="53" height="21" x="64" y="105" maskUnits="userSpaceOnUse" style="mask-type:luminance"><path fill="#fff" d="m96.1 125.51-31.55-17.16c3.34.58 6.74.62 10.1.14 3.5-.5 6.9-1.5 10.1-2.98l31.55 17.16a36.67 36.67 0 0 1-10.1 2.98c-3.36.49-6.77.44-10.1-.14Z"/></mask><g mask="url(#k)"><path fill="#030C1E" d="m96.1 125.51-31.55-17.16c3.34.58 6.74.62 10.1.14 3.5-.5 6.9-1.5 10.1-2.98l31.55 17.16a36.67 36.67 0 0 1-10.1 2.98c-3.36.49-6.77.44-10.1-.14Z"/></g><path fill="#003D82" d="m96.1 125.51-31.55-17.16 20.2-2.84 31.55 17.16-20.2 2.84Z"/><path fill="#003F85" d="M128.2 63.02 96.64 45.87l17.66-29.11 31.55 17.15-17.67 29.11Z"/><path fill="#003D82" d="M127.3 63.15 95.75 46l.89-.13 31.54 17.15-.9.13Z"/><mask id="l" width="42" height="21" x="55" y="105" maskUnits="userSpaceOnUse" style="mask-type:luminance"><path fill="#fff" d="M87.03 122.36 55.49 105.2a29.64 29.64 0 0 0 9.06 3.15l31.54 17.16a29.8 29.8 0 0 1-9.06-3.15Z"/></mask><g mask="url(#l)"><path fill="#030C1E" d="M87.03 122.36 55.49 105.2a29.64 29.64 0 0 0 9.06 3.15l31.54 17.16a29.8 29.8 0 0 1-9.06-3.15Z"/></g><path fill="#003D82" d="M31.58 134.58.03 117.42l54.98-7.73 31.55 17.16-54.98 7.73Z"/><mask id="m" width="34" height="19" x="53" y="108" maskUnits="userSpaceOnUse" style="mask-type:luminance"><path fill="#fff" d="M53.46 108.9c.51.28 1.03.55 1.55.79l31.55 17.16c-.53-.25-1.04-.5-1.55-.8L53.46 108.9Z"/></mask><g mask="url(#m)"><path fill="#003E85" d="M84.97 126.06 53.43 108.9c.5.28 1.03.55 1.55.79l31.54 17.16a28.9 28.9 0 0 1-1.55-.8Z"/></g><mask id="n" width="39" height="23" x="49" y="100" maskUnits="userSpaceOnUse" style="mask-type:luminance"><path fill="#fff" d="m49.43 100.8 31.54 17.16a30.13 30.13 0 0 0 6.06 4.4L55.5 105.2a29.72 29.72 0 0 1-6.07-4.4Z"/></mask><g mask="url(#n)"><path fill="#003E85" d="M87.03 122.36 55.49 105.2a29.72 29.72 0 0 1-6.07-4.4c-.1-.09-.2-.17-.32-.23l31.55 17.16c.1.07.21.14.3.23a30.13 30.13 0 0 0 6.08 4.4Z"/></g><mask id="o" width="32" height="18" x="49" y="100" maskUnits="userSpaceOnUse" style="mask-type:luminance"><path fill="#fff" d="M49.43 100.8c-.1-.09-.2-.17-.32-.23l31.54 17.16c.12.07.22.14.32.23l-15.77-8.57-10.16-5.53-1.93-1.05c-1.26-.6-2.5-1.27-3.68-2Z"/></mask><g mask="url(#o)"><path fill="#003E85" d="M87.03 122.36 55.49 105.2a29.72 29.72 0 0 1-6.07-4.4c-.1-.09-.2-.17-.32-.23l31.55 17.16c.1.07.21.14.3.23a30.14 30.14 0 0 0 6.08 4.4Z"/></g><mask id="p" width="39" height="27" x="46" y="100" maskUnits="userSpaceOnUse" style="mask-type:luminance"><path fill="#fff" d="M84.97 126.06 53.43 108.9a32.92 32.92 0 0 1-6.72-4.85 2.12 2.12 0 0 1 0-2.86c.32-.42.8-.7 1.33-.8.35-.04.7.02 1 .18l31.55 17.16a1.64 1.64 0 0 0-1.01-.17c-.53.09-1 .37-1.34.79a2.14 2.14 0 0 0 0 2.86 32.87 32.87 0 0 0 6.73 4.85Z"/></mask><g mask="url(#p)"><path fill="#030C1E" d="M84.97 126.06 53.43 108.9a32.92 32.92 0 0 1-6.72-4.85 2.12 2.12 0 0 1 0-2.86c.32-.42.8-.7 1.33-.8.35-.04.7.02 1 .18l31.55 17.16a1.64 1.64 0 0 0-1.01-.17c-.53.09-1 .37-1.34.79a2.14 2.14 0 0 0 0 2.86 32.87 32.87 0 0 0 6.73 4.85Z"/></g><mask id="q" width="33" height="19" x="56" y="76" maskUnits="userSpaceOnUse" style="mask-type:luminance"><path fill="#fff" d="M57 76.83 88.54 94v.4L57 77.24v-.4Z"/></mask><g mask="url(#q)"><path fill="#003E85" d="M82.1 102.25 50.56 85.1c3.55-.5 6.45-4.02 6.45-7.86a6 6 0 0 0-2.99-5.44l31.55 17.15a6.07 6.07 0 0 1 2.98 5.46c0 3.84-2.9 7.35-6.45 7.85Z"/></g><mask id="r" width="33" height="20" x="56" y="74" maskUnits="userSpaceOnUse" style="mask-type:luminance"><path fill="#fff" d="M57 76.83a6.8 6.8 0 0 0-.49-2.22l31.54 17.15c.29.71.45 1.47.5 2.24L57 76.83Z"/></mask><g mask="url(#r)"><path fill="#003E85" d="M82.1 102.25 50.56 85.1c3.55-.5 6.45-4.02 6.45-7.86a6 6 0 0 0-2.99-5.44l31.55 17.15a6.07 6.07 0 0 1 2.98 5.46c0 3.84-2.9 7.35-6.45 7.85Z"/></g><mask id="s" width="39" height="26" x="50" y="77" maskUnits="userSpaceOnUse" style="mask-type:luminance"><path fill="#fff" d="M50.56 85.09c3.55-.5 6.44-4.02 6.45-7.85L88.55 94.4c0 3.84-2.9 7.35-6.45 7.85L50.56 85.1Z"/></mask><g mask="url(#s)"><path fill="#003E85" d="M82.1 102.25 50.56 85.1c3.55-.5 6.45-4.02 6.45-7.86a6 6 0 0 0-2.99-5.44l31.55 17.15a6.07 6.07 0 0 1 2.98 5.46c0 3.84-2.9 7.35-6.45 7.85Z"/></g><mask id="t" width="34" height="19" x="55" y="73" maskUnits="userSpaceOnUse" style="mask-type:luminance"><path fill="#fff" d="m55.77 73.3 31.54 17.16c.3.4.55.84.74 1.3L56.5 74.61c-.2-.47-.44-.9-.74-1.3Z"/></mask><g mask="url(#t)"><path fill="#003E85" d="M82.1 102.25 50.56 85.1c3.55-.5 6.45-4.02 6.45-7.86a6 6 0 0 0-2.99-5.44l31.55 17.15a6.07 6.07 0 0 1 2.98 5.46c0 3.84-2.9 7.35-6.45 7.85Z"/></g><mask id="u" width="33" height="19" x="55" y="72" maskUnits="userSpaceOnUse" style="mask-type:luminance"><path fill="#fff" d="M55.77 73.3c-.19-.25-.4-.5-.64-.71L86.7 89.73c.24.22.45.46.64.71l-19-10.33-6.27-3.42-4.04-2.19-1.51-.82c-.26-.1-.5-.23-.75-.37Z"/></mask><g mask="url(#u)"><path fill="#003E85" d="M82.1 102.25 50.56 85.1c3.55-.5 6.45-4.02 6.45-7.86a6 6 0 0 0-2.99-5.44l31.55 17.15a6.07 6.07 0 0 1 2.98 5.46c0 3.84-2.9 7.35-6.45 7.85Z"/></g><mask id="v" width="35" height="19" x="48" y="84" maskUnits="userSpaceOnUse" style="mask-type:luminance"><path fill="#fff" d="M48.05 84.9a5.6 5.6 0 0 0 2.5.19l31.55 17.16c-.84.12-1.7.05-2.5-.2L48.05 84.9Z"/></mask><g mask="url(#v)"><path fill="#003E85" d="M78.66 101.66 47.12 84.5c1.06.57 2.28.78 3.47.59l31.55 17.16a5.58 5.58 0 0 1-3.47-.59"/></g><mask id="w" width="33" height="19" x="47" y="84" maskUnits="userSpaceOnUse" style="mask-type:luminance"><path fill="#fff" d="M47.12 84.53c.3.16.61.3.93.4l31.55 17.16c-.33-.1-.64-.24-.94-.4L47.12 84.54Z"/></mask><g mask="url(#w)"><path fill="#003E85" d="M78.66 101.66 47.12 84.5c1.06.57 2.28.78 3.47.59l31.55 17.16a5.58 5.58 0 0 1-3.47-.59"/></g><mask id="x" width="33" height="19" x="54" y="71" maskUnits="userSpaceOnUse" style="mask-type:luminance"><path fill="#fff" d="M55.13 72.59c-.33-.31-.7-.58-1.1-.8l31.54 17.15c.4.22.78.5 1.1.81L70.9 81.17l-6.16-3.36-5.92-3.21c-1.27-.6-2.5-1.28-3.69-2.01Z"/></mask><g mask="url(#x)"><path fill="#003E85" d="M82.1 102.25 50.56 85.1c3.55-.5 6.44-4.02 6.44-7.86a6 6 0 0 0-2.98-5.44l31.55 17.15a6.07 6.07 0 0 1 2.98 5.46c0 3.84-2.9 7.35-6.45 7.85Z"/></g><mask id="y" width="36" height="18" x="50" y="71" maskUnits="userSpaceOnUse" style="mask-type:luminance"><path fill="#fff" d="m54.02 71.79 31.55 17.15a5.52 5.52 0 0 0-3.47-.59L50.56 71.2c1.19-.18 2.4.03 3.46.6Z"/></mask><g mask="url(#y)"><path fill="#030C1E" d="M82.13 88.35 50.58 71.2c1.2-.18 2.41.03 3.47.6L85.6 88.94a5.52 5.52 0 0 0-3.47-.59Z"/></g><mask id="z" width="39" height="31" x="44" y="71" maskUnits="userSpaceOnUse" style="mask-type:luminance"><path fill="#fff" d="M78.66 101.66 47.12 84.5a6.07 6.07 0 0 1-2.99-5.46c0-3.83 2.9-7.35 6.45-7.85l31.55 17.16c-3.56.5-6.44 4.02-6.45 7.86a6.07 6.07 0 0 0 2.98 5.45Z"/></mask><g mask="url(#z)"><path fill="#030C1E" d="M78.66 101.66 47.12 84.5a6.07 6.07 0 0 1-2.99-5.46c0-3.83 2.9-7.35 6.45-7.85l31.55 17.16c-3.56.5-6.44 4.02-6.45 7.86a6.07 6.07 0 0 0 2.98 5.45Z"/></g><path fill="#003F85" d="M84.4 69.16 52.87 52 74.4.74l31.54 17.16-21.52 51.26Z"/><path fill="#0077FD" d="m128.2 63.02 17.66-29.1-.16 84.62-19.86 2.8a49.48 49.48 0 0 0 8.53-8.28 2.13 2.13 0 0 0 0-2.86 1.58 1.58 0 0 0-1.31-.4c-.53.09-1 .36-1.34.78a43.04 43.04 0 0 1-15.41 12.1l-20.2 2.83a29.57 29.57 0 0 1-15.17-7.55 1.6 1.6 0 0 0-1.33-.4c-.52.09-1 .37-1.33.79a2.14 2.14 0 0 0 0 2.86c2.45 2.3 5.25 4.2 8.28 5.64l-19.86 2.8.11-58 .05-26.63 17.56 24.13 21.52-51.25 21.36 45.25.9-.13Zm-46.1 39.23c3.56-.5 6.44-4.01 6.45-7.85.01-3.84-2.87-6.55-6.42-6.07-3.56.48-6.44 4.01-6.45 7.85-.01 3.84 2.87 6.54 6.42 6.07Zm45.13-7.38c3.55-.5 6.44-4.01 6.45-7.85 0-3.84-2.87-6.55-6.42-6.07-3.56.48-6.44 4.02-6.45 7.86-.01 3.84 2.87 6.53 6.42 6.06Z"/><path fill="#05183A" d="M127.26 80.98c3.55-.5 6.43 2.2 6.42 6.07 0 3.86-2.9 7.35-6.45 7.85-3.55.5-6.43-2.21-6.42-6.07 0-3.86 2.9-7.36 6.45-7.85Z"/><path fill="#0077FD" d="M116.3 122.67a36.68 36.68 0 0 1-10.1 2.98 32.3 32.3 0 0 1-10.1-.14l20.2-2.84Z"/><path fill="#05183A" d="M133.05 109.8a1.58 1.58 0 0 1 1.31.4 2.12 2.12 0 0 1 0 2.86 49.44 49.44 0 0 1-8.53 8.27 42.6 42.6 0 0 1-19.66 8.38c-6.68 1-13.5 0-19.62-2.86a33.01 33.01 0 0 1-8.28-5.64 2.14 2.14 0 0 1 0-2.86c.33-.42.8-.7 1.34-.79a1.59 1.59 0 0 1 1.32.4 29.56 29.56 0 0 0 15.16 7.55c3.34.58 6.75.63 10.1.14 3.5-.5 6.9-1.5 10.11-2.98 6-2.79 11.27-6.93 15.41-12.09.33-.42.81-.7 1.34-.78ZM82.13 88.35c3.55-.5 6.43 2.2 6.42 6.07 0 3.87-2.9 7.35-6.45 7.86-3.55.5-6.43-2.21-6.42-6.07 0-3.86 2.9-7.34 6.45-7.86Z"/><path fill="#003E84" d="m66.7 129.65-31.55-17.17.11-57.99 31.55 17.17-.11 57.99Z"/><path fill="#0077FD" d="m125.83 121.33 55-7.72v20.22l-74.41 58.08-74.83-37.1.04-20.22 54.97-7.73a34.31 34.31 0 0 0 19.63 2.85 42.6 42.6 0 0 0 19.6-8.38Z"/><path fill="#003E84" d="M31.55 154.81 0 137.65l.03-20.23 31.55 17.16-.03 20.23ZM66.81 71.66 35.26 54.49l.06-26.64 31.53 17.17-.04 26.64Z"/></svg>