<svg xmlns="http://www.w3.org/2000/svg" fill="none" viewBox="0 0 305 325"><path fill="#3E7210" d="m261.72 233.85-28.22-24.97 40.42-2.66 28.22 24.97-40.42 2.66Z"/><path fill="#3E7210" d="m178.65 239.31-28.24-24.97 83.09-5.46 28.22 24.97-83.07 5.46Z"/><path fill="#3C6F0F" d="m167.6 251.88-28.23-24.97 11.04-12.57 28.24 24.97-11.05 12.57Z"/><path fill="#3C6F0F" d="m178.65 239.31-28.24-24.97 16.95-19.24 28.22 24.97-16.93 19.24Z"/><mask id="a" width="30" height="32" x="167" y="189" maskUnits="userSpaceOnUse" style="mask-type:luminance"><path fill="#fff" d="m167.12 189.1 28.24 24.96a4.27 4.27 0 0 1 .22 6.01l-28.22-24.97a4.27 4.27 0 0 0-.24-6Z"/></mask><g mask="url(#a)"><path fill="#3B6D0F" d="m195.58 220.07-28.22-24.97a4.27 4.27 0 0 0-.24-6l28.24 24.96a4.27 4.27 0 0 1 .22 6.01Z"/></g><mask id="b" width="23" height="20" x="173" y="195" maskUnits="userSpaceOnUse" style="mask-type:luminance"><path fill="#fff" d="m181.24 201.58-.92-.82-.93-.8-.93-.84-.91-.8-.92-.8-.91-.82-.9-.8-.9-.8 21.44 18.96-14.12-12.48Z"/></mask><g mask="url(#b)"><path fill="#3B6D0F" d="m195.58 220.07-28.22-24.97a4.27 4.27 0 0 0-.24-6l28.24 24.96a4.27 4.27 0 0 1 .22 6.01Z"/></g><mask id="c" width="32" height="27" x="164" y="188" maskUnits="userSpaceOnUse" style="mask-type:luminance"><path fill="#fff" d="m192.44 213.1-28.22-24.97a3.98 3.98 0 0 1 2.9.96l28.24 24.97a4.02 4.02 0 0 0-2.92-.95Z"/></mask><g mask="url(#c)"><path fill="#030D1F" d="m192.44 213.1-28.22-24.97c.75-.06 1.5.1 2.15.46l28.24 24.97a3.9 3.9 0 0 0-2.17-.46Z"/><path fill="#030C1E" d="m194.6 213.56-28.23-24.97c.27.13.53.3.75.5l28.24 24.97c-.23-.2-.48-.37-.75-.5Z"/></g><path fill="#030D1F" d="m167.17 239.9-28.22-24.97 22.2-25.27 28.23 24.97-22.21 25.28Z"/><mask id="d" width="32" height="27" x="161" y="188" maskUnits="userSpaceOnUse" style="mask-type:luminance"><path fill="#fff" d="m189.4 214.63-28.24-24.97a4.44 4.44 0 0 1 3.06-1.53l28.22 24.97a4.44 4.44 0 0 0-3.05 1.53Z"/></mask><g mask="url(#d)"><path fill="#030C1E" d="m189.4 214.63-28.24-24.97a4.45 4.45 0 0 1 2.07-1.35l28.24 24.97c-.8.25-1.53.71-2.08 1.35Z"/><path fill="#030D1F" d="m191.47 213.28-28.24-24.97c.32-.1.66-.16 1-.18l28.21 24.98a3.7 3.7 0 0 0-.97.17Z"/></g><path fill="#3A6C0F" d="m155.06 240.86-28.22-24.97 12.53 11.02 28.23 24.97-12.54-11.02Z"/><mask id="e" width="34" height="27" x="173" y="149" maskUnits="userSpaceOnUse" style="mask-type:luminance"><path fill="#fff" d="M173.3 149.49c1.47.51 3.04.72 4.6.62l28.23 24.97c-1.56.1-3.12-.1-4.6-.62l-3.3-2.9-3.5-3.1-3.62-3.2-3.69-3.27-3.7-3.27-3.63-3.2-3.5-3.1-3.3-2.93Z"/></mask><g mask="url(#e)"><path fill="#3D7110" d="m200.17 173.84-28.22-24.97c1.84.96 3.93 1.4 6 1.24l28.24 24.97c-2.08.15-4.17-.28-6.02-1.25Z"/></g><mask id="f" width="41" height="47" x="177" y="129" maskUnits="userSpaceOnUse" style="mask-type:luminance"><path fill="#fff" d="M189.61 137.51a11.18 11.18 0 0 0-3.73-8.32l28.22 24.97a11.15 11.15 0 0 1 3.73 8.32 12.63 12.63 0 0 1-11.61 12.6l-28.24-24.97a12.65 12.65 0 0 0 11.63-12.6Z"/></mask><g mask="url(#f)"><path fill="#3D7110" d="m206.19 175.08-28.24-24.97c.93-.06 1.85-.23 2.73-.5l28.22 24.98c-.88.27-1.8.43-2.71.5Z"/><path fill="#3B6D0F" d="m208.9 174.59-28.22-24.99a12.66 12.66 0 0 0 8.93-12.09 11.19 11.19 0 0 0-3.73-8.32l28.22 24.97a11.15 11.15 0 0 1 3.73 8.32 12.67 12.67 0 0 1-8.93 12.11Z"/></g><mask id="g" width="33" height="28" x="169" y="147" maskUnits="userSpaceOnUse" style="mask-type:luminance"><path fill="#fff" d="M169.78 147.37c1.05.92 2.26 1.64 3.57 2.12l28.24 24.97a11.16 11.16 0 0 1-3.59-2.12l-28.22-24.97Z"/></mask><g mask="url(#g)"><path fill="#3B6D0F" d="m197.97 172.34-28.22-24.97c.66.57 1.39 1.06 2.17 1.45l28.22 24.97c-.78-.4-1.5-.88-2.17-1.45Z"/><path fill="#3D7110" d="m200.17 173.84-28.22-24.98c1.84.97 3.93 1.4 6 1.25l28.24 24.97a11.3 11.3 0 0 1-6.02-1.25Z"/></g><mask id="h" width="38" height="29" x="177" y="126" maskUnits="userSpaceOnUse" style="mask-type:luminance"><path fill="#fff" d="m185.88 129.2 28.22 24.96a11.14 11.14 0 0 0-8.16-2.74l-28.22-24.97a11.14 11.14 0 0 1 8.16 2.74Z"/></mask><g mask="url(#h)"><path fill="#030D1F" d="m205.94 151.42-28.22-24.97c2.08-.15 4.15.28 6 1.25l28.22 24.97a11.2 11.2 0 0 0-6-1.25Z"/><path fill="#030C1E" d="m211.94 152.67-28.22-24.97c.78.4 1.5.88 2.16 1.45l28.22 24.97a10.65 10.65 0 0 0-2.16-1.45Z"/></g><path fill="#3E7210" d="m69.38 246.51-28.24-24.97 85.7-5.65 28.22 24.97-85.68 5.65Z"/><path fill="#3A6C0F" d="m137.5 225.43-28.23-24.97 17.57 15.43 28.22 24.97-17.57-15.43Z"/><path fill="#030C1E" d="m143.26 218.88-28.24-24.97 23.93 21.03 28.22 24.97-23.91-21.03Z"/><mask id="i" width="40" height="47" x="166" y="126" maskUnits="userSpaceOnUse" style="mask-type:luminance"><path fill="#fff" d="m197.97 172.34-28.22-24.97a11.13 11.13 0 0 1-3.73-8.3 12.65 12.65 0 0 1 11.61-12.62l28.23 24.97a12.66 12.66 0 0 0-11.62 12.62 11.18 11.18 0 0 0 3.73 8.3Z"/></mask><g mask="url(#i)"><path fill="#030C1E" d="m197.97 172.34-28.22-24.97a11.13 11.13 0 0 1-3.73-8.3 12.67 12.67 0 0 1 8.93-12.11l28.24 24.97a12.7 12.7 0 0 0-8.95 12.1 11.18 11.18 0 0 0 3.73 8.31Z"/><path fill="#030D1F" d="m203.21 151.93-28.23-24.97c.9-.27 1.81-.44 2.74-.51l28.22 24.97c-.92.06-1.84.24-2.73.5Z"/></g><path fill="#051839" d="M205.94 151.42a11.05 11.05 0 0 1 11.9 11.06 12.63 12.63 0 0 1-11.62 12.6 11.07 11.07 0 0 1-11.92-11.04 12.65 12.65 0 0 1 11.64-12.62ZM192.44 213.1c1.06-.07 2.1.27 2.9.96a4.26 4.26 0 0 1 .22 6.01l-16.92 19.24-11.05 12.57-12.53-11.02-17.56-15.43a4.22 4.22 0 0 1-.24-5.98 4.47 4.47 0 0 1 3.07-1.52c1.05-.08 2.1.26 2.9.95l23.92 21.03 22.22-25.28a4.42 4.42 0 0 1 3.07-1.53Z"/><mask id="j" width="37" height="34" x="107" y="192" maskUnits="userSpaceOnUse" style="mask-type:luminance"><path fill="#fff" d="m137.5 225.43-28.23-25.01a4.22 4.22 0 0 1-.21-5.98 4.43 4.43 0 0 1 3.04-1.46c1.06-.07 2.1.28 2.9.96l28.23 24.97a4.02 4.02 0 0 0-2.9-.95 4.47 4.47 0 0 0-4.17 4.55 4.22 4.22 0 0 0 1.35 2.92Z"/></mask><g mask="url(#j)"><path fill="#030C1E" d="m137.5 225.43-28.23-25.01a4.24 4.24 0 0 1-.21-5.98 4.45 4.45 0 0 1 2.07-1.35l28.22 24.97c-.8.24-1.52.7-2.07 1.35a4.23 4.23 0 0 0 .23 5.98"/><path fill="#030D1F" d="m139.35 218.1-28.22-24.97c.32-.1.64-.16.97-.17.76-.07 1.51.09 2.18.44l28.22 24.98a3.89 3.89 0 0 0-2.16-.45c-.34.01-.67.07-.99.17Z"/><path fill="#030C1E" d="m142.5 218.38-28.22-24.97c.27.13.53.3.76.5l28.22 24.97c-.23-.2-.48-.37-.76-.5Z"/></g><path fill="#3C6F0F" d="m112.02 243.7-28.23-24.96 53.95-68.86 28.24 24.99-53.96 68.84Z"/><path fill="#3C6F0F" d="m165.98 174.87-28.24-24.99L180.2 95.7l28.23 24.97-42.45 54.2Z"/><path fill="#3C6F0F" d="M208.43 120.67 180.2 95.7l45.86-58.52 28.23 24.97-45.87 58.52Z"/><path fill="#6FCE1D" d="m302.9 132.43 1.21 98.63-1.96.12-40.41 2.67-83.09 5.46 16.93-19.24a4.27 4.27 0 0 0-.22-6 4.02 4.02 0 0 0-2.9-.97 4.44 4.44 0 0 0-3.05 1.53l-22.21 25.28-23.93-21.03a4.02 4.02 0 0 0-2.9-.95 4.46 4.46 0 0 0-3.06 1.52 4.2 4.2 0 0 0 .23 5.98l17.56 15.43-43.04 2.83 53.95-68.84 42.46-54.18 45.86-58.52 48.58 70.28Zm-96.7 42.65a12.63 12.63 0 0 0 11.6-12.6 11.04 11.04 0 0 0-11.89-11.06 12.66 12.66 0 0 0-11.6 12.62 11.09 11.09 0 0 0 11.91 11.04"/><mask id="k" width="41" height="47" x="97" y="136" maskUnits="userSpaceOnUse" style="mask-type:luminance"><path fill="#fff" d="M109.27 144.57a11.17 11.17 0 0 0-3.52-8.15l28.22 24.97a11.13 11.13 0 0 1 3.54 8.15 12.62 12.62 0 0 1-11.61 12.6l-28.23-24.97a12.61 12.61 0 0 0 11.6-12.6Z"/></mask><g mask="url(#k)"><path fill="#3D7110" d="m125.84 182.14-28.22-24.97c.92-.06 1.84-.23 2.73-.5l28.23 24.98c-.9.26-1.81.43-2.74.49Z"/><path fill="#3B6D0F" d="m128.58 181.65-28.23-24.97a12.68 12.68 0 0 0 8.93-12.11 11.12 11.12 0 0 0-3.74-8.34l28.24 24.97a11.2 11.2 0 0 1 3.73 8.34 12.69 12.69 0 0 1-8.93 12.1Z"/></g><mask id="l" width="37" height="29" x="89" y="154" maskUnits="userSpaceOnUse" style="mask-type:luminance"><path fill="#fff" d="M89.46 154.44a11.13 11.13 0 0 0 8.16 2.73l28.22 24.97a11.14 11.14 0 0 1-8.16-2.73l-28.22-24.97Z"/></mask><g mask="url(#l)"><path fill="#3B6D0F" d="m117.68 179.41-28.22-24.97c.66.57 1.39 1.05 2.16 1.45l28.22 24.97c-.77-.4-1.5-.88-2.16-1.45Z"/><path fill="#3D7110" d="m119.84 180.89-28.22-24.97c1.84.97 3.92 1.4 6 1.25l28.22 24.97a11.2 11.2 0 0 1-6-1.25Z"/></g><mask id="m" width="29" height="26" x="105" y="136" maskUnits="userSpaceOnUse" style="mask-type:luminance"><path fill="#fff" d="m105.75 136.42-.2-.19 28.23 24.98.19.18-3.3-2.9-3.48-3.1-3.63-3.2-3.7-3.27-3.7-3.26-3.62-3.21-3.5-3.1-1.67-1.45c-.5-.47-1.15-1.04-1.63-1.48Z"/></mask><g mask="url(#m)"><path fill="#3B6D0F" d="m128.58 181.65-28.24-24.97a12.68 12.68 0 0 0 8.93-12.11 11.1 11.1 0 0 0-3.73-8.34l28.24 24.97a11.2 11.2 0 0 1 3.73 8.34 12.7 12.7 0 0 1-8.93 12.1Z"/></g><mask id="n" width="37" height="29" x="97" y="133" maskUnits="userSpaceOnUse" style="mask-type:luminance"><path fill="#fff" d="m105.54 136.23 28.24 24.98a11.11 11.11 0 0 0-8.17-2.73L97.37 133.5a11.08 11.08 0 0 1 8.17 2.72Z"/></mask><g mask="url(#n)"><path fill="#030D1F" d="M125.6 158.48 97.38 133.5c2.08-.16 4.16.28 6 1.24l28.25 24.97a11.25 11.25 0 0 0-6.02-1.24Z"/><path fill="#030C1E" d="m131.62 159.77-28.24-24.97c.78.39 1.5.88 2.16 1.45l28.24 24.97a10.58 10.58 0 0 0-2.16-1.45Z"/></g><mask id="o" width="41" height="47" x="85" y="133" maskUnits="userSpaceOnUse" style="mask-type:luminance"><path fill="#fff" d="m117.68 179.41-28.22-24.97a11.16 11.16 0 0 1-3.73-8.32 12.62 12.62 0 0 1 11.61-12.62l28.24 24.98a12.63 12.63 0 0 0-11.62 12.61 11.16 11.16 0 0 0 3.72 8.32Z"/></mask><g mask="url(#o)"><path fill="#030C1E" d="m117.68 179.41-28.22-24.97a11.17 11.17 0 0 1-3.73-8.32A12.67 12.67 0 0 1 94.65 134l28.23 24.97a12.7 12.7 0 0 0-8.93 12.12 11.17 11.17 0 0 0 3.73 8.32Z"/><path fill="#030D1F" d="M122.88 158.97 94.64 134c.89-.27 1.8-.43 2.72-.5l28.23 24.98c-.92.06-1.84.22-2.72.49Z"/></g><path fill="#051839" d="M125.6 158.47a11.05 11.05 0 0 1 11.9 11.07 12.62 12.62 0 0 1-11.6 12.6 11.05 11.05 0 0 1-11.9-11.05 12.63 12.63 0 0 1 11.6-12.62Z"/><path fill="#3E7210" d="M29.17 249.15.93 224.18l40.21-2.64 28.24 24.97-40.21 2.64Z"/><path fill="#39690F" d="m165.98 174.87-28.24-24.99-44.93-50.11 28.22 24.97 44.95 50.13Z"/><path fill="#6FCE1D" d="m163.36 24.97 45.07 95.7-42.45 54.2-44.95-50.13 42.33-99.77Z"/><path fill="#3A6C0F" d="M121.03 124.74 92.81 99.77 135.13 0l28.23 24.97-42.33 99.77Z"/><path fill="#39690F" d="M29.17 249.15.93 224.18l-.74-91.97 28.22 24.97.76 91.97Z"/><path fill="#6FCE1D" d="m28.22 157.2.95 91.95 40.21-2.64 85.68-5.65 12.54 11.02 11.05-12.57 83.07-5.46 40.42-2.66.04 3.16-135.13 90.05L29.2 252.32l-.98-95.12Z"/><path fill="#39690F" d="M29.2 252.32.95 227.35 0 132.23l28.22 24.97.97 95.12ZM28.41 157.18.2 132.21l-.06-6.68 28.24 24.97.04 6.68Z"/><path fill="#3B6E0F" d="M28.37 150.5.13 125.53l47.11-76.58 28.22 24.97-47.1 76.58Z"/><path fill="#6FCE1D" d="m121.03 124.74 45 50.11-53.94 68.84-42.65 2.82-40.22 2.64-.74-91.97v-6.69L75.6 73.91l45.44 50.83Zm4.8 57.4a12.63 12.63 0 0 0 11.62-12.6 11.06 11.06 0 0 0-11.9-11.06 12.63 12.63 0 0 0-11.62 12.61 11.06 11.06 0 0 0 11.9 11.05"/></svg>