<svg xmlns="http://www.w3.org/2000/svg" fill="none" viewBox="0 0 168 195"><path fill="#101551" d="M168 0H0v88h168V0Z"/><path fill="#22B28F" d="M167.13 85.06a55.71 55.71 0 0 1-35.41-12.74A55.54 55.54 0 0 1 112.52 40H56.2a55.53 55.53 0 0 1-19.17 32.44 55.7 55.7 0 0 1-35.5 12.78H0v60.19L84.34 195 168 145.4V85.08l-.88-.01Z"/><path fill="#5CD5D5" d="M11 85h147a55.35 55.35 0 0 1-29.94-15.16A56.62 56.62 0 0 1 112.12 40H55.85a56.64 56.64 0 0 1-15.52 29.57A55.38 55.38 0 0 1 11 85ZM158 85H11a55.83 55.83 0 0 1 29.94 14.83A55.01 55.01 0 0 1 56.88 129h56.27a55.01 55.01 0 0 1 15.53-28.9A55.82 55.82 0 0 1 158 85Z"/></svg>