<svg xmlns="http://www.w3.org/2000/svg" fill="none" viewBox="0 0 18 11"><path fill="#fff" d="M18 0H0v10.98h18V0Z"/><path fill="#CE1124" d="M18 4.4h-7.93V0H7.91v4.4H0v2.2h7.9v4.39h2.16v-4.4H18V4.4Z"/><path fill="#00247D" d="M0 1.28v2.4h3.92L0 1.27ZM2.17 0H2.1l5.08 3.12V0H2.17Z"/><path fill="#CE1124" d="M6.04 3.65 0 0v.86l4.6 2.8h1.44Zm5.92 3.68L18 10.98v-.86l-4.6-2.8h-1.44Z"/><path fill="#00247D" d="M0 9.72v-2.4h3.92L0 9.73ZM2.17 11H2.1l5.08-3.12V11H2.17Z"/><path fill="#CE1124" d="m6 7.33-6 3.65h1.4l5.8-3.5v-.15H6Z"/><path fill="#00247D" d="M18 1.28v2.4h-3.92l3.91-2.4ZM15.82 0h.06l-5.1 3.12V0h5.04Z"/><path fill="#CE1124" d="M18 0h-1.36L10.8 3.54v.12h1.23L18 0Z"/><path fill="#00247D" d="M18 9.72v-2.4h-3.92L18 9.73ZM15.82 11h.06l-5.1-3.12V11h5.04Z"/></svg>