<svg xmlns="http://www.w3.org/2000/svg" fill="none" viewBox="0 0 27 27"><g clip-path="url(#a)"><path stroke="#101551" stroke-linecap="round" stroke-linejoin="round" d="m19.63 10.9 6.77-3.46L14.29.5 2.18 7.44l6.4 3.27M11.47 17.67v1.64c0 1.48 1.2 2.68 2.68 2.68h.17c1.48 0 2.68-1.2 2.68-2.68V17.4"/><path stroke="#101551" stroke-linecap="round" stroke-linejoin="round" d="M17.15 18.95s2.42.66 4.63 1.93c.64.37 1.24.8 1.74 1.2a4.42 4.42 0 0 1 1.63 3.44v.97H3.47v-.97c0-1.33.59-2.6 1.63-3.44.5-.4 1.1-.83 1.74-1.2 2.21-1.27 4.63-1.93 4.63-1.93M2.17 7.56V16"/><path fill="#101551" stroke="#101551" stroke-linecap="round" stroke-linejoin="round" d="M2.18 16 .5 18.46h3.35L2.18 16Z"/><path stroke="#101551" stroke-linecap="round" stroke-linejoin="round" d="M8.92 9.89c-.01.33 0 .69.01 1.08H8.9c-.72 0-1.3.67-1.3 1.49s.58 1.49 1.3 1.49c.17 0 .33-.04.48-.11.99 3.67 3.31 4.44 4.9 4.44 1.59 0 3.91-.77 4.9-4.44.15.07.31.11.48.11.72 0 1.3-.67 1.3-1.49s-.58-1.49-1.3-1.49h.01-.03c.02-.39.03-.75.02-1.08M14.29 8.86c2.52 0 5.36.86 5.36.86v-2.6a.88.88 0 0 0-.59-.87c-.85-.31-2.55-.8-4.78-.8-2.23 0-3.93.49-4.78.8a.92.92 0 0 0-.6.87v2.6s2.86-.86 5.38-.86h.01Z"/><path fill="#101551" d="M16.61 12.54a.8.8 0 0 0 .8-.8.8.8 0 0 0-.8-.8.8.8 0 0 0-.8.8c0 .44.36.8.8.8ZM11.97 12.54a.8.8 0 0 0 .8-.8.8.8 0 0 0-.8-.8.8.8 0 0 0-.8.8c0 .44.36.8.8.8Z"/></g><defs><clipPath id="a"><path fill="#fff" d="M0 0h26.9v26.99H0z"/></clipPath></defs></svg>