<svg xmlns="http://www.w3.org/2000/svg" fill="none" viewBox="0 0 330 302"><path fill="#fff" d="M254.44 301.95a79.56 79.56 0 0 1-29.82-5.53 74.98 74.98 0 0 1-23.7-15.6 72.18 72.18 0 0 1-15.8-23.11 74.99 74.99 0 0 1-5.53-28.84 73.52 73.52 0 0 1 5.53-28.64 71.6 71.6 0 0 1 15.8-23.3 72.28 72.28 0 0 1 23.7-15.41 77.16 77.16 0 0 1 29.82-5.73c10.8 0 20.74 1.91 29.83 5.73a70.07 70.07 0 0 1 23.5 15.4 69.08 69.08 0 0 1 15.6 23.31 71.33 71.33 0 0 1 5.74 28.64 72.74 72.74 0 0 1-5.73 28.84 69.58 69.58 0 0 1-15.6 23.1 72.63 72.63 0 0 1-23.51 15.61c-9.09 3.69-19.03 5.53-29.82 5.53Zm0-24.1a49.6 49.6 0 0 0 18.97-3.55c5.79-2.5 10.8-5.86 15-10.07a45.32 45.32 0 0 0 10.08-15.41 54.3 54.3 0 0 0 3.56-19.95c0-7.24-1.19-13.83-3.56-19.75a42.9 42.9 0 0 0-10.07-15.4 43.68 43.68 0 0 0-15.01-10.08 47.3 47.3 0 0 0-18.97-3.75 47.82 47.82 0 0 0-19.15 3.75 43.69 43.69 0 0 0-15.01 10.07 44.3 44.3 0 0 0-9.88 15.41c-2.37 5.92-3.56 12.5-3.56 19.75 0 7.24 1.19 13.9 3.56 19.95a46.88 46.88 0 0 0 9.88 15.4 47.76 47.76 0 0 0 15 10.08 50.14 50.14 0 0 0 19.16 3.55ZM7.83 298V159.74h39.3l36.15 82.17h6.12l36.14-82.17h39.5V298h-25.87v-97.77l1.38-12.64h-1.58l-34.36 78.22H68.07L33.7 187.59h-1.58l1.58 12.64V298H7.83ZM70.63 117.19V38.58a51.96 51.96 0 0 0-17.97 3.36c-5.4 2.1-10 4.93-13.82 8.49a37.03 37.03 0 0 0-8.7 12.25 36.14 36.14 0 0 0-3.16 15.2c0 5.4 1.06 10.47 3.16 15.21 2.11 4.74 5 8.89 8.7 12.44a44.94 44.94 0 0 0 13.82 8.3 51.97 51.97 0 0 0 17.97 3.36Zm0 37.72V140.5c-10.66-.4-20.34-2.31-29.03-5.73a74.19 74.19 0 0 1-22.12-13.43 60.09 60.09 0 0 1-14.02-19.56 58.84 58.84 0 0 1-4.94-23.9c0-8.42 1.64-16.32 4.94-23.7a57.43 57.43 0 0 1 14.02-19.55A72 72 0 0 1 41.6 21c8.7-3.42 18.37-5.33 29.03-5.73V.85h25.88v14.42c10.66.4 20.28 2.3 28.83 5.73 8.7 3.42 16.07 7.97 22.13 13.63a56.26 56.26 0 0 1 14.22 19.55 57.47 57.47 0 0 1 4.94 23.7c0 8.43-1.65 16.4-4.94 23.9a58.8 58.8 0 0 1-14.22 19.56c-6.06 5.53-13.44 10-22.13 13.43-8.55 3.42-18.17 5.33-28.83 5.72v14.42H70.63Zm25.88-37.72a51.97 51.97 0 0 0 17.97-3.36c5.4-2.1 10-4.87 13.83-8.3A35.48 35.48 0 0 0 137 93.1a37.02 37.02 0 0 0 3.16-15.2c0-5.54-1.06-10.6-3.16-15.21a33.6 33.6 0 0 0-8.7-12.25 42.95 42.95 0 0 0-13.82-8.5 51.97 51.97 0 0 0-17.97-3.35v78.6Z"/><g clip-path="url(#a)"><path fill="#00428D" d="m128.52 108.93 17.49-8.07 52.25 5.8-17.47 8.06-52.27-5.8Z"/><mask id="b" width="12" height="7" x="173" y="99" maskUnits="userSpaceOnUse" style="mask-type:luminance"><path fill="#fff" d="m173.47 105.05 1.26-.58 1.32-.6 1.35-.64 1.4-.64 1.4-.65 1.44-.66 1.43-.66 1.43-.66-5.7 2.63-5.33 2.46Z"/></mask><g mask="url(#b)"><path fill="#003E85" d="m173.87 104.8 17.48-8.08a1.7 1.7 0 0 0-.4.26 1.9 1.9 0 0 0-.16 2.62c.9 1.1 1.86 2.13 2.85 3.12l-17.48 8.06a42.57 42.57 0 0 1-2.85-3.12 1.9 1.9 0 0 1 .16-2.61c.12-.1.25-.2.4-.26Z"/></g><mask id="c" width="27" height="19" x="172" y="96" maskUnits="userSpaceOnUse" style="mask-type:luminance"><path fill="#fff" d="M190.79 99.6a40.93 40.93 0 0 0 7.47 7.06l-17.47 8.06a40.72 40.72 0 0 1-7.48-7.06 1.9 1.9 0 0 1 .16-2.61c.12-.1.25-.2.4-.26l17.48-8.07a1.7 1.7 0 0 0-.4.26 1.9 1.9 0 0 0-.16 2.62Z"/></mask><g mask="url(#c)"><path fill="#003E85" d="m173.87 104.8 17.48-8.08a1.7 1.7 0 0 0-.4.26 1.9 1.9 0 0 0-.16 2.62c.9 1.1 1.85 2.13 2.84 3.12l-17.48 8.06a42.57 42.57 0 0 1-2.84-3.12 1.9 1.9 0 0 1 .16-2.61c.12-.1.25-.2.4-.26Z"/><path fill="#00418A" d="m176.15 110.78 17.48-8.06a41.15 41.15 0 0 0 4.6 3.94l-17.47 8.06a39.85 39.85 0 0 1-4.6-3.94"/></g><mask id="d" width="21" height="13" x="172" y="78" maskUnits="userSpaceOnUse" style="mask-type:luminance"><path fill="#fff" d="m192.7 82.2-17.47 8.06a6.65 6.65 0 0 1-2.63-3.49l2.04-.94 2.17-1 2.24-1.03 2.3-1.06 2.3-1.06 2.25-1.04 2.17-1 2.04-.93a6.77 6.77 0 0 0 2.6 3.49Z"/></mask><g mask="url(#d)"><path fill="#003E85" d="m175.75 79.14 17.48-8.07a6.02 6.02 0 0 0-3.45 5.15 6.7 6.7 0 0 0 2 5.17l-17.48 8.07a6.73 6.73 0 0 1-1.97-5.2 6.03 6.03 0 0 1 3.44-5.15"/><path fill="#00418A" d="m174.27 89.49 17.5-8.1c1.01 1 2.33 1.64 3.74 1.8l-17.48 8.08a6.3 6.3 0 0 1-3.73-1.8"/></g><mask id="e" width="19" height="9" x="175" y="82" maskUnits="userSpaceOnUse" style="mask-type:luminance"><path fill="#fff" d="m192.7 82.2.43.26-17.48 8.07-.43-.27 1.62-.77 1.71-.77 1.78-.82 1.81-.84 1.82-.83 1.78-.82 1.7-.77 1.63-.77.42-.2.45-.2.47-.22.48-.21.47-.23.47-.21.44-.21.43-.2Z"/></mask><g mask="url(#e)"><path fill="#00418A" d="m174.27 89.49 17.5-8.1c1 1 2.32 1.64 3.73 1.8l-17.47 8.08a6.3 6.3 0 0 1-3.74-1.8"/></g><mask id="f" width="20" height="10" x="175" y="82" maskUnits="userSpaceOnUse" style="mask-type:luminance"><path fill="#fff" d="m194.85 83.12-17.48 8.06a6.07 6.07 0 0 1-1.72-.65l2.04-.94 2.18-1 2.23-1.04 2.3-1.06 2.3-1.05 2.26-1.04 2.16-1 2.04-.94c.53.3 1.1.52 1.69.66Z"/></mask><g mask="url(#f)"><path fill="#00418A" d="m174.28 89.49 17.5-8.1c1 1 2.32 1.64 3.73 1.8l-17.48 8.08a6.3 6.3 0 0 1-3.73-1.8"/></g><mask id="g" width="19" height="9" x="177" y="83" maskUnits="userSpaceOnUse" style="mask-type:luminance"><path fill="#fff" d="M194.85 83.12c.2.04.42.08.63.1l-17.47 8.07a5.93 5.93 0 0 1-.64-.1l1.53-.7 1.61-.77 1.67-.77 1.7-.77 1.7-.77 1.68-.77 1.61-.77 1.54-.7.52-.24.55-.26.58-.26.58-.27.58-.27.3-.14.56-.26.27-.12c.15-.1.32-.18.5-.23Z"/></mask><g mask="url(#g)"><path fill="#00418A" d="m174.28 89.49 17.5-8.1c1 1 2.32 1.64 3.73 1.8l-17.48 8.08a6.3 6.3 0 0 1-3.73-1.8"/></g><mask id="h" width="56" height="17" x="180" y="106" maskUnits="userSpaceOnUse" style="mask-type:luminance"><path fill="#fff" d="m180.79 114.72 17.47-8.06a38.37 38.37 0 0 0 18.33 7.18c6.5.74 13.07-.3 19.01-3.04l-17.47 8.08a35.87 35.87 0 0 1-19.02 3.03 38.24 38.24 0 0 1-18.32-7.19Z"/></mask><g mask="url(#h)"><path fill="#00418A" d="m180.79 114.72 17.47-8.06a38.38 38.38 0 0 0 18.33 7.18c6.5.74 13.07-.3 19.01-3.04l-17.47 8.08a35.87 35.87 0 0 1-19.02 3.03 38.24 38.24 0 0 1-18.32-7.19Z"/></g><mask id="i" width="35" height="20" x="173" y="96" maskUnits="userSpaceOnUse" style="mask-type:luminance"><path fill="#fff" d="m173.87 104.8 17.48-8.08c.28-.13.59-.18.9-.15.48.06.92.3 1.22.68a36.05 36.05 0 0 0 13.86 10.42l-17.48 8.06a36.06 36.06 0 0 1-13.85-10.4c-.3-.38-.75-.63-1.23-.68-.3-.04-.62.01-.9.14Z"/></mask><g mask="url(#i)"><path fill="#fff" d="m173.87 104.8 17.48-8.08c.28-.13.59-.18.9-.15.41.05.8.24 1.1.53l-17.49 8.08c-.3-.3-.68-.49-1.09-.53-.3-.04-.62.01-.9.14Z"/><path fill="#030C1E" d="m175.86 105.18 17.48-8.08.13.15c.82.99 1.68 1.94 2.59 2.84l-17.48 8.07c-.9-.9-1.77-1.85-2.58-2.84l-.14-.14Z"/><path fill="#fff" d="m178.58 108.16 17.48-8.07a35.73 35.73 0 0 0 11.27 7.58l-17.48 8.06a35.8 35.8 0 0 1-11.27-7.57Z"/></g><mask id="j" width="21" height="10" x="178" y="82" maskUnits="userSpaceOnUse" style="mask-type:luminance"><path fill="#fff" d="M195.49 83.22a5.8 5.8 0 0 0 3.06-.5l-17.48 8.08c-.96.44-2.02.61-3.07.5 5.25-2.43 11.79-7.15 17.49-8.08Z"/></mask><g mask="url(#j)"><path fill="#00418A" d="m178.01 91.3 17.48-8.08a5.8 5.8 0 0 0 3.06-.5l-17.48 8.08c-.96.44-2.02.61-3.07.5"/></g><mask id="k" width="22" height="16" x="172" y="71" maskUnits="userSpaceOnUse" style="mask-type:luminance"><path fill="#fff" d="M189.78 76.22c-.05.85.05 1.7.32 2.52l-17.5 8.03a6.52 6.52 0 0 1 .7-5.57c.6-.9 1.44-1.63 2.42-2.1l17.49-8.06a6.01 6.01 0 0 0-3.43 5.18Z"/></mask><g mask="url(#k)"><path fill="#003E85" d="m175.75 79.14 17.48-8.07a6.02 6.02 0 0 0-3.45 5.15 6.7 6.7 0 0 0 2 5.17l-17.48 8.07a6.73 6.73 0 0 1-1.97-5.2 6.03 6.03 0 0 1 3.44-5.15"/></g><mask id="l" width="22" height="10" x="175" y="70" maskUnits="userSpaceOnUse" style="mask-type:luminance"><path fill="#fff" d="m175.75 79.14 17.48-8.07a5.76 5.76 0 0 1 3.07-.49l-17.48 8.07a5.86 5.86 0 0 0-3.07.49Z"/></mask><g mask="url(#l)"><path fill="#fff" d="m175.75 79.14 17.48-8.07a5.76 5.76 0 0 1 3.07-.49l-17.48 8.07a5.86 5.86 0 0 0-3.07.49"/></g><mask id="m" width="25" height="21" x="178" y="70" maskUnits="userSpaceOnUse" style="mask-type:luminance"><path fill="#fff" d="m198.58 82.73-17.49 8.07a6.02 6.02 0 0 0 3.45-5.15 6.6 6.6 0 0 0-5.7-7l17.47-8.07a6.57 6.57 0 0 1 5.71 7 6.04 6.04 0 0 1-3.44 5.15Z"/></mask><g mask="url(#m)"><path fill="#fff" d="m178.84 78.65 17.47-8.07c1.41.16 2.73.8 3.73 1.8l-17.47 8.07c-1-1-2.31-1.64-3.72-1.8"/><path fill="#030C1E" d="m182.57 80.45 17.48-8.06a6.7 6.7 0 0 1 1.98 5.19 6.04 6.04 0 0 1-3.45 5.15L181.1 90.8a6.02 6.02 0 0 0 3.45-5.15 6.73 6.73 0 0 0-1.98-5.2Z"/></g><path fill="#051738" d="M178.84 78.65a6.59 6.59 0 0 1 5.7 7 5.93 5.93 0 0 1-6.53 5.64 6.58 6.58 0 0 1-5.7-7 5.94 5.94 0 0 1 6.53-5.64Z"/><path fill="#004089" d="m166.95 35.63 17.48-8.07 15.15 26.08-17.48 8.06-15.15-26.07Z"/><mask id="n" width="38" height="12" x="189" y="107" maskUnits="userSpaceOnUse" style="mask-type:luminance"><path fill="#fff" d="m189.84 115.73 17.49-8.06a34.36 34.36 0 0 0 9.5 2.48c3.24.36 6.5.24 9.7-.35l-17.47 8.07c-3.2.6-6.47.71-9.7.35a34.1 34.1 0 0 1-9.52-2.49Z"/></mask><g mask="url(#n)"><path fill="#fff" d="m189.84 115.73 17.49-8.06a34.39 34.39 0 0 0 9.5 2.48c3.24.36 6.5.24 9.7-.35l-17.47 8.07c-3.2.6-6.47.71-9.7.35a34.1 34.1 0 0 1-9.52-2.49Z"/></g><path fill="#00428D" d="m189.85 115.73 17.48-8.06 19.2 2.13-17.47 8.07-19.2-2.14Z"/><path fill="#0075F8" d="M209.06 117.87c-3.2.6-6.47.71-9.7.35a34.1 34.1 0 0 1-9.51-2.49l19.21 2.14Z"/><mask id="o" width="26" height="11" x="209" y="107" maskUnits="userSpaceOnUse" style="mask-type:luminance"><path fill="#fff" d="m234.05 107.4-17.48 8.07a31.76 31.76 0 0 1-7.51 2.4l17.47-8.07c2.6-.48 5.12-1.29 7.52-2.4Z"/></mask><g mask="url(#o)"><path fill="#fff" d="m209.06 117.87 17.47-8.07c2.6-.48 5.12-1.29 7.52-2.4l-17.48 8.07a31.76 31.76 0 0 1-7.51 2.4Z"/></g><mask id="p" width="26" height="14" x="216" y="102" maskUnits="userSpaceOnUse" style="mask-type:luminance"><path fill="#fff" d="M241.77 102.4a32.45 32.45 0 0 1-7.72 5l-17.48 8.07c2.8-1.3 5.4-2.98 7.72-5l2.04-.95 2.16-1 2.25-1.04 2.3-1.05 2.3-1.05 2.24-1.04 2.17-1 2.04-.95h-.02Z"/></mask><g mask="url(#p)"><path fill="#003E85" d="m224.7 110.2 17.47-8.07c-.14.07-.28.16-.4.26a32.45 32.45 0 0 1-7.72 5.02l-17.48 8.06c2.8-1.3 5.4-2.98 7.72-5 .12-.11.26-.2.4-.27Z"/></g><mask id="q" width="19" height="9" x="224" y="102" maskUnits="userSpaceOnUse" style="mask-type:luminance"><path fill="#fff" d="M242.17 102.15c-.14.07-.28.16-.4.26l-17.48 8.07c.12-.1.26-.2.4-.26l17.48-8.07Z"/></mask><g mask="url(#q)"><path fill="#003E85" d="m224.7 110.2 17.47-8.07a1.9 1.9 0 0 0-.4.26 32.45 32.45 0 0 1-7.72 5.02l-17.48 8.06c2.8-1.3 5.4-2.98 7.72-5 .12-.11.26-.2.4-.27Z"/></g><mask id="r" width="20" height="10" x="224" y="101" maskUnits="userSpaceOnUse" style="mask-type:luminance"><path fill="#fff" d="m224.7 110.2 17.47-8.07c.28-.13.59-.18.9-.14l-17.48 8.07a1.7 1.7 0 0 0-.9.14Z"/></mask><g mask="url(#r)"><path fill="#fff" d="m224.7 110.2 17.47-8.07c.28-.13.59-.18.9-.14l-17.48 8.07a1.7 1.7 0 0 0-.9.14Z"/></g><path fill="#0075F8" d="m218.13 118.88 52.27 5.8-1.2 18.4-73.5 35.5-68.36-51.25 1.2-18.4 52.27 5.8a38.24 38.24 0 0 0 18.32 7.18c6.5.73 13.06-.31 19-3.03Z"/><path fill="#051738" d="M225.58 110.06c.48.05.93.3 1.23.67a1.88 1.88 0 0 1-.16 2.61 35.83 35.83 0 0 1-8.52 5.54 35.86 35.86 0 0 1-19.02 3.03 38.24 38.24 0 0 1-18.32-7.19 40.75 40.75 0 0 1-7.48-7.06 1.9 1.9 0 0 1 .16-2.61 1.68 1.68 0 0 1 1.3-.4c.48.05.92.3 1.23.67a36.07 36.07 0 0 0 13.84 10.41 34.07 34.07 0 0 0 9.52 2.5c3.23.35 6.5.23 9.7-.36a32.07 32.07 0 0 0 15.23-7.4 1.67 1.67 0 0 1 1.3-.41Z"/><mask id="s" width="27" height="18" x="218" y="101" maskUnits="userSpaceOnUse" style="mask-type:luminance"><path fill="#fff" d="m225.59 110.06 17.48-8.07c.48.06.92.3 1.22.68a1.88 1.88 0 0 1-.16 2.6 35.69 35.69 0 0 1-8.53 5.53l-17.47 8.08a35.83 35.83 0 0 0 8.52-5.54 1.87 1.87 0 0 0 .16-2.6c-.3-.38-.74-.63-1.22-.68Z"/></mask><g mask="url(#s)"><path fill="#fff" d="m225.59 110.06 17.48-8.07c.4.05.79.23 1.08.53l-17.47 8.08c-.3-.29-.68-.47-1.1-.52"/><path fill="#030C1E" d="m226.68 110.6 17.47-8.06.14.15a1.88 1.88 0 0 1-.16 2.61 35.68 35.68 0 0 1-8.53 5.53l-17.47 8.07a35.83 35.83 0 0 0 8.52-5.54 1.87 1.87 0 0 0 .16-2.6l-.13-.16Z"/></g><mask id="t" width="21" height="10" x="218" y="86" maskUnits="userSpaceOnUse" style="mask-type:luminance"><path fill="#fff" d="M236.1 86.28c.72.42 1.52.68 2.35.77l-17.47 8.07a6.13 6.13 0 0 1-2.36-.77l2.04-.94 2.16-1 2.25-1.03 2.3-1.06 2.3-1.06 2.24-1.04 2.18-1 2.01-.94Z"/></mask><g mask="url(#t)"><path fill="#00418A" d="m217.24 93.3 17.5-8.07c1 1.01 2.32 1.65 3.73 1.81L221 95.11a6.28 6.28 0 0 1-3.74-1.8"/></g><mask id="u" width="22" height="10" x="220" y="86" maskUnits="userSpaceOnUse" style="mask-type:luminance"><path fill="#fff" d="M238.45 87.04a5.8 5.8 0 0 0 3.07-.5l-17.49 8.08c-.96.44-2.02.61-3.06.5 5.24-2.43 11.78-7.15 17.48-8.08Z"/></mask><g mask="url(#u)"><path fill="#00418A" d="m220.97 95.11 17.48-8.07a5.8 5.8 0 0 0 3.07-.5l-17.49 8.08c-.96.44-2.02.61-3.06.5"/></g><mask id="v" width="22" height="21" x="215" y="74" maskUnits="userSpaceOnUse" style="mask-type:luminance"><path fill="#fff" d="M232.74 80.04a6.7 6.7 0 0 0 3.36 6.24l-17.48 8.07a6.7 6.7 0 0 1-3.36-6.24 6.04 6.04 0 0 1 3.45-5.15l17.48-8.07a6.04 6.04 0 0 0-3.45 5.15Z"/></mask><g mask="url(#v)"><path fill="#003E85" d="m218.71 82.93 17.48-8.07a6.04 6.04 0 0 0-3.45 5.15 6.73 6.73 0 0 0 2 5.22l-17.48 8.08a6.7 6.7 0 0 1-1.98-5.2 6.04 6.04 0 0 1 3.46-5.15"/><path fill="#00418A" d="m217.24 93.3 17.5-8.07c1 1.01 2.32 1.65 3.73 1.81L221 95.11a6.28 6.28 0 0 1-3.74-1.8"/></g><mask id="w" width="22" height="9" x="218" y="74" maskUnits="userSpaceOnUse" style="mask-type:luminance"><path fill="#fff" d="m218.71 82.93 17.48-8.07a5.77 5.77 0 0 1 3.07-.5l-17.47 8.08a5.8 5.8 0 0 0-3.08.49Z"/></mask><g mask="url(#w)"><path fill="#fff" d="m218.71 82.93 17.48-8.07a5.77 5.77 0 0 1 3.07-.5l-17.47 8.08a5.8 5.8 0 0 0-3.07.49"/></g><mask id="x" width="25" height="21" x="221" y="74" maskUnits="userSpaceOnUse" style="mask-type:luminance"><path fill="#fff" d="m241.54 86.55-17.48 8.07a6.02 6.02 0 0 0 3.44-5.15 6.6 6.6 0 0 0-5.7-7l17.48-8.08a6.59 6.59 0 0 1 4.69 10.06c-.6.9-1.44 1.63-2.43 2.1Z"/></mask><g mask="url(#x)"><path fill="#fff" d="m221.8 82.47 17.48-8.08c1.4.17 2.72.8 3.73 1.81l-17.48 8.07c-1-1-2.31-1.64-3.72-1.8"/><path fill="#030C1E" d="m225.53 84.27 17.48-8.07a6.72 6.72 0 0 1 1.98 5.2 6.06 6.06 0 0 1-3.44 5.15l-17.48 8.07a6.02 6.02 0 0 0 3.44-5.15 6.75 6.75 0 0 0-1.98-5.2Z"/></g><path fill="#051738" d="M221.8 82.47a6.58 6.58 0 0 1 5.7 7 5.93 5.93 0 0 1-6.53 5.64 6.6 6.6 0 0 1-5.71-7 5.96 5.96 0 0 1 4.15-5.4 5.91 5.91 0 0 1 2.4-.24Z"/><path fill="#00428D" d="m222.87 66.25 17.48-8.07.84.1-17.48 8.07-.84-.1Z"/><path fill="#003F87" d="M205.35 20.06 222.83 12l17.52 46.18-17.48 8.07-17.52-46.19Z"/><path fill="#003C80" d="m269.2 143.09 17.47-8.08-73.48 35.49-17.48 8.07 73.48-35.48Z"/><path fill="#00428D" d="m218.13 118.88 17.47-8.08 52.28 5.8-17.48 8.07-52.27-5.8Z"/><path fill="#003D81" d="m270.4 124.67 17.48-8.06-1.21 18.4-17.48 8.08 1.2-18.42Z"/><path fill="#0075F8" d="m223.71 66.35 18.34-22.38-5.01 77-18.89-2.1a35.8 35.8 0 0 0 8.52-5.53 1.87 1.87 0 0 0 .17-2.6c-.31-.38-.75-.63-1.23-.68a1.66 1.66 0 0 0-1.3.4 32.07 32.07 0 0 1-15.23 7.4l-19.17-2.13a36.07 36.07 0 0 1-13.85-10.4 1.84 1.84 0 0 0-1.92-.62c-.22.07-.43.18-.61.34a1.9 1.9 0 0 0-.16 2.61 40.71 40.71 0 0 0 7.48 7.06l-18.88-2.09 3.45-52.76 1.59-24.24 15.15 26.08 23.25-41.64 17.52 46.18.78.1Zm-2.74 28.76a5.9 5.9 0 0 0 6.53-5.64 6.6 6.6 0 0 0-5.7-7 5.9 5.9 0 0 0-6.54 5.64 6.62 6.62 0 0 0 5.71 7Zm-42.95-3.84a5.9 5.9 0 0 0 6.52-5.64 6.61 6.61 0 0 0-5.7-7 5.9 5.9 0 0 0-6.53 5.64 6.61 6.61 0 0 0 5.7 7Z"/><path fill="#003D81" d="m242.05 43.97 17.49-8.07-5.04 77-17.49 8.07 5.04-77Z"/></g><path fill="#FF3A29" d="M288.98 153.32H128.1l-26.03 25.86 26.03 25.85h160.88L315 179.18l-26.03-25.86Z"/><path fill="#fff" d="M143.31 164.31h6.4v1.73h-4.49v6.87h-1.92l.01-8.6ZM153.54 172.76a4.26 4.26 0 0 1-2.44-2.32 4.6 4.6 0 0 1-.35-1.83c0-.62.1-1.23.34-1.8a4.26 4.26 0 0 1 2.42-2.35c.6-.22 1.25-.33 1.9-.33.64 0 1.28.1 1.9.33a4.2 4.2 0 0 1 2.43 2.34c.23.58.34 1.2.33 1.81.01.63-.1 1.25-.34 1.83a4.13 4.13 0 0 1-2.44 2.32c-.6.22-1.23.32-1.87.32-.64 0-1.28-.1-1.88-.32Zm2.96-1.6c.31-.11.6-.29.84-.52.23-.25.4-.54.51-.86.13-.36.2-.74.2-1.13 0-.4-.07-.78-.21-1.15a2.47 2.47 0 0 0-1.4-1.43 2.93 2.93 0 0 0-2.07 0 2.4 2.4 0 0 0-1.4 1.43c-.13.37-.2.76-.2 1.15 0 .38.07.76.2 1.12a2.42 2.42 0 0 0 1.4 1.41 2.88 2.88 0 0 0 2.14-.02h-.01ZM162 164.31h4.02c.5 0 1.01.04 1.51.12.38.07.75.2 1.09.39.28.15.5.39.65.67.16.31.23.65.22 1a1.89 1.89 0 0 1-.34 1.11 1.9 1.9 0 0 1-.4.43c-.16.13-.33.23-.52.3a2.36 2.36 0 0 1 1.18.74c.14.18.25.38.31.6.07.23.1.46.1.7a2.15 2.15 0 0 1-.92 1.86c-.32.23-.69.4-1.08.49-.48.11-.97.17-1.47.16h-4.31l-.04-8.56Zm4.23 3.48c.17 0 .35-.01.52-.06.14-.04.27-.1.4-.18.1-.08.2-.19.25-.3a.95.95 0 0 0 .09-.42.81.81 0 0 0-.12-.46.79.79 0 0 0-.33-.27 1.98 1.98 0 0 0-.52-.14 5.43 5.43 0 0 0-.69-.04h-1.9v1.88h2.3Zm-.2 3.5c.26 0 .51-.02.77-.06.2-.03.38-.1.55-.19a.88.88 0 0 0 .34-.31c.08-.14.12-.3.11-.46a.92.92 0 0 0-.1-.46.85.85 0 0 0-.31-.3c-.16-.1-.34-.16-.52-.2a3.74 3.74 0 0 0-.72-.05h-2.21v2.03h2.09ZM174.1 172.76a4.13 4.13 0 0 1-2.44-2.32 4.62 4.62 0 0 1-.36-1.83c0-.62.1-1.23.34-1.8.22-.54.54-1.02.95-1.43.42-.4.92-.72 1.47-.92.6-.22 1.25-.33 1.9-.33.64 0 1.29.1 1.9.33.54.2 1.05.52 1.47.92.41.4.73.9.95 1.42.24.58.36 1.2.35 1.81 0 .63-.11 1.25-.34 1.83a4.14 4.14 0 0 1-2.44 2.32c-.6.22-1.24.32-1.88.32-.64 0-1.28-.1-1.88-.32Zm2.95-1.6c.31-.11.6-.29.84-.52.23-.25.4-.54.52-.86.13-.36.19-.74.19-1.13 0-.4-.07-.78-.2-1.15a2.6 2.6 0 0 0-.56-.87 2.5 2.5 0 0 0-.85-.55 2.87 2.87 0 0 0-2.08 0 2.4 2.4 0 0 0-1.39 1.42c-.14.37-.2.76-.2 1.15 0 .38.06.76.2 1.12a2.42 2.42 0 0 0 1.4 1.41 2.87 2.87 0 0 0 2.13-.02ZM182.54 164.31h1.89v1.19a3.9 3.9 0 0 1 1.2-.95 4.06 4.06 0 0 1 1.89-.4c.55-.01 1.1.09 1.62.3.5.19.94.49 1.31.87.39.4.69.88.88 1.4.22.6.33 1.24.32 1.88.01.63-.1 1.26-.32 1.86-.2.52-.49 1-.87 1.4-.38.4-.84.71-1.34.91a4.56 4.56 0 0 1-3.5-.06 3.17 3.17 0 0 1-1.18-.92v4.47h-1.91l.01-11.94Zm5.6 6.86c.3-.11.57-.29.8-.51.23-.25.4-.54.52-.87.13-.37.2-.77.18-1.17.01-.4-.05-.8-.19-1.17a2.47 2.47 0 0 0-.52-.86c-.23-.23-.51-.4-.82-.52a3.15 3.15 0 0 0-2.08 0 2.26 2.26 0 0 0-1.34 1.33c-.13.36-.2.73-.2 1.11v.27c0 .38.07.76.22 1.11a2.3 2.3 0 0 0 1.4 1.34c.34.12.69.18 1.04.18.34-.02.67-.1.98-.24ZM193.57 164.31h1.92v6.63l-.6-.2 5.2-6.43h1.69v8.59h-1.92v-6.61l.6.2-5.2 6.4h-1.69v-8.57ZM204.18 164.31h1.78l2.82 3.88 2.8-3.88h1.8v8.59h-1.92v-5.52l-2.47 3.4h-.43l-2.47-3.4v5.52h-1.91v-8.59ZM143.31 181.14h1.92v3.35h4.23v-3.35h1.91v8.59h-1.91v-3.52h-4.24v3.52h-1.92l.01-8.59ZM154.78 189.67a2.76 2.76 0 0 1-.92-.51c-.25-.22-.45-.5-.59-.8a2.58 2.58 0 0 1-.2-1.04c-.02-.41.08-.83.3-1.18.2-.3.47-.54.79-.71.35-.18.72-.3 1.1-.38a19.02 19.02 0 0 1 1.92-.28c.21-.04.41-.07.61-.12.2-.05.4-.09.58-.15.18-.05.35-.12.52-.2 0-.25-.03-.5-.1-.74-.08-.2-.2-.38-.35-.52a1.42 1.42 0 0 0-.57-.27 3.4 3.4 0 0 0-.82-.09 3.12 3.12 0 0 0-2.65 1.38l-1.16-1.12a4.31 4.31 0 0 1 2.85-1.88 5.63 5.63 0 0 1 2.74.12c.42.13.8.37 1.1.68.3.32.52.7.65 1.13.15.5.22 1.02.21 1.55V189.73h-1.86v-1.4a2.88 2.88 0 0 1-1.06 1.07 3.67 3.67 0 0 1-1.83.46c-.43 0-.85-.06-1.26-.19Zm2.6-1.54c.28-.1.55-.25.78-.44a2.06 2.06 0 0 0 .71-1.57v-.52l-.52.18-.52.14-.52.1-.49.08c-.25.04-.48.08-.7.14-.18.04-.37.11-.54.2a.97.97 0 0 0-.37.32.83.83 0 0 0-.13.48c0 .15.03.29.09.42.05.13.14.24.25.33.13.1.28.16.44.2.2.06.4.08.6.08.32 0 .63-.06.93-.17v.03ZM169.74 189.6a4.15 4.15 0 0 1-2.44-2.32 4.62 4.62 0 0 1-.35-1.84 4.3 4.3 0 0 1 1.29-3.22c.42-.4.92-.72 1.47-.93.6-.22 1.25-.33 1.9-.33.64 0 1.29.1 1.9.33a4.25 4.25 0 0 1 2.77 4.15c0 .63-.11 1.25-.35 1.83a4.12 4.12 0 0 1-2.43 2.32c-.6.22-1.24.33-1.88.32a5.4 5.4 0 0 1-1.88-.32Zm2.96-1.6c.31-.13.6-.31.84-.55.23-.25.4-.54.52-.86.13-.37.19-.75.19-1.13 0-.4-.07-.78-.2-1.15a2.49 2.49 0 0 0-2.44-1.62c-.36 0-.71.06-1.04.2-.32.11-.6.3-.84.55-.24.25-.43.55-.55.87-.14.37-.21.76-.2 1.15 0 .38.06.76.2 1.12a2.42 2.42 0 0 0 1.4 1.41c.33.13.7.2 1.06.2.36 0 .72-.07 1.06-.2ZM177.01 188h.98c.2-.34.37-.7.5-1.08.13-.43.24-.88.3-1.32.1-.54.15-1.07.17-1.6.04-.59.05-1.24.05-1.95v-.9h6.56v8.58h-1.91v-6.86h-2.9v.54a13.5 13.5 0 0 1-.5 3.67c-.08.32-.2.63-.34.93h4.68v1.72h-5.84v1.96H177l.01-3.68Zm8.05 1.73h-.58V188h2.34v3.68h-1.76v-1.96ZM188.47 181.14h1.92v3.35h4.23v-3.35h1.91v8.59h-1.91v-3.52h-4.23v3.52h-1.92v-8.59ZM201.25 189.6a4.19 4.19 0 0 1-2.45-2.32 4.7 4.7 0 0 1-.35-1.84c-.01-.62.1-1.23.34-1.8a4.14 4.14 0 0 1 2.42-2.35c.6-.22 1.25-.34 1.9-.33.65 0 1.3.1 1.9.33a4.24 4.24 0 0 1 2.77 4.15 4.7 4.7 0 0 1-.35 1.83 4.1 4.1 0 0 1-2.43 2.32c-.6.22-1.24.33-1.88.32-.64 0-1.27-.1-1.88-.32Zm2.95-1.6c.32-.13.6-.31.84-.55.23-.25.4-.54.52-.86.12-.37.19-.75.18-1.13 0-.4-.06-.78-.2-1.15a2.64 2.64 0 0 0-.55-.87 2.36 2.36 0 0 0-.84-.56 2.85 2.85 0 0 0-2.08 0c-.32.12-.6.31-.84.56-.24.25-.43.54-.55.87-.14.37-.21.76-.2 1.15 0 .38.06.76.2 1.12a2.44 2.44 0 0 0 1.39 1.41 2.93 2.93 0 0 0 2.14 0ZM209.7 181.14h1.79l2.8 3.88 2.8-3.88h1.8v8.59h-1.92v-5.51l-2.47 3.39h-.43l-2.47-3.4v5.52h-1.9v-8.59ZM227.37 186.6a2.74 2.74 0 0 1-1.46-.93 2.68 2.68 0 0 1-.53-1.7c0-.37.06-.73.2-1.08.14-.34.36-.65.64-.9.33-.28.72-.49 1.14-.61a5.44 5.44 0 0 1 1.7-.24H233v8.59h-1.91v-2.86h-1.73l-2.17 2.86h-2.29l2.48-3.12Zm3.71-1.36v-2.37h-2c-.25 0-.52.02-.77.08-.19.04-.37.12-.52.23a.94.94 0 0 0-.3.38c-.06.16-.09.34-.09.52 0 .16.04.32.1.47.08.14.18.27.31.37.16.12.34.2.53.25.22.06.46.09.7.08h2.04ZM237.45 189.8c-.4-.09-.78-.22-1.15-.4a4.14 4.14 0 0 1-.93-.62 5.05 5.05 0 0 1-.75-.83l1.31-1.06c.16.19.33.36.52.51a3.39 3.39 0 0 0 2.33.83c.26 0 .53-.02.79-.07.2-.05.4-.12.57-.23.14-.09.26-.2.35-.35a.98.98 0 0 0 .11-.49.92.92 0 0 0-.08-.4.8.8 0 0 0-.3-.3 1.54 1.54 0 0 0-.52-.17 4.87 4.87 0 0 0-.8-.05h-1.47v-1.58h1.43c.21 0 .43-.01.64-.05.16-.04.31-.1.45-.19.11-.07.2-.17.26-.3a.92.92 0 0 0 .1-.4.77.77 0 0 0-.15-.46.99.99 0 0 0-.37-.31 2.04 2.04 0 0 0-.55-.17 4.5 4.5 0 0 0-1.58.05 2.53 2.53 0 0 0-1.2.66l-.46.46-1.18-1.1a4.03 4.03 0 0 1 1.54-1.3 5 5 0 0 1 2.37-.52c.52 0 1.05.06 1.56.18.4.1.79.27 1.14.5.29.18.53.44.7.75a1.94 1.94 0 0 1 .16 1.47c-.05.17-.13.34-.23.48-.11.16-.25.3-.4.43-.17.14-.36.26-.56.35v.03c.26.06.5.17.73.32.19.12.35.28.48.46.13.16.22.35.27.55.06.21.09.42.08.64 0 .4-.1.8-.29 1.16-.2.35-.46.65-.8.88-.36.25-.76.44-1.19.55-.49.13-1 .2-1.5.2-.48.01-.96-.02-1.43-.11ZM244.61 181.14h1.92v2.51h1.64c.58-.01 1.16.07 1.72.25.4.13.78.36 1.1.66.26.27.47.6.58.96a3.7 3.7 0 0 1-.01 2.31c-.13.37-.34.7-.62.98-.33.3-.71.53-1.14.67a5.3 5.3 0 0 1-1.75.25h-3.42l-.02-8.59Zm3.32 6.9c.28 0 .56-.02.83-.08.2-.05.39-.14.55-.26.14-.11.25-.26.32-.43.07-.18.1-.37.1-.57 0-.2-.03-.4-.1-.59a1.07 1.07 0 0 0-.32-.42 1.42 1.42 0 0 0-.56-.26c-.27-.06-.54-.1-.82-.09h-1.4v2.7h1.4Zm4.81-6.9h1.91v8.59h-1.91v-8.59ZM257.04 181.14h1.91v8.59h-1.9v-8.59Zm1.75 4.14 3.73-4.14H265l-3.92 4 4.22 4.59h-2.57l-3.94-4.45ZM268.29 189.6a3.99 3.99 0 0 1-2.38-2.31 5.2 5.2 0 0 1-.02-3.61 4.08 4.08 0 0 1 2.3-2.38 5.09 5.09 0 0 1 1.92-.34c.58 0 1.16.1 1.71.3a3.85 3.85 0 0 1 2.23 2.15c.22.55.33 1.14.33 1.73v.4c0 .16 0 .33-.04.52h-7.6v-1.45h6.68l-.85.59c0-.37-.06-.74-.18-1.1-.1-.29-.27-.56-.49-.8a2.12 2.12 0 0 0-.77-.48 2.95 2.95 0 0 0-1.04-.17c-.38 0-.75.06-1.1.2-.32.11-.6.3-.83.54-.23.25-.4.54-.52.86-.12.37-.18.75-.17 1.13-.01.42.05.84.18 1.24.1.33.28.63.52.9.24.23.53.4.85.5a3.9 3.9 0 0 0 2.8-.15 3.83 3.83 0 0 0 1.25-.82l1.04 1.24a6 6 0 0 1-1.8 1.22 5.45 5.45 0 0 1-2.15.4 5.5 5.5 0 0 1-1.87-.32Z"/><defs><clipPath id="a"><path fill="#fff" d="M127.32 12h160.56v166.57H127.32z"/></clipPath></defs></svg>