<svg xmlns="http://www.w3.org/2000/svg" viewBox="0 0 301 50"><path d="M141.43 47.97a24.38 24.38 0 0 1-17.16-6.84 23.15 23.15 0 0 1-6.83-16.6c0-3.25.6-6.3 1.82-9.12a22.97 22.97 0 0 1 5-7.48 24.32 24.32 0 0 1 17.17-6.84c3.42 0 6.6.61 9.52 1.84a23.56 23.56 0 0 1 7.58 5 22.5 22.5 0 0 1 5.07 7.48 22.94 22.94 0 0 1 1.81 9.12 22.68 22.68 0 0 1-6.89 16.6 23.56 23.56 0 0 1-7.57 5 24.38 24.38 0 0 1-9.52 1.84Zm0-8.49c2.08 0 4-.35 5.76-1.07a13.65 13.65 0 0 0 7.58-7.8 16.9 16.9 0 0 0 1.06-6.08c0-2.2-.35-4.2-1.06-6.02a13.53 13.53 0 0 0-3-4.75 13.6 13.6 0 0 0-4.58-3.04 14.33 14.33 0 0 0-5.76-1.14c-2.1 0-4.01.38-5.77 1.14a13.61 13.61 0 0 0-7.64 7.8 16.42 16.42 0 0 0-1.06 6.01c0 2.2.36 4.23 1.06 6.08a14.45 14.45 0 0 0 3.07 4.7c1.3 1.3 2.82 2.34 4.57 3.1 1.76.72 3.68 1.07 5.77 1.07ZM60.74 46.88V2.18h13.7l11.04 25.93h1.71l11.1-25.93h13.7v44.7h-9.07v-29.5l.57-5.17h-.57L92.45 36.6H80.28L69.8 12.2h-.57l.57 5.17v29.5h-9.07ZM23.46 36.48v-23.9c-2 .08-3.81.44-5.43 1.07-1.62.63-3 1.49-4.15 2.58A11.81 11.81 0 0 0 11.19 20c-.64 1.39-.96 2.9-.96 4.53 0 1.6.32 3.1.96 4.53a11.81 11.81 0 0 0 2.69 3.78 12.58 12.58 0 0 0 4.15 2.57c1.62.63 3.43.99 5.43 1.07Zm0 12.58V44.6c-3.45-.17-6.58-.8-9.4-1.89a23.36 23.36 0 0 1-7.15-4.34A18.49 18.49 0 0 1 .77 24.53c0-2.68.54-5.2 1.6-7.55a18.96 18.96 0 0 1 4.54-6.29c2-1.8 4.39-3.25 7.16-4.34a29.86 29.86 0 0 1 9.4-1.88V0h9.13v4.47c3.45.16 6.56.8 9.33 1.88a22.4 22.4 0 0 1 7.16 4.34 18.56 18.56 0 0 1 4.6 21.45 18.74 18.74 0 0 1-4.6 6.23 22.39 22.39 0 0 1-7.16 4.34 29.22 29.22 0 0 1-9.33 1.89v4.46h-9.14Zm9.14-12.58c2-.08 3.82-.44 5.44-1.07a11.81 11.81 0 0 0 6.9-6.35c.64-1.42.96-2.93.96-4.53 0-1.63-.32-3.14-.96-4.53a11.81 11.81 0 0 0-6.9-6.35 16.87 16.87 0 0 0-5.44-1.07v23.9ZM258.05 44.5v-7.09h1.45v4.87h.13l3.21-4.87h1.6v7.09h-1.46v-4.72l.01-.14h-.14l-3.2 4.86h-1.6Zm1.04-9.87h1.18c0 .5.28.77.97.77.7 0 .97-.28.97-.77h1.19c0 1.05-.7 1.81-2.16 1.81-1.46 0-2.15-.76-2.15-1.8ZM249.85 44.5V37.4h1.46v4.73l-.02.13h.14l3.21-4.86h1.6v7.09h-1.46v-4.73l.01-.14h-.13l-3.22 4.87h-1.6ZM241.65 44.5V37.4h1.46v2.85h3.47v-2.85h1.46v7.09h-1.46v-2.92h-3.47v2.92h-1.46ZM233.03 40.96a3.6 3.6 0 0 1 3.61-3.69 3.6 3.6 0 0 1 3.62 3.69v.48h-5.77a2.16 2.16 0 0 0 2.15 1.88c1.46 0 2.02-.97 2.02-.97h1.53s-.77 2.29-3.55 2.29a3.6 3.6 0 0 1-3.61-3.68Zm1.53-.7h4.17a2 2 0 0 0-2.09-1.66c-.97 0-1.87.62-2.08 1.66ZM222.68 44.5V37.4h1.46v5.77h2.3V37.4h1.45v5.77h2.3V37.4h1.46v7.09h-8.97ZM213.93 40.96c0-2.09 1.6-3.69 3.69-3.69 2.08 0 3.68 1.6 3.68 3.69 0 2.08-1.6 3.68-3.69 3.68a3.62 3.62 0 0 1-3.68-3.68Zm1.53 0c0 1.46.9 2.36 2.16 2.36 1.25 0 2.15-.9 2.15-2.36s-.9-2.37-2.16-2.37c-1.25 0-2.15.9-2.15 2.37ZM206.15 44.5V37.4h1.46v2.85h3.47v-2.85h1.46v7.09h-1.46v-2.92h-3.47v2.92h-1.46ZM198.92 38.73v-1.32h6.19v1.32h-2.37v5.77h-1.46v-5.77h-2.36ZM187.73 39.64a5.06 5.06 0 0 1 5.22-5.14 5.06 5.06 0 0 1 5.2 5.14 5.06 5.06 0 0 1-5.2 5.14 5.06 5.06 0 0 1-5.22-5.14Zm1.67 0c0 2.15 1.46 3.61 3.54 3.61 2.09 0 3.55-1.46 3.55-3.61s-1.46-3.61-3.55-3.61c-2.08 0-3.54 1.46-3.54 3.6ZM293.76 28.93l2.15-3.55-2.08-3.54h1.67l1.6 2.85h.34l1.6-2.85h1.67l-2.09 3.54 2.16 3.55h-1.67L297.44 26h-.35l-1.66 2.92h-1.67ZM291.26 28.93v-7.09h1.46v7.09h-1.46Zm-6.4 0v-7.09h1.47v2.36h1.46c1.66 0 2.7 1.04 2.7 2.36 0 1.32-1.04 2.37-2.7 2.37h-2.92Zm1.47-1.32h1.46c.76 0 1.18-.42 1.18-1.05 0-.62-.42-1.04-1.18-1.04h-1.46v2.09ZM276.67 28.93v-7.09h1.46v2.85h3.47v-2.85h1.46v7.09h-1.46V26h-3.47v2.92h-1.46ZM267.91 30.46V27.6h.7l1.6-5.77h3.12l1.6 5.77h.7v2.85h-1.33v-1.53h-5.07v1.53h-1.32Zm2.22-2.85h3.27l-1.18-4.45h-.9l-1.19 4.45ZM259.92 25.39c0-2.09 1.6-3.69 3.68-3.69 2.09 0 3.69 1.6 3.69 3.69 0 2.08-1.6 3.68-3.69 3.68a3.62 3.62 0 0 1-3.68-3.68Zm1.53 0c0 1.46.9 2.36 2.15 2.36s2.16-.9 2.16-2.36-.9-2.37-2.16-2.37c-1.25 0-2.15.9-2.15 2.37ZM251.87 31.57v-9.73h1.46v.9h.07s.76-1.04 2.22-1.04c1.88 0 3.33 1.46 3.33 3.69 0 2.22-1.45 3.68-3.33 3.68-1.46 0-2.22-1.04-2.22-1.04h-.07v3.54h-1.46Zm1.46-6.18c0 1.52.83 2.36 2.01 2.36 1.25 0 2.09-.84 2.09-2.36 0-1.53-.84-2.37-2.09-2.37-1.18 0-2.01.84-2.01 2.37ZM242.98 25.39c0-2.23 1.46-3.69 3.34-3.69a2.88 2.88 0 0 1 2.22 1.05h.07v-.9h1.46v7.08h-1.46v-.97h-.07s-.76 1.1-2.22 1.1c-1.88 0-3.34-1.45-3.34-3.67Zm1.53 0c0 1.52.83 2.36 2.08 2.36 1.19 0 2.02-.84 2.02-2.36 0-1.53-.84-2.37-2.02-2.37-1.25 0-2.08.84-2.08 2.37ZM235.2 28.93v-7.09h1.46v2.85h3.47v-2.85h1.46v7.09h-1.46V26h-3.47v2.92h-1.46ZM227.28 21.84h1.53l1.53 5.7h.76l1.67-5.7h1.53l-2.92 9.73h-1.53l.84-2.64h-1.46l-1.95-7.09ZM219.42 30.46V27.6h.7l1.6-5.77h3.12l1.6 5.77h.7v2.85h-1.33v-1.53h-5.07v1.53h-1.32Zm2.22-2.85h3.27l-1.18-4.45h-.9l-1.19 4.45ZM208.1 28.93l2.64-3.82-2.43-3.27h1.66l2.02 2.78h.9v-2.78h1.46v2.78h.9l2.02-2.78h1.67l-2.44 3.27 2.64 3.82h-1.73l-2.09-3h-.97v3h-1.46v-3h-.97l-2.09 3h-1.73ZM200.52 25.39a3.6 3.6 0 0 1 3.6-3.69 3.6 3.6 0 0 1 3.62 3.69v.48h-5.77a2.16 2.16 0 0 0 2.16 1.88c1.46 0 2.01-.97 2.01-.97h1.53s-.76 2.29-3.54 2.29a3.6 3.6 0 0 1-3.61-3.68Zm1.52-.7h4.17a2 2 0 0 0-2.08-1.67c-.97 0-1.88.63-2.09 1.67ZM188.15 28.93V19.2h2.64l2.64 6.04h.35l2.64-6.04h2.57v9.73h-1.6v-6.81l.14-1.32h-.14l-2.57 5.9h-2.5l-2.57-5.9h-.14l.14 1.32v6.8h-1.6ZM251.65 7.58V6.26h6.18v1.32h-2.36v5.77h-1.46V7.58h-2.36ZM243.8 9.8a3.6 3.6 0 0 1 3.61-3.68 3.6 3.6 0 0 1 3.62 3.69v.48h-5.77a2.16 2.16 0 0 0 2.15 1.88c1.46 0 2.02-.97 2.02-.97h1.53s-.77 2.29-3.55 2.29a3.6 3.6 0 0 1-3.61-3.68Zm1.53-.69h4.17a2 2 0 0 0-2.09-1.67c-.97 0-1.87.63-2.08 1.67ZM236.99 7.58V6.26h6.18v1.32h-2.36v5.77h-1.46V7.58H237ZM230.87 13.35V6.26h1.46v2.36h1.74c1.66 0 2.7 1.04 2.7 2.36 0 1.32-1.04 2.37-2.7 2.37h-3.2Zm1.46-1.32h1.74c.76 0 1.18-.42 1.18-1.05 0-.62-.42-1.04-1.18-1.04h-1.74v2.09ZM222.81 13.35l1.95-7.09h3.13l1.94 7.09h-1.53l-1.53-5.77h-.9l-1.53 5.77h-1.53ZM215.87 6.26h1.52l1.53 5.7h.77l1.66-5.7h1.53l-2.91 9.73h-1.53l.83-2.64h-1.46l-1.94-7.09ZM209.05 13.35V6.26h1.46v2.78h1.04l2.16-2.78h1.66l-2.57 3.27 2.78 3.82h-1.8l-2.16-2.99h-1.11v2.99h-1.46ZM200.16 9.8c0-2.22 1.46-3.68 3.34-3.68a2.88 2.88 0 0 1 2.22 1.05h.07v-.9h1.46v7.08h-1.46v-.97h-.07s-.76 1.1-2.22 1.1c-1.88 0-3.34-1.45-3.34-3.67Zm1.53 0c0 1.54.84 2.37 2.09 2.37 1.18 0 2.01-.83 2.01-2.36 0-1.53-.83-2.37-2.01-2.37-1.25 0-2.09.84-2.09 2.37ZM187.66 8.42c0-2.37 2.02-4.31 4.94-4.38V3h1.6v1.04c2.91.07 4.93 2.01 4.93 4.38 0 2.36-2.02 4.3-4.94 4.37v1.05h-1.6v-1.05c-2.91-.07-4.93-2.01-4.93-4.37Zm6.53 2.92c2.02-.07 3.27-1.26 3.27-2.92 0-1.67-1.25-2.85-3.27-2.92v5.84Zm-4.86-2.92c0 1.66 1.25 2.85 3.27 2.92V5.5c-2.02.07-3.27 1.25-3.27 2.92Z"/></svg>