<svg xmlns="http://www.w3.org/2000/svg" viewBox="0 0 32 32"><g clip-path="url(#a)"><path fill-rule="evenodd" d="M2.25 2.25C0 4.5 0 8.12 0 15.36v1.28c0 7.24 0 10.86 2.25 13.11S8.12 32 15.36 32h1.28c7.24 0 10.86 0 13.11-2.25S32 23.88 32 16.64v-1.28c0-7.24 0-10.86-2.25-13.11S23.88 0 16.64 0h-1.28C8.12 0 4.5 0 2.25 2.25ZM5.4 9.73c.17 8.32 4.33 13.32 11.63 13.32h.41V18.3c2.68.27 4.7 2.23 5.52 4.76h3.79a10.53 10.53 0 0 0-5.48-6.68c1.7-.98 4.1-3.38 4.68-6.64H22.5c-.75 2.64-2.96 5.04-5.07 5.27V9.73H14v9.23c-2.13-.53-4.83-3.12-4.95-9.23H5.4Z" clip-rule="evenodd"/></g><defs><clipPath id="a"><path d="M0 0h32v32H0z"/></clipPath></defs></svg>