<svg xmlns="http://www.w3.org/2000/svg" viewBox="0 0 32 32"><path d="m0 32 2.26-8.22a15.77 15.77 0 0 1-2.13-7.93C.13 7.11 7.3 0 16.07 0a15.87 15.87 0 1 1 0 31.73 16 16 0 0 1-7.62-1.94L0 32Zm8.84-5.08a13.4 13.4 0 0 0 7.22 2.13c7.3 0 13.25-5.92 13.25-13.18a13.2 13.2 0 0 0-13.24-13.2c-7.3 0-13.24 5.92-13.25 13.19 0 2.96.88 5.18 2.34 7.5l-1.34 4.87 5.02-1.3Zm15.25-7.28c-.1-.17-.36-.27-.76-.46a65 65 0 0 0-2.72-1.3c-.37-.13-.63-.2-.9.2a23.3 23.3 0 0 1-1.26 1.56c-.23.26-.46.3-.86.1-.4-.2-1.68-.62-3.2-1.97a11.94 11.94 0 0 1-2.22-2.74c-.23-.4-.02-.62.18-.81.18-.18.4-.47.6-.7.2-.23.26-.4.4-.66.13-.26.06-.5-.04-.7-.1-.19-.9-2.14-1.22-2.93-.33-.78-.66-.67-.9-.68l-.76-.02c-.27 0-.7.1-1.07.5-.36.4-1.39 1.35-1.39 3.3 0 1.96 1.43 3.84 1.63 4.1.2.27 2.8 4.27 6.8 5.99.95.4 1.69.65 2.27.83.95.3 1.82.26 2.5.16.77-.12 2.36-.96 2.7-1.89.32-.92.32-1.72.22-1.88Z"/></svg>