<svg xmlns="http://www.w3.org/2000/svg" viewBox="0 0 40 40"><g clip-path="url(#a)"><path d="M39.86 20.82C40.357 9.787 31.815.439 20.78-.06 9.746-.555.397 7.987-.1 19.02-.597 30.055 7.945 39.403 18.98 39.9c11.034.498 20.382-8.045 20.88-19.08Z"/><path fill="#fff" d="M20.616 29C12.075 29 7.203 22.994 7 13h4.279c.14 7.335 3.294 10.442 5.793 11.083V13H21.1v6.326c2.467-.272 5.059-3.155 5.933-6.326h4.029c-.671 3.908-3.482 6.79-5.481 7.976 1.999.96 5.2 3.475 6.418 8.024h-4.435c-.952-3.043-3.326-5.397-6.464-5.718V29h-.485Z"/></g><defs><clipPath id="a"><path fill="#fff" d="M0 0h40v40H0z"/></clipPath></defs></svg>