<svg xmlns="http://www.w3.org/2000/svg" viewBox="0 0 40 40"><path fill-rule="evenodd" d="M40 20c0 8.848-5.745 16.352-13.708 18.99A19.978 19.978 0 0 1 20 40h-.242C8.824 39.87 0 30.966 0 20.001c0-11.045 8.954-20 20-20C31.045.001 40 8.954 40 20Z" clip-rule="evenodd"/><path fill="#fff" fill-rule="evenodd" d="m31.173 11.495-3.347 20.532c-.16.98-1.45 1.296-2.348.585l-7.854-6.216c-1.119-.886-1.291-2.384-.401-3.333l6.301-6.713c.367-.391-.236-.929-.698-.627l-9.7 6.334a2.448 2.448 0 0 1-2.324.168L5.627 19.91c-.911-.408-.82-1.682.135-1.995l23.447-7.674c1.007-.33 2.109.365 1.964 1.254Z" clip-rule="evenodd"/></svg>