<svg xmlns="http://www.w3.org/2000/svg" viewBox="0 0 31 32"><g clip-path="url(#a)"><path fill-rule="evenodd" d="M31 16c0 8.84-6.94 16-15.5 16C6.94 32 0 24.84 0 16S6.94 0 15.5 0C24.06 0 31 7.16 31 16Zm-14.94-4.19c-1.51.65-4.53 1.99-9.04 4.02-.74.3-1.12.6-1.16.89-.06.48.53.67 1.34.93l.34.12c.79.26 1.85.57 2.4.58.51.02 1.07-.2 1.69-.64 4.22-2.94 6.4-4.42 6.54-4.46.1-.02.23-.05.32.04.09.08.08.24.07.28-.06.26-2.38 2.48-3.58 3.63a42.95 42.95 0 0 0-1.06 1.05c-.73.73-1.28 1.28.03 2.17.64.43 1.14.79 1.65 1.14a115.5 115.5 0 0 0 2.34 1.64c.64.47 1.22.9 1.93.82.41-.03.84-.44 1.06-1.64a195.2 195.2 0 0 0 1.75-11.5c.02-.22 0-.5-.02-.63a.68.68 0 0 0-.22-.43 1 1 0 0 0-.6-.19c-.59.01-1.48.33-5.78 2.18Z" clip-rule="evenodd"/></g><defs><clipPath id="a"><path d="M0 0h31v32H0z"/></clipPath></defs></svg>