<svg xmlns="http://www.w3.org/2000/svg" fill="none" viewBox="0 0 187 60"><g clip-path="url(#a)"><mask id="b" width="187" height="60" x="0" y="0" maskUnits="userSpaceOnUse" style="mask-type:luminance"><path fill="#fff" d="M186.8.1H.3v59.43h186.5V.1Z"/></mask><g mask="url(#b)"><path fill="#39B39D" d="M172 12.7V25.3l12.58 12.57V12.71H172Z"/><path fill="#A3CA00" d="m146.83.14 12.58 12.58h12.58V.14h-25.2.04Z"/><path fill="#005C50" d="M184.58.14H172v12.58h12.58V.14ZM18.92 30.72h.09l5 14.17H13.87l5-14.17h.04Zm-3.79-9.21L1.48 57.8h7.84l2.2-6.24h14.94l2.2 6.25h8L23.02 21.5h-7.88Z"/><path fill="#005C50" d="M52.47 30.72h.09l5 14.17H47.42l5-14.17h.04Zm-3.79-9.21L35.03 57.77h7.84l2.2-6.24H60l2.2 6.24h8L56.57 21.51h-7.88Z"/><mask id="c" width="184" height="59" x="1" y="0" maskUnits="userSpaceOnUse" style="mask-type:luminance"><path fill="#fff" d="M184.64.15H1.5V58.5h183.14V.15Z"/></mask><g fill="#005C50" mask="url(#c)"><path d="M124.62 47.71c0-7.15-19.43-1.55-19.43-15.72 0-6.12 4.87-11.2 13.22-11.2 8.36 0 13.31 5.56 13.49 12.1h-7.33c-.17-3.18-2.41-5.47-6.29-5.47-3.53 0-5.77 1.73-5.77 4.1 0 7.23 19.64 1.55 19.64 15.93 0 6.5-5.73 11.11-14.34 11.11-10.08 0-13.78-6.24-14-12.23h7.37c.21 2.97 2.37 5.56 7.06 5.56 4 0 6.38-1.55 6.38-4.18ZM134.95 57.82V21.5h15.33c8.31 0 12.06 4.43 12.06 9.95a8.44 8.44 0 0 1-5.04 8 8.3 8.3 0 0 1 5.56 8.02c0 6.25-4.05 10.3-11.93 10.3h-15.98v.04Zm7.23-29.5v7.88h8.02c2.84 0 4.6-1.34 4.6-3.92 0-2.16-1.33-3.92-4.6-3.92h-8.02v-.05Zm0 14.5v8.28h8.53c3.19 0 4.61-1.6 4.61-4.14 0-2.54-1.42-4.13-4.6-4.13h-8.54ZM94.55 46.34c-1.6 3.28-4.82 5.04-8.87 5.04-6.63 0-10.38-4.6-10.38-11.76 0-7.15 3.75-11.76 10.38-11.76 4.87 0 8.53 2.55 9.6 7.11h7.97c-1.38-8.83-8.53-14.21-17.57-14.21-10.43 0-18.26 7.5-18.26 18.86 0 11.37 7.83 18.87 18.26 18.87 8.31 0 15.03-4.57 17.14-12.15h-8.27Z"/></g></g></g><defs><clipPath id="a"><path fill="#fff" d="M.32.19h186.5v59.44H.32z"/></clipPath></defs></svg>